%TF.GenerationSoftware,KiCad,Pcbnew,(6.0.7)*%
%TF.CreationDate,2022-11-12T16:25:57+00:00*%
%TF.ProjectId,pico-euro,7069636f-2d65-4757-926f-2e6b69636164,rev?*%
%TF.SameCoordinates,Original*%
%TF.FileFunction,Drillmap*%
%TF.FilePolarity,Positive*%
%FSLAX45Y45*%
G04 Gerber Fmt 4.5, Leading zero omitted, Abs format (unit mm)*
G04 Created by KiCad (PCBNEW (6.0.7)) date 2022-11-12 16:25:57*
%MOMM*%
%LPD*%
G01*
G04 APERTURE LIST*
%ADD10C,0.100000*%
%ADD11C,0.200000*%
%ADD12C,0.040000*%
%ADD13C,0.050000*%
%ADD14C,0.060000*%
%ADD15C,0.075000*%
%ADD16C,0.080000*%
%ADD17C,0.090000*%
%ADD18C,0.102000*%
%ADD19C,0.110000*%
%ADD20C,0.120000*%
%ADD21C,0.220000*%
G04 APERTURE END LIST*
D10*
X2874000Y-13586000D02*
G75*
G03*
X2924000Y-13636000I50000J0D01*
G01*
X18874000Y-3686000D02*
G75*
G03*
X18824000Y-3636000I-50000J0D01*
G01*
X2924000Y-13636000D02*
X10441000Y-13636000D01*
X11203000Y-13636000D02*
X11139500Y-13589000D01*
X18874000Y-3686000D02*
X18874000Y-13586000D01*
X10441000Y-13636000D02*
X10504500Y-13589000D01*
X2924000Y-3636000D02*
X18824000Y-3636000D01*
X11139500Y-13589000D02*
G75*
G03*
X10504500Y-13589000I-317500J-635000D01*
G01*
X2924000Y-3636000D02*
G75*
G03*
X2874000Y-3686000I0J-50000D01*
G01*
X2874000Y-13586000D02*
X2874000Y-3686000D01*
X18824000Y-13636000D02*
X11203000Y-13636000D01*
X18824000Y-13636000D02*
G75*
G03*
X18874000Y-13586000I0J50000D01*
G01*
D11*
D12*
X13283250Y-5949000D02*
X13323250Y-5989000D01*
X13323250Y-5949000D02*
X13283250Y-5989000D01*
X13600750Y-4552000D02*
X13640750Y-4592000D01*
X13640750Y-4552000D02*
X13600750Y-4592000D01*
D13*
X10312000Y-5238750D02*
G75*
G03*
X10312000Y-5238750I-25000J0D01*
G01*
X15696800Y-5994400D02*
G75*
G03*
X15696800Y-5994400I-25000J0D01*
G01*
X16217500Y-5651500D02*
G75*
G03*
X16217500Y-5651500I-25000J0D01*
G01*
X16484200Y-10007600D02*
G75*
G03*
X16484200Y-10007600I-25000J0D01*
G01*
X16636600Y-5638800D02*
G75*
G03*
X16636600Y-5638800I-25000J0D01*
G01*
X16814400Y-5613400D02*
G75*
G03*
X16814400Y-5613400I-25000J0D01*
G01*
X17271600Y-5994400D02*
G75*
G03*
X17271600Y-5994400I-25000J0D01*
G01*
D14*
X3111500Y-4002250D02*
X3111500Y-4062250D01*
X3081500Y-4032250D02*
X3141500Y-4032250D01*
X3206750Y-3907000D02*
X3206750Y-3967000D01*
X3176750Y-3937000D02*
X3236750Y-3937000D01*
X3302000Y-3811750D02*
X3302000Y-3871750D01*
X3272000Y-3841750D02*
X3332000Y-3841750D01*
X9874250Y-6955000D02*
X9874250Y-7015000D01*
X9844250Y-6985000D02*
X9904250Y-6985000D01*
X10439400Y-11679400D02*
X10439400Y-11739400D01*
X10409400Y-11709400D02*
X10469400Y-11709400D01*
X10572750Y-5494500D02*
X10572750Y-5554500D01*
X10542750Y-5524500D02*
X10602750Y-5524500D01*
X10572750Y-5780250D02*
X10572750Y-5840250D01*
X10542750Y-5810250D02*
X10602750Y-5810250D01*
X10629900Y-11679400D02*
X10629900Y-11739400D01*
X10599900Y-11709400D02*
X10659900Y-11709400D01*
X10636250Y-6510500D02*
X10636250Y-6570500D01*
X10606250Y-6540500D02*
X10666250Y-6540500D01*
X10636250Y-6764500D02*
X10636250Y-6824500D01*
X10606250Y-6794500D02*
X10666250Y-6794500D01*
X10636250Y-7018500D02*
X10636250Y-7078500D01*
X10606250Y-7048500D02*
X10666250Y-7048500D01*
X10756900Y-11679400D02*
X10756900Y-11739400D01*
X10726900Y-11709400D02*
X10786900Y-11709400D01*
X10960100Y-11679400D02*
X10960100Y-11739400D01*
X10930100Y-11709400D02*
X10990100Y-11709400D01*
X11112500Y-11107900D02*
X11112500Y-11167900D01*
X11082500Y-11137900D02*
X11142500Y-11137900D01*
X14763750Y-9082250D02*
X14763750Y-9142250D01*
X14733750Y-9112250D02*
X14793750Y-9112250D01*
X15017750Y-9685500D02*
X15017750Y-9745500D01*
X14987750Y-9715500D02*
X15047750Y-9715500D01*
X15240000Y-9082250D02*
X15240000Y-9142250D01*
X15210000Y-9112250D02*
X15270000Y-9112250D01*
X15525750Y-9622000D02*
X15525750Y-9682000D01*
X15495750Y-9652000D02*
X15555750Y-9652000D01*
D15*
X3709517Y-10926317D02*
X3709517Y-10873283D01*
X3656483Y-10873283D01*
X3656483Y-10926317D01*
X3709517Y-10926317D01*
X3709517Y-11126317D02*
X3709517Y-11073283D01*
X3656483Y-11073283D01*
X3656483Y-11126317D01*
X3709517Y-11126317D01*
X3709517Y-11326317D02*
X3709517Y-11273283D01*
X3656483Y-11273283D01*
X3656483Y-11326317D01*
X3709517Y-11326317D01*
D16*
X3300000Y-10200000D02*
X3340000Y-10160000D01*
X3300000Y-10120000D01*
X3260000Y-10160000D01*
X3300000Y-10200000D01*
X3300000Y-10450000D02*
X3340000Y-10410000D01*
X3300000Y-10370000D01*
X3260000Y-10410000D01*
X3300000Y-10450000D01*
X3302000Y-8517250D02*
X3342000Y-8477250D01*
X3302000Y-8437250D01*
X3262000Y-8477250D01*
X3302000Y-8517250D01*
X3302000Y-8767250D02*
X3342000Y-8727250D01*
X3302000Y-8687250D01*
X3262000Y-8727250D01*
X3302000Y-8767250D01*
X3429000Y-6900000D02*
X3469000Y-6860000D01*
X3429000Y-6820000D01*
X3389000Y-6860000D01*
X3429000Y-6900000D01*
X3429000Y-7150000D02*
X3469000Y-7110000D01*
X3429000Y-7070000D01*
X3389000Y-7110000D01*
X3429000Y-7150000D01*
D17*
X4273000Y-11131000D02*
X4363000Y-11221000D01*
X4363000Y-11131000D02*
X4273000Y-11221000D01*
X4363000Y-11176000D02*
G75*
G03*
X4363000Y-11176000I-45000J0D01*
G01*
X4273000Y-11385000D02*
X4363000Y-11475000D01*
X4363000Y-11385000D02*
X4273000Y-11475000D01*
X4363000Y-11430000D02*
G75*
G03*
X4363000Y-11430000I-45000J0D01*
G01*
X4273000Y-11639000D02*
X4363000Y-11729000D01*
X4363000Y-11639000D02*
X4273000Y-11729000D01*
X4363000Y-11684000D02*
G75*
G03*
X4363000Y-11684000I-45000J0D01*
G01*
X4273000Y-12147000D02*
X4363000Y-12237000D01*
X4363000Y-12147000D02*
X4273000Y-12237000D01*
X4363000Y-12192000D02*
G75*
G03*
X4363000Y-12192000I-45000J0D01*
G01*
X4273000Y-12401000D02*
X4363000Y-12491000D01*
X4363000Y-12401000D02*
X4273000Y-12491000D01*
X4363000Y-12446000D02*
G75*
G03*
X4363000Y-12446000I-45000J0D01*
G01*
X4273000Y-12655000D02*
X4363000Y-12745000D01*
X4363000Y-12655000D02*
X4273000Y-12745000D01*
X4363000Y-12700000D02*
G75*
G03*
X4363000Y-12700000I-45000J0D01*
G01*
X4273000Y-12909000D02*
X4363000Y-12999000D01*
X4363000Y-12909000D02*
X4273000Y-12999000D01*
X4363000Y-12954000D02*
G75*
G03*
X4363000Y-12954000I-45000J0D01*
G01*
X4527000Y-4019000D02*
X4617000Y-4109000D01*
X4617000Y-4019000D02*
X4527000Y-4109000D01*
X4617000Y-4064000D02*
G75*
G03*
X4617000Y-4064000I-45000J0D01*
G01*
X4527000Y-4273000D02*
X4617000Y-4363000D01*
X4617000Y-4273000D02*
X4527000Y-4363000D01*
X4617000Y-4318000D02*
G75*
G03*
X4617000Y-4318000I-45000J0D01*
G01*
X4527000Y-4527000D02*
X4617000Y-4617000D01*
X4617000Y-4527000D02*
X4527000Y-4617000D01*
X4617000Y-4572000D02*
G75*
G03*
X4617000Y-4572000I-45000J0D01*
G01*
X4527000Y-13163000D02*
X4617000Y-13253000D01*
X4617000Y-13163000D02*
X4527000Y-13253000D01*
X4617000Y-13208000D02*
G75*
G03*
X4617000Y-13208000I-45000J0D01*
G01*
X4781000Y-4527000D02*
X4871000Y-4617000D01*
X4871000Y-4527000D02*
X4781000Y-4617000D01*
X4871000Y-4572000D02*
G75*
G03*
X4871000Y-4572000I-45000J0D01*
G01*
X4781000Y-13163000D02*
X4871000Y-13253000D01*
X4871000Y-13163000D02*
X4781000Y-13253000D01*
X4871000Y-13208000D02*
G75*
G03*
X4871000Y-13208000I-45000J0D01*
G01*
X5035000Y-4273000D02*
X5125000Y-4363000D01*
X5125000Y-4273000D02*
X5035000Y-4363000D01*
X5125000Y-4318000D02*
G75*
G03*
X5125000Y-4318000I-45000J0D01*
G01*
X5035000Y-4527000D02*
X5125000Y-4617000D01*
X5125000Y-4527000D02*
X5035000Y-4617000D01*
X5125000Y-4572000D02*
G75*
G03*
X5125000Y-4572000I-45000J0D01*
G01*
X5035000Y-13163000D02*
X5125000Y-13253000D01*
X5125000Y-13163000D02*
X5035000Y-13253000D01*
X5125000Y-13208000D02*
G75*
G03*
X5125000Y-13208000I-45000J0D01*
G01*
X5289000Y-4527000D02*
X5379000Y-4617000D01*
X5379000Y-4527000D02*
X5289000Y-4617000D01*
X5379000Y-4572000D02*
G75*
G03*
X5379000Y-4572000I-45000J0D01*
G01*
X5289000Y-13163000D02*
X5379000Y-13253000D01*
X5379000Y-13163000D02*
X5289000Y-13253000D01*
X5379000Y-13208000D02*
G75*
G03*
X5379000Y-13208000I-45000J0D01*
G01*
X5543000Y-4019000D02*
X5633000Y-4109000D01*
X5633000Y-4019000D02*
X5543000Y-4109000D01*
X5633000Y-4064000D02*
G75*
G03*
X5633000Y-4064000I-45000J0D01*
G01*
X5543000Y-4273000D02*
X5633000Y-4363000D01*
X5633000Y-4273000D02*
X5543000Y-4363000D01*
X5633000Y-4318000D02*
G75*
G03*
X5633000Y-4318000I-45000J0D01*
G01*
X5543000Y-4527000D02*
X5633000Y-4617000D01*
X5633000Y-4527000D02*
X5543000Y-4617000D01*
X5633000Y-4572000D02*
G75*
G03*
X5633000Y-4572000I-45000J0D01*
G01*
X5543000Y-13163000D02*
X5633000Y-13253000D01*
X5633000Y-13163000D02*
X5543000Y-13253000D01*
X5633000Y-13208000D02*
G75*
G03*
X5633000Y-13208000I-45000J0D01*
G01*
X5797000Y-4527000D02*
X5887000Y-4617000D01*
X5887000Y-4527000D02*
X5797000Y-4617000D01*
X5887000Y-4572000D02*
G75*
G03*
X5887000Y-4572000I-45000J0D01*
G01*
X5797000Y-13163000D02*
X5887000Y-13253000D01*
X5887000Y-13163000D02*
X5797000Y-13253000D01*
X5887000Y-13208000D02*
G75*
G03*
X5887000Y-13208000I-45000J0D01*
G01*
X6051000Y-4273000D02*
X6141000Y-4363000D01*
X6141000Y-4273000D02*
X6051000Y-4363000D01*
X6141000Y-4318000D02*
G75*
G03*
X6141000Y-4318000I-45000J0D01*
G01*
X6051000Y-4527000D02*
X6141000Y-4617000D01*
X6141000Y-4527000D02*
X6051000Y-4617000D01*
X6141000Y-4572000D02*
G75*
G03*
X6141000Y-4572000I-45000J0D01*
G01*
X6051000Y-13163000D02*
X6141000Y-13253000D01*
X6141000Y-13163000D02*
X6051000Y-13253000D01*
X6141000Y-13208000D02*
G75*
G03*
X6141000Y-13208000I-45000J0D01*
G01*
X6305000Y-4527000D02*
X6395000Y-4617000D01*
X6395000Y-4527000D02*
X6305000Y-4617000D01*
X6395000Y-4572000D02*
G75*
G03*
X6395000Y-4572000I-45000J0D01*
G01*
X6305000Y-13163000D02*
X6395000Y-13253000D01*
X6395000Y-13163000D02*
X6305000Y-13253000D01*
X6395000Y-13208000D02*
G75*
G03*
X6395000Y-13208000I-45000J0D01*
G01*
X6559000Y-4019000D02*
X6649000Y-4109000D01*
X6649000Y-4019000D02*
X6559000Y-4109000D01*
X6649000Y-4064000D02*
G75*
G03*
X6649000Y-4064000I-45000J0D01*
G01*
X6559000Y-4273000D02*
X6649000Y-4363000D01*
X6649000Y-4273000D02*
X6559000Y-4363000D01*
X6649000Y-4318000D02*
G75*
G03*
X6649000Y-4318000I-45000J0D01*
G01*
X6559000Y-4527000D02*
X6649000Y-4617000D01*
X6649000Y-4527000D02*
X6559000Y-4617000D01*
X6649000Y-4572000D02*
G75*
G03*
X6649000Y-4572000I-45000J0D01*
G01*
X6559000Y-13163000D02*
X6649000Y-13253000D01*
X6649000Y-13163000D02*
X6559000Y-13253000D01*
X6649000Y-13208000D02*
G75*
G03*
X6649000Y-13208000I-45000J0D01*
G01*
X6813000Y-4527000D02*
X6903000Y-4617000D01*
X6903000Y-4527000D02*
X6813000Y-4617000D01*
X6903000Y-4572000D02*
G75*
G03*
X6903000Y-4572000I-45000J0D01*
G01*
X6813000Y-13163000D02*
X6903000Y-13253000D01*
X6903000Y-13163000D02*
X6813000Y-13253000D01*
X6903000Y-13208000D02*
G75*
G03*
X6903000Y-13208000I-45000J0D01*
G01*
X7067000Y-4273000D02*
X7157000Y-4363000D01*
X7157000Y-4273000D02*
X7067000Y-4363000D01*
X7157000Y-4318000D02*
G75*
G03*
X7157000Y-4318000I-45000J0D01*
G01*
X7067000Y-4527000D02*
X7157000Y-4617000D01*
X7157000Y-4527000D02*
X7067000Y-4617000D01*
X7157000Y-4572000D02*
G75*
G03*
X7157000Y-4572000I-45000J0D01*
G01*
X7067000Y-13163000D02*
X7157000Y-13253000D01*
X7157000Y-13163000D02*
X7067000Y-13253000D01*
X7157000Y-13208000D02*
G75*
G03*
X7157000Y-13208000I-45000J0D01*
G01*
X7321000Y-4527000D02*
X7411000Y-4617000D01*
X7411000Y-4527000D02*
X7321000Y-4617000D01*
X7411000Y-4572000D02*
G75*
G03*
X7411000Y-4572000I-45000J0D01*
G01*
X7321000Y-13163000D02*
X7411000Y-13253000D01*
X7411000Y-13163000D02*
X7321000Y-13253000D01*
X7411000Y-13208000D02*
G75*
G03*
X7411000Y-13208000I-45000J0D01*
G01*
X7575000Y-4019000D02*
X7665000Y-4109000D01*
X7665000Y-4019000D02*
X7575000Y-4109000D01*
X7665000Y-4064000D02*
G75*
G03*
X7665000Y-4064000I-45000J0D01*
G01*
X7575000Y-4273000D02*
X7665000Y-4363000D01*
X7665000Y-4273000D02*
X7575000Y-4363000D01*
X7665000Y-4318000D02*
G75*
G03*
X7665000Y-4318000I-45000J0D01*
G01*
X7575000Y-4527000D02*
X7665000Y-4617000D01*
X7665000Y-4527000D02*
X7575000Y-4617000D01*
X7665000Y-4572000D02*
G75*
G03*
X7665000Y-4572000I-45000J0D01*
G01*
X7575000Y-13163000D02*
X7665000Y-13253000D01*
X7665000Y-13163000D02*
X7575000Y-13253000D01*
X7665000Y-13208000D02*
G75*
G03*
X7665000Y-13208000I-45000J0D01*
G01*
X7829000Y-4527000D02*
X7919000Y-4617000D01*
X7919000Y-4527000D02*
X7829000Y-4617000D01*
X7919000Y-4572000D02*
G75*
G03*
X7919000Y-4572000I-45000J0D01*
G01*
X7829000Y-13163000D02*
X7919000Y-13253000D01*
X7919000Y-13163000D02*
X7829000Y-13253000D01*
X7919000Y-13208000D02*
G75*
G03*
X7919000Y-13208000I-45000J0D01*
G01*
X8083000Y-4273000D02*
X8173000Y-4363000D01*
X8173000Y-4273000D02*
X8083000Y-4363000D01*
X8173000Y-4318000D02*
G75*
G03*
X8173000Y-4318000I-45000J0D01*
G01*
X8083000Y-4527000D02*
X8173000Y-4617000D01*
X8173000Y-4527000D02*
X8083000Y-4617000D01*
X8173000Y-4572000D02*
G75*
G03*
X8173000Y-4572000I-45000J0D01*
G01*
X8083000Y-13163000D02*
X8173000Y-13253000D01*
X8173000Y-13163000D02*
X8083000Y-13253000D01*
X8173000Y-13208000D02*
G75*
G03*
X8173000Y-13208000I-45000J0D01*
G01*
X8337000Y-4527000D02*
X8427000Y-4617000D01*
X8427000Y-4527000D02*
X8337000Y-4617000D01*
X8427000Y-4572000D02*
G75*
G03*
X8427000Y-4572000I-45000J0D01*
G01*
X8337000Y-13163000D02*
X8427000Y-13253000D01*
X8427000Y-13163000D02*
X8337000Y-13253000D01*
X8427000Y-13208000D02*
G75*
G03*
X8427000Y-13208000I-45000J0D01*
G01*
X8591000Y-4019000D02*
X8681000Y-4109000D01*
X8681000Y-4019000D02*
X8591000Y-4109000D01*
X8681000Y-4064000D02*
G75*
G03*
X8681000Y-4064000I-45000J0D01*
G01*
X8591000Y-4273000D02*
X8681000Y-4363000D01*
X8681000Y-4273000D02*
X8591000Y-4363000D01*
X8681000Y-4318000D02*
G75*
G03*
X8681000Y-4318000I-45000J0D01*
G01*
X8591000Y-4527000D02*
X8681000Y-4617000D01*
X8681000Y-4527000D02*
X8591000Y-4617000D01*
X8681000Y-4572000D02*
G75*
G03*
X8681000Y-4572000I-45000J0D01*
G01*
X8591000Y-13163000D02*
X8681000Y-13253000D01*
X8681000Y-13163000D02*
X8591000Y-13253000D01*
X8681000Y-13208000D02*
G75*
G03*
X8681000Y-13208000I-45000J0D01*
G01*
X8845000Y-4527000D02*
X8935000Y-4617000D01*
X8935000Y-4527000D02*
X8845000Y-4617000D01*
X8935000Y-4572000D02*
G75*
G03*
X8935000Y-4572000I-45000J0D01*
G01*
X8845000Y-13163000D02*
X8935000Y-13253000D01*
X8935000Y-13163000D02*
X8845000Y-13253000D01*
X8935000Y-13208000D02*
G75*
G03*
X8935000Y-13208000I-45000J0D01*
G01*
X9099000Y-4273000D02*
X9189000Y-4363000D01*
X9189000Y-4273000D02*
X9099000Y-4363000D01*
X9189000Y-4318000D02*
G75*
G03*
X9189000Y-4318000I-45000J0D01*
G01*
X9099000Y-4527000D02*
X9189000Y-4617000D01*
X9189000Y-4527000D02*
X9099000Y-4617000D01*
X9189000Y-4572000D02*
G75*
G03*
X9189000Y-4572000I-45000J0D01*
G01*
X9099000Y-13163000D02*
X9189000Y-13253000D01*
X9189000Y-13163000D02*
X9099000Y-13253000D01*
X9189000Y-13208000D02*
G75*
G03*
X9189000Y-13208000I-45000J0D01*
G01*
X9353000Y-4527000D02*
X9443000Y-4617000D01*
X9443000Y-4527000D02*
X9353000Y-4617000D01*
X9443000Y-4572000D02*
G75*
G03*
X9443000Y-4572000I-45000J0D01*
G01*
X9353000Y-13163000D02*
X9443000Y-13253000D01*
X9443000Y-13163000D02*
X9353000Y-13253000D01*
X9443000Y-13208000D02*
G75*
G03*
X9443000Y-13208000I-45000J0D01*
G01*
X9607000Y-5543000D02*
X9697000Y-5633000D01*
X9697000Y-5543000D02*
X9607000Y-5633000D01*
X9697000Y-5588000D02*
G75*
G03*
X9697000Y-5588000I-45000J0D01*
G01*
X9607000Y-5797000D02*
X9697000Y-5887000D01*
X9697000Y-5797000D02*
X9607000Y-5887000D01*
X9697000Y-5842000D02*
G75*
G03*
X9697000Y-5842000I-45000J0D01*
G01*
X9607000Y-6051000D02*
X9697000Y-6141000D01*
X9697000Y-6051000D02*
X9607000Y-6141000D01*
X9697000Y-6096000D02*
G75*
G03*
X9697000Y-6096000I-45000J0D01*
G01*
X9607000Y-6559000D02*
X9697000Y-6649000D01*
X9697000Y-6559000D02*
X9607000Y-6649000D01*
X9697000Y-6604000D02*
G75*
G03*
X9697000Y-6604000I-45000J0D01*
G01*
X9607000Y-7321000D02*
X9697000Y-7411000D01*
X9697000Y-7321000D02*
X9607000Y-7411000D01*
X9697000Y-7366000D02*
G75*
G03*
X9697000Y-7366000I-45000J0D01*
G01*
X9607000Y-7575000D02*
X9697000Y-7665000D01*
X9697000Y-7575000D02*
X9607000Y-7665000D01*
X9697000Y-7620000D02*
G75*
G03*
X9697000Y-7620000I-45000J0D01*
G01*
X9607000Y-7829000D02*
X9697000Y-7919000D01*
X9697000Y-7829000D02*
X9607000Y-7919000D01*
X9697000Y-7874000D02*
G75*
G03*
X9697000Y-7874000I-45000J0D01*
G01*
X9607000Y-8591000D02*
X9697000Y-8681000D01*
X9697000Y-8591000D02*
X9607000Y-8681000D01*
X9697000Y-8636000D02*
G75*
G03*
X9697000Y-8636000I-45000J0D01*
G01*
X9607000Y-8845000D02*
X9697000Y-8935000D01*
X9697000Y-8845000D02*
X9607000Y-8935000D01*
X9697000Y-8890000D02*
G75*
G03*
X9697000Y-8890000I-45000J0D01*
G01*
X9607000Y-9099000D02*
X9697000Y-9189000D01*
X9697000Y-9099000D02*
X9607000Y-9189000D01*
X9697000Y-9144000D02*
G75*
G03*
X9697000Y-9144000I-45000J0D01*
G01*
X9607000Y-9607000D02*
X9697000Y-9697000D01*
X9697000Y-9607000D02*
X9607000Y-9697000D01*
X9697000Y-9652000D02*
G75*
G03*
X9697000Y-9652000I-45000J0D01*
G01*
X9607000Y-10115000D02*
X9697000Y-10205000D01*
X9697000Y-10115000D02*
X9607000Y-10205000D01*
X9697000Y-10160000D02*
G75*
G03*
X9697000Y-10160000I-45000J0D01*
G01*
X9607000Y-10369000D02*
X9697000Y-10459000D01*
X9697000Y-10369000D02*
X9607000Y-10459000D01*
X9697000Y-10414000D02*
G75*
G03*
X9697000Y-10414000I-45000J0D01*
G01*
X9607000Y-10623000D02*
X9697000Y-10713000D01*
X9697000Y-10623000D02*
X9607000Y-10713000D01*
X9697000Y-10668000D02*
G75*
G03*
X9697000Y-10668000I-45000J0D01*
G01*
X9607000Y-10877000D02*
X9697000Y-10967000D01*
X9697000Y-10877000D02*
X9607000Y-10967000D01*
X9697000Y-10922000D02*
G75*
G03*
X9697000Y-10922000I-45000J0D01*
G01*
X9607000Y-11131000D02*
X9697000Y-11221000D01*
X9697000Y-11131000D02*
X9607000Y-11221000D01*
X9697000Y-11176000D02*
G75*
G03*
X9697000Y-11176000I-45000J0D01*
G01*
X9607000Y-11639000D02*
X9697000Y-11729000D01*
X9697000Y-11639000D02*
X9607000Y-11729000D01*
X9697000Y-11684000D02*
G75*
G03*
X9697000Y-11684000I-45000J0D01*
G01*
X9607000Y-11893000D02*
X9697000Y-11983000D01*
X9697000Y-11893000D02*
X9607000Y-11983000D01*
X9697000Y-11938000D02*
G75*
G03*
X9697000Y-11938000I-45000J0D01*
G01*
X10528250Y-9480000D02*
X10618250Y-9570000D01*
X10618250Y-9480000D02*
X10528250Y-9570000D01*
X10618250Y-9525000D02*
G75*
G03*
X10618250Y-9525000I-45000J0D01*
G01*
X10782250Y-9480000D02*
X10872250Y-9570000D01*
X10872250Y-9480000D02*
X10782250Y-9570000D01*
X10872250Y-9525000D02*
G75*
G03*
X10872250Y-9525000I-45000J0D01*
G01*
X12401000Y-11385000D02*
X12491000Y-11475000D01*
X12491000Y-11385000D02*
X12401000Y-11475000D01*
X12491000Y-11430000D02*
G75*
G03*
X12491000Y-11430000I-45000J0D01*
G01*
X12401000Y-11639000D02*
X12491000Y-11729000D01*
X12491000Y-11639000D02*
X12401000Y-11729000D01*
X12491000Y-11684000D02*
G75*
G03*
X12491000Y-11684000I-45000J0D01*
G01*
X12401000Y-11893000D02*
X12491000Y-11983000D01*
X12491000Y-11893000D02*
X12401000Y-11983000D01*
X12491000Y-11938000D02*
G75*
G03*
X12491000Y-11938000I-45000J0D01*
G01*
X12401000Y-12147000D02*
X12491000Y-12237000D01*
X12491000Y-12147000D02*
X12401000Y-12237000D01*
X12491000Y-12192000D02*
G75*
G03*
X12491000Y-12192000I-45000J0D01*
G01*
X12401000Y-12401000D02*
X12491000Y-12491000D01*
X12491000Y-12401000D02*
X12401000Y-12491000D01*
X12491000Y-12446000D02*
G75*
G03*
X12491000Y-12446000I-45000J0D01*
G01*
X12401000Y-12655000D02*
X12491000Y-12745000D01*
X12491000Y-12655000D02*
X12401000Y-12745000D01*
X12491000Y-12700000D02*
G75*
G03*
X12491000Y-12700000I-45000J0D01*
G01*
X12401000Y-12909000D02*
X12491000Y-12999000D01*
X12491000Y-12909000D02*
X12401000Y-12999000D01*
X12491000Y-12954000D02*
G75*
G03*
X12491000Y-12954000I-45000J0D01*
G01*
X12401000Y-13163000D02*
X12491000Y-13253000D01*
X12491000Y-13163000D02*
X12401000Y-13253000D01*
X12491000Y-13208000D02*
G75*
G03*
X12491000Y-13208000I-45000J0D01*
G01*
X13162500Y-10242000D02*
X13252500Y-10332000D01*
X13252500Y-10242000D02*
X13162500Y-10332000D01*
X13252500Y-10287000D02*
G75*
G03*
X13252500Y-10287000I-45000J0D01*
G01*
X13416500Y-10242000D02*
X13506500Y-10332000D01*
X13506500Y-10242000D02*
X13416500Y-10332000D01*
X13506500Y-10287000D02*
G75*
G03*
X13506500Y-10287000I-45000J0D01*
G01*
X14433000Y-11385000D02*
X14523000Y-11475000D01*
X14523000Y-11385000D02*
X14433000Y-11475000D01*
X14523000Y-11430000D02*
G75*
G03*
X14523000Y-11430000I-45000J0D01*
G01*
X14433000Y-11639000D02*
X14523000Y-11729000D01*
X14523000Y-11639000D02*
X14433000Y-11729000D01*
X14523000Y-11684000D02*
G75*
G03*
X14523000Y-11684000I-45000J0D01*
G01*
X14433000Y-11893000D02*
X14523000Y-11983000D01*
X14523000Y-11893000D02*
X14433000Y-11983000D01*
X14523000Y-11938000D02*
G75*
G03*
X14523000Y-11938000I-45000J0D01*
G01*
X14433000Y-12147000D02*
X14523000Y-12237000D01*
X14523000Y-12147000D02*
X14433000Y-12237000D01*
X14523000Y-12192000D02*
G75*
G03*
X14523000Y-12192000I-45000J0D01*
G01*
X14433000Y-12401000D02*
X14523000Y-12491000D01*
X14523000Y-12401000D02*
X14433000Y-12491000D01*
X14523000Y-12446000D02*
G75*
G03*
X14523000Y-12446000I-45000J0D01*
G01*
X14433000Y-12655000D02*
X14523000Y-12745000D01*
X14523000Y-12655000D02*
X14433000Y-12745000D01*
X14523000Y-12700000D02*
G75*
G03*
X14523000Y-12700000I-45000J0D01*
G01*
X14433000Y-12909000D02*
X14523000Y-12999000D01*
X14523000Y-12909000D02*
X14433000Y-12999000D01*
X14523000Y-12954000D02*
G75*
G03*
X14523000Y-12954000I-45000J0D01*
G01*
X14433000Y-13163000D02*
X14523000Y-13253000D01*
X14523000Y-13163000D02*
X14433000Y-13253000D01*
X14523000Y-13208000D02*
G75*
G03*
X14523000Y-13208000I-45000J0D01*
G01*
X15703000Y-11131000D02*
X15793000Y-11221000D01*
X15793000Y-11131000D02*
X15703000Y-11221000D01*
X15793000Y-11176000D02*
G75*
G03*
X15793000Y-11176000I-45000J0D01*
G01*
X15703000Y-12909000D02*
X15793000Y-12999000D01*
X15793000Y-12909000D02*
X15703000Y-12999000D01*
X15793000Y-12954000D02*
G75*
G03*
X15793000Y-12954000I-45000J0D01*
G01*
X15957000Y-11131000D02*
X16047000Y-11221000D01*
X16047000Y-11131000D02*
X15957000Y-11221000D01*
X16047000Y-11176000D02*
G75*
G03*
X16047000Y-11176000I-45000J0D01*
G01*
X15957000Y-12909000D02*
X16047000Y-12999000D01*
X16047000Y-12909000D02*
X15957000Y-12999000D01*
X16047000Y-12954000D02*
G75*
G03*
X16047000Y-12954000I-45000J0D01*
G01*
X16211000Y-11131000D02*
X16301000Y-11221000D01*
X16301000Y-11131000D02*
X16211000Y-11221000D01*
X16301000Y-11176000D02*
G75*
G03*
X16301000Y-11176000I-45000J0D01*
G01*
X16211000Y-12909000D02*
X16301000Y-12999000D01*
X16301000Y-12909000D02*
X16211000Y-12999000D01*
X16301000Y-12954000D02*
G75*
G03*
X16301000Y-12954000I-45000J0D01*
G01*
X16465000Y-11131000D02*
X16555000Y-11221000D01*
X16555000Y-11131000D02*
X16465000Y-11221000D01*
X16555000Y-11176000D02*
G75*
G03*
X16555000Y-11176000I-45000J0D01*
G01*
X16465000Y-12909000D02*
X16555000Y-12999000D01*
X16555000Y-12909000D02*
X16465000Y-12999000D01*
X16555000Y-12954000D02*
G75*
G03*
X16555000Y-12954000I-45000J0D01*
G01*
D10*
X3302000Y-5086000D02*
X3402000Y-5186000D01*
X3402000Y-5086000D02*
X3302000Y-5186000D01*
X3352000Y-5086000D02*
X3352000Y-5186000D01*
X3302000Y-5136000D02*
X3402000Y-5136000D01*
D11*
X3302000Y-5026000D02*
X3302000Y-5246000D01*
X3402000Y-5026000D02*
X3402000Y-5246000D01*
X3302000Y-5246000D02*
G75*
G03*
X3402000Y-5246000I50000J0D01*
G01*
X3402000Y-5026000D02*
G75*
G03*
X3302000Y-5026000I-50000J0D01*
G01*
D10*
X3602000Y-5566000D02*
X3702000Y-5666000D01*
X3702000Y-5566000D02*
X3602000Y-5666000D01*
X3652000Y-5566000D02*
X3652000Y-5666000D01*
X3602000Y-5616000D02*
X3702000Y-5616000D01*
D11*
X3777000Y-5566000D02*
X3527000Y-5566000D01*
X3777000Y-5666000D02*
X3527000Y-5666000D01*
X3527000Y-5566000D02*
G75*
G03*
X3527000Y-5666000I0J-50000D01*
G01*
X3777000Y-5666000D02*
G75*
G03*
X3777000Y-5566000I0J50000D01*
G01*
D10*
X3932000Y-5086000D02*
X4032000Y-5186000D01*
X4032000Y-5086000D02*
X3932000Y-5186000D01*
X3982000Y-5086000D02*
X3982000Y-5186000D01*
X3932000Y-5136000D02*
X4032000Y-5136000D01*
D11*
X3932000Y-5006000D02*
X3932000Y-5266000D01*
X4032000Y-5006000D02*
X4032000Y-5266000D01*
X3932000Y-5266000D02*
G75*
G03*
X4032000Y-5266000I50000J0D01*
G01*
X4032000Y-5006000D02*
G75*
G03*
X3932000Y-5006000I-50000J0D01*
G01*
D10*
X9983000Y-4268000D02*
X10083000Y-4368000D01*
X10083000Y-4268000D02*
X9983000Y-4368000D01*
X10033000Y-4268000D02*
X10033000Y-4368000D01*
X9983000Y-4318000D02*
X10083000Y-4318000D01*
X9983000Y-4522000D02*
X10083000Y-4622000D01*
X10083000Y-4522000D02*
X9983000Y-4622000D01*
X10033000Y-4522000D02*
X10033000Y-4622000D01*
X9983000Y-4572000D02*
X10083000Y-4572000D01*
X9983000Y-4776000D02*
X10083000Y-4876000D01*
X10083000Y-4776000D02*
X9983000Y-4876000D01*
X10033000Y-4776000D02*
X10033000Y-4876000D01*
X9983000Y-4826000D02*
X10083000Y-4826000D01*
X10491000Y-4268000D02*
X10591000Y-4368000D01*
X10591000Y-4268000D02*
X10491000Y-4368000D01*
X10541000Y-4268000D02*
X10541000Y-4368000D01*
X10491000Y-4318000D02*
X10591000Y-4318000D01*
X10491000Y-4522000D02*
X10591000Y-4622000D01*
X10591000Y-4522000D02*
X10491000Y-4622000D01*
X10541000Y-4522000D02*
X10541000Y-4622000D01*
X10491000Y-4572000D02*
X10591000Y-4572000D01*
X10491000Y-4776000D02*
X10591000Y-4876000D01*
X10591000Y-4776000D02*
X10491000Y-4876000D01*
X10541000Y-4776000D02*
X10541000Y-4876000D01*
X10491000Y-4826000D02*
X10591000Y-4826000D01*
X10866000Y-3760000D02*
X10966000Y-3860000D01*
X10966000Y-3760000D02*
X10866000Y-3860000D01*
X10916000Y-3760000D02*
X10916000Y-3860000D01*
X10866000Y-3810000D02*
X10966000Y-3810000D01*
X10866000Y-4014000D02*
X10966000Y-4114000D01*
X10966000Y-4014000D02*
X10866000Y-4114000D01*
X10916000Y-4014000D02*
X10916000Y-4114000D01*
X10866000Y-4064000D02*
X10966000Y-4064000D01*
X10866000Y-4268000D02*
X10966000Y-4368000D01*
X10966000Y-4268000D02*
X10866000Y-4368000D01*
X10916000Y-4268000D02*
X10916000Y-4368000D01*
X10866000Y-4318000D02*
X10966000Y-4318000D01*
X10866000Y-4522000D02*
X10966000Y-4622000D01*
X10966000Y-4522000D02*
X10866000Y-4622000D01*
X10916000Y-4522000D02*
X10916000Y-4622000D01*
X10866000Y-4572000D02*
X10966000Y-4572000D01*
X10866000Y-4776000D02*
X10966000Y-4876000D01*
X10966000Y-4776000D02*
X10866000Y-4876000D01*
X10916000Y-4776000D02*
X10916000Y-4876000D01*
X10866000Y-4826000D02*
X10966000Y-4826000D01*
X10866000Y-5030000D02*
X10966000Y-5130000D01*
X10966000Y-5030000D02*
X10866000Y-5130000D01*
X10916000Y-5030000D02*
X10916000Y-5130000D01*
X10866000Y-5080000D02*
X10966000Y-5080000D01*
X10866000Y-5284000D02*
X10966000Y-5384000D01*
X10966000Y-5284000D02*
X10866000Y-5384000D01*
X10916000Y-5284000D02*
X10916000Y-5384000D01*
X10866000Y-5334000D02*
X10966000Y-5334000D01*
X10866000Y-5538000D02*
X10966000Y-5638000D01*
X10966000Y-5538000D02*
X10866000Y-5638000D01*
X10916000Y-5538000D02*
X10916000Y-5638000D01*
X10866000Y-5588000D02*
X10966000Y-5588000D01*
X10866000Y-5792000D02*
X10966000Y-5892000D01*
X10966000Y-5792000D02*
X10866000Y-5892000D01*
X10916000Y-5792000D02*
X10916000Y-5892000D01*
X10866000Y-5842000D02*
X10966000Y-5842000D01*
X10866000Y-6046000D02*
X10966000Y-6146000D01*
X10966000Y-6046000D02*
X10866000Y-6146000D01*
X10916000Y-6046000D02*
X10916000Y-6146000D01*
X10866000Y-6096000D02*
X10966000Y-6096000D01*
X10866000Y-6300000D02*
X10966000Y-6400000D01*
X10966000Y-6300000D02*
X10866000Y-6400000D01*
X10916000Y-6300000D02*
X10916000Y-6400000D01*
X10866000Y-6350000D02*
X10966000Y-6350000D01*
X10866000Y-6554000D02*
X10966000Y-6654000D01*
X10966000Y-6554000D02*
X10866000Y-6654000D01*
X10916000Y-6554000D02*
X10916000Y-6654000D01*
X10866000Y-6604000D02*
X10966000Y-6604000D01*
X10866000Y-6808000D02*
X10966000Y-6908000D01*
X10966000Y-6808000D02*
X10866000Y-6908000D01*
X10916000Y-6808000D02*
X10916000Y-6908000D01*
X10866000Y-6858000D02*
X10966000Y-6858000D01*
X10866000Y-7062000D02*
X10966000Y-7162000D01*
X10966000Y-7062000D02*
X10866000Y-7162000D01*
X10916000Y-7062000D02*
X10916000Y-7162000D01*
X10866000Y-7112000D02*
X10966000Y-7112000D01*
X10866000Y-7316000D02*
X10966000Y-7416000D01*
X10966000Y-7316000D02*
X10866000Y-7416000D01*
X10916000Y-7316000D02*
X10916000Y-7416000D01*
X10866000Y-7366000D02*
X10966000Y-7366000D01*
X10866000Y-7570000D02*
X10966000Y-7670000D01*
X10966000Y-7570000D02*
X10866000Y-7670000D01*
X10916000Y-7570000D02*
X10916000Y-7670000D01*
X10866000Y-7620000D02*
X10966000Y-7620000D01*
X10866000Y-7824000D02*
X10966000Y-7924000D01*
X10966000Y-7824000D02*
X10866000Y-7924000D01*
X10916000Y-7824000D02*
X10916000Y-7924000D01*
X10866000Y-7874000D02*
X10966000Y-7874000D01*
X10866000Y-8078000D02*
X10966000Y-8178000D01*
X10966000Y-8078000D02*
X10866000Y-8178000D01*
X10916000Y-8078000D02*
X10916000Y-8178000D01*
X10866000Y-8128000D02*
X10966000Y-8128000D01*
X10866000Y-8332000D02*
X10966000Y-8432000D01*
X10966000Y-8332000D02*
X10866000Y-8432000D01*
X10916000Y-8332000D02*
X10916000Y-8432000D01*
X10866000Y-8382000D02*
X10966000Y-8382000D01*
X10866000Y-8586000D02*
X10966000Y-8686000D01*
X10966000Y-8586000D02*
X10866000Y-8686000D01*
X10916000Y-8586000D02*
X10916000Y-8686000D01*
X10866000Y-8636000D02*
X10966000Y-8636000D01*
X11126000Y-3760000D02*
X11226000Y-3860000D01*
X11226000Y-3760000D02*
X11126000Y-3860000D01*
X11176000Y-3760000D02*
X11176000Y-3860000D01*
X11126000Y-3810000D02*
X11226000Y-3810000D01*
X11126000Y-4014000D02*
X11226000Y-4114000D01*
X11226000Y-4014000D02*
X11126000Y-4114000D01*
X11176000Y-4014000D02*
X11176000Y-4114000D01*
X11126000Y-4064000D02*
X11226000Y-4064000D01*
X11126000Y-4268000D02*
X11226000Y-4368000D01*
X11226000Y-4268000D02*
X11126000Y-4368000D01*
X11176000Y-4268000D02*
X11176000Y-4368000D01*
X11126000Y-4318000D02*
X11226000Y-4318000D01*
X11126000Y-4522000D02*
X11226000Y-4622000D01*
X11226000Y-4522000D02*
X11126000Y-4622000D01*
X11176000Y-4522000D02*
X11176000Y-4622000D01*
X11126000Y-4572000D02*
X11226000Y-4572000D01*
X11126000Y-4776000D02*
X11226000Y-4876000D01*
X11226000Y-4776000D02*
X11126000Y-4876000D01*
X11176000Y-4776000D02*
X11176000Y-4876000D01*
X11126000Y-4826000D02*
X11226000Y-4826000D01*
X11126000Y-5030000D02*
X11226000Y-5130000D01*
X11226000Y-5030000D02*
X11126000Y-5130000D01*
X11176000Y-5030000D02*
X11176000Y-5130000D01*
X11126000Y-5080000D02*
X11226000Y-5080000D01*
X11126000Y-5284000D02*
X11226000Y-5384000D01*
X11226000Y-5284000D02*
X11126000Y-5384000D01*
X11176000Y-5284000D02*
X11176000Y-5384000D01*
X11126000Y-5334000D02*
X11226000Y-5334000D01*
X11126000Y-5538000D02*
X11226000Y-5638000D01*
X11226000Y-5538000D02*
X11126000Y-5638000D01*
X11176000Y-5538000D02*
X11176000Y-5638000D01*
X11126000Y-5588000D02*
X11226000Y-5588000D01*
X11126000Y-5792000D02*
X11226000Y-5892000D01*
X11226000Y-5792000D02*
X11126000Y-5892000D01*
X11176000Y-5792000D02*
X11176000Y-5892000D01*
X11126000Y-5842000D02*
X11226000Y-5842000D01*
X11126000Y-6046000D02*
X11226000Y-6146000D01*
X11226000Y-6046000D02*
X11126000Y-6146000D01*
X11176000Y-6046000D02*
X11176000Y-6146000D01*
X11126000Y-6096000D02*
X11226000Y-6096000D01*
X11126000Y-6300000D02*
X11226000Y-6400000D01*
X11226000Y-6300000D02*
X11126000Y-6400000D01*
X11176000Y-6300000D02*
X11176000Y-6400000D01*
X11126000Y-6350000D02*
X11226000Y-6350000D01*
X11126000Y-6554000D02*
X11226000Y-6654000D01*
X11226000Y-6554000D02*
X11126000Y-6654000D01*
X11176000Y-6554000D02*
X11176000Y-6654000D01*
X11126000Y-6604000D02*
X11226000Y-6604000D01*
X11126000Y-6808000D02*
X11226000Y-6908000D01*
X11226000Y-6808000D02*
X11126000Y-6908000D01*
X11176000Y-6808000D02*
X11176000Y-6908000D01*
X11126000Y-6858000D02*
X11226000Y-6858000D01*
X11126000Y-7062000D02*
X11226000Y-7162000D01*
X11226000Y-7062000D02*
X11126000Y-7162000D01*
X11176000Y-7062000D02*
X11176000Y-7162000D01*
X11126000Y-7112000D02*
X11226000Y-7112000D01*
X11126000Y-7316000D02*
X11226000Y-7416000D01*
X11226000Y-7316000D02*
X11126000Y-7416000D01*
X11176000Y-7316000D02*
X11176000Y-7416000D01*
X11126000Y-7366000D02*
X11226000Y-7366000D01*
X11126000Y-7570000D02*
X11226000Y-7670000D01*
X11226000Y-7570000D02*
X11126000Y-7670000D01*
X11176000Y-7570000D02*
X11176000Y-7670000D01*
X11126000Y-7620000D02*
X11226000Y-7620000D01*
X11126000Y-7824000D02*
X11226000Y-7924000D01*
X11226000Y-7824000D02*
X11126000Y-7924000D01*
X11176000Y-7824000D02*
X11176000Y-7924000D01*
X11126000Y-7874000D02*
X11226000Y-7874000D01*
X11126000Y-8078000D02*
X11226000Y-8178000D01*
X11226000Y-8078000D02*
X11126000Y-8178000D01*
X11176000Y-8078000D02*
X11176000Y-8178000D01*
X11126000Y-8128000D02*
X11226000Y-8128000D01*
X11126000Y-8332000D02*
X11226000Y-8432000D01*
X11226000Y-8332000D02*
X11126000Y-8432000D01*
X11176000Y-8332000D02*
X11176000Y-8432000D01*
X11126000Y-8382000D02*
X11226000Y-8382000D01*
X11126000Y-8586000D02*
X11226000Y-8686000D01*
X11226000Y-8586000D02*
X11126000Y-8686000D01*
X11176000Y-8586000D02*
X11176000Y-8686000D01*
X11126000Y-8636000D02*
X11226000Y-8636000D01*
X12332500Y-9411500D02*
X12432500Y-9511500D01*
X12432500Y-9411500D02*
X12332500Y-9511500D01*
X12382500Y-9411500D02*
X12382500Y-9511500D01*
X12332500Y-9461500D02*
X12432500Y-9461500D01*
X12586500Y-9411500D02*
X12686500Y-9511500D01*
X12686500Y-9411500D02*
X12586500Y-9511500D01*
X12636500Y-9411500D02*
X12636500Y-9511500D01*
X12586500Y-9461500D02*
X12686500Y-9461500D01*
X13031000Y-9411500D02*
X13131000Y-9511500D01*
X13131000Y-9411500D02*
X13031000Y-9511500D01*
X13081000Y-9411500D02*
X13081000Y-9511500D01*
X13031000Y-9461500D02*
X13131000Y-9461500D01*
X13285000Y-9411500D02*
X13385000Y-9511500D01*
X13385000Y-9411500D02*
X13285000Y-9511500D01*
X13335000Y-9411500D02*
X13335000Y-9511500D01*
X13285000Y-9461500D02*
X13385000Y-9461500D01*
X14301000Y-9475000D02*
X14401000Y-9575000D01*
X14401000Y-9475000D02*
X14301000Y-9575000D01*
X14351000Y-9475000D02*
X14351000Y-9575000D01*
X14301000Y-9525000D02*
X14401000Y-9525000D01*
X14301000Y-9729000D02*
X14401000Y-9829000D01*
X14401000Y-9729000D02*
X14301000Y-9829000D01*
X14351000Y-9729000D02*
X14351000Y-9829000D01*
X14301000Y-9779000D02*
X14401000Y-9779000D01*
X14301000Y-9983000D02*
X14401000Y-10083000D01*
X14401000Y-9983000D02*
X14301000Y-10083000D01*
X14351000Y-9983000D02*
X14351000Y-10083000D01*
X14301000Y-10033000D02*
X14401000Y-10033000D01*
X14555000Y-9475000D02*
X14655000Y-9575000D01*
X14655000Y-9475000D02*
X14555000Y-9575000D01*
X14605000Y-9475000D02*
X14605000Y-9575000D01*
X14555000Y-9525000D02*
X14655000Y-9525000D01*
X14555000Y-9729000D02*
X14655000Y-9829000D01*
X14655000Y-9729000D02*
X14555000Y-9829000D01*
X14605000Y-9729000D02*
X14605000Y-9829000D01*
X14555000Y-9779000D02*
X14655000Y-9779000D01*
X14555000Y-9983000D02*
X14655000Y-10083000D01*
X14655000Y-9983000D02*
X14555000Y-10083000D01*
X14605000Y-9983000D02*
X14605000Y-10083000D01*
X14555000Y-10033000D02*
X14655000Y-10033000D01*
X14682000Y-3760000D02*
X14782000Y-3860000D01*
X14782000Y-3760000D02*
X14682000Y-3860000D01*
X14732000Y-3760000D02*
X14732000Y-3860000D01*
X14682000Y-3810000D02*
X14782000Y-3810000D01*
X14682000Y-4014000D02*
X14782000Y-4114000D01*
X14782000Y-4014000D02*
X14682000Y-4114000D01*
X14732000Y-4014000D02*
X14732000Y-4114000D01*
X14682000Y-4064000D02*
X14782000Y-4064000D01*
X14682000Y-4268000D02*
X14782000Y-4368000D01*
X14782000Y-4268000D02*
X14682000Y-4368000D01*
X14732000Y-4268000D02*
X14732000Y-4368000D01*
X14682000Y-4318000D02*
X14782000Y-4318000D01*
X14682000Y-4522000D02*
X14782000Y-4622000D01*
X14782000Y-4522000D02*
X14682000Y-4622000D01*
X14732000Y-4522000D02*
X14732000Y-4622000D01*
X14682000Y-4572000D02*
X14782000Y-4572000D01*
X14682000Y-4776000D02*
X14782000Y-4876000D01*
X14782000Y-4776000D02*
X14682000Y-4876000D01*
X14732000Y-4776000D02*
X14732000Y-4876000D01*
X14682000Y-4826000D02*
X14782000Y-4826000D01*
X14682000Y-5030000D02*
X14782000Y-5130000D01*
X14782000Y-5030000D02*
X14682000Y-5130000D01*
X14732000Y-5030000D02*
X14732000Y-5130000D01*
X14682000Y-5080000D02*
X14782000Y-5080000D01*
X14682000Y-5284000D02*
X14782000Y-5384000D01*
X14782000Y-5284000D02*
X14682000Y-5384000D01*
X14732000Y-5284000D02*
X14732000Y-5384000D01*
X14682000Y-5334000D02*
X14782000Y-5334000D01*
X14682000Y-5538000D02*
X14782000Y-5638000D01*
X14782000Y-5538000D02*
X14682000Y-5638000D01*
X14732000Y-5538000D02*
X14732000Y-5638000D01*
X14682000Y-5588000D02*
X14782000Y-5588000D01*
X14682000Y-5792000D02*
X14782000Y-5892000D01*
X14782000Y-5792000D02*
X14682000Y-5892000D01*
X14732000Y-5792000D02*
X14732000Y-5892000D01*
X14682000Y-5842000D02*
X14782000Y-5842000D01*
X14682000Y-6046000D02*
X14782000Y-6146000D01*
X14782000Y-6046000D02*
X14682000Y-6146000D01*
X14732000Y-6046000D02*
X14732000Y-6146000D01*
X14682000Y-6096000D02*
X14782000Y-6096000D01*
X14682000Y-6300000D02*
X14782000Y-6400000D01*
X14782000Y-6300000D02*
X14682000Y-6400000D01*
X14732000Y-6300000D02*
X14732000Y-6400000D01*
X14682000Y-6350000D02*
X14782000Y-6350000D01*
X14682000Y-6554000D02*
X14782000Y-6654000D01*
X14782000Y-6554000D02*
X14682000Y-6654000D01*
X14732000Y-6554000D02*
X14732000Y-6654000D01*
X14682000Y-6604000D02*
X14782000Y-6604000D01*
X14682000Y-6808000D02*
X14782000Y-6908000D01*
X14782000Y-6808000D02*
X14682000Y-6908000D01*
X14732000Y-6808000D02*
X14732000Y-6908000D01*
X14682000Y-6858000D02*
X14782000Y-6858000D01*
X14682000Y-7062000D02*
X14782000Y-7162000D01*
X14782000Y-7062000D02*
X14682000Y-7162000D01*
X14732000Y-7062000D02*
X14732000Y-7162000D01*
X14682000Y-7112000D02*
X14782000Y-7112000D01*
X14682000Y-7316000D02*
X14782000Y-7416000D01*
X14782000Y-7316000D02*
X14682000Y-7416000D01*
X14732000Y-7316000D02*
X14732000Y-7416000D01*
X14682000Y-7366000D02*
X14782000Y-7366000D01*
X14682000Y-7570000D02*
X14782000Y-7670000D01*
X14782000Y-7570000D02*
X14682000Y-7670000D01*
X14732000Y-7570000D02*
X14732000Y-7670000D01*
X14682000Y-7620000D02*
X14782000Y-7620000D01*
X14682000Y-7824000D02*
X14782000Y-7924000D01*
X14782000Y-7824000D02*
X14682000Y-7924000D01*
X14732000Y-7824000D02*
X14732000Y-7924000D01*
X14682000Y-7874000D02*
X14782000Y-7874000D01*
X14682000Y-8078000D02*
X14782000Y-8178000D01*
X14782000Y-8078000D02*
X14682000Y-8178000D01*
X14732000Y-8078000D02*
X14732000Y-8178000D01*
X14682000Y-8128000D02*
X14782000Y-8128000D01*
X14682000Y-8332000D02*
X14782000Y-8432000D01*
X14782000Y-8332000D02*
X14682000Y-8432000D01*
X14732000Y-8332000D02*
X14732000Y-8432000D01*
X14682000Y-8382000D02*
X14782000Y-8382000D01*
X14682000Y-8586000D02*
X14782000Y-8686000D01*
X14782000Y-8586000D02*
X14682000Y-8686000D01*
X14732000Y-8586000D02*
X14732000Y-8686000D01*
X14682000Y-8636000D02*
X14782000Y-8636000D01*
X14936000Y-3760000D02*
X15036000Y-3860000D01*
X15036000Y-3760000D02*
X14936000Y-3860000D01*
X14986000Y-3760000D02*
X14986000Y-3860000D01*
X14936000Y-3810000D02*
X15036000Y-3810000D01*
X14936000Y-4014000D02*
X15036000Y-4114000D01*
X15036000Y-4014000D02*
X14936000Y-4114000D01*
X14986000Y-4014000D02*
X14986000Y-4114000D01*
X14936000Y-4064000D02*
X15036000Y-4064000D01*
X14936000Y-4268000D02*
X15036000Y-4368000D01*
X15036000Y-4268000D02*
X14936000Y-4368000D01*
X14986000Y-4268000D02*
X14986000Y-4368000D01*
X14936000Y-4318000D02*
X15036000Y-4318000D01*
X14936000Y-4522000D02*
X15036000Y-4622000D01*
X15036000Y-4522000D02*
X14936000Y-4622000D01*
X14986000Y-4522000D02*
X14986000Y-4622000D01*
X14936000Y-4572000D02*
X15036000Y-4572000D01*
X14936000Y-4776000D02*
X15036000Y-4876000D01*
X15036000Y-4776000D02*
X14936000Y-4876000D01*
X14986000Y-4776000D02*
X14986000Y-4876000D01*
X14936000Y-4826000D02*
X15036000Y-4826000D01*
X14936000Y-5030000D02*
X15036000Y-5130000D01*
X15036000Y-5030000D02*
X14936000Y-5130000D01*
X14986000Y-5030000D02*
X14986000Y-5130000D01*
X14936000Y-5080000D02*
X15036000Y-5080000D01*
X14936000Y-5284000D02*
X15036000Y-5384000D01*
X15036000Y-5284000D02*
X14936000Y-5384000D01*
X14986000Y-5284000D02*
X14986000Y-5384000D01*
X14936000Y-5334000D02*
X15036000Y-5334000D01*
X14936000Y-5538000D02*
X15036000Y-5638000D01*
X15036000Y-5538000D02*
X14936000Y-5638000D01*
X14986000Y-5538000D02*
X14986000Y-5638000D01*
X14936000Y-5588000D02*
X15036000Y-5588000D01*
X14936000Y-5792000D02*
X15036000Y-5892000D01*
X15036000Y-5792000D02*
X14936000Y-5892000D01*
X14986000Y-5792000D02*
X14986000Y-5892000D01*
X14936000Y-5842000D02*
X15036000Y-5842000D01*
X14936000Y-6046000D02*
X15036000Y-6146000D01*
X15036000Y-6046000D02*
X14936000Y-6146000D01*
X14986000Y-6046000D02*
X14986000Y-6146000D01*
X14936000Y-6096000D02*
X15036000Y-6096000D01*
X14936000Y-6300000D02*
X15036000Y-6400000D01*
X15036000Y-6300000D02*
X14936000Y-6400000D01*
X14986000Y-6300000D02*
X14986000Y-6400000D01*
X14936000Y-6350000D02*
X15036000Y-6350000D01*
X14936000Y-6554000D02*
X15036000Y-6654000D01*
X15036000Y-6554000D02*
X14936000Y-6654000D01*
X14986000Y-6554000D02*
X14986000Y-6654000D01*
X14936000Y-6604000D02*
X15036000Y-6604000D01*
X14936000Y-6808000D02*
X15036000Y-6908000D01*
X15036000Y-6808000D02*
X14936000Y-6908000D01*
X14986000Y-6808000D02*
X14986000Y-6908000D01*
X14936000Y-6858000D02*
X15036000Y-6858000D01*
X14936000Y-7062000D02*
X15036000Y-7162000D01*
X15036000Y-7062000D02*
X14936000Y-7162000D01*
X14986000Y-7062000D02*
X14986000Y-7162000D01*
X14936000Y-7112000D02*
X15036000Y-7112000D01*
X14936000Y-7316000D02*
X15036000Y-7416000D01*
X15036000Y-7316000D02*
X14936000Y-7416000D01*
X14986000Y-7316000D02*
X14986000Y-7416000D01*
X14936000Y-7366000D02*
X15036000Y-7366000D01*
X14936000Y-7570000D02*
X15036000Y-7670000D01*
X15036000Y-7570000D02*
X14936000Y-7670000D01*
X14986000Y-7570000D02*
X14986000Y-7670000D01*
X14936000Y-7620000D02*
X15036000Y-7620000D01*
X14936000Y-7824000D02*
X15036000Y-7924000D01*
X15036000Y-7824000D02*
X14936000Y-7924000D01*
X14986000Y-7824000D02*
X14986000Y-7924000D01*
X14936000Y-7874000D02*
X15036000Y-7874000D01*
X14936000Y-8078000D02*
X15036000Y-8178000D01*
X15036000Y-8078000D02*
X14936000Y-8178000D01*
X14986000Y-8078000D02*
X14986000Y-8178000D01*
X14936000Y-8128000D02*
X15036000Y-8128000D01*
X14936000Y-8332000D02*
X15036000Y-8432000D01*
X15036000Y-8332000D02*
X14936000Y-8432000D01*
X14986000Y-8332000D02*
X14986000Y-8432000D01*
X14936000Y-8382000D02*
X15036000Y-8382000D01*
X14936000Y-8586000D02*
X15036000Y-8686000D01*
X15036000Y-8586000D02*
X14936000Y-8686000D01*
X14986000Y-8586000D02*
X14986000Y-8686000D01*
X14936000Y-8636000D02*
X15036000Y-8636000D01*
X15602750Y-3887000D02*
X15702750Y-3987000D01*
X15702750Y-3887000D02*
X15602750Y-3987000D01*
X15652750Y-3887000D02*
X15652750Y-3987000D01*
X15602750Y-3937000D02*
X15702750Y-3937000D01*
X15602750Y-4141000D02*
X15702750Y-4241000D01*
X15702750Y-4141000D02*
X15602750Y-4241000D01*
X15652750Y-4141000D02*
X15652750Y-4241000D01*
X15602750Y-4191000D02*
X15702750Y-4191000D01*
X15602750Y-4395000D02*
X15702750Y-4495000D01*
X15702750Y-4395000D02*
X15602750Y-4495000D01*
X15652750Y-4395000D02*
X15652750Y-4495000D01*
X15602750Y-4445000D02*
X15702750Y-4445000D01*
X15602750Y-4649000D02*
X15702750Y-4749000D01*
X15702750Y-4649000D02*
X15602750Y-4749000D01*
X15652750Y-4649000D02*
X15652750Y-4749000D01*
X15602750Y-4699000D02*
X15702750Y-4699000D01*
X15602750Y-5157000D02*
X15702750Y-5257000D01*
X15702750Y-5157000D02*
X15602750Y-5257000D01*
X15652750Y-5157000D02*
X15652750Y-5257000D01*
X15602750Y-5207000D02*
X15702750Y-5207000D01*
X15602750Y-5411000D02*
X15702750Y-5511000D01*
X15702750Y-5411000D02*
X15602750Y-5511000D01*
X15652750Y-5411000D02*
X15652750Y-5511000D01*
X15602750Y-5461000D02*
X15702750Y-5461000D01*
X15607750Y-4903000D02*
X15707750Y-5003000D01*
X15707750Y-4903000D02*
X15607750Y-5003000D01*
X15657750Y-4903000D02*
X15657750Y-5003000D01*
X15607750Y-4953000D02*
X15707750Y-4953000D01*
X15728750Y-9733000D02*
X15828750Y-9833000D01*
X15828750Y-9733000D02*
X15728750Y-9833000D01*
X15778750Y-9733000D02*
X15778750Y-9833000D01*
X15728750Y-9783000D02*
X15828750Y-9783000D01*
X15728750Y-9983000D02*
X15828750Y-10083000D01*
X15828750Y-9983000D02*
X15728750Y-10083000D01*
X15778750Y-9983000D02*
X15778750Y-10083000D01*
X15728750Y-10033000D02*
X15828750Y-10033000D01*
X15728750Y-10233000D02*
X15828750Y-10333000D01*
X15828750Y-10233000D02*
X15728750Y-10333000D01*
X15778750Y-10233000D02*
X15778750Y-10333000D01*
X15728750Y-10283000D02*
X15828750Y-10283000D01*
X15825000Y-6300000D02*
X15925000Y-6400000D01*
X15925000Y-6300000D02*
X15825000Y-6400000D01*
X15875000Y-6300000D02*
X15875000Y-6400000D01*
X15825000Y-6350000D02*
X15925000Y-6350000D01*
X15952000Y-7443000D02*
X16052000Y-7543000D01*
X16052000Y-7443000D02*
X15952000Y-7543000D01*
X16002000Y-7443000D02*
X16002000Y-7543000D01*
X15952000Y-7493000D02*
X16052000Y-7493000D01*
X16079000Y-6300000D02*
X16179000Y-6400000D01*
X16179000Y-6300000D02*
X16079000Y-6400000D01*
X16129000Y-6300000D02*
X16129000Y-6400000D01*
X16079000Y-6350000D02*
X16179000Y-6350000D01*
X16206000Y-7443000D02*
X16306000Y-7543000D01*
X16306000Y-7443000D02*
X16206000Y-7543000D01*
X16256000Y-7443000D02*
X16256000Y-7543000D01*
X16206000Y-7493000D02*
X16306000Y-7493000D01*
X16460000Y-7443000D02*
X16560000Y-7543000D01*
X16560000Y-7443000D02*
X16460000Y-7543000D01*
X16510000Y-7443000D02*
X16510000Y-7543000D01*
X16460000Y-7493000D02*
X16560000Y-7493000D01*
X16714000Y-6300000D02*
X16814000Y-6400000D01*
X16814000Y-6300000D02*
X16714000Y-6400000D01*
X16764000Y-6300000D02*
X16764000Y-6400000D01*
X16714000Y-6350000D02*
X16814000Y-6350000D01*
X16714000Y-7443000D02*
X16814000Y-7543000D01*
X16814000Y-7443000D02*
X16714000Y-7543000D01*
X16764000Y-7443000D02*
X16764000Y-7543000D01*
X16714000Y-7493000D02*
X16814000Y-7493000D01*
X16968000Y-6300000D02*
X17068000Y-6400000D01*
X17068000Y-6300000D02*
X16968000Y-6400000D01*
X17018000Y-6300000D02*
X17018000Y-6400000D01*
X16968000Y-6350000D02*
X17068000Y-6350000D01*
X17121750Y-4395000D02*
X17221750Y-4495000D01*
X17221750Y-4395000D02*
X17121750Y-4495000D01*
X17171750Y-4395000D02*
X17171750Y-4495000D01*
X17121750Y-4445000D02*
X17221750Y-4445000D01*
X17126750Y-3887000D02*
X17226750Y-3987000D01*
X17226750Y-3887000D02*
X17126750Y-3987000D01*
X17176750Y-3887000D02*
X17176750Y-3987000D01*
X17126750Y-3937000D02*
X17226750Y-3937000D01*
X17126750Y-4141000D02*
X17226750Y-4241000D01*
X17226750Y-4141000D02*
X17126750Y-4241000D01*
X17176750Y-4141000D02*
X17176750Y-4241000D01*
X17126750Y-4191000D02*
X17226750Y-4191000D01*
X17126750Y-4649000D02*
X17226750Y-4749000D01*
X17226750Y-4649000D02*
X17126750Y-4749000D01*
X17176750Y-4649000D02*
X17176750Y-4749000D01*
X17126750Y-4699000D02*
X17226750Y-4699000D01*
X17126750Y-4903000D02*
X17226750Y-5003000D01*
X17226750Y-4903000D02*
X17126750Y-5003000D01*
X17176750Y-4903000D02*
X17176750Y-5003000D01*
X17126750Y-4953000D02*
X17226750Y-4953000D01*
X17126750Y-5157000D02*
X17226750Y-5257000D01*
X17226750Y-5157000D02*
X17126750Y-5257000D01*
X17176750Y-5157000D02*
X17176750Y-5257000D01*
X17126750Y-5207000D02*
X17226750Y-5207000D01*
X17126750Y-5411000D02*
X17226750Y-5511000D01*
X17226750Y-5411000D02*
X17126750Y-5511000D01*
X17176750Y-5411000D02*
X17176750Y-5511000D01*
X17126750Y-5461000D02*
X17226750Y-5461000D01*
X17786000Y-4649000D02*
X17886000Y-4749000D01*
X17886000Y-4649000D02*
X17786000Y-4749000D01*
X17836000Y-4649000D02*
X17836000Y-4749000D01*
X17786000Y-4699000D02*
X17886000Y-4699000D01*
X17786000Y-4903000D02*
X17886000Y-5003000D01*
X17886000Y-4903000D02*
X17786000Y-5003000D01*
X17836000Y-4903000D02*
X17836000Y-5003000D01*
X17786000Y-4953000D02*
X17886000Y-4953000D01*
X17786000Y-5157000D02*
X17886000Y-5257000D01*
X17886000Y-5157000D02*
X17786000Y-5257000D01*
X17836000Y-5157000D02*
X17836000Y-5257000D01*
X17786000Y-5207000D02*
X17886000Y-5207000D01*
X17786000Y-5411000D02*
X17886000Y-5511000D01*
X17886000Y-5411000D02*
X17786000Y-5511000D01*
X17836000Y-5411000D02*
X17836000Y-5511000D01*
X17786000Y-5461000D02*
X17886000Y-5461000D01*
X17786000Y-5665000D02*
X17886000Y-5765000D01*
X17886000Y-5665000D02*
X17786000Y-5765000D01*
X17836000Y-5665000D02*
X17836000Y-5765000D01*
X17786000Y-5715000D02*
X17886000Y-5715000D01*
X17786000Y-5919000D02*
X17886000Y-6019000D01*
X17886000Y-5919000D02*
X17786000Y-6019000D01*
X17836000Y-5919000D02*
X17836000Y-6019000D01*
X17786000Y-5969000D02*
X17886000Y-5969000D01*
X17786000Y-6173000D02*
X17886000Y-6273000D01*
X17886000Y-6173000D02*
X17786000Y-6273000D01*
X17836000Y-6173000D02*
X17836000Y-6273000D01*
X17786000Y-6223000D02*
X17886000Y-6223000D01*
X17786000Y-6427000D02*
X17886000Y-6527000D01*
X17886000Y-6427000D02*
X17786000Y-6527000D01*
X17836000Y-6427000D02*
X17836000Y-6527000D01*
X17786000Y-6477000D02*
X17886000Y-6477000D01*
X17786000Y-6681000D02*
X17886000Y-6781000D01*
X17886000Y-6681000D02*
X17786000Y-6781000D01*
X17836000Y-6681000D02*
X17836000Y-6781000D01*
X17786000Y-6731000D02*
X17886000Y-6731000D01*
X17786000Y-6935000D02*
X17886000Y-7035000D01*
X17886000Y-6935000D02*
X17786000Y-7035000D01*
X17836000Y-6935000D02*
X17836000Y-7035000D01*
X17786000Y-6985000D02*
X17886000Y-6985000D01*
X17786000Y-7189000D02*
X17886000Y-7289000D01*
X17886000Y-7189000D02*
X17786000Y-7289000D01*
X17836000Y-7189000D02*
X17836000Y-7289000D01*
X17786000Y-7239000D02*
X17886000Y-7239000D01*
X17786000Y-7443000D02*
X17886000Y-7543000D01*
X17886000Y-7443000D02*
X17786000Y-7543000D01*
X17836000Y-7443000D02*
X17836000Y-7543000D01*
X17786000Y-7493000D02*
X17886000Y-7493000D01*
X17786000Y-7697000D02*
X17886000Y-7797000D01*
X17886000Y-7697000D02*
X17786000Y-7797000D01*
X17836000Y-7697000D02*
X17836000Y-7797000D01*
X17786000Y-7747000D02*
X17886000Y-7747000D01*
X17786000Y-7951000D02*
X17886000Y-8051000D01*
X17886000Y-7951000D02*
X17786000Y-8051000D01*
X17836000Y-7951000D02*
X17836000Y-8051000D01*
X17786000Y-8001000D02*
X17886000Y-8001000D01*
X17786000Y-8205000D02*
X17886000Y-8305000D01*
X17886000Y-8205000D02*
X17786000Y-8305000D01*
X17836000Y-8205000D02*
X17836000Y-8305000D01*
X17786000Y-8255000D02*
X17886000Y-8255000D01*
X17786000Y-8459000D02*
X17886000Y-8559000D01*
X17886000Y-8459000D02*
X17786000Y-8559000D01*
X17836000Y-8459000D02*
X17836000Y-8559000D01*
X17786000Y-8509000D02*
X17886000Y-8509000D01*
X17786000Y-8713000D02*
X17886000Y-8813000D01*
X17886000Y-8713000D02*
X17786000Y-8813000D01*
X17836000Y-8713000D02*
X17836000Y-8813000D01*
X17786000Y-8763000D02*
X17886000Y-8763000D01*
X17786000Y-8967000D02*
X17886000Y-9067000D01*
X17886000Y-8967000D02*
X17786000Y-9067000D01*
X17836000Y-8967000D02*
X17836000Y-9067000D01*
X17786000Y-9017000D02*
X17886000Y-9017000D01*
X17786000Y-9221000D02*
X17886000Y-9321000D01*
X17886000Y-9221000D02*
X17786000Y-9321000D01*
X17836000Y-9221000D02*
X17836000Y-9321000D01*
X17786000Y-9271000D02*
X17886000Y-9271000D01*
X17786000Y-9475000D02*
X17886000Y-9575000D01*
X17886000Y-9475000D02*
X17786000Y-9575000D01*
X17836000Y-9475000D02*
X17836000Y-9575000D01*
X17786000Y-9525000D02*
X17886000Y-9525000D01*
X17786000Y-9729000D02*
X17886000Y-9829000D01*
X17886000Y-9729000D02*
X17786000Y-9829000D01*
X17836000Y-9729000D02*
X17836000Y-9829000D01*
X17786000Y-9779000D02*
X17886000Y-9779000D01*
X17786000Y-9983000D02*
X17886000Y-10083000D01*
X17886000Y-9983000D02*
X17786000Y-10083000D01*
X17836000Y-9983000D02*
X17836000Y-10083000D01*
X17786000Y-10033000D02*
X17886000Y-10033000D01*
X17786000Y-10237000D02*
X17886000Y-10337000D01*
X17886000Y-10237000D02*
X17786000Y-10337000D01*
X17836000Y-10237000D02*
X17836000Y-10337000D01*
X17786000Y-10287000D02*
X17886000Y-10287000D01*
X17786000Y-10491000D02*
X17886000Y-10591000D01*
X17886000Y-10491000D02*
X17786000Y-10591000D01*
X17836000Y-10491000D02*
X17836000Y-10591000D01*
X17786000Y-10541000D02*
X17886000Y-10541000D01*
X17786000Y-10745000D02*
X17886000Y-10845000D01*
X17886000Y-10745000D02*
X17786000Y-10845000D01*
X17836000Y-10745000D02*
X17836000Y-10845000D01*
X17786000Y-10795000D02*
X17886000Y-10795000D01*
X17786000Y-10999000D02*
X17886000Y-11099000D01*
X17886000Y-10999000D02*
X17786000Y-11099000D01*
X17836000Y-10999000D02*
X17836000Y-11099000D01*
X17786000Y-11049000D02*
X17886000Y-11049000D01*
X17786000Y-11253000D02*
X17886000Y-11353000D01*
X17886000Y-11253000D02*
X17786000Y-11353000D01*
X17836000Y-11253000D02*
X17836000Y-11353000D01*
X17786000Y-11303000D02*
X17886000Y-11303000D01*
X17786000Y-11507000D02*
X17886000Y-11607000D01*
X17886000Y-11507000D02*
X17786000Y-11607000D01*
X17836000Y-11507000D02*
X17836000Y-11607000D01*
X17786000Y-11557000D02*
X17886000Y-11557000D01*
X17786000Y-11761000D02*
X17886000Y-11861000D01*
X17886000Y-11761000D02*
X17786000Y-11861000D01*
X17836000Y-11761000D02*
X17836000Y-11861000D01*
X17786000Y-11811000D02*
X17886000Y-11811000D01*
X17786000Y-12015000D02*
X17886000Y-12115000D01*
X17886000Y-12015000D02*
X17786000Y-12115000D01*
X17836000Y-12015000D02*
X17836000Y-12115000D01*
X17786000Y-12065000D02*
X17886000Y-12065000D01*
X17786000Y-12269000D02*
X17886000Y-12369000D01*
X17886000Y-12269000D02*
X17786000Y-12369000D01*
X17836000Y-12269000D02*
X17836000Y-12369000D01*
X17786000Y-12319000D02*
X17886000Y-12319000D01*
X17786000Y-12523000D02*
X17886000Y-12623000D01*
X17886000Y-12523000D02*
X17786000Y-12623000D01*
X17836000Y-12523000D02*
X17836000Y-12623000D01*
X17786000Y-12573000D02*
X17886000Y-12573000D01*
X18040000Y-4649000D02*
X18140000Y-4749000D01*
X18140000Y-4649000D02*
X18040000Y-4749000D01*
X18090000Y-4649000D02*
X18090000Y-4749000D01*
X18040000Y-4699000D02*
X18140000Y-4699000D01*
X18040000Y-4903000D02*
X18140000Y-5003000D01*
X18140000Y-4903000D02*
X18040000Y-5003000D01*
X18090000Y-4903000D02*
X18090000Y-5003000D01*
X18040000Y-4953000D02*
X18140000Y-4953000D01*
X18040000Y-5157000D02*
X18140000Y-5257000D01*
X18140000Y-5157000D02*
X18040000Y-5257000D01*
X18090000Y-5157000D02*
X18090000Y-5257000D01*
X18040000Y-5207000D02*
X18140000Y-5207000D01*
X18040000Y-5411000D02*
X18140000Y-5511000D01*
X18140000Y-5411000D02*
X18040000Y-5511000D01*
X18090000Y-5411000D02*
X18090000Y-5511000D01*
X18040000Y-5461000D02*
X18140000Y-5461000D01*
X18040000Y-5665000D02*
X18140000Y-5765000D01*
X18140000Y-5665000D02*
X18040000Y-5765000D01*
X18090000Y-5665000D02*
X18090000Y-5765000D01*
X18040000Y-5715000D02*
X18140000Y-5715000D01*
X18040000Y-5919000D02*
X18140000Y-6019000D01*
X18140000Y-5919000D02*
X18040000Y-6019000D01*
X18090000Y-5919000D02*
X18090000Y-6019000D01*
X18040000Y-5969000D02*
X18140000Y-5969000D01*
X18040000Y-6173000D02*
X18140000Y-6273000D01*
X18140000Y-6173000D02*
X18040000Y-6273000D01*
X18090000Y-6173000D02*
X18090000Y-6273000D01*
X18040000Y-6223000D02*
X18140000Y-6223000D01*
X18040000Y-6427000D02*
X18140000Y-6527000D01*
X18140000Y-6427000D02*
X18040000Y-6527000D01*
X18090000Y-6427000D02*
X18090000Y-6527000D01*
X18040000Y-6477000D02*
X18140000Y-6477000D01*
X18040000Y-6681000D02*
X18140000Y-6781000D01*
X18140000Y-6681000D02*
X18040000Y-6781000D01*
X18090000Y-6681000D02*
X18090000Y-6781000D01*
X18040000Y-6731000D02*
X18140000Y-6731000D01*
X18040000Y-6935000D02*
X18140000Y-7035000D01*
X18140000Y-6935000D02*
X18040000Y-7035000D01*
X18090000Y-6935000D02*
X18090000Y-7035000D01*
X18040000Y-6985000D02*
X18140000Y-6985000D01*
X18040000Y-7189000D02*
X18140000Y-7289000D01*
X18140000Y-7189000D02*
X18040000Y-7289000D01*
X18090000Y-7189000D02*
X18090000Y-7289000D01*
X18040000Y-7239000D02*
X18140000Y-7239000D01*
X18040000Y-7443000D02*
X18140000Y-7543000D01*
X18140000Y-7443000D02*
X18040000Y-7543000D01*
X18090000Y-7443000D02*
X18090000Y-7543000D01*
X18040000Y-7493000D02*
X18140000Y-7493000D01*
X18040000Y-7697000D02*
X18140000Y-7797000D01*
X18140000Y-7697000D02*
X18040000Y-7797000D01*
X18090000Y-7697000D02*
X18090000Y-7797000D01*
X18040000Y-7747000D02*
X18140000Y-7747000D01*
X18040000Y-7951000D02*
X18140000Y-8051000D01*
X18140000Y-7951000D02*
X18040000Y-8051000D01*
X18090000Y-7951000D02*
X18090000Y-8051000D01*
X18040000Y-8001000D02*
X18140000Y-8001000D01*
X18040000Y-8205000D02*
X18140000Y-8305000D01*
X18140000Y-8205000D02*
X18040000Y-8305000D01*
X18090000Y-8205000D02*
X18090000Y-8305000D01*
X18040000Y-8255000D02*
X18140000Y-8255000D01*
X18040000Y-8459000D02*
X18140000Y-8559000D01*
X18140000Y-8459000D02*
X18040000Y-8559000D01*
X18090000Y-8459000D02*
X18090000Y-8559000D01*
X18040000Y-8509000D02*
X18140000Y-8509000D01*
X18040000Y-8713000D02*
X18140000Y-8813000D01*
X18140000Y-8713000D02*
X18040000Y-8813000D01*
X18090000Y-8713000D02*
X18090000Y-8813000D01*
X18040000Y-8763000D02*
X18140000Y-8763000D01*
X18040000Y-8967000D02*
X18140000Y-9067000D01*
X18140000Y-8967000D02*
X18040000Y-9067000D01*
X18090000Y-8967000D02*
X18090000Y-9067000D01*
X18040000Y-9017000D02*
X18140000Y-9017000D01*
X18040000Y-9221000D02*
X18140000Y-9321000D01*
X18140000Y-9221000D02*
X18040000Y-9321000D01*
X18090000Y-9221000D02*
X18090000Y-9321000D01*
X18040000Y-9271000D02*
X18140000Y-9271000D01*
X18040000Y-9475000D02*
X18140000Y-9575000D01*
X18140000Y-9475000D02*
X18040000Y-9575000D01*
X18090000Y-9475000D02*
X18090000Y-9575000D01*
X18040000Y-9525000D02*
X18140000Y-9525000D01*
X18040000Y-9729000D02*
X18140000Y-9829000D01*
X18140000Y-9729000D02*
X18040000Y-9829000D01*
X18090000Y-9729000D02*
X18090000Y-9829000D01*
X18040000Y-9779000D02*
X18140000Y-9779000D01*
X18040000Y-9983000D02*
X18140000Y-10083000D01*
X18140000Y-9983000D02*
X18040000Y-10083000D01*
X18090000Y-9983000D02*
X18090000Y-10083000D01*
X18040000Y-10033000D02*
X18140000Y-10033000D01*
X18040000Y-10237000D02*
X18140000Y-10337000D01*
X18140000Y-10237000D02*
X18040000Y-10337000D01*
X18090000Y-10237000D02*
X18090000Y-10337000D01*
X18040000Y-10287000D02*
X18140000Y-10287000D01*
X18040000Y-10491000D02*
X18140000Y-10591000D01*
X18140000Y-10491000D02*
X18040000Y-10591000D01*
X18090000Y-10491000D02*
X18090000Y-10591000D01*
X18040000Y-10541000D02*
X18140000Y-10541000D01*
X18040000Y-10745000D02*
X18140000Y-10845000D01*
X18140000Y-10745000D02*
X18040000Y-10845000D01*
X18090000Y-10745000D02*
X18090000Y-10845000D01*
X18040000Y-10795000D02*
X18140000Y-10795000D01*
X18040000Y-10999000D02*
X18140000Y-11099000D01*
X18140000Y-10999000D02*
X18040000Y-11099000D01*
X18090000Y-10999000D02*
X18090000Y-11099000D01*
X18040000Y-11049000D02*
X18140000Y-11049000D01*
X18040000Y-11253000D02*
X18140000Y-11353000D01*
X18140000Y-11253000D02*
X18040000Y-11353000D01*
X18090000Y-11253000D02*
X18090000Y-11353000D01*
X18040000Y-11303000D02*
X18140000Y-11303000D01*
X18040000Y-11507000D02*
X18140000Y-11607000D01*
X18140000Y-11507000D02*
X18040000Y-11607000D01*
X18090000Y-11507000D02*
X18090000Y-11607000D01*
X18040000Y-11557000D02*
X18140000Y-11557000D01*
X18040000Y-11761000D02*
X18140000Y-11861000D01*
X18140000Y-11761000D02*
X18040000Y-11861000D01*
X18090000Y-11761000D02*
X18090000Y-11861000D01*
X18040000Y-11811000D02*
X18140000Y-11811000D01*
X18040000Y-12015000D02*
X18140000Y-12115000D01*
X18140000Y-12015000D02*
X18040000Y-12115000D01*
X18090000Y-12015000D02*
X18090000Y-12115000D01*
X18040000Y-12065000D02*
X18140000Y-12065000D01*
X18040000Y-12269000D02*
X18140000Y-12369000D01*
X18140000Y-12269000D02*
X18040000Y-12369000D01*
X18090000Y-12269000D02*
X18090000Y-12369000D01*
X18040000Y-12319000D02*
X18140000Y-12319000D01*
X18040000Y-12523000D02*
X18140000Y-12623000D01*
X18140000Y-12523000D02*
X18040000Y-12623000D01*
X18090000Y-12523000D02*
X18090000Y-12623000D01*
X18040000Y-12573000D02*
X18140000Y-12573000D01*
X18294000Y-4649000D02*
X18394000Y-4749000D01*
X18394000Y-4649000D02*
X18294000Y-4749000D01*
X18344000Y-4649000D02*
X18344000Y-4749000D01*
X18294000Y-4699000D02*
X18394000Y-4699000D01*
X18294000Y-4903000D02*
X18394000Y-5003000D01*
X18394000Y-4903000D02*
X18294000Y-5003000D01*
X18344000Y-4903000D02*
X18344000Y-5003000D01*
X18294000Y-4953000D02*
X18394000Y-4953000D01*
X18294000Y-5157000D02*
X18394000Y-5257000D01*
X18394000Y-5157000D02*
X18294000Y-5257000D01*
X18344000Y-5157000D02*
X18344000Y-5257000D01*
X18294000Y-5207000D02*
X18394000Y-5207000D01*
X18294000Y-5411000D02*
X18394000Y-5511000D01*
X18394000Y-5411000D02*
X18294000Y-5511000D01*
X18344000Y-5411000D02*
X18344000Y-5511000D01*
X18294000Y-5461000D02*
X18394000Y-5461000D01*
X18294000Y-5665000D02*
X18394000Y-5765000D01*
X18394000Y-5665000D02*
X18294000Y-5765000D01*
X18344000Y-5665000D02*
X18344000Y-5765000D01*
X18294000Y-5715000D02*
X18394000Y-5715000D01*
X18294000Y-5919000D02*
X18394000Y-6019000D01*
X18394000Y-5919000D02*
X18294000Y-6019000D01*
X18344000Y-5919000D02*
X18344000Y-6019000D01*
X18294000Y-5969000D02*
X18394000Y-5969000D01*
X18294000Y-6173000D02*
X18394000Y-6273000D01*
X18394000Y-6173000D02*
X18294000Y-6273000D01*
X18344000Y-6173000D02*
X18344000Y-6273000D01*
X18294000Y-6223000D02*
X18394000Y-6223000D01*
X18294000Y-6427000D02*
X18394000Y-6527000D01*
X18394000Y-6427000D02*
X18294000Y-6527000D01*
X18344000Y-6427000D02*
X18344000Y-6527000D01*
X18294000Y-6477000D02*
X18394000Y-6477000D01*
X18294000Y-6681000D02*
X18394000Y-6781000D01*
X18394000Y-6681000D02*
X18294000Y-6781000D01*
X18344000Y-6681000D02*
X18344000Y-6781000D01*
X18294000Y-6731000D02*
X18394000Y-6731000D01*
X18294000Y-6935000D02*
X18394000Y-7035000D01*
X18394000Y-6935000D02*
X18294000Y-7035000D01*
X18344000Y-6935000D02*
X18344000Y-7035000D01*
X18294000Y-6985000D02*
X18394000Y-6985000D01*
X18294000Y-7189000D02*
X18394000Y-7289000D01*
X18394000Y-7189000D02*
X18294000Y-7289000D01*
X18344000Y-7189000D02*
X18344000Y-7289000D01*
X18294000Y-7239000D02*
X18394000Y-7239000D01*
X18294000Y-7443000D02*
X18394000Y-7543000D01*
X18394000Y-7443000D02*
X18294000Y-7543000D01*
X18344000Y-7443000D02*
X18344000Y-7543000D01*
X18294000Y-7493000D02*
X18394000Y-7493000D01*
X18294000Y-7697000D02*
X18394000Y-7797000D01*
X18394000Y-7697000D02*
X18294000Y-7797000D01*
X18344000Y-7697000D02*
X18344000Y-7797000D01*
X18294000Y-7747000D02*
X18394000Y-7747000D01*
X18294000Y-7951000D02*
X18394000Y-8051000D01*
X18394000Y-7951000D02*
X18294000Y-8051000D01*
X18344000Y-7951000D02*
X18344000Y-8051000D01*
X18294000Y-8001000D02*
X18394000Y-8001000D01*
X18294000Y-8205000D02*
X18394000Y-8305000D01*
X18394000Y-8205000D02*
X18294000Y-8305000D01*
X18344000Y-8205000D02*
X18344000Y-8305000D01*
X18294000Y-8255000D02*
X18394000Y-8255000D01*
X18294000Y-8459000D02*
X18394000Y-8559000D01*
X18394000Y-8459000D02*
X18294000Y-8559000D01*
X18344000Y-8459000D02*
X18344000Y-8559000D01*
X18294000Y-8509000D02*
X18394000Y-8509000D01*
X18294000Y-8713000D02*
X18394000Y-8813000D01*
X18394000Y-8713000D02*
X18294000Y-8813000D01*
X18344000Y-8713000D02*
X18344000Y-8813000D01*
X18294000Y-8763000D02*
X18394000Y-8763000D01*
X18294000Y-8967000D02*
X18394000Y-9067000D01*
X18394000Y-8967000D02*
X18294000Y-9067000D01*
X18344000Y-8967000D02*
X18344000Y-9067000D01*
X18294000Y-9017000D02*
X18394000Y-9017000D01*
X18294000Y-9221000D02*
X18394000Y-9321000D01*
X18394000Y-9221000D02*
X18294000Y-9321000D01*
X18344000Y-9221000D02*
X18344000Y-9321000D01*
X18294000Y-9271000D02*
X18394000Y-9271000D01*
X18294000Y-9475000D02*
X18394000Y-9575000D01*
X18394000Y-9475000D02*
X18294000Y-9575000D01*
X18344000Y-9475000D02*
X18344000Y-9575000D01*
X18294000Y-9525000D02*
X18394000Y-9525000D01*
X18294000Y-9729000D02*
X18394000Y-9829000D01*
X18394000Y-9729000D02*
X18294000Y-9829000D01*
X18344000Y-9729000D02*
X18344000Y-9829000D01*
X18294000Y-9779000D02*
X18394000Y-9779000D01*
X18294000Y-9983000D02*
X18394000Y-10083000D01*
X18394000Y-9983000D02*
X18294000Y-10083000D01*
X18344000Y-9983000D02*
X18344000Y-10083000D01*
X18294000Y-10033000D02*
X18394000Y-10033000D01*
X18294000Y-10237000D02*
X18394000Y-10337000D01*
X18394000Y-10237000D02*
X18294000Y-10337000D01*
X18344000Y-10237000D02*
X18344000Y-10337000D01*
X18294000Y-10287000D02*
X18394000Y-10287000D01*
X18294000Y-10491000D02*
X18394000Y-10591000D01*
X18394000Y-10491000D02*
X18294000Y-10591000D01*
X18344000Y-10491000D02*
X18344000Y-10591000D01*
X18294000Y-10541000D02*
X18394000Y-10541000D01*
X18294000Y-10745000D02*
X18394000Y-10845000D01*
X18394000Y-10745000D02*
X18294000Y-10845000D01*
X18344000Y-10745000D02*
X18344000Y-10845000D01*
X18294000Y-10795000D02*
X18394000Y-10795000D01*
X18294000Y-10999000D02*
X18394000Y-11099000D01*
X18394000Y-10999000D02*
X18294000Y-11099000D01*
X18344000Y-10999000D02*
X18344000Y-11099000D01*
X18294000Y-11049000D02*
X18394000Y-11049000D01*
X18294000Y-11253000D02*
X18394000Y-11353000D01*
X18394000Y-11253000D02*
X18294000Y-11353000D01*
X18344000Y-11253000D02*
X18344000Y-11353000D01*
X18294000Y-11303000D02*
X18394000Y-11303000D01*
X18294000Y-11507000D02*
X18394000Y-11607000D01*
X18394000Y-11507000D02*
X18294000Y-11607000D01*
X18344000Y-11507000D02*
X18344000Y-11607000D01*
X18294000Y-11557000D02*
X18394000Y-11557000D01*
X18294000Y-11761000D02*
X18394000Y-11861000D01*
X18394000Y-11761000D02*
X18294000Y-11861000D01*
X18344000Y-11761000D02*
X18344000Y-11861000D01*
X18294000Y-11811000D02*
X18394000Y-11811000D01*
X18294000Y-12015000D02*
X18394000Y-12115000D01*
X18394000Y-12015000D02*
X18294000Y-12115000D01*
X18344000Y-12015000D02*
X18344000Y-12115000D01*
X18294000Y-12065000D02*
X18394000Y-12065000D01*
X18294000Y-12269000D02*
X18394000Y-12369000D01*
X18394000Y-12269000D02*
X18294000Y-12369000D01*
X18344000Y-12269000D02*
X18344000Y-12369000D01*
X18294000Y-12319000D02*
X18394000Y-12319000D01*
X18294000Y-12523000D02*
X18394000Y-12623000D01*
X18394000Y-12523000D02*
X18294000Y-12623000D01*
X18344000Y-12523000D02*
X18344000Y-12623000D01*
X18294000Y-12573000D02*
X18394000Y-12573000D01*
D18*
X12014000Y-3759000D02*
X12116000Y-3861000D01*
X12116000Y-3759000D02*
X12014000Y-3861000D01*
X12101063Y-3846063D02*
X12101063Y-3773937D01*
X12028937Y-3773937D01*
X12028937Y-3846063D01*
X12101063Y-3846063D01*
X12014000Y-4013000D02*
X12116000Y-4115000D01*
X12116000Y-4013000D02*
X12014000Y-4115000D01*
X12101063Y-4100063D02*
X12101063Y-4027937D01*
X12028937Y-4027937D01*
X12028937Y-4100063D01*
X12101063Y-4100063D01*
X12014000Y-4267000D02*
X12116000Y-4369000D01*
X12116000Y-4267000D02*
X12014000Y-4369000D01*
X12101063Y-4354063D02*
X12101063Y-4281937D01*
X12028937Y-4281937D01*
X12028937Y-4354063D01*
X12101063Y-4354063D01*
X12014000Y-4521000D02*
X12116000Y-4623000D01*
X12116000Y-4521000D02*
X12014000Y-4623000D01*
X12101063Y-4608063D02*
X12101063Y-4535937D01*
X12028937Y-4535937D01*
X12028937Y-4608063D01*
X12101063Y-4608063D01*
X12014000Y-4775000D02*
X12116000Y-4877000D01*
X12116000Y-4775000D02*
X12014000Y-4877000D01*
X12101063Y-4862063D02*
X12101063Y-4789937D01*
X12028937Y-4789937D01*
X12028937Y-4862063D01*
X12101063Y-4862063D01*
X12014000Y-5029000D02*
X12116000Y-5131000D01*
X12116000Y-5029000D02*
X12014000Y-5131000D01*
X12101063Y-5116063D02*
X12101063Y-5043937D01*
X12028937Y-5043937D01*
X12028937Y-5116063D01*
X12101063Y-5116063D01*
X12014000Y-5283000D02*
X12116000Y-5385000D01*
X12116000Y-5283000D02*
X12014000Y-5385000D01*
X12101063Y-5370063D02*
X12101063Y-5297937D01*
X12028937Y-5297937D01*
X12028937Y-5370063D01*
X12101063Y-5370063D01*
X12014000Y-5537000D02*
X12116000Y-5639000D01*
X12116000Y-5537000D02*
X12014000Y-5639000D01*
X12101063Y-5624063D02*
X12101063Y-5551937D01*
X12028937Y-5551937D01*
X12028937Y-5624063D01*
X12101063Y-5624063D01*
X12014000Y-5791000D02*
X12116000Y-5893000D01*
X12116000Y-5791000D02*
X12014000Y-5893000D01*
X12101063Y-5878063D02*
X12101063Y-5805937D01*
X12028937Y-5805937D01*
X12028937Y-5878063D01*
X12101063Y-5878063D01*
X12014000Y-6045000D02*
X12116000Y-6147000D01*
X12116000Y-6045000D02*
X12014000Y-6147000D01*
X12101063Y-6132063D02*
X12101063Y-6059937D01*
X12028937Y-6059937D01*
X12028937Y-6132063D01*
X12101063Y-6132063D01*
X12014000Y-6299000D02*
X12116000Y-6401000D01*
X12116000Y-6299000D02*
X12014000Y-6401000D01*
X12101063Y-6386063D02*
X12101063Y-6313937D01*
X12028937Y-6313937D01*
X12028937Y-6386063D01*
X12101063Y-6386063D01*
X12014000Y-6553000D02*
X12116000Y-6655000D01*
X12116000Y-6553000D02*
X12014000Y-6655000D01*
X12101063Y-6640063D02*
X12101063Y-6567937D01*
X12028937Y-6567937D01*
X12028937Y-6640063D01*
X12101063Y-6640063D01*
X12014000Y-6807000D02*
X12116000Y-6909000D01*
X12116000Y-6807000D02*
X12014000Y-6909000D01*
X12101063Y-6894063D02*
X12101063Y-6821937D01*
X12028937Y-6821937D01*
X12028937Y-6894063D01*
X12101063Y-6894063D01*
X12014000Y-7061000D02*
X12116000Y-7163000D01*
X12116000Y-7061000D02*
X12014000Y-7163000D01*
X12101063Y-7148063D02*
X12101063Y-7075937D01*
X12028937Y-7075937D01*
X12028937Y-7148063D01*
X12101063Y-7148063D01*
X12014000Y-7315000D02*
X12116000Y-7417000D01*
X12116000Y-7315000D02*
X12014000Y-7417000D01*
X12101063Y-7402063D02*
X12101063Y-7329937D01*
X12028937Y-7329937D01*
X12028937Y-7402063D01*
X12101063Y-7402063D01*
X12014000Y-7569000D02*
X12116000Y-7671000D01*
X12116000Y-7569000D02*
X12014000Y-7671000D01*
X12101063Y-7656063D02*
X12101063Y-7583937D01*
X12028937Y-7583937D01*
X12028937Y-7656063D01*
X12101063Y-7656063D01*
X12014000Y-7823000D02*
X12116000Y-7925000D01*
X12116000Y-7823000D02*
X12014000Y-7925000D01*
X12101063Y-7910063D02*
X12101063Y-7837937D01*
X12028937Y-7837937D01*
X12028937Y-7910063D01*
X12101063Y-7910063D01*
X12014000Y-8077000D02*
X12116000Y-8179000D01*
X12116000Y-8077000D02*
X12014000Y-8179000D01*
X12101063Y-8164063D02*
X12101063Y-8091937D01*
X12028937Y-8091937D01*
X12028937Y-8164063D01*
X12101063Y-8164063D01*
X12014000Y-8331000D02*
X12116000Y-8433000D01*
X12116000Y-8331000D02*
X12014000Y-8433000D01*
X12101063Y-8418063D02*
X12101063Y-8345937D01*
X12028937Y-8345937D01*
X12028937Y-8418063D01*
X12101063Y-8418063D01*
X12014000Y-8585000D02*
X12116000Y-8687000D01*
X12116000Y-8585000D02*
X12014000Y-8687000D01*
X12101063Y-8672063D02*
X12101063Y-8599937D01*
X12028937Y-8599937D01*
X12028937Y-8672063D01*
X12101063Y-8672063D01*
X12649000Y-8562000D02*
X12751000Y-8664000D01*
X12751000Y-8562000D02*
X12649000Y-8664000D01*
X12736063Y-8649063D02*
X12736063Y-8576937D01*
X12663937Y-8576937D01*
X12663937Y-8649063D01*
X12736063Y-8649063D01*
X12903000Y-8562000D02*
X13005000Y-8664000D01*
X13005000Y-8562000D02*
X12903000Y-8664000D01*
X12990063Y-8649063D02*
X12990063Y-8576937D01*
X12917937Y-8576937D01*
X12917937Y-8649063D01*
X12990063Y-8649063D01*
X13157000Y-8562000D02*
X13259000Y-8664000D01*
X13259000Y-8562000D02*
X13157000Y-8664000D01*
X13244063Y-8649063D02*
X13244063Y-8576937D01*
X13171937Y-8576937D01*
X13171937Y-8649063D01*
X13244063Y-8649063D01*
X13792000Y-3759000D02*
X13894000Y-3861000D01*
X13894000Y-3759000D02*
X13792000Y-3861000D01*
X13879063Y-3846063D02*
X13879063Y-3773937D01*
X13806937Y-3773937D01*
X13806937Y-3846063D01*
X13879063Y-3846063D01*
X13792000Y-4013000D02*
X13894000Y-4115000D01*
X13894000Y-4013000D02*
X13792000Y-4115000D01*
X13879063Y-4100063D02*
X13879063Y-4027937D01*
X13806937Y-4027937D01*
X13806937Y-4100063D01*
X13879063Y-4100063D01*
X13792000Y-4267000D02*
X13894000Y-4369000D01*
X13894000Y-4267000D02*
X13792000Y-4369000D01*
X13879063Y-4354063D02*
X13879063Y-4281937D01*
X13806937Y-4281937D01*
X13806937Y-4354063D01*
X13879063Y-4354063D01*
X13792000Y-4521000D02*
X13894000Y-4623000D01*
X13894000Y-4521000D02*
X13792000Y-4623000D01*
X13879063Y-4608063D02*
X13879063Y-4535937D01*
X13806937Y-4535937D01*
X13806937Y-4608063D01*
X13879063Y-4608063D01*
X13792000Y-4775000D02*
X13894000Y-4877000D01*
X13894000Y-4775000D02*
X13792000Y-4877000D01*
X13879063Y-4862063D02*
X13879063Y-4789937D01*
X13806937Y-4789937D01*
X13806937Y-4862063D01*
X13879063Y-4862063D01*
X13792000Y-5029000D02*
X13894000Y-5131000D01*
X13894000Y-5029000D02*
X13792000Y-5131000D01*
X13879063Y-5116063D02*
X13879063Y-5043937D01*
X13806937Y-5043937D01*
X13806937Y-5116063D01*
X13879063Y-5116063D01*
X13792000Y-5283000D02*
X13894000Y-5385000D01*
X13894000Y-5283000D02*
X13792000Y-5385000D01*
X13879063Y-5370063D02*
X13879063Y-5297937D01*
X13806937Y-5297937D01*
X13806937Y-5370063D01*
X13879063Y-5370063D01*
X13792000Y-5537000D02*
X13894000Y-5639000D01*
X13894000Y-5537000D02*
X13792000Y-5639000D01*
X13879063Y-5624063D02*
X13879063Y-5551937D01*
X13806937Y-5551937D01*
X13806937Y-5624063D01*
X13879063Y-5624063D01*
X13792000Y-5791000D02*
X13894000Y-5893000D01*
X13894000Y-5791000D02*
X13792000Y-5893000D01*
X13879063Y-5878063D02*
X13879063Y-5805937D01*
X13806937Y-5805937D01*
X13806937Y-5878063D01*
X13879063Y-5878063D01*
X13792000Y-6045000D02*
X13894000Y-6147000D01*
X13894000Y-6045000D02*
X13792000Y-6147000D01*
X13879063Y-6132063D02*
X13879063Y-6059937D01*
X13806937Y-6059937D01*
X13806937Y-6132063D01*
X13879063Y-6132063D01*
X13792000Y-6299000D02*
X13894000Y-6401000D01*
X13894000Y-6299000D02*
X13792000Y-6401000D01*
X13879063Y-6386063D02*
X13879063Y-6313937D01*
X13806937Y-6313937D01*
X13806937Y-6386063D01*
X13879063Y-6386063D01*
X13792000Y-6553000D02*
X13894000Y-6655000D01*
X13894000Y-6553000D02*
X13792000Y-6655000D01*
X13879063Y-6640063D02*
X13879063Y-6567937D01*
X13806937Y-6567937D01*
X13806937Y-6640063D01*
X13879063Y-6640063D01*
X13792000Y-6807000D02*
X13894000Y-6909000D01*
X13894000Y-6807000D02*
X13792000Y-6909000D01*
X13879063Y-6894063D02*
X13879063Y-6821937D01*
X13806937Y-6821937D01*
X13806937Y-6894063D01*
X13879063Y-6894063D01*
X13792000Y-7061000D02*
X13894000Y-7163000D01*
X13894000Y-7061000D02*
X13792000Y-7163000D01*
X13879063Y-7148063D02*
X13879063Y-7075937D01*
X13806937Y-7075937D01*
X13806937Y-7148063D01*
X13879063Y-7148063D01*
X13792000Y-7315000D02*
X13894000Y-7417000D01*
X13894000Y-7315000D02*
X13792000Y-7417000D01*
X13879063Y-7402063D02*
X13879063Y-7329937D01*
X13806937Y-7329937D01*
X13806937Y-7402063D01*
X13879063Y-7402063D01*
X13792000Y-7569000D02*
X13894000Y-7671000D01*
X13894000Y-7569000D02*
X13792000Y-7671000D01*
X13879063Y-7656063D02*
X13879063Y-7583937D01*
X13806937Y-7583937D01*
X13806937Y-7656063D01*
X13879063Y-7656063D01*
X13792000Y-7823000D02*
X13894000Y-7925000D01*
X13894000Y-7823000D02*
X13792000Y-7925000D01*
X13879063Y-7910063D02*
X13879063Y-7837937D01*
X13806937Y-7837937D01*
X13806937Y-7910063D01*
X13879063Y-7910063D01*
X13792000Y-8077000D02*
X13894000Y-8179000D01*
X13894000Y-8077000D02*
X13792000Y-8179000D01*
X13879063Y-8164063D02*
X13879063Y-8091937D01*
X13806937Y-8091937D01*
X13806937Y-8164063D01*
X13879063Y-8164063D01*
X13792000Y-8331000D02*
X13894000Y-8433000D01*
X13894000Y-8331000D02*
X13792000Y-8433000D01*
X13879063Y-8418063D02*
X13879063Y-8345937D01*
X13806937Y-8345937D01*
X13806937Y-8418063D01*
X13879063Y-8418063D01*
X13792000Y-8585000D02*
X13894000Y-8687000D01*
X13894000Y-8585000D02*
X13792000Y-8687000D01*
X13879063Y-8672063D02*
X13879063Y-8599937D01*
X13806937Y-8599937D01*
X13806937Y-8672063D01*
X13879063Y-8672063D01*
D19*
X3247000Y-7946000D02*
X3357000Y-8056000D01*
X3357000Y-7946000D02*
X3247000Y-8056000D01*
X3302000Y-8056000D02*
X3357000Y-8001000D01*
X3302000Y-7946000D01*
X3247000Y-8001000D01*
X3302000Y-8056000D01*
X3247000Y-9595000D02*
X3357000Y-9705000D01*
X3357000Y-9595000D02*
X3247000Y-9705000D01*
X3302000Y-9705000D02*
X3357000Y-9650000D01*
X3302000Y-9595000D01*
X3247000Y-9650000D01*
X3302000Y-9705000D01*
X3501000Y-7946000D02*
X3611000Y-8056000D01*
X3611000Y-7946000D02*
X3501000Y-8056000D01*
X3556000Y-8056000D02*
X3611000Y-8001000D01*
X3556000Y-7946000D01*
X3501000Y-8001000D01*
X3556000Y-8056000D01*
X3501000Y-9595000D02*
X3611000Y-9705000D01*
X3611000Y-9595000D02*
X3501000Y-9705000D01*
X3556000Y-9705000D02*
X3611000Y-9650000D01*
X3556000Y-9595000D01*
X3501000Y-9650000D01*
X3556000Y-9705000D01*
X3755000Y-7946000D02*
X3865000Y-8056000D01*
X3865000Y-7946000D02*
X3755000Y-8056000D01*
X3810000Y-8056000D02*
X3865000Y-8001000D01*
X3810000Y-7946000D01*
X3755000Y-8001000D01*
X3810000Y-8056000D01*
X3755000Y-9595000D02*
X3865000Y-9705000D01*
X3865000Y-9595000D02*
X3755000Y-9705000D01*
X3810000Y-9705000D02*
X3865000Y-9650000D01*
X3810000Y-9595000D01*
X3755000Y-9650000D01*
X3810000Y-9705000D01*
X11179000Y-9145000D02*
X11289000Y-9255000D01*
X11289000Y-9145000D02*
X11179000Y-9255000D01*
X11234000Y-9255000D02*
X11289000Y-9200000D01*
X11234000Y-9145000D01*
X11179000Y-9200000D01*
X11234000Y-9255000D01*
X11179000Y-9795000D02*
X11289000Y-9905000D01*
X11289000Y-9795000D02*
X11179000Y-9905000D01*
X11234000Y-9905000D02*
X11289000Y-9850000D01*
X11234000Y-9795000D01*
X11179000Y-9850000D01*
X11234000Y-9905000D01*
X11629000Y-9145000D02*
X11739000Y-9255000D01*
X11739000Y-9145000D02*
X11629000Y-9255000D01*
X11684000Y-9255000D02*
X11739000Y-9200000D01*
X11684000Y-9145000D01*
X11629000Y-9200000D01*
X11684000Y-9255000D01*
X11629000Y-9795000D02*
X11739000Y-9905000D01*
X11739000Y-9795000D02*
X11629000Y-9905000D01*
X11684000Y-9905000D02*
X11739000Y-9850000D01*
X11684000Y-9795000D01*
X11629000Y-9850000D01*
X11684000Y-9905000D01*
X12193000Y-9943500D02*
X12303000Y-10053500D01*
X12303000Y-9943500D02*
X12193000Y-10053500D01*
X12248000Y-10053500D02*
X12303000Y-9998500D01*
X12248000Y-9943500D01*
X12193000Y-9998500D01*
X12248000Y-10053500D01*
X12193000Y-10393500D02*
X12303000Y-10503500D01*
X12303000Y-10393500D02*
X12193000Y-10503500D01*
X12248000Y-10503500D02*
X12303000Y-10448500D01*
X12248000Y-10393500D01*
X12193000Y-10448500D01*
X12248000Y-10503500D01*
X12843000Y-9943500D02*
X12953000Y-10053500D01*
X12953000Y-9943500D02*
X12843000Y-10053500D01*
X12898000Y-10053500D02*
X12953000Y-9998500D01*
X12898000Y-9943500D01*
X12843000Y-9998500D01*
X12898000Y-10053500D01*
X12843000Y-10393500D02*
X12953000Y-10503500D01*
X12953000Y-10393500D02*
X12843000Y-10503500D01*
X12898000Y-10503500D02*
X12953000Y-10448500D01*
X12898000Y-10393500D01*
X12843000Y-10448500D01*
X12898000Y-10503500D01*
X17173750Y-9728000D02*
X17283750Y-9838000D01*
X17283750Y-9728000D02*
X17173750Y-9838000D01*
X17228750Y-9838000D02*
X17283750Y-9783000D01*
X17228750Y-9728000D01*
X17173750Y-9783000D01*
X17228750Y-9838000D01*
X17173750Y-10228000D02*
X17283750Y-10338000D01*
X17283750Y-10228000D02*
X17173750Y-10338000D01*
X17228750Y-10338000D02*
X17283750Y-10283000D01*
X17228750Y-10228000D01*
X17173750Y-10283000D01*
X17228750Y-10338000D01*
D20*
X3626000Y-5988000D02*
X3626000Y-6108000D01*
X3566000Y-6048000D02*
X3686000Y-6048000D01*
X3686000Y-6048000D02*
G75*
G03*
X3686000Y-6048000I-60000J0D01*
G01*
X3626000Y-6338000D02*
X3626000Y-6458000D01*
X3566000Y-6398000D02*
X3686000Y-6398000D01*
X3686000Y-6398000D02*
G75*
G03*
X3686000Y-6398000I-60000J0D01*
G01*
X3708400Y-11763700D02*
X3708400Y-11883700D01*
X3648400Y-11823700D02*
X3768400Y-11823700D01*
X3768400Y-11823700D02*
G75*
G03*
X3768400Y-11823700I-60000J0D01*
G01*
X3708400Y-12144700D02*
X3708400Y-12264700D01*
X3648400Y-12204700D02*
X3768400Y-12204700D01*
X3768400Y-12204700D02*
G75*
G03*
X3768400Y-12204700I-60000J0D01*
G01*
X3708400Y-12525700D02*
X3708400Y-12645700D01*
X3648400Y-12585700D02*
X3768400Y-12585700D01*
X3768400Y-12585700D02*
G75*
G03*
X3768400Y-12585700I-60000J0D01*
G01*
X3708400Y-12906700D02*
X3708400Y-13026700D01*
X3648400Y-12966700D02*
X3768400Y-12966700D01*
X3768400Y-12966700D02*
G75*
G03*
X3768400Y-12966700I-60000J0D01*
G01*
D11*
X16599461Y-9543711D02*
X16599461Y-9402289D01*
X16458039Y-9402289D01*
X16458039Y-9543711D01*
X16599461Y-9543711D01*
X16628750Y-9473000D02*
G75*
G03*
X16628750Y-9473000I-100000J0D01*
G01*
X16503750Y-9573000D02*
X16553750Y-9573000D01*
X16503750Y-9373000D02*
X16553750Y-9373000D01*
X16553750Y-9573000D02*
G75*
G03*
X16553750Y-9373000I0J100000D01*
G01*
X16503750Y-9373000D02*
G75*
G03*
X16503750Y-9573000I0J-100000D01*
G01*
X16599461Y-10663711D02*
X16599461Y-10522289D01*
X16458039Y-10522289D01*
X16458039Y-10663711D01*
X16599461Y-10663711D01*
X16628750Y-10593000D02*
G75*
G03*
X16628750Y-10593000I-100000J0D01*
G01*
X16503750Y-10693000D02*
X16553750Y-10693000D01*
X16503750Y-10493000D02*
X16553750Y-10493000D01*
X16553750Y-10693000D02*
G75*
G03*
X16553750Y-10493000I0J100000D01*
G01*
X16503750Y-10493000D02*
G75*
G03*
X16503750Y-10693000I0J-100000D01*
G01*
D21*
X16236950Y-4275600D02*
X16346950Y-4165600D01*
X16236950Y-4055600D01*
X16126950Y-4165600D01*
X16236950Y-4275600D01*
X16346950Y-4165600D02*
G75*
G03*
X16346950Y-4165600I-110000J0D01*
G01*
X16262350Y-3932700D02*
X16372350Y-3822700D01*
X16262350Y-3712700D01*
X16152350Y-3822700D01*
X16262350Y-3932700D01*
X16372350Y-3822700D02*
G75*
G03*
X16372350Y-3822700I-110000J0D01*
G01*
X16605250Y-3983500D02*
X16715250Y-3873500D01*
X16605250Y-3763500D01*
X16495250Y-3873500D01*
X16605250Y-3983500D01*
X16715250Y-3873500D02*
G75*
G03*
X16715250Y-3873500I-110000J0D01*
G01*
D11*
X3126619Y-13951476D02*
X3126619Y-13751476D01*
X3174238Y-13751476D01*
X3202809Y-13761000D01*
X3221857Y-13780048D01*
X3231381Y-13799095D01*
X3240905Y-13837190D01*
X3240905Y-13865762D01*
X3231381Y-13903857D01*
X3221857Y-13922905D01*
X3202809Y-13941952D01*
X3174238Y-13951476D01*
X3126619Y-13951476D01*
X3326619Y-13951476D02*
X3326619Y-13818143D01*
X3326619Y-13856238D02*
X3336143Y-13837190D01*
X3345667Y-13827667D01*
X3364714Y-13818143D01*
X3383762Y-13818143D01*
X3450428Y-13951476D02*
X3450428Y-13818143D01*
X3450428Y-13751476D02*
X3440905Y-13761000D01*
X3450428Y-13770524D01*
X3459952Y-13761000D01*
X3450428Y-13751476D01*
X3450428Y-13770524D01*
X3574238Y-13951476D02*
X3555190Y-13941952D01*
X3545667Y-13922905D01*
X3545667Y-13751476D01*
X3679000Y-13951476D02*
X3659952Y-13941952D01*
X3650428Y-13922905D01*
X3650428Y-13751476D01*
X3907571Y-13951476D02*
X3907571Y-13751476D01*
X3974238Y-13894333D01*
X4040905Y-13751476D01*
X4040905Y-13951476D01*
X4221857Y-13951476D02*
X4221857Y-13846714D01*
X4212333Y-13827667D01*
X4193286Y-13818143D01*
X4155190Y-13818143D01*
X4136143Y-13827667D01*
X4221857Y-13941952D02*
X4202810Y-13951476D01*
X4155190Y-13951476D01*
X4136143Y-13941952D01*
X4126619Y-13922905D01*
X4126619Y-13903857D01*
X4136143Y-13884809D01*
X4155190Y-13875286D01*
X4202810Y-13875286D01*
X4221857Y-13865762D01*
X4317095Y-13818143D02*
X4317095Y-14018143D01*
X4317095Y-13827667D02*
X4336143Y-13818143D01*
X4374238Y-13818143D01*
X4393286Y-13827667D01*
X4402810Y-13837190D01*
X4412333Y-13856238D01*
X4412333Y-13913381D01*
X4402810Y-13932428D01*
X4393286Y-13941952D01*
X4374238Y-13951476D01*
X4336143Y-13951476D01*
X4317095Y-13941952D01*
X4498048Y-13932428D02*
X4507571Y-13941952D01*
X4498048Y-13951476D01*
X4488524Y-13941952D01*
X4498048Y-13932428D01*
X4498048Y-13951476D01*
X4498048Y-13827667D02*
X4507571Y-13837190D01*
X4498048Y-13846714D01*
X4488524Y-13837190D01*
X4498048Y-13827667D01*
X4498048Y-13846714D01*
D12*
X2829000Y-14261000D02*
X2869000Y-14301000D01*
X2869000Y-14261000D02*
X2829000Y-14301000D01*
D11*
X3164714Y-14171476D02*
X3183762Y-14171476D01*
X3202809Y-14181000D01*
X3212333Y-14190524D01*
X3221857Y-14209571D01*
X3231381Y-14247667D01*
X3231381Y-14295286D01*
X3221857Y-14333381D01*
X3212333Y-14352428D01*
X3202809Y-14361952D01*
X3183762Y-14371476D01*
X3164714Y-14371476D01*
X3145667Y-14361952D01*
X3136143Y-14352428D01*
X3126619Y-14333381D01*
X3117095Y-14295286D01*
X3117095Y-14247667D01*
X3126619Y-14209571D01*
X3136143Y-14190524D01*
X3145667Y-14181000D01*
X3164714Y-14171476D01*
X3317095Y-14352428D02*
X3326619Y-14361952D01*
X3317095Y-14371476D01*
X3307571Y-14361952D01*
X3317095Y-14352428D01*
X3317095Y-14371476D01*
X3498048Y-14238143D02*
X3498048Y-14371476D01*
X3450428Y-14161952D02*
X3402809Y-14304809D01*
X3526619Y-14304809D01*
X3640905Y-14171476D02*
X3659952Y-14171476D01*
X3679000Y-14181000D01*
X3688524Y-14190524D01*
X3698048Y-14209571D01*
X3707571Y-14247667D01*
X3707571Y-14295286D01*
X3698048Y-14333381D01*
X3688524Y-14352428D01*
X3679000Y-14361952D01*
X3659952Y-14371476D01*
X3640905Y-14371476D01*
X3621857Y-14361952D01*
X3612333Y-14352428D01*
X3602809Y-14333381D01*
X3593286Y-14295286D01*
X3593286Y-14247667D01*
X3602809Y-14209571D01*
X3612333Y-14190524D01*
X3621857Y-14181000D01*
X3640905Y-14171476D01*
X3831381Y-14171476D02*
X3850428Y-14171476D01*
X3869476Y-14181000D01*
X3879000Y-14190524D01*
X3888524Y-14209571D01*
X3898048Y-14247667D01*
X3898048Y-14295286D01*
X3888524Y-14333381D01*
X3879000Y-14352428D01*
X3869476Y-14361952D01*
X3850428Y-14371476D01*
X3831381Y-14371476D01*
X3812333Y-14361952D01*
X3802809Y-14352428D01*
X3793286Y-14333381D01*
X3783762Y-14295286D01*
X3783762Y-14247667D01*
X3793286Y-14209571D01*
X3802809Y-14190524D01*
X3812333Y-14181000D01*
X3831381Y-14171476D01*
X3983762Y-14371476D02*
X3983762Y-14238143D01*
X3983762Y-14257190D02*
X3993286Y-14247667D01*
X4012333Y-14238143D01*
X4040905Y-14238143D01*
X4059952Y-14247667D01*
X4069476Y-14266714D01*
X4069476Y-14371476D01*
X4069476Y-14266714D02*
X4079000Y-14247667D01*
X4098048Y-14238143D01*
X4126619Y-14238143D01*
X4145667Y-14247667D01*
X4155190Y-14266714D01*
X4155190Y-14371476D01*
X4250429Y-14371476D02*
X4250429Y-14238143D01*
X4250429Y-14257190D02*
X4259952Y-14247667D01*
X4279000Y-14238143D01*
X4307571Y-14238143D01*
X4326619Y-14247667D01*
X4336143Y-14266714D01*
X4336143Y-14371476D01*
X4336143Y-14266714D02*
X4345667Y-14247667D01*
X4364714Y-14238143D01*
X4393286Y-14238143D01*
X4412333Y-14247667D01*
X4421857Y-14266714D01*
X4421857Y-14371476D01*
X4812333Y-14161952D02*
X4640905Y-14419095D01*
X5069476Y-14171476D02*
X5088524Y-14171476D01*
X5107571Y-14181000D01*
X5117095Y-14190524D01*
X5126619Y-14209571D01*
X5136143Y-14247667D01*
X5136143Y-14295286D01*
X5126619Y-14333381D01*
X5117095Y-14352428D01*
X5107571Y-14361952D01*
X5088524Y-14371476D01*
X5069476Y-14371476D01*
X5050429Y-14361952D01*
X5040905Y-14352428D01*
X5031381Y-14333381D01*
X5021857Y-14295286D01*
X5021857Y-14247667D01*
X5031381Y-14209571D01*
X5040905Y-14190524D01*
X5050429Y-14181000D01*
X5069476Y-14171476D01*
X5221857Y-14352428D02*
X5231381Y-14361952D01*
X5221857Y-14371476D01*
X5212333Y-14361952D01*
X5221857Y-14352428D01*
X5221857Y-14371476D01*
X5355190Y-14171476D02*
X5374238Y-14171476D01*
X5393286Y-14181000D01*
X5402810Y-14190524D01*
X5412333Y-14209571D01*
X5421857Y-14247667D01*
X5421857Y-14295286D01*
X5412333Y-14333381D01*
X5402810Y-14352428D01*
X5393286Y-14361952D01*
X5374238Y-14371476D01*
X5355190Y-14371476D01*
X5336143Y-14361952D01*
X5326619Y-14352428D01*
X5317095Y-14333381D01*
X5307571Y-14295286D01*
X5307571Y-14247667D01*
X5317095Y-14209571D01*
X5326619Y-14190524D01*
X5336143Y-14181000D01*
X5355190Y-14171476D01*
X5612333Y-14371476D02*
X5498048Y-14371476D01*
X5555190Y-14371476D02*
X5555190Y-14171476D01*
X5536143Y-14200048D01*
X5517095Y-14219095D01*
X5498048Y-14228619D01*
X5793286Y-14171476D02*
X5698048Y-14171476D01*
X5688524Y-14266714D01*
X5698048Y-14257190D01*
X5717095Y-14247667D01*
X5764714Y-14247667D01*
X5783762Y-14257190D01*
X5793286Y-14266714D01*
X5802809Y-14285762D01*
X5802809Y-14333381D01*
X5793286Y-14352428D01*
X5783762Y-14361952D01*
X5764714Y-14371476D01*
X5717095Y-14371476D01*
X5698048Y-14361952D01*
X5688524Y-14352428D01*
X5869476Y-14171476D02*
X6002809Y-14171476D01*
X5917095Y-14371476D01*
X6069476Y-14171476D02*
X6069476Y-14209571D01*
X6145667Y-14171476D02*
X6145667Y-14209571D01*
X6440905Y-14447667D02*
X6431381Y-14438143D01*
X6412333Y-14409571D01*
X6402809Y-14390524D01*
X6393286Y-14361952D01*
X6383762Y-14314333D01*
X6383762Y-14276238D01*
X6393286Y-14228619D01*
X6402809Y-14200048D01*
X6412333Y-14181000D01*
X6431381Y-14152428D01*
X6440905Y-14142905D01*
X6507571Y-14190524D02*
X6517095Y-14181000D01*
X6536143Y-14171476D01*
X6583762Y-14171476D01*
X6602809Y-14181000D01*
X6612333Y-14190524D01*
X6621857Y-14209571D01*
X6621857Y-14228619D01*
X6612333Y-14257190D01*
X6498048Y-14371476D01*
X6621857Y-14371476D01*
X6859952Y-14371476D02*
X6859952Y-14171476D01*
X6945667Y-14371476D02*
X6945667Y-14266714D01*
X6936143Y-14247667D01*
X6917095Y-14238143D01*
X6888524Y-14238143D01*
X6869476Y-14247667D01*
X6859952Y-14257190D01*
X7069476Y-14371476D02*
X7050428Y-14361952D01*
X7040905Y-14352428D01*
X7031381Y-14333381D01*
X7031381Y-14276238D01*
X7040905Y-14257190D01*
X7050428Y-14247667D01*
X7069476Y-14238143D01*
X7098048Y-14238143D01*
X7117095Y-14247667D01*
X7126619Y-14257190D01*
X7136143Y-14276238D01*
X7136143Y-14333381D01*
X7126619Y-14352428D01*
X7117095Y-14361952D01*
X7098048Y-14371476D01*
X7069476Y-14371476D01*
X7250428Y-14371476D02*
X7231381Y-14361952D01*
X7221857Y-14342905D01*
X7221857Y-14171476D01*
X7402809Y-14361952D02*
X7383762Y-14371476D01*
X7345667Y-14371476D01*
X7326619Y-14361952D01*
X7317095Y-14342905D01*
X7317095Y-14266714D01*
X7326619Y-14247667D01*
X7345667Y-14238143D01*
X7383762Y-14238143D01*
X7402809Y-14247667D01*
X7412333Y-14266714D01*
X7412333Y-14285762D01*
X7317095Y-14304809D01*
X7488524Y-14361952D02*
X7507571Y-14371476D01*
X7545667Y-14371476D01*
X7564714Y-14361952D01*
X7574238Y-14342905D01*
X7574238Y-14333381D01*
X7564714Y-14314333D01*
X7545667Y-14304809D01*
X7517095Y-14304809D01*
X7498048Y-14295286D01*
X7488524Y-14276238D01*
X7488524Y-14266714D01*
X7498048Y-14247667D01*
X7517095Y-14238143D01*
X7545667Y-14238143D01*
X7564714Y-14247667D01*
X7640905Y-14447667D02*
X7650428Y-14438143D01*
X7669476Y-14409571D01*
X7679000Y-14390524D01*
X7688524Y-14361952D01*
X7698048Y-14314333D01*
X7698048Y-14276238D01*
X7688524Y-14228619D01*
X7679000Y-14200048D01*
X7669476Y-14181000D01*
X7650428Y-14152428D01*
X7640905Y-14142905D01*
D13*
X2869000Y-14545000D02*
G75*
G03*
X2869000Y-14545000I-25000J0D01*
G01*
D11*
X3164714Y-14435476D02*
X3183762Y-14435476D01*
X3202809Y-14445000D01*
X3212333Y-14454524D01*
X3221857Y-14473571D01*
X3231381Y-14511667D01*
X3231381Y-14559286D01*
X3221857Y-14597381D01*
X3212333Y-14616428D01*
X3202809Y-14625952D01*
X3183762Y-14635476D01*
X3164714Y-14635476D01*
X3145667Y-14625952D01*
X3136143Y-14616428D01*
X3126619Y-14597381D01*
X3117095Y-14559286D01*
X3117095Y-14511667D01*
X3126619Y-14473571D01*
X3136143Y-14454524D01*
X3145667Y-14445000D01*
X3164714Y-14435476D01*
X3317095Y-14616428D02*
X3326619Y-14625952D01*
X3317095Y-14635476D01*
X3307571Y-14625952D01*
X3317095Y-14616428D01*
X3317095Y-14635476D01*
X3507571Y-14435476D02*
X3412333Y-14435476D01*
X3402809Y-14530714D01*
X3412333Y-14521190D01*
X3431381Y-14511667D01*
X3479000Y-14511667D01*
X3498048Y-14521190D01*
X3507571Y-14530714D01*
X3517095Y-14549762D01*
X3517095Y-14597381D01*
X3507571Y-14616428D01*
X3498048Y-14625952D01*
X3479000Y-14635476D01*
X3431381Y-14635476D01*
X3412333Y-14625952D01*
X3402809Y-14616428D01*
X3640905Y-14435476D02*
X3659952Y-14435476D01*
X3679000Y-14445000D01*
X3688524Y-14454524D01*
X3698048Y-14473571D01*
X3707571Y-14511667D01*
X3707571Y-14559286D01*
X3698048Y-14597381D01*
X3688524Y-14616428D01*
X3679000Y-14625952D01*
X3659952Y-14635476D01*
X3640905Y-14635476D01*
X3621857Y-14625952D01*
X3612333Y-14616428D01*
X3602809Y-14597381D01*
X3593286Y-14559286D01*
X3593286Y-14511667D01*
X3602809Y-14473571D01*
X3612333Y-14454524D01*
X3621857Y-14445000D01*
X3640905Y-14435476D01*
X3831381Y-14435476D02*
X3850428Y-14435476D01*
X3869476Y-14445000D01*
X3879000Y-14454524D01*
X3888524Y-14473571D01*
X3898048Y-14511667D01*
X3898048Y-14559286D01*
X3888524Y-14597381D01*
X3879000Y-14616428D01*
X3869476Y-14625952D01*
X3850428Y-14635476D01*
X3831381Y-14635476D01*
X3812333Y-14625952D01*
X3802809Y-14616428D01*
X3793286Y-14597381D01*
X3783762Y-14559286D01*
X3783762Y-14511667D01*
X3793286Y-14473571D01*
X3802809Y-14454524D01*
X3812333Y-14445000D01*
X3831381Y-14435476D01*
X3983762Y-14635476D02*
X3983762Y-14502143D01*
X3983762Y-14521190D02*
X3993286Y-14511667D01*
X4012333Y-14502143D01*
X4040905Y-14502143D01*
X4059952Y-14511667D01*
X4069476Y-14530714D01*
X4069476Y-14635476D01*
X4069476Y-14530714D02*
X4079000Y-14511667D01*
X4098048Y-14502143D01*
X4126619Y-14502143D01*
X4145667Y-14511667D01*
X4155190Y-14530714D01*
X4155190Y-14635476D01*
X4250429Y-14635476D02*
X4250429Y-14502143D01*
X4250429Y-14521190D02*
X4259952Y-14511667D01*
X4279000Y-14502143D01*
X4307571Y-14502143D01*
X4326619Y-14511667D01*
X4336143Y-14530714D01*
X4336143Y-14635476D01*
X4336143Y-14530714D02*
X4345667Y-14511667D01*
X4364714Y-14502143D01*
X4393286Y-14502143D01*
X4412333Y-14511667D01*
X4421857Y-14530714D01*
X4421857Y-14635476D01*
X4812333Y-14425952D02*
X4640905Y-14683095D01*
X5069476Y-14435476D02*
X5088524Y-14435476D01*
X5107571Y-14445000D01*
X5117095Y-14454524D01*
X5126619Y-14473571D01*
X5136143Y-14511667D01*
X5136143Y-14559286D01*
X5126619Y-14597381D01*
X5117095Y-14616428D01*
X5107571Y-14625952D01*
X5088524Y-14635476D01*
X5069476Y-14635476D01*
X5050429Y-14625952D01*
X5040905Y-14616428D01*
X5031381Y-14597381D01*
X5021857Y-14559286D01*
X5021857Y-14511667D01*
X5031381Y-14473571D01*
X5040905Y-14454524D01*
X5050429Y-14445000D01*
X5069476Y-14435476D01*
X5221857Y-14616428D02*
X5231381Y-14625952D01*
X5221857Y-14635476D01*
X5212333Y-14625952D01*
X5221857Y-14616428D01*
X5221857Y-14635476D01*
X5355190Y-14435476D02*
X5374238Y-14435476D01*
X5393286Y-14445000D01*
X5402810Y-14454524D01*
X5412333Y-14473571D01*
X5421857Y-14511667D01*
X5421857Y-14559286D01*
X5412333Y-14597381D01*
X5402810Y-14616428D01*
X5393286Y-14625952D01*
X5374238Y-14635476D01*
X5355190Y-14635476D01*
X5336143Y-14625952D01*
X5326619Y-14616428D01*
X5317095Y-14597381D01*
X5307571Y-14559286D01*
X5307571Y-14511667D01*
X5317095Y-14473571D01*
X5326619Y-14454524D01*
X5336143Y-14445000D01*
X5355190Y-14435476D01*
X5612333Y-14635476D02*
X5498048Y-14635476D01*
X5555190Y-14635476D02*
X5555190Y-14435476D01*
X5536143Y-14464048D01*
X5517095Y-14483095D01*
X5498048Y-14492619D01*
X5707571Y-14635476D02*
X5745667Y-14635476D01*
X5764714Y-14625952D01*
X5774238Y-14616428D01*
X5793286Y-14587857D01*
X5802809Y-14549762D01*
X5802809Y-14473571D01*
X5793286Y-14454524D01*
X5783762Y-14445000D01*
X5764714Y-14435476D01*
X5726619Y-14435476D01*
X5707571Y-14445000D01*
X5698048Y-14454524D01*
X5688524Y-14473571D01*
X5688524Y-14521190D01*
X5698048Y-14540238D01*
X5707571Y-14549762D01*
X5726619Y-14559286D01*
X5764714Y-14559286D01*
X5783762Y-14549762D01*
X5793286Y-14540238D01*
X5802809Y-14521190D01*
X5869476Y-14435476D02*
X6002809Y-14435476D01*
X5917095Y-14635476D01*
X6069476Y-14435476D02*
X6069476Y-14473571D01*
X6145667Y-14435476D02*
X6145667Y-14473571D01*
X6440905Y-14711667D02*
X6431381Y-14702143D01*
X6412333Y-14673571D01*
X6402809Y-14654524D01*
X6393286Y-14625952D01*
X6383762Y-14578333D01*
X6383762Y-14540238D01*
X6393286Y-14492619D01*
X6402809Y-14464048D01*
X6412333Y-14445000D01*
X6431381Y-14416428D01*
X6440905Y-14406905D01*
X6498048Y-14435476D02*
X6631381Y-14435476D01*
X6545667Y-14635476D01*
X6859952Y-14635476D02*
X6859952Y-14435476D01*
X6945667Y-14635476D02*
X6945667Y-14530714D01*
X6936143Y-14511667D01*
X6917095Y-14502143D01*
X6888524Y-14502143D01*
X6869476Y-14511667D01*
X6859952Y-14521190D01*
X7069476Y-14635476D02*
X7050428Y-14625952D01*
X7040905Y-14616428D01*
X7031381Y-14597381D01*
X7031381Y-14540238D01*
X7040905Y-14521190D01*
X7050428Y-14511667D01*
X7069476Y-14502143D01*
X7098048Y-14502143D01*
X7117095Y-14511667D01*
X7126619Y-14521190D01*
X7136143Y-14540238D01*
X7136143Y-14597381D01*
X7126619Y-14616428D01*
X7117095Y-14625952D01*
X7098048Y-14635476D01*
X7069476Y-14635476D01*
X7250428Y-14635476D02*
X7231381Y-14625952D01*
X7221857Y-14606905D01*
X7221857Y-14435476D01*
X7402809Y-14625952D02*
X7383762Y-14635476D01*
X7345667Y-14635476D01*
X7326619Y-14625952D01*
X7317095Y-14606905D01*
X7317095Y-14530714D01*
X7326619Y-14511667D01*
X7345667Y-14502143D01*
X7383762Y-14502143D01*
X7402809Y-14511667D01*
X7412333Y-14530714D01*
X7412333Y-14549762D01*
X7317095Y-14568809D01*
X7488524Y-14625952D02*
X7507571Y-14635476D01*
X7545667Y-14635476D01*
X7564714Y-14625952D01*
X7574238Y-14606905D01*
X7574238Y-14597381D01*
X7564714Y-14578333D01*
X7545667Y-14568809D01*
X7517095Y-14568809D01*
X7498048Y-14559286D01*
X7488524Y-14540238D01*
X7488524Y-14530714D01*
X7498048Y-14511667D01*
X7517095Y-14502143D01*
X7545667Y-14502143D01*
X7564714Y-14511667D01*
X7640905Y-14711667D02*
X7650428Y-14702143D01*
X7669476Y-14673571D01*
X7679000Y-14654524D01*
X7688524Y-14625952D01*
X7698048Y-14578333D01*
X7698048Y-14540238D01*
X7688524Y-14492619D01*
X7679000Y-14464048D01*
X7669476Y-14445000D01*
X7650428Y-14416428D01*
X7640905Y-14406905D01*
D14*
X2839000Y-14779000D02*
X2839000Y-14839000D01*
X2809000Y-14809000D02*
X2869000Y-14809000D01*
D11*
X3164714Y-14699476D02*
X3183762Y-14699476D01*
X3202809Y-14709000D01*
X3212333Y-14718524D01*
X3221857Y-14737571D01*
X3231381Y-14775667D01*
X3231381Y-14823286D01*
X3221857Y-14861381D01*
X3212333Y-14880428D01*
X3202809Y-14889952D01*
X3183762Y-14899476D01*
X3164714Y-14899476D01*
X3145667Y-14889952D01*
X3136143Y-14880428D01*
X3126619Y-14861381D01*
X3117095Y-14823286D01*
X3117095Y-14775667D01*
X3126619Y-14737571D01*
X3136143Y-14718524D01*
X3145667Y-14709000D01*
X3164714Y-14699476D01*
X3317095Y-14880428D02*
X3326619Y-14889952D01*
X3317095Y-14899476D01*
X3307571Y-14889952D01*
X3317095Y-14880428D01*
X3317095Y-14899476D01*
X3498048Y-14699476D02*
X3459952Y-14699476D01*
X3440905Y-14709000D01*
X3431381Y-14718524D01*
X3412333Y-14747095D01*
X3402809Y-14785190D01*
X3402809Y-14861381D01*
X3412333Y-14880428D01*
X3421857Y-14889952D01*
X3440905Y-14899476D01*
X3479000Y-14899476D01*
X3498048Y-14889952D01*
X3507571Y-14880428D01*
X3517095Y-14861381D01*
X3517095Y-14813762D01*
X3507571Y-14794714D01*
X3498048Y-14785190D01*
X3479000Y-14775667D01*
X3440905Y-14775667D01*
X3421857Y-14785190D01*
X3412333Y-14794714D01*
X3402809Y-14813762D01*
X3640905Y-14699476D02*
X3659952Y-14699476D01*
X3679000Y-14709000D01*
X3688524Y-14718524D01*
X3698048Y-14737571D01*
X3707571Y-14775667D01*
X3707571Y-14823286D01*
X3698048Y-14861381D01*
X3688524Y-14880428D01*
X3679000Y-14889952D01*
X3659952Y-14899476D01*
X3640905Y-14899476D01*
X3621857Y-14889952D01*
X3612333Y-14880428D01*
X3602809Y-14861381D01*
X3593286Y-14823286D01*
X3593286Y-14775667D01*
X3602809Y-14737571D01*
X3612333Y-14718524D01*
X3621857Y-14709000D01*
X3640905Y-14699476D01*
X3831381Y-14699476D02*
X3850428Y-14699476D01*
X3869476Y-14709000D01*
X3879000Y-14718524D01*
X3888524Y-14737571D01*
X3898048Y-14775667D01*
X3898048Y-14823286D01*
X3888524Y-14861381D01*
X3879000Y-14880428D01*
X3869476Y-14889952D01*
X3850428Y-14899476D01*
X3831381Y-14899476D01*
X3812333Y-14889952D01*
X3802809Y-14880428D01*
X3793286Y-14861381D01*
X3783762Y-14823286D01*
X3783762Y-14775667D01*
X3793286Y-14737571D01*
X3802809Y-14718524D01*
X3812333Y-14709000D01*
X3831381Y-14699476D01*
X3983762Y-14899476D02*
X3983762Y-14766143D01*
X3983762Y-14785190D02*
X3993286Y-14775667D01*
X4012333Y-14766143D01*
X4040905Y-14766143D01*
X4059952Y-14775667D01*
X4069476Y-14794714D01*
X4069476Y-14899476D01*
X4069476Y-14794714D02*
X4079000Y-14775667D01*
X4098048Y-14766143D01*
X4126619Y-14766143D01*
X4145667Y-14775667D01*
X4155190Y-14794714D01*
X4155190Y-14899476D01*
X4250429Y-14899476D02*
X4250429Y-14766143D01*
X4250429Y-14785190D02*
X4259952Y-14775667D01*
X4279000Y-14766143D01*
X4307571Y-14766143D01*
X4326619Y-14775667D01*
X4336143Y-14794714D01*
X4336143Y-14899476D01*
X4336143Y-14794714D02*
X4345667Y-14775667D01*
X4364714Y-14766143D01*
X4393286Y-14766143D01*
X4412333Y-14775667D01*
X4421857Y-14794714D01*
X4421857Y-14899476D01*
X4812333Y-14689952D02*
X4640905Y-14947095D01*
X5069476Y-14699476D02*
X5088524Y-14699476D01*
X5107571Y-14709000D01*
X5117095Y-14718524D01*
X5126619Y-14737571D01*
X5136143Y-14775667D01*
X5136143Y-14823286D01*
X5126619Y-14861381D01*
X5117095Y-14880428D01*
X5107571Y-14889952D01*
X5088524Y-14899476D01*
X5069476Y-14899476D01*
X5050429Y-14889952D01*
X5040905Y-14880428D01*
X5031381Y-14861381D01*
X5021857Y-14823286D01*
X5021857Y-14775667D01*
X5031381Y-14737571D01*
X5040905Y-14718524D01*
X5050429Y-14709000D01*
X5069476Y-14699476D01*
X5221857Y-14880428D02*
X5231381Y-14889952D01*
X5221857Y-14899476D01*
X5212333Y-14889952D01*
X5221857Y-14880428D01*
X5221857Y-14899476D01*
X5355190Y-14699476D02*
X5374238Y-14699476D01*
X5393286Y-14709000D01*
X5402810Y-14718524D01*
X5412333Y-14737571D01*
X5421857Y-14775667D01*
X5421857Y-14823286D01*
X5412333Y-14861381D01*
X5402810Y-14880428D01*
X5393286Y-14889952D01*
X5374238Y-14899476D01*
X5355190Y-14899476D01*
X5336143Y-14889952D01*
X5326619Y-14880428D01*
X5317095Y-14861381D01*
X5307571Y-14823286D01*
X5307571Y-14775667D01*
X5317095Y-14737571D01*
X5326619Y-14718524D01*
X5336143Y-14709000D01*
X5355190Y-14699476D01*
X5498048Y-14718524D02*
X5507571Y-14709000D01*
X5526619Y-14699476D01*
X5574238Y-14699476D01*
X5593286Y-14709000D01*
X5602809Y-14718524D01*
X5612333Y-14737571D01*
X5612333Y-14756619D01*
X5602809Y-14785190D01*
X5488524Y-14899476D01*
X5612333Y-14899476D01*
X5679000Y-14699476D02*
X5802809Y-14699476D01*
X5736143Y-14775667D01*
X5764714Y-14775667D01*
X5783762Y-14785190D01*
X5793286Y-14794714D01*
X5802809Y-14813762D01*
X5802809Y-14861381D01*
X5793286Y-14880428D01*
X5783762Y-14889952D01*
X5764714Y-14899476D01*
X5707571Y-14899476D01*
X5688524Y-14889952D01*
X5679000Y-14880428D01*
X5974238Y-14699476D02*
X5936143Y-14699476D01*
X5917095Y-14709000D01*
X5907571Y-14718524D01*
X5888524Y-14747095D01*
X5879000Y-14785190D01*
X5879000Y-14861381D01*
X5888524Y-14880428D01*
X5898048Y-14889952D01*
X5917095Y-14899476D01*
X5955190Y-14899476D01*
X5974238Y-14889952D01*
X5983762Y-14880428D01*
X5993286Y-14861381D01*
X5993286Y-14813762D01*
X5983762Y-14794714D01*
X5974238Y-14785190D01*
X5955190Y-14775667D01*
X5917095Y-14775667D01*
X5898048Y-14785190D01*
X5888524Y-14794714D01*
X5879000Y-14813762D01*
X6069476Y-14699476D02*
X6069476Y-14737571D01*
X6145667Y-14699476D02*
X6145667Y-14737571D01*
X6440905Y-14975667D02*
X6431381Y-14966143D01*
X6412333Y-14937571D01*
X6402809Y-14918524D01*
X6393286Y-14889952D01*
X6383762Y-14842333D01*
X6383762Y-14804238D01*
X6393286Y-14756619D01*
X6402809Y-14728048D01*
X6412333Y-14709000D01*
X6431381Y-14680428D01*
X6440905Y-14670905D01*
X6621857Y-14899476D02*
X6507571Y-14899476D01*
X6564714Y-14899476D02*
X6564714Y-14699476D01*
X6545667Y-14728048D01*
X6526619Y-14747095D01*
X6507571Y-14756619D01*
X6736143Y-14785190D02*
X6717095Y-14775667D01*
X6707571Y-14766143D01*
X6698048Y-14747095D01*
X6698048Y-14737571D01*
X6707571Y-14718524D01*
X6717095Y-14709000D01*
X6736143Y-14699476D01*
X6774238Y-14699476D01*
X6793286Y-14709000D01*
X6802809Y-14718524D01*
X6812333Y-14737571D01*
X6812333Y-14747095D01*
X6802809Y-14766143D01*
X6793286Y-14775667D01*
X6774238Y-14785190D01*
X6736143Y-14785190D01*
X6717095Y-14794714D01*
X6707571Y-14804238D01*
X6698048Y-14823286D01*
X6698048Y-14861381D01*
X6707571Y-14880428D01*
X6717095Y-14889952D01*
X6736143Y-14899476D01*
X6774238Y-14899476D01*
X6793286Y-14889952D01*
X6802809Y-14880428D01*
X6812333Y-14861381D01*
X6812333Y-14823286D01*
X6802809Y-14804238D01*
X6793286Y-14794714D01*
X6774238Y-14785190D01*
X7050428Y-14899476D02*
X7050428Y-14699476D01*
X7136143Y-14899476D02*
X7136143Y-14794714D01*
X7126619Y-14775667D01*
X7107571Y-14766143D01*
X7079000Y-14766143D01*
X7059952Y-14775667D01*
X7050428Y-14785190D01*
X7259952Y-14899476D02*
X7240905Y-14889952D01*
X7231381Y-14880428D01*
X7221857Y-14861381D01*
X7221857Y-14804238D01*
X7231381Y-14785190D01*
X7240905Y-14775667D01*
X7259952Y-14766143D01*
X7288524Y-14766143D01*
X7307571Y-14775667D01*
X7317095Y-14785190D01*
X7326619Y-14804238D01*
X7326619Y-14861381D01*
X7317095Y-14880428D01*
X7307571Y-14889952D01*
X7288524Y-14899476D01*
X7259952Y-14899476D01*
X7440905Y-14899476D02*
X7421857Y-14889952D01*
X7412333Y-14870905D01*
X7412333Y-14699476D01*
X7593286Y-14889952D02*
X7574238Y-14899476D01*
X7536143Y-14899476D01*
X7517095Y-14889952D01*
X7507571Y-14870905D01*
X7507571Y-14794714D01*
X7517095Y-14775667D01*
X7536143Y-14766143D01*
X7574238Y-14766143D01*
X7593286Y-14775667D01*
X7602809Y-14794714D01*
X7602809Y-14813762D01*
X7507571Y-14832809D01*
X7679000Y-14889952D02*
X7698048Y-14899476D01*
X7736143Y-14899476D01*
X7755190Y-14889952D01*
X7764714Y-14870905D01*
X7764714Y-14861381D01*
X7755190Y-14842333D01*
X7736143Y-14832809D01*
X7707571Y-14832809D01*
X7688524Y-14823286D01*
X7679000Y-14804238D01*
X7679000Y-14794714D01*
X7688524Y-14775667D01*
X7707571Y-14766143D01*
X7736143Y-14766143D01*
X7755190Y-14775667D01*
X7831381Y-14975667D02*
X7840905Y-14966143D01*
X7859952Y-14937571D01*
X7869476Y-14918524D01*
X7879000Y-14889952D01*
X7888524Y-14842333D01*
X7888524Y-14804238D01*
X7879000Y-14756619D01*
X7869476Y-14728048D01*
X7859952Y-14709000D01*
X7840905Y-14680428D01*
X7831381Y-14670905D01*
D15*
X2858017Y-15099517D02*
X2858017Y-15046483D01*
X2804983Y-15046483D01*
X2804983Y-15099517D01*
X2858017Y-15099517D01*
D11*
X3164714Y-14963476D02*
X3183762Y-14963476D01*
X3202809Y-14973000D01*
X3212333Y-14982524D01*
X3221857Y-15001571D01*
X3231381Y-15039667D01*
X3231381Y-15087286D01*
X3221857Y-15125381D01*
X3212333Y-15144428D01*
X3202809Y-15153952D01*
X3183762Y-15163476D01*
X3164714Y-15163476D01*
X3145667Y-15153952D01*
X3136143Y-15144428D01*
X3126619Y-15125381D01*
X3117095Y-15087286D01*
X3117095Y-15039667D01*
X3126619Y-15001571D01*
X3136143Y-14982524D01*
X3145667Y-14973000D01*
X3164714Y-14963476D01*
X3317095Y-15144428D02*
X3326619Y-15153952D01*
X3317095Y-15163476D01*
X3307571Y-15153952D01*
X3317095Y-15144428D01*
X3317095Y-15163476D01*
X3393286Y-14963476D02*
X3526619Y-14963476D01*
X3440905Y-15163476D01*
X3698048Y-14963476D02*
X3602809Y-14963476D01*
X3593286Y-15058714D01*
X3602809Y-15049190D01*
X3621857Y-15039667D01*
X3669476Y-15039667D01*
X3688524Y-15049190D01*
X3698048Y-15058714D01*
X3707571Y-15077762D01*
X3707571Y-15125381D01*
X3698048Y-15144428D01*
X3688524Y-15153952D01*
X3669476Y-15163476D01*
X3621857Y-15163476D01*
X3602809Y-15153952D01*
X3593286Y-15144428D01*
X3831381Y-14963476D02*
X3850428Y-14963476D01*
X3869476Y-14973000D01*
X3879000Y-14982524D01*
X3888524Y-15001571D01*
X3898048Y-15039667D01*
X3898048Y-15087286D01*
X3888524Y-15125381D01*
X3879000Y-15144428D01*
X3869476Y-15153952D01*
X3850428Y-15163476D01*
X3831381Y-15163476D01*
X3812333Y-15153952D01*
X3802809Y-15144428D01*
X3793286Y-15125381D01*
X3783762Y-15087286D01*
X3783762Y-15039667D01*
X3793286Y-15001571D01*
X3802809Y-14982524D01*
X3812333Y-14973000D01*
X3831381Y-14963476D01*
X3983762Y-15163476D02*
X3983762Y-15030143D01*
X3983762Y-15049190D02*
X3993286Y-15039667D01*
X4012333Y-15030143D01*
X4040905Y-15030143D01*
X4059952Y-15039667D01*
X4069476Y-15058714D01*
X4069476Y-15163476D01*
X4069476Y-15058714D02*
X4079000Y-15039667D01*
X4098048Y-15030143D01*
X4126619Y-15030143D01*
X4145667Y-15039667D01*
X4155190Y-15058714D01*
X4155190Y-15163476D01*
X4250429Y-15163476D02*
X4250429Y-15030143D01*
X4250429Y-15049190D02*
X4259952Y-15039667D01*
X4279000Y-15030143D01*
X4307571Y-15030143D01*
X4326619Y-15039667D01*
X4336143Y-15058714D01*
X4336143Y-15163476D01*
X4336143Y-15058714D02*
X4345667Y-15039667D01*
X4364714Y-15030143D01*
X4393286Y-15030143D01*
X4412333Y-15039667D01*
X4421857Y-15058714D01*
X4421857Y-15163476D01*
X4812333Y-14953952D02*
X4640905Y-15211095D01*
X5069476Y-14963476D02*
X5088524Y-14963476D01*
X5107571Y-14973000D01*
X5117095Y-14982524D01*
X5126619Y-15001571D01*
X5136143Y-15039667D01*
X5136143Y-15087286D01*
X5126619Y-15125381D01*
X5117095Y-15144428D01*
X5107571Y-15153952D01*
X5088524Y-15163476D01*
X5069476Y-15163476D01*
X5050429Y-15153952D01*
X5040905Y-15144428D01*
X5031381Y-15125381D01*
X5021857Y-15087286D01*
X5021857Y-15039667D01*
X5031381Y-15001571D01*
X5040905Y-14982524D01*
X5050429Y-14973000D01*
X5069476Y-14963476D01*
X5221857Y-15144428D02*
X5231381Y-15153952D01*
X5221857Y-15163476D01*
X5212333Y-15153952D01*
X5221857Y-15144428D01*
X5221857Y-15163476D01*
X5355190Y-14963476D02*
X5374238Y-14963476D01*
X5393286Y-14973000D01*
X5402810Y-14982524D01*
X5412333Y-15001571D01*
X5421857Y-15039667D01*
X5421857Y-15087286D01*
X5412333Y-15125381D01*
X5402810Y-15144428D01*
X5393286Y-15153952D01*
X5374238Y-15163476D01*
X5355190Y-15163476D01*
X5336143Y-15153952D01*
X5326619Y-15144428D01*
X5317095Y-15125381D01*
X5307571Y-15087286D01*
X5307571Y-15039667D01*
X5317095Y-15001571D01*
X5326619Y-14982524D01*
X5336143Y-14973000D01*
X5355190Y-14963476D01*
X5498048Y-14982524D02*
X5507571Y-14973000D01*
X5526619Y-14963476D01*
X5574238Y-14963476D01*
X5593286Y-14973000D01*
X5602809Y-14982524D01*
X5612333Y-15001571D01*
X5612333Y-15020619D01*
X5602809Y-15049190D01*
X5488524Y-15163476D01*
X5612333Y-15163476D01*
X5707571Y-15163476D02*
X5745667Y-15163476D01*
X5764714Y-15153952D01*
X5774238Y-15144428D01*
X5793286Y-15115857D01*
X5802809Y-15077762D01*
X5802809Y-15001571D01*
X5793286Y-14982524D01*
X5783762Y-14973000D01*
X5764714Y-14963476D01*
X5726619Y-14963476D01*
X5707571Y-14973000D01*
X5698048Y-14982524D01*
X5688524Y-15001571D01*
X5688524Y-15049190D01*
X5698048Y-15068238D01*
X5707571Y-15077762D01*
X5726619Y-15087286D01*
X5764714Y-15087286D01*
X5783762Y-15077762D01*
X5793286Y-15068238D01*
X5802809Y-15049190D01*
X5983762Y-14963476D02*
X5888524Y-14963476D01*
X5879000Y-15058714D01*
X5888524Y-15049190D01*
X5907571Y-15039667D01*
X5955190Y-15039667D01*
X5974238Y-15049190D01*
X5983762Y-15058714D01*
X5993286Y-15077762D01*
X5993286Y-15125381D01*
X5983762Y-15144428D01*
X5974238Y-15153952D01*
X5955190Y-15163476D01*
X5907571Y-15163476D01*
X5888524Y-15153952D01*
X5879000Y-15144428D01*
X6069476Y-14963476D02*
X6069476Y-15001571D01*
X6145667Y-14963476D02*
X6145667Y-15001571D01*
X6440905Y-15239667D02*
X6431381Y-15230143D01*
X6412333Y-15201571D01*
X6402809Y-15182524D01*
X6393286Y-15153952D01*
X6383762Y-15106333D01*
X6383762Y-15068238D01*
X6393286Y-15020619D01*
X6402809Y-14992048D01*
X6412333Y-14973000D01*
X6431381Y-14944428D01*
X6440905Y-14934905D01*
X6498048Y-14963476D02*
X6621857Y-14963476D01*
X6555190Y-15039667D01*
X6583762Y-15039667D01*
X6602809Y-15049190D01*
X6612333Y-15058714D01*
X6621857Y-15077762D01*
X6621857Y-15125381D01*
X6612333Y-15144428D01*
X6602809Y-15153952D01*
X6583762Y-15163476D01*
X6526619Y-15163476D01*
X6507571Y-15153952D01*
X6498048Y-15144428D01*
X6859952Y-15163476D02*
X6859952Y-14963476D01*
X6945667Y-15163476D02*
X6945667Y-15058714D01*
X6936143Y-15039667D01*
X6917095Y-15030143D01*
X6888524Y-15030143D01*
X6869476Y-15039667D01*
X6859952Y-15049190D01*
X7069476Y-15163476D02*
X7050428Y-15153952D01*
X7040905Y-15144428D01*
X7031381Y-15125381D01*
X7031381Y-15068238D01*
X7040905Y-15049190D01*
X7050428Y-15039667D01*
X7069476Y-15030143D01*
X7098048Y-15030143D01*
X7117095Y-15039667D01*
X7126619Y-15049190D01*
X7136143Y-15068238D01*
X7136143Y-15125381D01*
X7126619Y-15144428D01*
X7117095Y-15153952D01*
X7098048Y-15163476D01*
X7069476Y-15163476D01*
X7250428Y-15163476D02*
X7231381Y-15153952D01*
X7221857Y-15134905D01*
X7221857Y-14963476D01*
X7402809Y-15153952D02*
X7383762Y-15163476D01*
X7345667Y-15163476D01*
X7326619Y-15153952D01*
X7317095Y-15134905D01*
X7317095Y-15058714D01*
X7326619Y-15039667D01*
X7345667Y-15030143D01*
X7383762Y-15030143D01*
X7402809Y-15039667D01*
X7412333Y-15058714D01*
X7412333Y-15077762D01*
X7317095Y-15096809D01*
X7488524Y-15153952D02*
X7507571Y-15163476D01*
X7545667Y-15163476D01*
X7564714Y-15153952D01*
X7574238Y-15134905D01*
X7574238Y-15125381D01*
X7564714Y-15106333D01*
X7545667Y-15096809D01*
X7517095Y-15096809D01*
X7498048Y-15087286D01*
X7488524Y-15068238D01*
X7488524Y-15058714D01*
X7498048Y-15039667D01*
X7517095Y-15030143D01*
X7545667Y-15030143D01*
X7564714Y-15039667D01*
X7640905Y-15239667D02*
X7650428Y-15230143D01*
X7669476Y-15201571D01*
X7679000Y-15182524D01*
X7688524Y-15153952D01*
X7698048Y-15106333D01*
X7698048Y-15068238D01*
X7688524Y-15020619D01*
X7679000Y-14992048D01*
X7669476Y-14973000D01*
X7650428Y-14944428D01*
X7640905Y-14934905D01*
D16*
X2829000Y-15377000D02*
X2869000Y-15337000D01*
X2829000Y-15297000D01*
X2789000Y-15337000D01*
X2829000Y-15377000D01*
D11*
X3164714Y-15227476D02*
X3183762Y-15227476D01*
X3202809Y-15237000D01*
X3212333Y-15246524D01*
X3221857Y-15265571D01*
X3231381Y-15303667D01*
X3231381Y-15351286D01*
X3221857Y-15389381D01*
X3212333Y-15408428D01*
X3202809Y-15417952D01*
X3183762Y-15427476D01*
X3164714Y-15427476D01*
X3145667Y-15417952D01*
X3136143Y-15408428D01*
X3126619Y-15389381D01*
X3117095Y-15351286D01*
X3117095Y-15303667D01*
X3126619Y-15265571D01*
X3136143Y-15246524D01*
X3145667Y-15237000D01*
X3164714Y-15227476D01*
X3317095Y-15408428D02*
X3326619Y-15417952D01*
X3317095Y-15427476D01*
X3307571Y-15417952D01*
X3317095Y-15408428D01*
X3317095Y-15427476D01*
X3440905Y-15313190D02*
X3421857Y-15303667D01*
X3412333Y-15294143D01*
X3402809Y-15275095D01*
X3402809Y-15265571D01*
X3412333Y-15246524D01*
X3421857Y-15237000D01*
X3440905Y-15227476D01*
X3479000Y-15227476D01*
X3498048Y-15237000D01*
X3507571Y-15246524D01*
X3517095Y-15265571D01*
X3517095Y-15275095D01*
X3507571Y-15294143D01*
X3498048Y-15303667D01*
X3479000Y-15313190D01*
X3440905Y-15313190D01*
X3421857Y-15322714D01*
X3412333Y-15332238D01*
X3402809Y-15351286D01*
X3402809Y-15389381D01*
X3412333Y-15408428D01*
X3421857Y-15417952D01*
X3440905Y-15427476D01*
X3479000Y-15427476D01*
X3498048Y-15417952D01*
X3507571Y-15408428D01*
X3517095Y-15389381D01*
X3517095Y-15351286D01*
X3507571Y-15332238D01*
X3498048Y-15322714D01*
X3479000Y-15313190D01*
X3640905Y-15227476D02*
X3659952Y-15227476D01*
X3679000Y-15237000D01*
X3688524Y-15246524D01*
X3698048Y-15265571D01*
X3707571Y-15303667D01*
X3707571Y-15351286D01*
X3698048Y-15389381D01*
X3688524Y-15408428D01*
X3679000Y-15417952D01*
X3659952Y-15427476D01*
X3640905Y-15427476D01*
X3621857Y-15417952D01*
X3612333Y-15408428D01*
X3602809Y-15389381D01*
X3593286Y-15351286D01*
X3593286Y-15303667D01*
X3602809Y-15265571D01*
X3612333Y-15246524D01*
X3621857Y-15237000D01*
X3640905Y-15227476D01*
X3831381Y-15227476D02*
X3850428Y-15227476D01*
X3869476Y-15237000D01*
X3879000Y-15246524D01*
X3888524Y-15265571D01*
X3898048Y-15303667D01*
X3898048Y-15351286D01*
X3888524Y-15389381D01*
X3879000Y-15408428D01*
X3869476Y-15417952D01*
X3850428Y-15427476D01*
X3831381Y-15427476D01*
X3812333Y-15417952D01*
X3802809Y-15408428D01*
X3793286Y-15389381D01*
X3783762Y-15351286D01*
X3783762Y-15303667D01*
X3793286Y-15265571D01*
X3802809Y-15246524D01*
X3812333Y-15237000D01*
X3831381Y-15227476D01*
X3983762Y-15427476D02*
X3983762Y-15294143D01*
X3983762Y-15313190D02*
X3993286Y-15303667D01*
X4012333Y-15294143D01*
X4040905Y-15294143D01*
X4059952Y-15303667D01*
X4069476Y-15322714D01*
X4069476Y-15427476D01*
X4069476Y-15322714D02*
X4079000Y-15303667D01*
X4098048Y-15294143D01*
X4126619Y-15294143D01*
X4145667Y-15303667D01*
X4155190Y-15322714D01*
X4155190Y-15427476D01*
X4250429Y-15427476D02*
X4250429Y-15294143D01*
X4250429Y-15313190D02*
X4259952Y-15303667D01*
X4279000Y-15294143D01*
X4307571Y-15294143D01*
X4326619Y-15303667D01*
X4336143Y-15322714D01*
X4336143Y-15427476D01*
X4336143Y-15322714D02*
X4345667Y-15303667D01*
X4364714Y-15294143D01*
X4393286Y-15294143D01*
X4412333Y-15303667D01*
X4421857Y-15322714D01*
X4421857Y-15427476D01*
X4812333Y-15217952D02*
X4640905Y-15475095D01*
X5069476Y-15227476D02*
X5088524Y-15227476D01*
X5107571Y-15237000D01*
X5117095Y-15246524D01*
X5126619Y-15265571D01*
X5136143Y-15303667D01*
X5136143Y-15351286D01*
X5126619Y-15389381D01*
X5117095Y-15408428D01*
X5107571Y-15417952D01*
X5088524Y-15427476D01*
X5069476Y-15427476D01*
X5050429Y-15417952D01*
X5040905Y-15408428D01*
X5031381Y-15389381D01*
X5021857Y-15351286D01*
X5021857Y-15303667D01*
X5031381Y-15265571D01*
X5040905Y-15246524D01*
X5050429Y-15237000D01*
X5069476Y-15227476D01*
X5221857Y-15408428D02*
X5231381Y-15417952D01*
X5221857Y-15427476D01*
X5212333Y-15417952D01*
X5221857Y-15408428D01*
X5221857Y-15427476D01*
X5355190Y-15227476D02*
X5374238Y-15227476D01*
X5393286Y-15237000D01*
X5402810Y-15246524D01*
X5412333Y-15265571D01*
X5421857Y-15303667D01*
X5421857Y-15351286D01*
X5412333Y-15389381D01*
X5402810Y-15408428D01*
X5393286Y-15417952D01*
X5374238Y-15427476D01*
X5355190Y-15427476D01*
X5336143Y-15417952D01*
X5326619Y-15408428D01*
X5317095Y-15389381D01*
X5307571Y-15351286D01*
X5307571Y-15303667D01*
X5317095Y-15265571D01*
X5326619Y-15246524D01*
X5336143Y-15237000D01*
X5355190Y-15227476D01*
X5488524Y-15227476D02*
X5612333Y-15227476D01*
X5545667Y-15303667D01*
X5574238Y-15303667D01*
X5593286Y-15313190D01*
X5602809Y-15322714D01*
X5612333Y-15341762D01*
X5612333Y-15389381D01*
X5602809Y-15408428D01*
X5593286Y-15417952D01*
X5574238Y-15427476D01*
X5517095Y-15427476D01*
X5498048Y-15417952D01*
X5488524Y-15408428D01*
X5802809Y-15427476D02*
X5688524Y-15427476D01*
X5745667Y-15427476D02*
X5745667Y-15227476D01*
X5726619Y-15256048D01*
X5707571Y-15275095D01*
X5688524Y-15284619D01*
X5983762Y-15227476D02*
X5888524Y-15227476D01*
X5879000Y-15322714D01*
X5888524Y-15313190D01*
X5907571Y-15303667D01*
X5955190Y-15303667D01*
X5974238Y-15313190D01*
X5983762Y-15322714D01*
X5993286Y-15341762D01*
X5993286Y-15389381D01*
X5983762Y-15408428D01*
X5974238Y-15417952D01*
X5955190Y-15427476D01*
X5907571Y-15427476D01*
X5888524Y-15417952D01*
X5879000Y-15408428D01*
X6069476Y-15227476D02*
X6069476Y-15265571D01*
X6145667Y-15227476D02*
X6145667Y-15265571D01*
X6440905Y-15503667D02*
X6431381Y-15494143D01*
X6412333Y-15465571D01*
X6402809Y-15446524D01*
X6393286Y-15417952D01*
X6383762Y-15370333D01*
X6383762Y-15332238D01*
X6393286Y-15284619D01*
X6402809Y-15256048D01*
X6412333Y-15237000D01*
X6431381Y-15208428D01*
X6440905Y-15198905D01*
X6602809Y-15227476D02*
X6564714Y-15227476D01*
X6545667Y-15237000D01*
X6536143Y-15246524D01*
X6517095Y-15275095D01*
X6507571Y-15313190D01*
X6507571Y-15389381D01*
X6517095Y-15408428D01*
X6526619Y-15417952D01*
X6545667Y-15427476D01*
X6583762Y-15427476D01*
X6602809Y-15417952D01*
X6612333Y-15408428D01*
X6621857Y-15389381D01*
X6621857Y-15341762D01*
X6612333Y-15322714D01*
X6602809Y-15313190D01*
X6583762Y-15303667D01*
X6545667Y-15303667D01*
X6526619Y-15313190D01*
X6517095Y-15322714D01*
X6507571Y-15341762D01*
X6859952Y-15427476D02*
X6859952Y-15227476D01*
X6945667Y-15427476D02*
X6945667Y-15322714D01*
X6936143Y-15303667D01*
X6917095Y-15294143D01*
X6888524Y-15294143D01*
X6869476Y-15303667D01*
X6859952Y-15313190D01*
X7069476Y-15427476D02*
X7050428Y-15417952D01*
X7040905Y-15408428D01*
X7031381Y-15389381D01*
X7031381Y-15332238D01*
X7040905Y-15313190D01*
X7050428Y-15303667D01*
X7069476Y-15294143D01*
X7098048Y-15294143D01*
X7117095Y-15303667D01*
X7126619Y-15313190D01*
X7136143Y-15332238D01*
X7136143Y-15389381D01*
X7126619Y-15408428D01*
X7117095Y-15417952D01*
X7098048Y-15427476D01*
X7069476Y-15427476D01*
X7250428Y-15427476D02*
X7231381Y-15417952D01*
X7221857Y-15398905D01*
X7221857Y-15227476D01*
X7402809Y-15417952D02*
X7383762Y-15427476D01*
X7345667Y-15427476D01*
X7326619Y-15417952D01*
X7317095Y-15398905D01*
X7317095Y-15322714D01*
X7326619Y-15303667D01*
X7345667Y-15294143D01*
X7383762Y-15294143D01*
X7402809Y-15303667D01*
X7412333Y-15322714D01*
X7412333Y-15341762D01*
X7317095Y-15360809D01*
X7488524Y-15417952D02*
X7507571Y-15427476D01*
X7545667Y-15427476D01*
X7564714Y-15417952D01*
X7574238Y-15398905D01*
X7574238Y-15389381D01*
X7564714Y-15370333D01*
X7545667Y-15360809D01*
X7517095Y-15360809D01*
X7498048Y-15351286D01*
X7488524Y-15332238D01*
X7488524Y-15322714D01*
X7498048Y-15303667D01*
X7517095Y-15294143D01*
X7545667Y-15294143D01*
X7564714Y-15303667D01*
X7640905Y-15503667D02*
X7650428Y-15494143D01*
X7669476Y-15465571D01*
X7679000Y-15446524D01*
X7688524Y-15417952D01*
X7698048Y-15370333D01*
X7698048Y-15332238D01*
X7688524Y-15284619D01*
X7679000Y-15256048D01*
X7669476Y-15237000D01*
X7650428Y-15208428D01*
X7640905Y-15198905D01*
D17*
X2779000Y-15556000D02*
X2869000Y-15646000D01*
X2869000Y-15556000D02*
X2779000Y-15646000D01*
X2869000Y-15601000D02*
G75*
G03*
X2869000Y-15601000I-45000J0D01*
G01*
D11*
X3164714Y-15491476D02*
X3183762Y-15491476D01*
X3202809Y-15501000D01*
X3212333Y-15510524D01*
X3221857Y-15529571D01*
X3231381Y-15567667D01*
X3231381Y-15615286D01*
X3221857Y-15653381D01*
X3212333Y-15672428D01*
X3202809Y-15681952D01*
X3183762Y-15691476D01*
X3164714Y-15691476D01*
X3145667Y-15681952D01*
X3136143Y-15672428D01*
X3126619Y-15653381D01*
X3117095Y-15615286D01*
X3117095Y-15567667D01*
X3126619Y-15529571D01*
X3136143Y-15510524D01*
X3145667Y-15501000D01*
X3164714Y-15491476D01*
X3317095Y-15672428D02*
X3326619Y-15681952D01*
X3317095Y-15691476D01*
X3307571Y-15681952D01*
X3317095Y-15672428D01*
X3317095Y-15691476D01*
X3421857Y-15691476D02*
X3459952Y-15691476D01*
X3479000Y-15681952D01*
X3488524Y-15672428D01*
X3507571Y-15643857D01*
X3517095Y-15605762D01*
X3517095Y-15529571D01*
X3507571Y-15510524D01*
X3498048Y-15501000D01*
X3479000Y-15491476D01*
X3440905Y-15491476D01*
X3421857Y-15501000D01*
X3412333Y-15510524D01*
X3402809Y-15529571D01*
X3402809Y-15577190D01*
X3412333Y-15596238D01*
X3421857Y-15605762D01*
X3440905Y-15615286D01*
X3479000Y-15615286D01*
X3498048Y-15605762D01*
X3507571Y-15596238D01*
X3517095Y-15577190D01*
X3640905Y-15491476D02*
X3659952Y-15491476D01*
X3679000Y-15501000D01*
X3688524Y-15510524D01*
X3698048Y-15529571D01*
X3707571Y-15567667D01*
X3707571Y-15615286D01*
X3698048Y-15653381D01*
X3688524Y-15672428D01*
X3679000Y-15681952D01*
X3659952Y-15691476D01*
X3640905Y-15691476D01*
X3621857Y-15681952D01*
X3612333Y-15672428D01*
X3602809Y-15653381D01*
X3593286Y-15615286D01*
X3593286Y-15567667D01*
X3602809Y-15529571D01*
X3612333Y-15510524D01*
X3621857Y-15501000D01*
X3640905Y-15491476D01*
X3831381Y-15491476D02*
X3850428Y-15491476D01*
X3869476Y-15501000D01*
X3879000Y-15510524D01*
X3888524Y-15529571D01*
X3898048Y-15567667D01*
X3898048Y-15615286D01*
X3888524Y-15653381D01*
X3879000Y-15672428D01*
X3869476Y-15681952D01*
X3850428Y-15691476D01*
X3831381Y-15691476D01*
X3812333Y-15681952D01*
X3802809Y-15672428D01*
X3793286Y-15653381D01*
X3783762Y-15615286D01*
X3783762Y-15567667D01*
X3793286Y-15529571D01*
X3802809Y-15510524D01*
X3812333Y-15501000D01*
X3831381Y-15491476D01*
X3983762Y-15691476D02*
X3983762Y-15558143D01*
X3983762Y-15577190D02*
X3993286Y-15567667D01*
X4012333Y-15558143D01*
X4040905Y-15558143D01*
X4059952Y-15567667D01*
X4069476Y-15586714D01*
X4069476Y-15691476D01*
X4069476Y-15586714D02*
X4079000Y-15567667D01*
X4098048Y-15558143D01*
X4126619Y-15558143D01*
X4145667Y-15567667D01*
X4155190Y-15586714D01*
X4155190Y-15691476D01*
X4250429Y-15691476D02*
X4250429Y-15558143D01*
X4250429Y-15577190D02*
X4259952Y-15567667D01*
X4279000Y-15558143D01*
X4307571Y-15558143D01*
X4326619Y-15567667D01*
X4336143Y-15586714D01*
X4336143Y-15691476D01*
X4336143Y-15586714D02*
X4345667Y-15567667D01*
X4364714Y-15558143D01*
X4393286Y-15558143D01*
X4412333Y-15567667D01*
X4421857Y-15586714D01*
X4421857Y-15691476D01*
X4812333Y-15481952D02*
X4640905Y-15739095D01*
X5069476Y-15491476D02*
X5088524Y-15491476D01*
X5107571Y-15501000D01*
X5117095Y-15510524D01*
X5126619Y-15529571D01*
X5136143Y-15567667D01*
X5136143Y-15615286D01*
X5126619Y-15653381D01*
X5117095Y-15672428D01*
X5107571Y-15681952D01*
X5088524Y-15691476D01*
X5069476Y-15691476D01*
X5050429Y-15681952D01*
X5040905Y-15672428D01*
X5031381Y-15653381D01*
X5021857Y-15615286D01*
X5021857Y-15567667D01*
X5031381Y-15529571D01*
X5040905Y-15510524D01*
X5050429Y-15501000D01*
X5069476Y-15491476D01*
X5221857Y-15672428D02*
X5231381Y-15681952D01*
X5221857Y-15691476D01*
X5212333Y-15681952D01*
X5221857Y-15672428D01*
X5221857Y-15691476D01*
X5355190Y-15491476D02*
X5374238Y-15491476D01*
X5393286Y-15501000D01*
X5402810Y-15510524D01*
X5412333Y-15529571D01*
X5421857Y-15567667D01*
X5421857Y-15615286D01*
X5412333Y-15653381D01*
X5402810Y-15672428D01*
X5393286Y-15681952D01*
X5374238Y-15691476D01*
X5355190Y-15691476D01*
X5336143Y-15681952D01*
X5326619Y-15672428D01*
X5317095Y-15653381D01*
X5307571Y-15615286D01*
X5307571Y-15567667D01*
X5317095Y-15529571D01*
X5326619Y-15510524D01*
X5336143Y-15501000D01*
X5355190Y-15491476D01*
X5488524Y-15491476D02*
X5612333Y-15491476D01*
X5545667Y-15567667D01*
X5574238Y-15567667D01*
X5593286Y-15577190D01*
X5602809Y-15586714D01*
X5612333Y-15605762D01*
X5612333Y-15653381D01*
X5602809Y-15672428D01*
X5593286Y-15681952D01*
X5574238Y-15691476D01*
X5517095Y-15691476D01*
X5498048Y-15681952D01*
X5488524Y-15672428D01*
X5793286Y-15491476D02*
X5698048Y-15491476D01*
X5688524Y-15586714D01*
X5698048Y-15577190D01*
X5717095Y-15567667D01*
X5764714Y-15567667D01*
X5783762Y-15577190D01*
X5793286Y-15586714D01*
X5802809Y-15605762D01*
X5802809Y-15653381D01*
X5793286Y-15672428D01*
X5783762Y-15681952D01*
X5764714Y-15691476D01*
X5717095Y-15691476D01*
X5698048Y-15681952D01*
X5688524Y-15672428D01*
X5974238Y-15558143D02*
X5974238Y-15691476D01*
X5926619Y-15481952D02*
X5879000Y-15624809D01*
X6002809Y-15624809D01*
X6069476Y-15491476D02*
X6069476Y-15529571D01*
X6145667Y-15491476D02*
X6145667Y-15529571D01*
X6440905Y-15767667D02*
X6431381Y-15758143D01*
X6412333Y-15729571D01*
X6402809Y-15710524D01*
X6393286Y-15681952D01*
X6383762Y-15634333D01*
X6383762Y-15596238D01*
X6393286Y-15548619D01*
X6402809Y-15520048D01*
X6412333Y-15501000D01*
X6431381Y-15472428D01*
X6440905Y-15462905D01*
X6621857Y-15691476D02*
X6507571Y-15691476D01*
X6564714Y-15691476D02*
X6564714Y-15491476D01*
X6545667Y-15520048D01*
X6526619Y-15539095D01*
X6507571Y-15548619D01*
X6745667Y-15491476D02*
X6764714Y-15491476D01*
X6783762Y-15501000D01*
X6793286Y-15510524D01*
X6802809Y-15529571D01*
X6812333Y-15567667D01*
X6812333Y-15615286D01*
X6802809Y-15653381D01*
X6793286Y-15672428D01*
X6783762Y-15681952D01*
X6764714Y-15691476D01*
X6745667Y-15691476D01*
X6726619Y-15681952D01*
X6717095Y-15672428D01*
X6707571Y-15653381D01*
X6698048Y-15615286D01*
X6698048Y-15567667D01*
X6707571Y-15529571D01*
X6717095Y-15510524D01*
X6726619Y-15501000D01*
X6745667Y-15491476D01*
X6926619Y-15577190D02*
X6907571Y-15567667D01*
X6898048Y-15558143D01*
X6888524Y-15539095D01*
X6888524Y-15529571D01*
X6898048Y-15510524D01*
X6907571Y-15501000D01*
X6926619Y-15491476D01*
X6964714Y-15491476D01*
X6983762Y-15501000D01*
X6993286Y-15510524D01*
X7002809Y-15529571D01*
X7002809Y-15539095D01*
X6993286Y-15558143D01*
X6983762Y-15567667D01*
X6964714Y-15577190D01*
X6926619Y-15577190D01*
X6907571Y-15586714D01*
X6898048Y-15596238D01*
X6888524Y-15615286D01*
X6888524Y-15653381D01*
X6898048Y-15672428D01*
X6907571Y-15681952D01*
X6926619Y-15691476D01*
X6964714Y-15691476D01*
X6983762Y-15681952D01*
X6993286Y-15672428D01*
X7002809Y-15653381D01*
X7002809Y-15615286D01*
X6993286Y-15596238D01*
X6983762Y-15586714D01*
X6964714Y-15577190D01*
X7240905Y-15691476D02*
X7240905Y-15491476D01*
X7326619Y-15691476D02*
X7326619Y-15586714D01*
X7317095Y-15567667D01*
X7298048Y-15558143D01*
X7269476Y-15558143D01*
X7250428Y-15567667D01*
X7240905Y-15577190D01*
X7450428Y-15691476D02*
X7431381Y-15681952D01*
X7421857Y-15672428D01*
X7412333Y-15653381D01*
X7412333Y-15596238D01*
X7421857Y-15577190D01*
X7431381Y-15567667D01*
X7450428Y-15558143D01*
X7479000Y-15558143D01*
X7498048Y-15567667D01*
X7507571Y-15577190D01*
X7517095Y-15596238D01*
X7517095Y-15653381D01*
X7507571Y-15672428D01*
X7498048Y-15681952D01*
X7479000Y-15691476D01*
X7450428Y-15691476D01*
X7631381Y-15691476D02*
X7612333Y-15681952D01*
X7602809Y-15662905D01*
X7602809Y-15491476D01*
X7783762Y-15681952D02*
X7764714Y-15691476D01*
X7726619Y-15691476D01*
X7707571Y-15681952D01*
X7698048Y-15662905D01*
X7698048Y-15586714D01*
X7707571Y-15567667D01*
X7726619Y-15558143D01*
X7764714Y-15558143D01*
X7783762Y-15567667D01*
X7793286Y-15586714D01*
X7793286Y-15605762D01*
X7698048Y-15624809D01*
X7869476Y-15681952D02*
X7888524Y-15691476D01*
X7926619Y-15691476D01*
X7945667Y-15681952D01*
X7955190Y-15662905D01*
X7955190Y-15653381D01*
X7945667Y-15634333D01*
X7926619Y-15624809D01*
X7898048Y-15624809D01*
X7879000Y-15615286D01*
X7869476Y-15596238D01*
X7869476Y-15586714D01*
X7879000Y-15567667D01*
X7898048Y-15558143D01*
X7926619Y-15558143D01*
X7945667Y-15567667D01*
X8021857Y-15767667D02*
X8031381Y-15758143D01*
X8050428Y-15729571D01*
X8059952Y-15710524D01*
X8069476Y-15681952D01*
X8079000Y-15634333D01*
X8079000Y-15596238D01*
X8069476Y-15548619D01*
X8059952Y-15520048D01*
X8050428Y-15501000D01*
X8031381Y-15472428D01*
X8021857Y-15462905D01*
D10*
X2769000Y-15815000D02*
X2869000Y-15915000D01*
X2869000Y-15815000D02*
X2769000Y-15915000D01*
X2819000Y-15815000D02*
X2819000Y-15915000D01*
X2769000Y-15865000D02*
X2869000Y-15865000D01*
D11*
X3231381Y-15955476D02*
X3117095Y-15955476D01*
X3174238Y-15955476D02*
X3174238Y-15755476D01*
X3155190Y-15784048D01*
X3136143Y-15803095D01*
X3117095Y-15812619D01*
X3317095Y-15936428D02*
X3326619Y-15945952D01*
X3317095Y-15955476D01*
X3307571Y-15945952D01*
X3317095Y-15936428D01*
X3317095Y-15955476D01*
X3450428Y-15755476D02*
X3469476Y-15755476D01*
X3488524Y-15765000D01*
X3498048Y-15774524D01*
X3507571Y-15793571D01*
X3517095Y-15831667D01*
X3517095Y-15879286D01*
X3507571Y-15917381D01*
X3498048Y-15936428D01*
X3488524Y-15945952D01*
X3469476Y-15955476D01*
X3450428Y-15955476D01*
X3431381Y-15945952D01*
X3421857Y-15936428D01*
X3412333Y-15917381D01*
X3402809Y-15879286D01*
X3402809Y-15831667D01*
X3412333Y-15793571D01*
X3421857Y-15774524D01*
X3431381Y-15765000D01*
X3450428Y-15755476D01*
X3640905Y-15755476D02*
X3659952Y-15755476D01*
X3679000Y-15765000D01*
X3688524Y-15774524D01*
X3698048Y-15793571D01*
X3707571Y-15831667D01*
X3707571Y-15879286D01*
X3698048Y-15917381D01*
X3688524Y-15936428D01*
X3679000Y-15945952D01*
X3659952Y-15955476D01*
X3640905Y-15955476D01*
X3621857Y-15945952D01*
X3612333Y-15936428D01*
X3602809Y-15917381D01*
X3593286Y-15879286D01*
X3593286Y-15831667D01*
X3602809Y-15793571D01*
X3612333Y-15774524D01*
X3621857Y-15765000D01*
X3640905Y-15755476D01*
X3831381Y-15755476D02*
X3850428Y-15755476D01*
X3869476Y-15765000D01*
X3879000Y-15774524D01*
X3888524Y-15793571D01*
X3898048Y-15831667D01*
X3898048Y-15879286D01*
X3888524Y-15917381D01*
X3879000Y-15936428D01*
X3869476Y-15945952D01*
X3850428Y-15955476D01*
X3831381Y-15955476D01*
X3812333Y-15945952D01*
X3802809Y-15936428D01*
X3793286Y-15917381D01*
X3783762Y-15879286D01*
X3783762Y-15831667D01*
X3793286Y-15793571D01*
X3802809Y-15774524D01*
X3812333Y-15765000D01*
X3831381Y-15755476D01*
X3983762Y-15955476D02*
X3983762Y-15822143D01*
X3983762Y-15841190D02*
X3993286Y-15831667D01*
X4012333Y-15822143D01*
X4040905Y-15822143D01*
X4059952Y-15831667D01*
X4069476Y-15850714D01*
X4069476Y-15955476D01*
X4069476Y-15850714D02*
X4079000Y-15831667D01*
X4098048Y-15822143D01*
X4126619Y-15822143D01*
X4145667Y-15831667D01*
X4155190Y-15850714D01*
X4155190Y-15955476D01*
X4250429Y-15955476D02*
X4250429Y-15822143D01*
X4250429Y-15841190D02*
X4259952Y-15831667D01*
X4279000Y-15822143D01*
X4307571Y-15822143D01*
X4326619Y-15831667D01*
X4336143Y-15850714D01*
X4336143Y-15955476D01*
X4336143Y-15850714D02*
X4345667Y-15831667D01*
X4364714Y-15822143D01*
X4393286Y-15822143D01*
X4412333Y-15831667D01*
X4421857Y-15850714D01*
X4421857Y-15955476D01*
X4812333Y-15745952D02*
X4640905Y-16003095D01*
X5069476Y-15755476D02*
X5088524Y-15755476D01*
X5107571Y-15765000D01*
X5117095Y-15774524D01*
X5126619Y-15793571D01*
X5136143Y-15831667D01*
X5136143Y-15879286D01*
X5126619Y-15917381D01*
X5117095Y-15936428D01*
X5107571Y-15945952D01*
X5088524Y-15955476D01*
X5069476Y-15955476D01*
X5050429Y-15945952D01*
X5040905Y-15936428D01*
X5031381Y-15917381D01*
X5021857Y-15879286D01*
X5021857Y-15831667D01*
X5031381Y-15793571D01*
X5040905Y-15774524D01*
X5050429Y-15765000D01*
X5069476Y-15755476D01*
X5221857Y-15936428D02*
X5231381Y-15945952D01*
X5221857Y-15955476D01*
X5212333Y-15945952D01*
X5221857Y-15936428D01*
X5221857Y-15955476D01*
X5355190Y-15755476D02*
X5374238Y-15755476D01*
X5393286Y-15765000D01*
X5402810Y-15774524D01*
X5412333Y-15793571D01*
X5421857Y-15831667D01*
X5421857Y-15879286D01*
X5412333Y-15917381D01*
X5402810Y-15936428D01*
X5393286Y-15945952D01*
X5374238Y-15955476D01*
X5355190Y-15955476D01*
X5336143Y-15945952D01*
X5326619Y-15936428D01*
X5317095Y-15917381D01*
X5307571Y-15879286D01*
X5307571Y-15831667D01*
X5317095Y-15793571D01*
X5326619Y-15774524D01*
X5336143Y-15765000D01*
X5355190Y-15755476D01*
X5488524Y-15755476D02*
X5612333Y-15755476D01*
X5545667Y-15831667D01*
X5574238Y-15831667D01*
X5593286Y-15841190D01*
X5602809Y-15850714D01*
X5612333Y-15869762D01*
X5612333Y-15917381D01*
X5602809Y-15936428D01*
X5593286Y-15945952D01*
X5574238Y-15955476D01*
X5517095Y-15955476D01*
X5498048Y-15945952D01*
X5488524Y-15936428D01*
X5707571Y-15955476D02*
X5745667Y-15955476D01*
X5764714Y-15945952D01*
X5774238Y-15936428D01*
X5793286Y-15907857D01*
X5802809Y-15869762D01*
X5802809Y-15793571D01*
X5793286Y-15774524D01*
X5783762Y-15765000D01*
X5764714Y-15755476D01*
X5726619Y-15755476D01*
X5707571Y-15765000D01*
X5698048Y-15774524D01*
X5688524Y-15793571D01*
X5688524Y-15841190D01*
X5698048Y-15860238D01*
X5707571Y-15869762D01*
X5726619Y-15879286D01*
X5764714Y-15879286D01*
X5783762Y-15869762D01*
X5793286Y-15860238D01*
X5802809Y-15841190D01*
X5974238Y-15822143D02*
X5974238Y-15955476D01*
X5926619Y-15745952D02*
X5879000Y-15888809D01*
X6002809Y-15888809D01*
X6069476Y-15755476D02*
X6069476Y-15793571D01*
X6145667Y-15755476D02*
X6145667Y-15793571D01*
X6440905Y-16031667D02*
X6431381Y-16022143D01*
X6412333Y-15993571D01*
X6402809Y-15974524D01*
X6393286Y-15945952D01*
X6383762Y-15898333D01*
X6383762Y-15860238D01*
X6393286Y-15812619D01*
X6402809Y-15784048D01*
X6412333Y-15765000D01*
X6431381Y-15736428D01*
X6440905Y-15726905D01*
X6507571Y-15774524D02*
X6517095Y-15765000D01*
X6536143Y-15755476D01*
X6583762Y-15755476D01*
X6602809Y-15765000D01*
X6612333Y-15774524D01*
X6621857Y-15793571D01*
X6621857Y-15812619D01*
X6612333Y-15841190D01*
X6498048Y-15955476D01*
X6621857Y-15955476D01*
X6812333Y-15955476D02*
X6698048Y-15955476D01*
X6755190Y-15955476D02*
X6755190Y-15755476D01*
X6736143Y-15784048D01*
X6717095Y-15803095D01*
X6698048Y-15812619D01*
X6879000Y-15755476D02*
X7012333Y-15755476D01*
X6926619Y-15955476D01*
X7240905Y-15955476D02*
X7240905Y-15755476D01*
X7326619Y-15955476D02*
X7326619Y-15850714D01*
X7317095Y-15831667D01*
X7298048Y-15822143D01*
X7269476Y-15822143D01*
X7250428Y-15831667D01*
X7240905Y-15841190D01*
X7450428Y-15955476D02*
X7431381Y-15945952D01*
X7421857Y-15936428D01*
X7412333Y-15917381D01*
X7412333Y-15860238D01*
X7421857Y-15841190D01*
X7431381Y-15831667D01*
X7450428Y-15822143D01*
X7479000Y-15822143D01*
X7498048Y-15831667D01*
X7507571Y-15841190D01*
X7517095Y-15860238D01*
X7517095Y-15917381D01*
X7507571Y-15936428D01*
X7498048Y-15945952D01*
X7479000Y-15955476D01*
X7450428Y-15955476D01*
X7631381Y-15955476D02*
X7612333Y-15945952D01*
X7602809Y-15926905D01*
X7602809Y-15755476D01*
X7783762Y-15945952D02*
X7764714Y-15955476D01*
X7726619Y-15955476D01*
X7707571Y-15945952D01*
X7698048Y-15926905D01*
X7698048Y-15850714D01*
X7707571Y-15831667D01*
X7726619Y-15822143D01*
X7764714Y-15822143D01*
X7783762Y-15831667D01*
X7793286Y-15850714D01*
X7793286Y-15869762D01*
X7698048Y-15888809D01*
X7869476Y-15945952D02*
X7888524Y-15955476D01*
X7926619Y-15955476D01*
X7945667Y-15945952D01*
X7955190Y-15926905D01*
X7955190Y-15917381D01*
X7945667Y-15898333D01*
X7926619Y-15888809D01*
X7898048Y-15888809D01*
X7879000Y-15879286D01*
X7869476Y-15860238D01*
X7869476Y-15850714D01*
X7879000Y-15831667D01*
X7898048Y-15822143D01*
X7926619Y-15822143D01*
X7945667Y-15831667D01*
X8193286Y-15879286D02*
X8345667Y-15879286D01*
X8269476Y-15955476D02*
X8269476Y-15803095D01*
X8574238Y-15755476D02*
X8698048Y-15755476D01*
X8631381Y-15831667D01*
X8659952Y-15831667D01*
X8679000Y-15841190D01*
X8688524Y-15850714D01*
X8698048Y-15869762D01*
X8698048Y-15917381D01*
X8688524Y-15936428D01*
X8679000Y-15945952D01*
X8659952Y-15955476D01*
X8602810Y-15955476D01*
X8583762Y-15945952D01*
X8574238Y-15936428D01*
X8926619Y-15945952D02*
X8945667Y-15955476D01*
X8983762Y-15955476D01*
X9002810Y-15945952D01*
X9012333Y-15926905D01*
X9012333Y-15917381D01*
X9002810Y-15898333D01*
X8983762Y-15888809D01*
X8955190Y-15888809D01*
X8936143Y-15879286D01*
X8926619Y-15860238D01*
X8926619Y-15850714D01*
X8936143Y-15831667D01*
X8955190Y-15822143D01*
X8983762Y-15822143D01*
X9002810Y-15831667D01*
X9126619Y-15955476D02*
X9107571Y-15945952D01*
X9098048Y-15926905D01*
X9098048Y-15755476D01*
X9231381Y-15955476D02*
X9212333Y-15945952D01*
X9202810Y-15936428D01*
X9193286Y-15917381D01*
X9193286Y-15860238D01*
X9202810Y-15841190D01*
X9212333Y-15831667D01*
X9231381Y-15822143D01*
X9259952Y-15822143D01*
X9279000Y-15831667D01*
X9288524Y-15841190D01*
X9298048Y-15860238D01*
X9298048Y-15917381D01*
X9288524Y-15936428D01*
X9279000Y-15945952D01*
X9259952Y-15955476D01*
X9231381Y-15955476D01*
X9355190Y-15822143D02*
X9431381Y-15822143D01*
X9383762Y-15755476D02*
X9383762Y-15926905D01*
X9393286Y-15945952D01*
X9412333Y-15955476D01*
X9431381Y-15955476D01*
X9488524Y-15945952D02*
X9507571Y-15955476D01*
X9545667Y-15955476D01*
X9564714Y-15945952D01*
X9574238Y-15926905D01*
X9574238Y-15917381D01*
X9564714Y-15898333D01*
X9545667Y-15888809D01*
X9517095Y-15888809D01*
X9498048Y-15879286D01*
X9488524Y-15860238D01*
X9488524Y-15850714D01*
X9498048Y-15831667D01*
X9517095Y-15822143D01*
X9545667Y-15822143D01*
X9564714Y-15831667D01*
X9640905Y-16031667D02*
X9650429Y-16022143D01*
X9669476Y-15993571D01*
X9679000Y-15974524D01*
X9688524Y-15945952D01*
X9698048Y-15898333D01*
X9698048Y-15860238D01*
X9688524Y-15812619D01*
X9679000Y-15784048D01*
X9669476Y-15765000D01*
X9650429Y-15736428D01*
X9640905Y-15726905D01*
D18*
X2767000Y-16078000D02*
X2869000Y-16180000D01*
X2869000Y-16078000D02*
X2767000Y-16180000D01*
X2854063Y-16165063D02*
X2854063Y-16092937D01*
X2781937Y-16092937D01*
X2781937Y-16165063D01*
X2854063Y-16165063D01*
D11*
X3231381Y-16219476D02*
X3117095Y-16219476D01*
X3174238Y-16219476D02*
X3174238Y-16019476D01*
X3155190Y-16048048D01*
X3136143Y-16067095D01*
X3117095Y-16076619D01*
X3317095Y-16200428D02*
X3326619Y-16209952D01*
X3317095Y-16219476D01*
X3307571Y-16209952D01*
X3317095Y-16200428D01*
X3317095Y-16219476D01*
X3450428Y-16019476D02*
X3469476Y-16019476D01*
X3488524Y-16029000D01*
X3498048Y-16038524D01*
X3507571Y-16057571D01*
X3517095Y-16095667D01*
X3517095Y-16143286D01*
X3507571Y-16181381D01*
X3498048Y-16200428D01*
X3488524Y-16209952D01*
X3469476Y-16219476D01*
X3450428Y-16219476D01*
X3431381Y-16209952D01*
X3421857Y-16200428D01*
X3412333Y-16181381D01*
X3402809Y-16143286D01*
X3402809Y-16095667D01*
X3412333Y-16057571D01*
X3421857Y-16038524D01*
X3431381Y-16029000D01*
X3450428Y-16019476D01*
X3593286Y-16038524D02*
X3602809Y-16029000D01*
X3621857Y-16019476D01*
X3669476Y-16019476D01*
X3688524Y-16029000D01*
X3698048Y-16038524D01*
X3707571Y-16057571D01*
X3707571Y-16076619D01*
X3698048Y-16105190D01*
X3583762Y-16219476D01*
X3707571Y-16219476D01*
X3831381Y-16019476D02*
X3850428Y-16019476D01*
X3869476Y-16029000D01*
X3879000Y-16038524D01*
X3888524Y-16057571D01*
X3898048Y-16095667D01*
X3898048Y-16143286D01*
X3888524Y-16181381D01*
X3879000Y-16200428D01*
X3869476Y-16209952D01*
X3850428Y-16219476D01*
X3831381Y-16219476D01*
X3812333Y-16209952D01*
X3802809Y-16200428D01*
X3793286Y-16181381D01*
X3783762Y-16143286D01*
X3783762Y-16095667D01*
X3793286Y-16057571D01*
X3802809Y-16038524D01*
X3812333Y-16029000D01*
X3831381Y-16019476D01*
X3983762Y-16219476D02*
X3983762Y-16086143D01*
X3983762Y-16105190D02*
X3993286Y-16095667D01*
X4012333Y-16086143D01*
X4040905Y-16086143D01*
X4059952Y-16095667D01*
X4069476Y-16114714D01*
X4069476Y-16219476D01*
X4069476Y-16114714D02*
X4079000Y-16095667D01*
X4098048Y-16086143D01*
X4126619Y-16086143D01*
X4145667Y-16095667D01*
X4155190Y-16114714D01*
X4155190Y-16219476D01*
X4250429Y-16219476D02*
X4250429Y-16086143D01*
X4250429Y-16105190D02*
X4259952Y-16095667D01*
X4279000Y-16086143D01*
X4307571Y-16086143D01*
X4326619Y-16095667D01*
X4336143Y-16114714D01*
X4336143Y-16219476D01*
X4336143Y-16114714D02*
X4345667Y-16095667D01*
X4364714Y-16086143D01*
X4393286Y-16086143D01*
X4412333Y-16095667D01*
X4421857Y-16114714D01*
X4421857Y-16219476D01*
X4812333Y-16009952D02*
X4640905Y-16267095D01*
X5069476Y-16019476D02*
X5088524Y-16019476D01*
X5107571Y-16029000D01*
X5117095Y-16038524D01*
X5126619Y-16057571D01*
X5136143Y-16095667D01*
X5136143Y-16143286D01*
X5126619Y-16181381D01*
X5117095Y-16200428D01*
X5107571Y-16209952D01*
X5088524Y-16219476D01*
X5069476Y-16219476D01*
X5050429Y-16209952D01*
X5040905Y-16200428D01*
X5031381Y-16181381D01*
X5021857Y-16143286D01*
X5021857Y-16095667D01*
X5031381Y-16057571D01*
X5040905Y-16038524D01*
X5050429Y-16029000D01*
X5069476Y-16019476D01*
X5221857Y-16200428D02*
X5231381Y-16209952D01*
X5221857Y-16219476D01*
X5212333Y-16209952D01*
X5221857Y-16200428D01*
X5221857Y-16219476D01*
X5355190Y-16019476D02*
X5374238Y-16019476D01*
X5393286Y-16029000D01*
X5402810Y-16038524D01*
X5412333Y-16057571D01*
X5421857Y-16095667D01*
X5421857Y-16143286D01*
X5412333Y-16181381D01*
X5402810Y-16200428D01*
X5393286Y-16209952D01*
X5374238Y-16219476D01*
X5355190Y-16219476D01*
X5336143Y-16209952D01*
X5326619Y-16200428D01*
X5317095Y-16181381D01*
X5307571Y-16143286D01*
X5307571Y-16095667D01*
X5317095Y-16057571D01*
X5326619Y-16038524D01*
X5336143Y-16029000D01*
X5355190Y-16019476D01*
X5593286Y-16086143D02*
X5593286Y-16219476D01*
X5545667Y-16009952D02*
X5498048Y-16152809D01*
X5621857Y-16152809D01*
X5736143Y-16019476D02*
X5755190Y-16019476D01*
X5774238Y-16029000D01*
X5783762Y-16038524D01*
X5793286Y-16057571D01*
X5802809Y-16095667D01*
X5802809Y-16143286D01*
X5793286Y-16181381D01*
X5783762Y-16200428D01*
X5774238Y-16209952D01*
X5755190Y-16219476D01*
X5736143Y-16219476D01*
X5717095Y-16209952D01*
X5707571Y-16200428D01*
X5698048Y-16181381D01*
X5688524Y-16143286D01*
X5688524Y-16095667D01*
X5698048Y-16057571D01*
X5707571Y-16038524D01*
X5717095Y-16029000D01*
X5736143Y-16019476D01*
X5879000Y-16038524D02*
X5888524Y-16029000D01*
X5907571Y-16019476D01*
X5955190Y-16019476D01*
X5974238Y-16029000D01*
X5983762Y-16038524D01*
X5993286Y-16057571D01*
X5993286Y-16076619D01*
X5983762Y-16105190D01*
X5869476Y-16219476D01*
X5993286Y-16219476D01*
X6069476Y-16019476D02*
X6069476Y-16057571D01*
X6145667Y-16019476D02*
X6145667Y-16057571D01*
X6440905Y-16295667D02*
X6431381Y-16286143D01*
X6412333Y-16257571D01*
X6402809Y-16238524D01*
X6393286Y-16209952D01*
X6383762Y-16162333D01*
X6383762Y-16124238D01*
X6393286Y-16076619D01*
X6402809Y-16048048D01*
X6412333Y-16029000D01*
X6431381Y-16000428D01*
X6440905Y-15990905D01*
X6602809Y-16086143D02*
X6602809Y-16219476D01*
X6555190Y-16009952D02*
X6507571Y-16152809D01*
X6631381Y-16152809D01*
X6688524Y-16019476D02*
X6812333Y-16019476D01*
X6745667Y-16095667D01*
X6774238Y-16095667D01*
X6793286Y-16105190D01*
X6802809Y-16114714D01*
X6812333Y-16133762D01*
X6812333Y-16181381D01*
X6802809Y-16200428D01*
X6793286Y-16209952D01*
X6774238Y-16219476D01*
X6717095Y-16219476D01*
X6698048Y-16209952D01*
X6688524Y-16200428D01*
X7050428Y-16219476D02*
X7050428Y-16019476D01*
X7136143Y-16219476D02*
X7136143Y-16114714D01*
X7126619Y-16095667D01*
X7107571Y-16086143D01*
X7079000Y-16086143D01*
X7059952Y-16095667D01*
X7050428Y-16105190D01*
X7259952Y-16219476D02*
X7240905Y-16209952D01*
X7231381Y-16200428D01*
X7221857Y-16181381D01*
X7221857Y-16124238D01*
X7231381Y-16105190D01*
X7240905Y-16095667D01*
X7259952Y-16086143D01*
X7288524Y-16086143D01*
X7307571Y-16095667D01*
X7317095Y-16105190D01*
X7326619Y-16124238D01*
X7326619Y-16181381D01*
X7317095Y-16200428D01*
X7307571Y-16209952D01*
X7288524Y-16219476D01*
X7259952Y-16219476D01*
X7440905Y-16219476D02*
X7421857Y-16209952D01*
X7412333Y-16190905D01*
X7412333Y-16019476D01*
X7593286Y-16209952D02*
X7574238Y-16219476D01*
X7536143Y-16219476D01*
X7517095Y-16209952D01*
X7507571Y-16190905D01*
X7507571Y-16114714D01*
X7517095Y-16095667D01*
X7536143Y-16086143D01*
X7574238Y-16086143D01*
X7593286Y-16095667D01*
X7602809Y-16114714D01*
X7602809Y-16133762D01*
X7507571Y-16152809D01*
X7679000Y-16209952D02*
X7698048Y-16219476D01*
X7736143Y-16219476D01*
X7755190Y-16209952D01*
X7764714Y-16190905D01*
X7764714Y-16181381D01*
X7755190Y-16162333D01*
X7736143Y-16152809D01*
X7707571Y-16152809D01*
X7688524Y-16143286D01*
X7679000Y-16124238D01*
X7679000Y-16114714D01*
X7688524Y-16095667D01*
X7707571Y-16086143D01*
X7736143Y-16086143D01*
X7755190Y-16095667D01*
X7831381Y-16295667D02*
X7840905Y-16286143D01*
X7859952Y-16257571D01*
X7869476Y-16238524D01*
X7879000Y-16209952D01*
X7888524Y-16162333D01*
X7888524Y-16124238D01*
X7879000Y-16076619D01*
X7869476Y-16048048D01*
X7859952Y-16029000D01*
X7840905Y-16000428D01*
X7831381Y-15990905D01*
D19*
X2759000Y-16338000D02*
X2869000Y-16448000D01*
X2869000Y-16338000D02*
X2759000Y-16448000D01*
X2814000Y-16448000D02*
X2869000Y-16393000D01*
X2814000Y-16338000D01*
X2759000Y-16393000D01*
X2814000Y-16448000D01*
D11*
X3231381Y-16483476D02*
X3117095Y-16483476D01*
X3174238Y-16483476D02*
X3174238Y-16283476D01*
X3155190Y-16312048D01*
X3136143Y-16331095D01*
X3117095Y-16340619D01*
X3317095Y-16464428D02*
X3326619Y-16473952D01*
X3317095Y-16483476D01*
X3307571Y-16473952D01*
X3317095Y-16464428D01*
X3317095Y-16483476D01*
X3517095Y-16483476D02*
X3402809Y-16483476D01*
X3459952Y-16483476D02*
X3459952Y-16283476D01*
X3440905Y-16312048D01*
X3421857Y-16331095D01*
X3402809Y-16340619D01*
X3640905Y-16283476D02*
X3659952Y-16283476D01*
X3679000Y-16293000D01*
X3688524Y-16302524D01*
X3698048Y-16321571D01*
X3707571Y-16359667D01*
X3707571Y-16407286D01*
X3698048Y-16445381D01*
X3688524Y-16464428D01*
X3679000Y-16473952D01*
X3659952Y-16483476D01*
X3640905Y-16483476D01*
X3621857Y-16473952D01*
X3612333Y-16464428D01*
X3602809Y-16445381D01*
X3593286Y-16407286D01*
X3593286Y-16359667D01*
X3602809Y-16321571D01*
X3612333Y-16302524D01*
X3621857Y-16293000D01*
X3640905Y-16283476D01*
X3831381Y-16283476D02*
X3850428Y-16283476D01*
X3869476Y-16293000D01*
X3879000Y-16302524D01*
X3888524Y-16321571D01*
X3898048Y-16359667D01*
X3898048Y-16407286D01*
X3888524Y-16445381D01*
X3879000Y-16464428D01*
X3869476Y-16473952D01*
X3850428Y-16483476D01*
X3831381Y-16483476D01*
X3812333Y-16473952D01*
X3802809Y-16464428D01*
X3793286Y-16445381D01*
X3783762Y-16407286D01*
X3783762Y-16359667D01*
X3793286Y-16321571D01*
X3802809Y-16302524D01*
X3812333Y-16293000D01*
X3831381Y-16283476D01*
X3983762Y-16483476D02*
X3983762Y-16350143D01*
X3983762Y-16369190D02*
X3993286Y-16359667D01*
X4012333Y-16350143D01*
X4040905Y-16350143D01*
X4059952Y-16359667D01*
X4069476Y-16378714D01*
X4069476Y-16483476D01*
X4069476Y-16378714D02*
X4079000Y-16359667D01*
X4098048Y-16350143D01*
X4126619Y-16350143D01*
X4145667Y-16359667D01*
X4155190Y-16378714D01*
X4155190Y-16483476D01*
X4250429Y-16483476D02*
X4250429Y-16350143D01*
X4250429Y-16369190D02*
X4259952Y-16359667D01*
X4279000Y-16350143D01*
X4307571Y-16350143D01*
X4326619Y-16359667D01*
X4336143Y-16378714D01*
X4336143Y-16483476D01*
X4336143Y-16378714D02*
X4345667Y-16359667D01*
X4364714Y-16350143D01*
X4393286Y-16350143D01*
X4412333Y-16359667D01*
X4421857Y-16378714D01*
X4421857Y-16483476D01*
X4812333Y-16273952D02*
X4640905Y-16531095D01*
X5069476Y-16283476D02*
X5088524Y-16283476D01*
X5107571Y-16293000D01*
X5117095Y-16302524D01*
X5126619Y-16321571D01*
X5136143Y-16359667D01*
X5136143Y-16407286D01*
X5126619Y-16445381D01*
X5117095Y-16464428D01*
X5107571Y-16473952D01*
X5088524Y-16483476D01*
X5069476Y-16483476D01*
X5050429Y-16473952D01*
X5040905Y-16464428D01*
X5031381Y-16445381D01*
X5021857Y-16407286D01*
X5021857Y-16359667D01*
X5031381Y-16321571D01*
X5040905Y-16302524D01*
X5050429Y-16293000D01*
X5069476Y-16283476D01*
X5221857Y-16464428D02*
X5231381Y-16473952D01*
X5221857Y-16483476D01*
X5212333Y-16473952D01*
X5221857Y-16464428D01*
X5221857Y-16483476D01*
X5355190Y-16283476D02*
X5374238Y-16283476D01*
X5393286Y-16293000D01*
X5402810Y-16302524D01*
X5412333Y-16321571D01*
X5421857Y-16359667D01*
X5421857Y-16407286D01*
X5412333Y-16445381D01*
X5402810Y-16464428D01*
X5393286Y-16473952D01*
X5374238Y-16483476D01*
X5355190Y-16483476D01*
X5336143Y-16473952D01*
X5326619Y-16464428D01*
X5317095Y-16445381D01*
X5307571Y-16407286D01*
X5307571Y-16359667D01*
X5317095Y-16321571D01*
X5326619Y-16302524D01*
X5336143Y-16293000D01*
X5355190Y-16283476D01*
X5593286Y-16350143D02*
X5593286Y-16483476D01*
X5545667Y-16273952D02*
X5498048Y-16416809D01*
X5621857Y-16416809D01*
X5679000Y-16283476D02*
X5802809Y-16283476D01*
X5736143Y-16359667D01*
X5764714Y-16359667D01*
X5783762Y-16369190D01*
X5793286Y-16378714D01*
X5802809Y-16397762D01*
X5802809Y-16445381D01*
X5793286Y-16464428D01*
X5783762Y-16473952D01*
X5764714Y-16483476D01*
X5707571Y-16483476D01*
X5688524Y-16473952D01*
X5679000Y-16464428D01*
X5869476Y-16283476D02*
X5993286Y-16283476D01*
X5926619Y-16359667D01*
X5955190Y-16359667D01*
X5974238Y-16369190D01*
X5983762Y-16378714D01*
X5993286Y-16397762D01*
X5993286Y-16445381D01*
X5983762Y-16464428D01*
X5974238Y-16473952D01*
X5955190Y-16483476D01*
X5898048Y-16483476D01*
X5879000Y-16473952D01*
X5869476Y-16464428D01*
X6069476Y-16283476D02*
X6069476Y-16321571D01*
X6145667Y-16283476D02*
X6145667Y-16321571D01*
X6440905Y-16559667D02*
X6431381Y-16550143D01*
X6412333Y-16521571D01*
X6402809Y-16502524D01*
X6393286Y-16473952D01*
X6383762Y-16426333D01*
X6383762Y-16388238D01*
X6393286Y-16340619D01*
X6402809Y-16312048D01*
X6412333Y-16293000D01*
X6431381Y-16264428D01*
X6440905Y-16254905D01*
X6621857Y-16483476D02*
X6507571Y-16483476D01*
X6564714Y-16483476D02*
X6564714Y-16283476D01*
X6545667Y-16312048D01*
X6526619Y-16331095D01*
X6507571Y-16340619D01*
X6793286Y-16283476D02*
X6755190Y-16283476D01*
X6736143Y-16293000D01*
X6726619Y-16302524D01*
X6707571Y-16331095D01*
X6698048Y-16369190D01*
X6698048Y-16445381D01*
X6707571Y-16464428D01*
X6717095Y-16473952D01*
X6736143Y-16483476D01*
X6774238Y-16483476D01*
X6793286Y-16473952D01*
X6802809Y-16464428D01*
X6812333Y-16445381D01*
X6812333Y-16397762D01*
X6802809Y-16378714D01*
X6793286Y-16369190D01*
X6774238Y-16359667D01*
X6736143Y-16359667D01*
X6717095Y-16369190D01*
X6707571Y-16378714D01*
X6698048Y-16397762D01*
X7050428Y-16483476D02*
X7050428Y-16283476D01*
X7136143Y-16483476D02*
X7136143Y-16378714D01*
X7126619Y-16359667D01*
X7107571Y-16350143D01*
X7079000Y-16350143D01*
X7059952Y-16359667D01*
X7050428Y-16369190D01*
X7259952Y-16483476D02*
X7240905Y-16473952D01*
X7231381Y-16464428D01*
X7221857Y-16445381D01*
X7221857Y-16388238D01*
X7231381Y-16369190D01*
X7240905Y-16359667D01*
X7259952Y-16350143D01*
X7288524Y-16350143D01*
X7307571Y-16359667D01*
X7317095Y-16369190D01*
X7326619Y-16388238D01*
X7326619Y-16445381D01*
X7317095Y-16464428D01*
X7307571Y-16473952D01*
X7288524Y-16483476D01*
X7259952Y-16483476D01*
X7440905Y-16483476D02*
X7421857Y-16473952D01*
X7412333Y-16454905D01*
X7412333Y-16283476D01*
X7593286Y-16473952D02*
X7574238Y-16483476D01*
X7536143Y-16483476D01*
X7517095Y-16473952D01*
X7507571Y-16454905D01*
X7507571Y-16378714D01*
X7517095Y-16359667D01*
X7536143Y-16350143D01*
X7574238Y-16350143D01*
X7593286Y-16359667D01*
X7602809Y-16378714D01*
X7602809Y-16397762D01*
X7507571Y-16416809D01*
X7679000Y-16473952D02*
X7698048Y-16483476D01*
X7736143Y-16483476D01*
X7755190Y-16473952D01*
X7764714Y-16454905D01*
X7764714Y-16445381D01*
X7755190Y-16426333D01*
X7736143Y-16416809D01*
X7707571Y-16416809D01*
X7688524Y-16407286D01*
X7679000Y-16388238D01*
X7679000Y-16378714D01*
X7688524Y-16359667D01*
X7707571Y-16350143D01*
X7736143Y-16350143D01*
X7755190Y-16359667D01*
X7831381Y-16559667D02*
X7840905Y-16550143D01*
X7859952Y-16521571D01*
X7869476Y-16502524D01*
X7879000Y-16473952D01*
X7888524Y-16426333D01*
X7888524Y-16388238D01*
X7879000Y-16340619D01*
X7869476Y-16312048D01*
X7859952Y-16293000D01*
X7840905Y-16264428D01*
X7831381Y-16254905D01*
D20*
X2809000Y-16597000D02*
X2809000Y-16717000D01*
X2749000Y-16657000D02*
X2869000Y-16657000D01*
X2869000Y-16657000D02*
G75*
G03*
X2869000Y-16657000I-60000J0D01*
G01*
D11*
X3231381Y-16747476D02*
X3117095Y-16747476D01*
X3174238Y-16747476D02*
X3174238Y-16547476D01*
X3155190Y-16576048D01*
X3136143Y-16595095D01*
X3117095Y-16604619D01*
X3317095Y-16728428D02*
X3326619Y-16737952D01*
X3317095Y-16747476D01*
X3307571Y-16737952D01*
X3317095Y-16728428D01*
X3317095Y-16747476D01*
X3402809Y-16566524D02*
X3412333Y-16557000D01*
X3431381Y-16547476D01*
X3479000Y-16547476D01*
X3498048Y-16557000D01*
X3507571Y-16566524D01*
X3517095Y-16585571D01*
X3517095Y-16604619D01*
X3507571Y-16633190D01*
X3393286Y-16747476D01*
X3517095Y-16747476D01*
X3640905Y-16547476D02*
X3659952Y-16547476D01*
X3679000Y-16557000D01*
X3688524Y-16566524D01*
X3698048Y-16585571D01*
X3707571Y-16623667D01*
X3707571Y-16671286D01*
X3698048Y-16709381D01*
X3688524Y-16728428D01*
X3679000Y-16737952D01*
X3659952Y-16747476D01*
X3640905Y-16747476D01*
X3621857Y-16737952D01*
X3612333Y-16728428D01*
X3602809Y-16709381D01*
X3593286Y-16671286D01*
X3593286Y-16623667D01*
X3602809Y-16585571D01*
X3612333Y-16566524D01*
X3621857Y-16557000D01*
X3640905Y-16547476D01*
X3831381Y-16547476D02*
X3850428Y-16547476D01*
X3869476Y-16557000D01*
X3879000Y-16566524D01*
X3888524Y-16585571D01*
X3898048Y-16623667D01*
X3898048Y-16671286D01*
X3888524Y-16709381D01*
X3879000Y-16728428D01*
X3869476Y-16737952D01*
X3850428Y-16747476D01*
X3831381Y-16747476D01*
X3812333Y-16737952D01*
X3802809Y-16728428D01*
X3793286Y-16709381D01*
X3783762Y-16671286D01*
X3783762Y-16623667D01*
X3793286Y-16585571D01*
X3802809Y-16566524D01*
X3812333Y-16557000D01*
X3831381Y-16547476D01*
X3983762Y-16747476D02*
X3983762Y-16614143D01*
X3983762Y-16633190D02*
X3993286Y-16623667D01*
X4012333Y-16614143D01*
X4040905Y-16614143D01*
X4059952Y-16623667D01*
X4069476Y-16642714D01*
X4069476Y-16747476D01*
X4069476Y-16642714D02*
X4079000Y-16623667D01*
X4098048Y-16614143D01*
X4126619Y-16614143D01*
X4145667Y-16623667D01*
X4155190Y-16642714D01*
X4155190Y-16747476D01*
X4250429Y-16747476D02*
X4250429Y-16614143D01*
X4250429Y-16633190D02*
X4259952Y-16623667D01*
X4279000Y-16614143D01*
X4307571Y-16614143D01*
X4326619Y-16623667D01*
X4336143Y-16642714D01*
X4336143Y-16747476D01*
X4336143Y-16642714D02*
X4345667Y-16623667D01*
X4364714Y-16614143D01*
X4393286Y-16614143D01*
X4412333Y-16623667D01*
X4421857Y-16642714D01*
X4421857Y-16747476D01*
X4812333Y-16537952D02*
X4640905Y-16795095D01*
X5069476Y-16547476D02*
X5088524Y-16547476D01*
X5107571Y-16557000D01*
X5117095Y-16566524D01*
X5126619Y-16585571D01*
X5136143Y-16623667D01*
X5136143Y-16671286D01*
X5126619Y-16709381D01*
X5117095Y-16728428D01*
X5107571Y-16737952D01*
X5088524Y-16747476D01*
X5069476Y-16747476D01*
X5050429Y-16737952D01*
X5040905Y-16728428D01*
X5031381Y-16709381D01*
X5021857Y-16671286D01*
X5021857Y-16623667D01*
X5031381Y-16585571D01*
X5040905Y-16566524D01*
X5050429Y-16557000D01*
X5069476Y-16547476D01*
X5221857Y-16728428D02*
X5231381Y-16737952D01*
X5221857Y-16747476D01*
X5212333Y-16737952D01*
X5221857Y-16728428D01*
X5221857Y-16747476D01*
X5355190Y-16547476D02*
X5374238Y-16547476D01*
X5393286Y-16557000D01*
X5402810Y-16566524D01*
X5412333Y-16585571D01*
X5421857Y-16623667D01*
X5421857Y-16671286D01*
X5412333Y-16709381D01*
X5402810Y-16728428D01*
X5393286Y-16737952D01*
X5374238Y-16747476D01*
X5355190Y-16747476D01*
X5336143Y-16737952D01*
X5326619Y-16728428D01*
X5317095Y-16709381D01*
X5307571Y-16671286D01*
X5307571Y-16623667D01*
X5317095Y-16585571D01*
X5326619Y-16566524D01*
X5336143Y-16557000D01*
X5355190Y-16547476D01*
X5593286Y-16614143D02*
X5593286Y-16747476D01*
X5545667Y-16537952D02*
X5498048Y-16680809D01*
X5621857Y-16680809D01*
X5679000Y-16547476D02*
X5812333Y-16547476D01*
X5726619Y-16747476D01*
X5879000Y-16566524D02*
X5888524Y-16557000D01*
X5907571Y-16547476D01*
X5955190Y-16547476D01*
X5974238Y-16557000D01*
X5983762Y-16566524D01*
X5993286Y-16585571D01*
X5993286Y-16604619D01*
X5983762Y-16633190D01*
X5869476Y-16747476D01*
X5993286Y-16747476D01*
X6069476Y-16547476D02*
X6069476Y-16585571D01*
X6145667Y-16547476D02*
X6145667Y-16585571D01*
X6440905Y-16823667D02*
X6431381Y-16814143D01*
X6412333Y-16785571D01*
X6402809Y-16766524D01*
X6393286Y-16737952D01*
X6383762Y-16690333D01*
X6383762Y-16652238D01*
X6393286Y-16604619D01*
X6402809Y-16576048D01*
X6412333Y-16557000D01*
X6431381Y-16528428D01*
X6440905Y-16518905D01*
X6602809Y-16547476D02*
X6564714Y-16547476D01*
X6545667Y-16557000D01*
X6536143Y-16566524D01*
X6517095Y-16595095D01*
X6507571Y-16633190D01*
X6507571Y-16709381D01*
X6517095Y-16728428D01*
X6526619Y-16737952D01*
X6545667Y-16747476D01*
X6583762Y-16747476D01*
X6602809Y-16737952D01*
X6612333Y-16728428D01*
X6621857Y-16709381D01*
X6621857Y-16661762D01*
X6612333Y-16642714D01*
X6602809Y-16633190D01*
X6583762Y-16623667D01*
X6545667Y-16623667D01*
X6526619Y-16633190D01*
X6517095Y-16642714D01*
X6507571Y-16661762D01*
X6859952Y-16747476D02*
X6859952Y-16547476D01*
X6945667Y-16747476D02*
X6945667Y-16642714D01*
X6936143Y-16623667D01*
X6917095Y-16614143D01*
X6888524Y-16614143D01*
X6869476Y-16623667D01*
X6859952Y-16633190D01*
X7069476Y-16747476D02*
X7050428Y-16737952D01*
X7040905Y-16728428D01*
X7031381Y-16709381D01*
X7031381Y-16652238D01*
X7040905Y-16633190D01*
X7050428Y-16623667D01*
X7069476Y-16614143D01*
X7098048Y-16614143D01*
X7117095Y-16623667D01*
X7126619Y-16633190D01*
X7136143Y-16652238D01*
X7136143Y-16709381D01*
X7126619Y-16728428D01*
X7117095Y-16737952D01*
X7098048Y-16747476D01*
X7069476Y-16747476D01*
X7250428Y-16747476D02*
X7231381Y-16737952D01*
X7221857Y-16718905D01*
X7221857Y-16547476D01*
X7402809Y-16737952D02*
X7383762Y-16747476D01*
X7345667Y-16747476D01*
X7326619Y-16737952D01*
X7317095Y-16718905D01*
X7317095Y-16642714D01*
X7326619Y-16623667D01*
X7345667Y-16614143D01*
X7383762Y-16614143D01*
X7402809Y-16623667D01*
X7412333Y-16642714D01*
X7412333Y-16661762D01*
X7317095Y-16680809D01*
X7488524Y-16737952D02*
X7507571Y-16747476D01*
X7545667Y-16747476D01*
X7564714Y-16737952D01*
X7574238Y-16718905D01*
X7574238Y-16709381D01*
X7564714Y-16690333D01*
X7545667Y-16680809D01*
X7517095Y-16680809D01*
X7498048Y-16671286D01*
X7488524Y-16652238D01*
X7488524Y-16642714D01*
X7498048Y-16623667D01*
X7517095Y-16614143D01*
X7545667Y-16614143D01*
X7564714Y-16623667D01*
X7640905Y-16823667D02*
X7650428Y-16814143D01*
X7669476Y-16785571D01*
X7679000Y-16766524D01*
X7688524Y-16737952D01*
X7698048Y-16690333D01*
X7698048Y-16652238D01*
X7688524Y-16604619D01*
X7679000Y-16576048D01*
X7669476Y-16557000D01*
X7650428Y-16528428D01*
X7640905Y-16518905D01*
X2839711Y-16991711D02*
X2839711Y-16850289D01*
X2698289Y-16850289D01*
X2698289Y-16991711D01*
X2839711Y-16991711D01*
X2869000Y-16921000D02*
G75*
G03*
X2869000Y-16921000I-100000J0D01*
G01*
X3117095Y-16830524D02*
X3126619Y-16821000D01*
X3145667Y-16811476D01*
X3193286Y-16811476D01*
X3212333Y-16821000D01*
X3221857Y-16830524D01*
X3231381Y-16849571D01*
X3231381Y-16868619D01*
X3221857Y-16897190D01*
X3107571Y-17011476D01*
X3231381Y-17011476D01*
X3317095Y-16992429D02*
X3326619Y-17001952D01*
X3317095Y-17011476D01*
X3307571Y-17001952D01*
X3317095Y-16992429D01*
X3317095Y-17011476D01*
X3450428Y-16811476D02*
X3469476Y-16811476D01*
X3488524Y-16821000D01*
X3498048Y-16830524D01*
X3507571Y-16849571D01*
X3517095Y-16887667D01*
X3517095Y-16935286D01*
X3507571Y-16973381D01*
X3498048Y-16992429D01*
X3488524Y-17001952D01*
X3469476Y-17011476D01*
X3450428Y-17011476D01*
X3431381Y-17001952D01*
X3421857Y-16992429D01*
X3412333Y-16973381D01*
X3402809Y-16935286D01*
X3402809Y-16887667D01*
X3412333Y-16849571D01*
X3421857Y-16830524D01*
X3431381Y-16821000D01*
X3450428Y-16811476D01*
X3640905Y-16811476D02*
X3659952Y-16811476D01*
X3679000Y-16821000D01*
X3688524Y-16830524D01*
X3698048Y-16849571D01*
X3707571Y-16887667D01*
X3707571Y-16935286D01*
X3698048Y-16973381D01*
X3688524Y-16992429D01*
X3679000Y-17001952D01*
X3659952Y-17011476D01*
X3640905Y-17011476D01*
X3621857Y-17001952D01*
X3612333Y-16992429D01*
X3602809Y-16973381D01*
X3593286Y-16935286D01*
X3593286Y-16887667D01*
X3602809Y-16849571D01*
X3612333Y-16830524D01*
X3621857Y-16821000D01*
X3640905Y-16811476D01*
X3831381Y-16811476D02*
X3850428Y-16811476D01*
X3869476Y-16821000D01*
X3879000Y-16830524D01*
X3888524Y-16849571D01*
X3898048Y-16887667D01*
X3898048Y-16935286D01*
X3888524Y-16973381D01*
X3879000Y-16992429D01*
X3869476Y-17001952D01*
X3850428Y-17011476D01*
X3831381Y-17011476D01*
X3812333Y-17001952D01*
X3802809Y-16992429D01*
X3793286Y-16973381D01*
X3783762Y-16935286D01*
X3783762Y-16887667D01*
X3793286Y-16849571D01*
X3802809Y-16830524D01*
X3812333Y-16821000D01*
X3831381Y-16811476D01*
X3983762Y-17011476D02*
X3983762Y-16878143D01*
X3983762Y-16897190D02*
X3993286Y-16887667D01*
X4012333Y-16878143D01*
X4040905Y-16878143D01*
X4059952Y-16887667D01*
X4069476Y-16906714D01*
X4069476Y-17011476D01*
X4069476Y-16906714D02*
X4079000Y-16887667D01*
X4098048Y-16878143D01*
X4126619Y-16878143D01*
X4145667Y-16887667D01*
X4155190Y-16906714D01*
X4155190Y-17011476D01*
X4250429Y-17011476D02*
X4250429Y-16878143D01*
X4250429Y-16897190D02*
X4259952Y-16887667D01*
X4279000Y-16878143D01*
X4307571Y-16878143D01*
X4326619Y-16887667D01*
X4336143Y-16906714D01*
X4336143Y-17011476D01*
X4336143Y-16906714D02*
X4345667Y-16887667D01*
X4364714Y-16878143D01*
X4393286Y-16878143D01*
X4412333Y-16887667D01*
X4421857Y-16906714D01*
X4421857Y-17011476D01*
X4812333Y-16801952D02*
X4640905Y-17059095D01*
X5069476Y-16811476D02*
X5088524Y-16811476D01*
X5107571Y-16821000D01*
X5117095Y-16830524D01*
X5126619Y-16849571D01*
X5136143Y-16887667D01*
X5136143Y-16935286D01*
X5126619Y-16973381D01*
X5117095Y-16992429D01*
X5107571Y-17001952D01*
X5088524Y-17011476D01*
X5069476Y-17011476D01*
X5050429Y-17001952D01*
X5040905Y-16992429D01*
X5031381Y-16973381D01*
X5021857Y-16935286D01*
X5021857Y-16887667D01*
X5031381Y-16849571D01*
X5040905Y-16830524D01*
X5050429Y-16821000D01*
X5069476Y-16811476D01*
X5221857Y-16992429D02*
X5231381Y-17001952D01*
X5221857Y-17011476D01*
X5212333Y-17001952D01*
X5221857Y-16992429D01*
X5221857Y-17011476D01*
X5355190Y-16811476D02*
X5374238Y-16811476D01*
X5393286Y-16821000D01*
X5402810Y-16830524D01*
X5412333Y-16849571D01*
X5421857Y-16887667D01*
X5421857Y-16935286D01*
X5412333Y-16973381D01*
X5402810Y-16992429D01*
X5393286Y-17001952D01*
X5374238Y-17011476D01*
X5355190Y-17011476D01*
X5336143Y-17001952D01*
X5326619Y-16992429D01*
X5317095Y-16973381D01*
X5307571Y-16935286D01*
X5307571Y-16887667D01*
X5317095Y-16849571D01*
X5326619Y-16830524D01*
X5336143Y-16821000D01*
X5355190Y-16811476D01*
X5488524Y-16811476D02*
X5621857Y-16811476D01*
X5536143Y-17011476D01*
X5726619Y-16897190D02*
X5707571Y-16887667D01*
X5698048Y-16878143D01*
X5688524Y-16859095D01*
X5688524Y-16849571D01*
X5698048Y-16830524D01*
X5707571Y-16821000D01*
X5726619Y-16811476D01*
X5764714Y-16811476D01*
X5783762Y-16821000D01*
X5793286Y-16830524D01*
X5802809Y-16849571D01*
X5802809Y-16859095D01*
X5793286Y-16878143D01*
X5783762Y-16887667D01*
X5764714Y-16897190D01*
X5726619Y-16897190D01*
X5707571Y-16906714D01*
X5698048Y-16916238D01*
X5688524Y-16935286D01*
X5688524Y-16973381D01*
X5698048Y-16992429D01*
X5707571Y-17001952D01*
X5726619Y-17011476D01*
X5764714Y-17011476D01*
X5783762Y-17001952D01*
X5793286Y-16992429D01*
X5802809Y-16973381D01*
X5802809Y-16935286D01*
X5793286Y-16916238D01*
X5783762Y-16906714D01*
X5764714Y-16897190D01*
X5869476Y-16811476D02*
X6002809Y-16811476D01*
X5917095Y-17011476D01*
X6069476Y-16811476D02*
X6069476Y-16849571D01*
X6145667Y-16811476D02*
X6145667Y-16849571D01*
X6440905Y-17087667D02*
X6431381Y-17078143D01*
X6412333Y-17049571D01*
X6402809Y-17030524D01*
X6393286Y-17001952D01*
X6383762Y-16954333D01*
X6383762Y-16916238D01*
X6393286Y-16868619D01*
X6402809Y-16840048D01*
X6412333Y-16821000D01*
X6431381Y-16792429D01*
X6440905Y-16782905D01*
X6555190Y-16811476D02*
X6574238Y-16811476D01*
X6593286Y-16821000D01*
X6602809Y-16830524D01*
X6612333Y-16849571D01*
X6621857Y-16887667D01*
X6621857Y-16935286D01*
X6612333Y-16973381D01*
X6602809Y-16992429D01*
X6593286Y-17001952D01*
X6574238Y-17011476D01*
X6555190Y-17011476D01*
X6536143Y-17001952D01*
X6526619Y-16992429D01*
X6517095Y-16973381D01*
X6507571Y-16935286D01*
X6507571Y-16887667D01*
X6517095Y-16849571D01*
X6526619Y-16830524D01*
X6536143Y-16821000D01*
X6555190Y-16811476D01*
X6859952Y-17011476D02*
X6859952Y-16811476D01*
X6945667Y-17011476D02*
X6945667Y-16906714D01*
X6936143Y-16887667D01*
X6917095Y-16878143D01*
X6888524Y-16878143D01*
X6869476Y-16887667D01*
X6859952Y-16897190D01*
X7069476Y-17011476D02*
X7050428Y-17001952D01*
X7040905Y-16992429D01*
X7031381Y-16973381D01*
X7031381Y-16916238D01*
X7040905Y-16897190D01*
X7050428Y-16887667D01*
X7069476Y-16878143D01*
X7098048Y-16878143D01*
X7117095Y-16887667D01*
X7126619Y-16897190D01*
X7136143Y-16916238D01*
X7136143Y-16973381D01*
X7126619Y-16992429D01*
X7117095Y-17001952D01*
X7098048Y-17011476D01*
X7069476Y-17011476D01*
X7250428Y-17011476D02*
X7231381Y-17001952D01*
X7221857Y-16982905D01*
X7221857Y-16811476D01*
X7402809Y-17001952D02*
X7383762Y-17011476D01*
X7345667Y-17011476D01*
X7326619Y-17001952D01*
X7317095Y-16982905D01*
X7317095Y-16906714D01*
X7326619Y-16887667D01*
X7345667Y-16878143D01*
X7383762Y-16878143D01*
X7402809Y-16887667D01*
X7412333Y-16906714D01*
X7412333Y-16925762D01*
X7317095Y-16944810D01*
X7488524Y-17001952D02*
X7507571Y-17011476D01*
X7545667Y-17011476D01*
X7564714Y-17001952D01*
X7574238Y-16982905D01*
X7574238Y-16973381D01*
X7564714Y-16954333D01*
X7545667Y-16944810D01*
X7517095Y-16944810D01*
X7498048Y-16935286D01*
X7488524Y-16916238D01*
X7488524Y-16906714D01*
X7498048Y-16887667D01*
X7517095Y-16878143D01*
X7545667Y-16878143D01*
X7564714Y-16887667D01*
X7812333Y-16935286D02*
X7964714Y-16935286D01*
X7888524Y-17011476D02*
X7888524Y-16859095D01*
X8202809Y-16830524D02*
X8212333Y-16821000D01*
X8231381Y-16811476D01*
X8279000Y-16811476D01*
X8298048Y-16821000D01*
X8307571Y-16830524D01*
X8317095Y-16849571D01*
X8317095Y-16868619D01*
X8307571Y-16897190D01*
X8193286Y-17011476D01*
X8317095Y-17011476D01*
X8545667Y-17001952D02*
X8564714Y-17011476D01*
X8602810Y-17011476D01*
X8621857Y-17001952D01*
X8631381Y-16982905D01*
X8631381Y-16973381D01*
X8621857Y-16954333D01*
X8602810Y-16944810D01*
X8574238Y-16944810D01*
X8555190Y-16935286D01*
X8545667Y-16916238D01*
X8545667Y-16906714D01*
X8555190Y-16887667D01*
X8574238Y-16878143D01*
X8602810Y-16878143D01*
X8621857Y-16887667D01*
X8745667Y-17011476D02*
X8726619Y-17001952D01*
X8717095Y-16982905D01*
X8717095Y-16811476D01*
X8850429Y-17011476D02*
X8831381Y-17001952D01*
X8821857Y-16992429D01*
X8812333Y-16973381D01*
X8812333Y-16916238D01*
X8821857Y-16897190D01*
X8831381Y-16887667D01*
X8850429Y-16878143D01*
X8879000Y-16878143D01*
X8898048Y-16887667D01*
X8907571Y-16897190D01*
X8917095Y-16916238D01*
X8917095Y-16973381D01*
X8907571Y-16992429D01*
X8898048Y-17001952D01*
X8879000Y-17011476D01*
X8850429Y-17011476D01*
X8974238Y-16878143D02*
X9050429Y-16878143D01*
X9002810Y-16811476D02*
X9002810Y-16982905D01*
X9012333Y-17001952D01*
X9031381Y-17011476D01*
X9050429Y-17011476D01*
X9107571Y-17001952D02*
X9126619Y-17011476D01*
X9164714Y-17011476D01*
X9183762Y-17001952D01*
X9193286Y-16982905D01*
X9193286Y-16973381D01*
X9183762Y-16954333D01*
X9164714Y-16944810D01*
X9136143Y-16944810D01*
X9117095Y-16935286D01*
X9107571Y-16916238D01*
X9107571Y-16906714D01*
X9117095Y-16887667D01*
X9136143Y-16878143D01*
X9164714Y-16878143D01*
X9183762Y-16887667D01*
X9259952Y-17087667D02*
X9269476Y-17078143D01*
X9288524Y-17049571D01*
X9298048Y-17030524D01*
X9307571Y-17001952D01*
X9317095Y-16954333D01*
X9317095Y-16916238D01*
X9307571Y-16868619D01*
X9298048Y-16840048D01*
X9288524Y-16821000D01*
X9269476Y-16792429D01*
X9259952Y-16782905D01*
X2769000Y-17341000D02*
X2869000Y-17241000D01*
X2769000Y-17141000D01*
X2669000Y-17241000D01*
X2769000Y-17341000D01*
X2869000Y-17241000D02*
G75*
G03*
X2869000Y-17241000I-100000J0D01*
G01*
X3117095Y-17150524D02*
X3126619Y-17141000D01*
X3145667Y-17131476D01*
X3193286Y-17131476D01*
X3212333Y-17141000D01*
X3221857Y-17150524D01*
X3231381Y-17169571D01*
X3231381Y-17188619D01*
X3221857Y-17217190D01*
X3107571Y-17331476D01*
X3231381Y-17331476D01*
X3317095Y-17312429D02*
X3326619Y-17321952D01*
X3317095Y-17331476D01*
X3307571Y-17321952D01*
X3317095Y-17312429D01*
X3317095Y-17331476D01*
X3402809Y-17150524D02*
X3412333Y-17141000D01*
X3431381Y-17131476D01*
X3479000Y-17131476D01*
X3498048Y-17141000D01*
X3507571Y-17150524D01*
X3517095Y-17169571D01*
X3517095Y-17188619D01*
X3507571Y-17217190D01*
X3393286Y-17331476D01*
X3517095Y-17331476D01*
X3640905Y-17131476D02*
X3659952Y-17131476D01*
X3679000Y-17141000D01*
X3688524Y-17150524D01*
X3698048Y-17169571D01*
X3707571Y-17207667D01*
X3707571Y-17255286D01*
X3698048Y-17293381D01*
X3688524Y-17312429D01*
X3679000Y-17321952D01*
X3659952Y-17331476D01*
X3640905Y-17331476D01*
X3621857Y-17321952D01*
X3612333Y-17312429D01*
X3602809Y-17293381D01*
X3593286Y-17255286D01*
X3593286Y-17207667D01*
X3602809Y-17169571D01*
X3612333Y-17150524D01*
X3621857Y-17141000D01*
X3640905Y-17131476D01*
X3831381Y-17131476D02*
X3850428Y-17131476D01*
X3869476Y-17141000D01*
X3879000Y-17150524D01*
X3888524Y-17169571D01*
X3898048Y-17207667D01*
X3898048Y-17255286D01*
X3888524Y-17293381D01*
X3879000Y-17312429D01*
X3869476Y-17321952D01*
X3850428Y-17331476D01*
X3831381Y-17331476D01*
X3812333Y-17321952D01*
X3802809Y-17312429D01*
X3793286Y-17293381D01*
X3783762Y-17255286D01*
X3783762Y-17207667D01*
X3793286Y-17169571D01*
X3802809Y-17150524D01*
X3812333Y-17141000D01*
X3831381Y-17131476D01*
X3983762Y-17331476D02*
X3983762Y-17198143D01*
X3983762Y-17217190D02*
X3993286Y-17207667D01*
X4012333Y-17198143D01*
X4040905Y-17198143D01*
X4059952Y-17207667D01*
X4069476Y-17226714D01*
X4069476Y-17331476D01*
X4069476Y-17226714D02*
X4079000Y-17207667D01*
X4098048Y-17198143D01*
X4126619Y-17198143D01*
X4145667Y-17207667D01*
X4155190Y-17226714D01*
X4155190Y-17331476D01*
X4250429Y-17331476D02*
X4250429Y-17198143D01*
X4250429Y-17217190D02*
X4259952Y-17207667D01*
X4279000Y-17198143D01*
X4307571Y-17198143D01*
X4326619Y-17207667D01*
X4336143Y-17226714D01*
X4336143Y-17331476D01*
X4336143Y-17226714D02*
X4345667Y-17207667D01*
X4364714Y-17198143D01*
X4393286Y-17198143D01*
X4412333Y-17207667D01*
X4421857Y-17226714D01*
X4421857Y-17331476D01*
X4812333Y-17121952D02*
X4640905Y-17379095D01*
X5069476Y-17131476D02*
X5088524Y-17131476D01*
X5107571Y-17141000D01*
X5117095Y-17150524D01*
X5126619Y-17169571D01*
X5136143Y-17207667D01*
X5136143Y-17255286D01*
X5126619Y-17293381D01*
X5117095Y-17312429D01*
X5107571Y-17321952D01*
X5088524Y-17331476D01*
X5069476Y-17331476D01*
X5050429Y-17321952D01*
X5040905Y-17312429D01*
X5031381Y-17293381D01*
X5021857Y-17255286D01*
X5021857Y-17207667D01*
X5031381Y-17169571D01*
X5040905Y-17150524D01*
X5050429Y-17141000D01*
X5069476Y-17131476D01*
X5221857Y-17312429D02*
X5231381Y-17321952D01*
X5221857Y-17331476D01*
X5212333Y-17321952D01*
X5221857Y-17312429D01*
X5221857Y-17331476D01*
X5355190Y-17131476D02*
X5374238Y-17131476D01*
X5393286Y-17141000D01*
X5402810Y-17150524D01*
X5412333Y-17169571D01*
X5421857Y-17207667D01*
X5421857Y-17255286D01*
X5412333Y-17293381D01*
X5402810Y-17312429D01*
X5393286Y-17321952D01*
X5374238Y-17331476D01*
X5355190Y-17331476D01*
X5336143Y-17321952D01*
X5326619Y-17312429D01*
X5317095Y-17293381D01*
X5307571Y-17255286D01*
X5307571Y-17207667D01*
X5317095Y-17169571D01*
X5326619Y-17150524D01*
X5336143Y-17141000D01*
X5355190Y-17131476D01*
X5536143Y-17217190D02*
X5517095Y-17207667D01*
X5507571Y-17198143D01*
X5498048Y-17179095D01*
X5498048Y-17169571D01*
X5507571Y-17150524D01*
X5517095Y-17141000D01*
X5536143Y-17131476D01*
X5574238Y-17131476D01*
X5593286Y-17141000D01*
X5602809Y-17150524D01*
X5612333Y-17169571D01*
X5612333Y-17179095D01*
X5602809Y-17198143D01*
X5593286Y-17207667D01*
X5574238Y-17217190D01*
X5536143Y-17217190D01*
X5517095Y-17226714D01*
X5507571Y-17236238D01*
X5498048Y-17255286D01*
X5498048Y-17293381D01*
X5507571Y-17312429D01*
X5517095Y-17321952D01*
X5536143Y-17331476D01*
X5574238Y-17331476D01*
X5593286Y-17321952D01*
X5602809Y-17312429D01*
X5612333Y-17293381D01*
X5612333Y-17255286D01*
X5602809Y-17236238D01*
X5593286Y-17226714D01*
X5574238Y-17217190D01*
X5783762Y-17131476D02*
X5745667Y-17131476D01*
X5726619Y-17141000D01*
X5717095Y-17150524D01*
X5698048Y-17179095D01*
X5688524Y-17217190D01*
X5688524Y-17293381D01*
X5698048Y-17312429D01*
X5707571Y-17321952D01*
X5726619Y-17331476D01*
X5764714Y-17331476D01*
X5783762Y-17321952D01*
X5793286Y-17312429D01*
X5802809Y-17293381D01*
X5802809Y-17245762D01*
X5793286Y-17226714D01*
X5783762Y-17217190D01*
X5764714Y-17207667D01*
X5726619Y-17207667D01*
X5707571Y-17217190D01*
X5698048Y-17226714D01*
X5688524Y-17245762D01*
X5974238Y-17131476D02*
X5936143Y-17131476D01*
X5917095Y-17141000D01*
X5907571Y-17150524D01*
X5888524Y-17179095D01*
X5879000Y-17217190D01*
X5879000Y-17293381D01*
X5888524Y-17312429D01*
X5898048Y-17321952D01*
X5917095Y-17331476D01*
X5955190Y-17331476D01*
X5974238Y-17321952D01*
X5983762Y-17312429D01*
X5993286Y-17293381D01*
X5993286Y-17245762D01*
X5983762Y-17226714D01*
X5974238Y-17217190D01*
X5955190Y-17207667D01*
X5917095Y-17207667D01*
X5898048Y-17217190D01*
X5888524Y-17226714D01*
X5879000Y-17245762D01*
X6069476Y-17131476D02*
X6069476Y-17169571D01*
X6145667Y-17131476D02*
X6145667Y-17169571D01*
X6440905Y-17407667D02*
X6431381Y-17398143D01*
X6412333Y-17369571D01*
X6402809Y-17350524D01*
X6393286Y-17321952D01*
X6383762Y-17274333D01*
X6383762Y-17236238D01*
X6393286Y-17188619D01*
X6402809Y-17160048D01*
X6412333Y-17141000D01*
X6431381Y-17112429D01*
X6440905Y-17102905D01*
X6498048Y-17131476D02*
X6621857Y-17131476D01*
X6555190Y-17207667D01*
X6583762Y-17207667D01*
X6602809Y-17217190D01*
X6612333Y-17226714D01*
X6621857Y-17245762D01*
X6621857Y-17293381D01*
X6612333Y-17312429D01*
X6602809Y-17321952D01*
X6583762Y-17331476D01*
X6526619Y-17331476D01*
X6507571Y-17321952D01*
X6498048Y-17312429D01*
X6859952Y-17331476D02*
X6859952Y-17131476D01*
X6945667Y-17331476D02*
X6945667Y-17226714D01*
X6936143Y-17207667D01*
X6917095Y-17198143D01*
X6888524Y-17198143D01*
X6869476Y-17207667D01*
X6859952Y-17217190D01*
X7069476Y-17331476D02*
X7050428Y-17321952D01*
X7040905Y-17312429D01*
X7031381Y-17293381D01*
X7031381Y-17236238D01*
X7040905Y-17217190D01*
X7050428Y-17207667D01*
X7069476Y-17198143D01*
X7098048Y-17198143D01*
X7117095Y-17207667D01*
X7126619Y-17217190D01*
X7136143Y-17236238D01*
X7136143Y-17293381D01*
X7126619Y-17312429D01*
X7117095Y-17321952D01*
X7098048Y-17331476D01*
X7069476Y-17331476D01*
X7250428Y-17331476D02*
X7231381Y-17321952D01*
X7221857Y-17302905D01*
X7221857Y-17131476D01*
X7402809Y-17321952D02*
X7383762Y-17331476D01*
X7345667Y-17331476D01*
X7326619Y-17321952D01*
X7317095Y-17302905D01*
X7317095Y-17226714D01*
X7326619Y-17207667D01*
X7345667Y-17198143D01*
X7383762Y-17198143D01*
X7402809Y-17207667D01*
X7412333Y-17226714D01*
X7412333Y-17245762D01*
X7317095Y-17264810D01*
X7488524Y-17321952D02*
X7507571Y-17331476D01*
X7545667Y-17331476D01*
X7564714Y-17321952D01*
X7574238Y-17302905D01*
X7574238Y-17293381D01*
X7564714Y-17274333D01*
X7545667Y-17264810D01*
X7517095Y-17264810D01*
X7498048Y-17255286D01*
X7488524Y-17236238D01*
X7488524Y-17226714D01*
X7498048Y-17207667D01*
X7517095Y-17198143D01*
X7545667Y-17198143D01*
X7564714Y-17207667D01*
X7640905Y-17407667D02*
X7650428Y-17398143D01*
X7669476Y-17369571D01*
X7679000Y-17350524D01*
X7688524Y-17321952D01*
X7698048Y-17274333D01*
X7698048Y-17236238D01*
X7688524Y-17188619D01*
X7679000Y-17160048D01*
X7669476Y-17141000D01*
X7650428Y-17112429D01*
X7640905Y-17102905D01*
M02*
