%TF.GenerationSoftware,KiCad,Pcbnew,(6.0.7)*%
%TF.CreationDate,2022-11-12T16:25:49+00:00*%
%TF.ProjectId,pico-euro,7069636f-2d65-4757-926f-2e6b69636164,rev?*%
%TF.SameCoordinates,Original*%
%TF.FileFunction,Copper,L1,Top*%
%TF.FilePolarity,Positive*%
%FSLAX46Y46*%
G04 Gerber Fmt 4.6, Leading zero omitted, Abs format (unit mm)*
G04 Created by KiCad (PCBNEW (6.0.7)) date 2022-11-12 16:25:49*
%MOMM*%
%LPD*%
G01*
G04 APERTURE LIST*
G04 Aperture macros list*
%AMRoundRect*
0 Rectangle with rounded corners*
0 $1 Rounding radius*
0 $2 $3 $4 $5 $6 $7 $8 $9 X,Y pos of 4 corners*
0 Add a 4 corners polygon primitive as box body*
4,1,4,$2,$3,$4,$5,$6,$7,$8,$9,$2,$3,0*
0 Add four circle primitives for the rounded corners*
1,1,$1+$1,$2,$3*
1,1,$1+$1,$4,$5*
1,1,$1+$1,$6,$7*
1,1,$1+$1,$8,$9*
0 Add four rect primitives between the rounded corners*
20,1,$1+$1,$2,$3,$4,$5,0*
20,1,$1+$1,$4,$5,$6,$7,0*
20,1,$1+$1,$6,$7,$8,$9,0*
20,1,$1+$1,$8,$9,$2,$3,0*%
%AMFreePoly0*
4,1,45,1.912603,1.631106,1.928902,1.631106,1.941342,1.622068,1.956012,1.617454,1.965717,1.604359,1.978902,1.594779,1.983654,1.580154,1.992810,1.567799,1.992964,1.551500,1.998000,1.536000,1.998000,-1.500000,1.993154,-1.514916,1.993203,-1.530602,1.983844,-1.543570,1.978902,-1.558779,1.966213,-1.567998,1.957034,-1.580716,1.941840,-1.585706,1.928902,-1.595106,1.913217,-1.595106,
1.898315,-1.600000,-1.911685,-1.612000,-1.926910,-1.607106,-1.942902,-1.607106,-1.955591,-1.597887,-1.970524,-1.593087,-1.979965,-1.580179,-1.992902,-1.570779,-1.997749,-1.555861,-2.007008,-1.543201,-2.007058,-1.527209,-2.012000,-1.512000,-2.012000,1.500000,-2.007249,1.514623,-2.007394,1.530002,-1.997938,1.543279,-1.992902,1.558779,-1.980462,1.567817,-1.971541,1.580343,-1.956088,1.585526,
-1.942902,1.595106,-1.927525,1.595106,-1.912945,1.599996,1.897055,1.635996,1.912603,1.631106,1.912603,1.631106,$1*%
%AMFreePoly1*
4,1,45,1.898315,1.600000,1.913217,1.595106,1.928902,1.595106,1.941840,1.585706,1.957034,1.580716,1.966213,1.567998,1.978902,1.558779,1.983844,1.543570,1.993203,1.530602,1.993154,1.514916,1.998000,1.500000,1.998000,-1.536000,1.992964,-1.551500,1.992810,-1.567799,1.983654,-1.580154,1.978902,-1.594779,1.965717,-1.604359,1.956012,-1.617454,1.941342,-1.622068,1.928902,-1.631106,
1.912603,-1.631106,1.897055,-1.635996,-1.912945,-1.599996,-1.927525,-1.595106,-1.942902,-1.595106,-1.956088,-1.585526,-1.971541,-1.580343,-1.980462,-1.567817,-1.992902,-1.558779,-1.997938,-1.543279,-2.007394,-1.530002,-2.007249,-1.514623,-2.012000,-1.500000,-2.012000,1.512000,-2.007058,1.527209,-2.007008,1.543201,-1.997749,1.555861,-1.992902,1.570779,-1.979965,1.580179,-1.970524,1.593087,
-1.955591,1.597887,-1.942902,1.607106,-1.926910,1.607106,-1.911685,1.612000,1.898315,1.600000,1.898315,1.600000,$1*%
G04 Aperture macros list end*
%ADD10C,0.300000*%
%TA.AperFunction,NonConductor*%
%ADD11C,0.300000*%
%TD*%
%TA.AperFunction,ComponentPad*%
%ADD12O,1.700000X1.700000*%
%TD*%
%TA.AperFunction,ComponentPad*%
%ADD13R,1.905000X2.000000*%
%TD*%
%TA.AperFunction,ComponentPad*%
%ADD14O,1.905000X2.000000*%
%TD*%
%TA.AperFunction,ComponentPad*%
%ADD15RoundRect,0.180000X-0.820000X0.720000X-0.820000X-0.720000X0.820000X-0.720000X0.820000X0.720000X0*%
%TD*%
%TA.AperFunction,ComponentPad*%
%ADD16RoundRect,0.200000X-0.800000X-0.800000X0.800000X-0.800000X0.800000X0.800000X-0.800000X0.800000X0*%
%TD*%
%TA.AperFunction,ComponentPad*%
%ADD17RoundRect,0.200000X0.800000X-0.800000X0.800000X0.800000X-0.800000X0.800000X-0.800000X-0.800000X0*%
%TD*%
%TA.AperFunction,ComponentPad*%
%ADD18RoundRect,0.200000X0.800000X0.800000X-0.800000X0.800000X-0.800000X-0.800000X0.800000X-0.800000X0*%
%TD*%
%TA.AperFunction,SMDPad,CuDef*%
%ADD19R,0.600000X4.500000*%
%TD*%
%TA.AperFunction,ComponentPad*%
%ADD20R,1.700000X1.700000*%
%TD*%
%TA.AperFunction,ComponentPad*%
%ADD21RoundRect,0.250000X-0.625000X0.350000X-0.625000X-0.350000X0.625000X-0.350000X0.625000X0.350000X0*%
%TD*%
%TA.AperFunction,ComponentPad*%
%ADD22O,1.750000X1.200000*%
%TD*%
%TA.AperFunction,ComponentPad*%
%ADD23O,2.500000X1.600000*%
%TD*%
%TA.AperFunction,ComponentPad*%
%ADD24R,2.000000X2.000000*%
%TD*%
%TA.AperFunction,ComponentPad*%
%ADD25C,2.000000*%
%TD*%
%TA.AperFunction,ComponentPad*%
%ADD26FreePoly0,0.000000*%
%TD*%
%TA.AperFunction,ComponentPad*%
%ADD27FreePoly1,0.000000*%
%TD*%
%TA.AperFunction,ComponentPad*%
%ADD28O,2.000000X1.800000*%
%TD*%
%TA.AperFunction,ComponentPad*%
%ADD29C,1.700000*%
%TD*%
%TA.AperFunction,ComponentPad*%
%ADD30RoundRect,0.220000X0.880000X0.880000X-0.880000X0.880000X-0.880000X-0.880000X0.880000X-0.880000X0*%
%TD*%
%TA.AperFunction,ComponentPad*%
%ADD31O,2.400000X5.000000*%
%TD*%
%TA.AperFunction,ComponentPad*%
%ADD32O,4.500000X2.000000*%
%TD*%
%TA.AperFunction,ComponentPad*%
%ADD33O,2.400000X4.600000*%
%TD*%
%TA.AperFunction,SMDPad,CuDef*%
%ADD34RoundRect,0.250000X-0.350000X-0.450000X0.350000X-0.450000X0.350000X0.450000X-0.350000X0.450000X0*%
%TD*%
%TA.AperFunction,ComponentPad*%
%ADD35RoundRect,0.180000X0.820000X-0.720000X0.820000X0.720000X-0.820000X0.720000X-0.820000X-0.720000X0*%
%TD*%
%TA.AperFunction,SMDPad,CuDef*%
%ADD36R,2.000000X1.580000*%
%TD*%
%TA.AperFunction,ComponentPad*%
%ADD37C,1.600000*%
%TD*%
%TA.AperFunction,ComponentPad*%
%ADD38C,2.800000*%
%TD*%
%TA.AperFunction,ComponentPad*%
%ADD39R,2.400000X2.400000*%
%TD*%
%TA.AperFunction,ComponentPad*%
%ADD40C,2.400000*%
%TD*%
%TA.AperFunction,ComponentPad*%
%ADD41R,1.800000X1.800000*%
%TD*%
%TA.AperFunction,ComponentPad*%
%ADD42C,1.800000*%
%TD*%
%TA.AperFunction,ComponentPad*%
%ADD43RoundRect,0.200000X-0.800000X0.800000X-0.800000X-0.800000X0.800000X-0.800000X0.800000X0.800000X0*%
%TD*%
%TA.AperFunction,SMDPad,CuDef*%
%ADD44R,1.700000X3.500000*%
%TD*%
%TA.AperFunction,SMDPad,CuDef*%
%ADD45R,3.500000X1.700000*%
%TD*%
%TA.AperFunction,SMDPad,CuDef*%
%ADD46R,4.500000X0.600000*%
%TD*%
%TA.AperFunction,ViaPad*%
%ADD47C,0.804800*%
%TD*%
%TA.AperFunction,ViaPad*%
%ADD48C,0.904800*%
%TD*%
%TA.AperFunction,ViaPad*%
%ADD49C,0.800000*%
%TD*%
%TA.AperFunction,Conductor*%
%ADD50C,0.203200*%
%TD*%
%TA.AperFunction,Conductor*%
%ADD51C,0.609600*%
%TD*%
%TA.AperFunction,Conductor*%
%ADD52C,1.016000*%
%TD*%
%TA.AperFunction,Conductor*%
%ADD53C,0.250000*%
%TD*%
G04 APERTURE END LIST*
D10*
D11*
X129974285Y-135253333D02*
X129974285Y-133853333D01*
X130402857Y-133853333D01*
X130660000Y-133920000D01*
X130831428Y-134053333D01*
X130917142Y-134186666D01*
X131002857Y-134453333D01*
X131002857Y-134653333D01*
X130917142Y-134920000D01*
X130831428Y-135053333D01*
X130660000Y-135186666D01*
X130402857Y-135253333D01*
X129974285Y-135253333D01*
X131774285Y-134520000D02*
X132374285Y-134520000D01*
X132631428Y-135253333D02*
X131774285Y-135253333D01*
X131774285Y-133853333D01*
X132631428Y-133853333D01*
X133145714Y-133853333D02*
X133745714Y-135253333D01*
X134345714Y-133853333D01*
X134945714Y-134520000D02*
X135545714Y-134520000D01*
X135802857Y-135253333D02*
X134945714Y-135253333D01*
X134945714Y-133853333D01*
X135802857Y-133853333D01*
X137431428Y-135253333D02*
X136574285Y-135253333D01*
X136574285Y-133853333D01*
X138374285Y-133853333D02*
X138717142Y-133853333D01*
X138888571Y-133920000D01*
X139060000Y-134053333D01*
X139145714Y-134320000D01*
X139145714Y-134786666D01*
X139060000Y-135053333D01*
X138888571Y-135186666D01*
X138717142Y-135253333D01*
X138374285Y-135253333D01*
X138202857Y-135186666D01*
X138031428Y-135053333D01*
X137945714Y-134786666D01*
X137945714Y-134320000D01*
X138031428Y-134053333D01*
X138202857Y-133920000D01*
X138374285Y-133853333D01*
X139917142Y-135253333D02*
X139917142Y-133853333D01*
X140602857Y-133853333D01*
X140774285Y-133920000D01*
X140860000Y-133986666D01*
X140945714Y-134120000D01*
X140945714Y-134320000D01*
X140860000Y-134453333D01*
X140774285Y-134520000D01*
X140602857Y-134586666D01*
X139917142Y-134586666D01*
X141717142Y-135253333D02*
X141717142Y-133853333D01*
X142317142Y-134853333D01*
X142917142Y-133853333D01*
X142917142Y-135253333D01*
X143774285Y-134520000D02*
X144374285Y-134520000D01*
X144631428Y-135253333D02*
X143774285Y-135253333D01*
X143774285Y-133853333D01*
X144631428Y-133853333D01*
X145402857Y-135253333D02*
X145402857Y-133853333D01*
X146431428Y-135253333D01*
X146431428Y-133853333D01*
X147031428Y-133853333D02*
X148060000Y-133853333D01*
X147545714Y-135253333D02*
X147545714Y-133853333D01*
X150631428Y-134520000D02*
X150888571Y-134586666D01*
X150974285Y-134653333D01*
X151060000Y-134786666D01*
X151060000Y-134986666D01*
X150974285Y-135120000D01*
X150888571Y-135186666D01*
X150717142Y-135253333D01*
X150031428Y-135253333D01*
X150031428Y-133853333D01*
X150631428Y-133853333D01*
X150802857Y-133920000D01*
X150888571Y-133986666D01*
X150974285Y-134120000D01*
X150974285Y-134253333D01*
X150888571Y-134386666D01*
X150802857Y-134453333D01*
X150631428Y-134520000D01*
X150031428Y-134520000D01*
X152174285Y-133853333D02*
X152517142Y-133853333D01*
X152688571Y-133920000D01*
X152860000Y-134053333D01*
X152945714Y-134320000D01*
X152945714Y-134786666D01*
X152860000Y-135053333D01*
X152688571Y-135186666D01*
X152517142Y-135253333D01*
X152174285Y-135253333D01*
X152002857Y-135186666D01*
X151831428Y-135053333D01*
X151745714Y-134786666D01*
X151745714Y-134320000D01*
X151831428Y-134053333D01*
X152002857Y-133920000D01*
X152174285Y-133853333D01*
X153631428Y-134853333D02*
X154488571Y-134853333D01*
X153460000Y-135253333D02*
X154060000Y-133853333D01*
X154660000Y-135253333D01*
X156288571Y-135253333D02*
X155688571Y-134586666D01*
X155260000Y-135253333D02*
X155260000Y-133853333D01*
X155945714Y-133853333D01*
X156117142Y-133920000D01*
X156202857Y-133986666D01*
X156288571Y-134120000D01*
X156288571Y-134320000D01*
X156202857Y-134453333D01*
X156117142Y-134520000D01*
X155945714Y-134586666D01*
X155260000Y-134586666D01*
X157060000Y-135253333D02*
X157060000Y-133853333D01*
X157488571Y-133853333D01*
X157745714Y-133920000D01*
X157917142Y-134053333D01*
X158002857Y-134186666D01*
X158088571Y-134453333D01*
X158088571Y-134653333D01*
X158002857Y-134920000D01*
X157917142Y-135053333D01*
X157745714Y-135186666D01*
X157488571Y-135253333D01*
X157060000Y-135253333D01*
X161260000Y-135253333D02*
X160660000Y-134586666D01*
X160231428Y-135253333D02*
X160231428Y-133853333D01*
X160917142Y-133853333D01*
X161088571Y-133920000D01*
X161174285Y-133986666D01*
X161260000Y-134120000D01*
X161260000Y-134320000D01*
X161174285Y-134453333D01*
X161088571Y-134520000D01*
X160917142Y-134586666D01*
X160231428Y-134586666D01*
X162717142Y-135186666D02*
X162545714Y-135253333D01*
X162202857Y-135253333D01*
X162031428Y-135186666D01*
X161945714Y-135053333D01*
X161945714Y-134520000D01*
X162031428Y-134386666D01*
X162202857Y-134320000D01*
X162545714Y-134320000D01*
X162717142Y-134386666D01*
X162802857Y-134520000D01*
X162802857Y-134653333D01*
X161945714Y-134786666D01*
X163402857Y-134320000D02*
X163831428Y-135253333D01*
X164260000Y-134320000D01*
X166231428Y-133986666D02*
X166317142Y-133920000D01*
X166488571Y-133853333D01*
X166917142Y-133853333D01*
X167088571Y-133920000D01*
X167174285Y-133986666D01*
X167260000Y-134120000D01*
X167260000Y-134253333D01*
X167174285Y-134453333D01*
X166145714Y-135253333D01*
X167260000Y-135253333D01*
X168031428Y-135120000D02*
X168117142Y-135186666D01*
X168031428Y-135253333D01*
X167945714Y-135186666D01*
X168031428Y-135120000D01*
X168031428Y-135253333D01*
X168802857Y-133986666D02*
X168888571Y-133920000D01*
X169060000Y-133853333D01*
X169488571Y-133853333D01*
X169660000Y-133920000D01*
X169745714Y-133986666D01*
X169831428Y-134120000D01*
X169831428Y-134253333D01*
X169745714Y-134453333D01*
X168717142Y-135253333D01*
X169831428Y-135253333D01*
D10*
D11*
X53401428Y-135253333D02*
X53401428Y-133853333D01*
X54353809Y-133853333D01*
X54591904Y-133920000D01*
X54710952Y-133986666D01*
X54830000Y-134120000D01*
X54830000Y-134320000D01*
X54710952Y-134453333D01*
X54591904Y-134520000D01*
X54353809Y-134586666D01*
X53401428Y-134586666D01*
X55901428Y-135253333D02*
X55901428Y-133853333D01*
X58520476Y-135120000D02*
X58401428Y-135186666D01*
X58044285Y-135253333D01*
X57806190Y-135253333D01*
X57449047Y-135186666D01*
X57210952Y-135053333D01*
X57091904Y-134920000D01*
X56972857Y-134653333D01*
X56972857Y-134453333D01*
X57091904Y-134186666D01*
X57210952Y-134053333D01*
X57449047Y-133920000D01*
X57806190Y-133853333D01*
X58044285Y-133853333D01*
X58401428Y-133920000D01*
X58520476Y-133986666D01*
X60068095Y-133853333D02*
X60544285Y-133853333D01*
X60782380Y-133920000D01*
X61020476Y-134053333D01*
X61139523Y-134320000D01*
X61139523Y-134786666D01*
X61020476Y-135053333D01*
X60782380Y-135186666D01*
X60544285Y-135253333D01*
X60068095Y-135253333D01*
X59830000Y-135186666D01*
X59591904Y-135053333D01*
X59472857Y-134786666D01*
X59472857Y-134320000D01*
X59591904Y-134053333D01*
X59830000Y-133920000D01*
X60068095Y-133853333D01*
X62210952Y-134720000D02*
X64115714Y-134720000D01*
X65306190Y-134520000D02*
X66139523Y-134520000D01*
X66496666Y-135253333D02*
X65306190Y-135253333D01*
X65306190Y-133853333D01*
X66496666Y-133853333D01*
X67568095Y-133853333D02*
X67568095Y-134986666D01*
X67687142Y-135120000D01*
X67806190Y-135186666D01*
X68044285Y-135253333D01*
X68520476Y-135253333D01*
X68758571Y-135186666D01*
X68877619Y-135120000D01*
X68996666Y-134986666D01*
X68996666Y-133853333D01*
X71615714Y-135253333D02*
X70782380Y-134586666D01*
X70187142Y-135253333D02*
X70187142Y-133853333D01*
X71139523Y-133853333D01*
X71377619Y-133920000D01*
X71496666Y-133986666D01*
X71615714Y-134120000D01*
X71615714Y-134320000D01*
X71496666Y-134453333D01*
X71377619Y-134520000D01*
X71139523Y-134586666D01*
X70187142Y-134586666D01*
X73163333Y-133853333D02*
X73639523Y-133853333D01*
X73877619Y-133920000D01*
X74115714Y-134053333D01*
X74234761Y-134320000D01*
X74234761Y-134786666D01*
X74115714Y-135053333D01*
X73877619Y-135186666D01*
X73639523Y-135253333D01*
X73163333Y-135253333D01*
X72925238Y-135186666D01*
X72687142Y-135053333D01*
X72568095Y-134786666D01*
X72568095Y-134320000D01*
X72687142Y-134053333D01*
X72925238Y-133920000D01*
X73163333Y-133853333D01*
X76734761Y-135120000D02*
X76615714Y-135186666D01*
X76258571Y-135253333D01*
X76020476Y-135253333D01*
X75663333Y-135186666D01*
X75425238Y-135053333D01*
X75306190Y-134920000D01*
X75187142Y-134653333D01*
X75187142Y-134453333D01*
X75306190Y-134186666D01*
X75425238Y-134053333D01*
X75663333Y-133920000D01*
X76020476Y-133853333D01*
X76258571Y-133853333D01*
X76615714Y-133920000D01*
X76734761Y-133986666D01*
X77687142Y-134853333D02*
X78877619Y-134853333D01*
X77449047Y-135253333D02*
X78282380Y-133853333D01*
X79115714Y-135253333D01*
X81377619Y-135253333D02*
X80544285Y-134586666D01*
X79949047Y-135253333D02*
X79949047Y-133853333D01*
X80901428Y-133853333D01*
X81139523Y-133920000D01*
X81258571Y-133986666D01*
X81377619Y-134120000D01*
X81377619Y-134320000D01*
X81258571Y-134453333D01*
X81139523Y-134520000D01*
X80901428Y-134586666D01*
X79949047Y-134586666D01*
X82449047Y-135253333D02*
X82449047Y-133853333D01*
X83044285Y-133853333D01*
X83401428Y-133920000D01*
X83639523Y-134053333D01*
X83758571Y-134186666D01*
X83877619Y-134453333D01*
X83877619Y-134653333D01*
X83758571Y-134920000D01*
X83639523Y-135053333D01*
X83401428Y-135186666D01*
X83044285Y-135253333D01*
X82449047Y-135253333D01*
D12*
%TO.P,J2,1,Pin_1*%
%TO.N,/IO0*%
X109160000Y-38100000D03*
X111760000Y-38100000D03*
%TO.P,J2,2,Pin_2*%
%TO.N,/IO1*%
X109160000Y-40640000D03*
X111760000Y-40640000D03*
%TO.P,J2,3,Pin_3*%
%TO.N,GND*%
X111760000Y-43180000D03*
X109160000Y-43180000D03*
%TO.P,J2,4,Pin_4*%
%TO.N,/IO2*%
X111760000Y-45720000D03*
X109160000Y-45720000D03*
%TO.P,J2,5,Pin_5*%
%TO.N,/IO3*%
X111760000Y-48260000D03*
X109160000Y-48260000D03*
%TO.P,J2,6,Pin_6*%
%TO.N,/SDA0*%
X109160000Y-50800000D03*
X111760000Y-50800000D03*
%TO.P,J2,7,Pin_7*%
%TO.N,/SCL0*%
X111760000Y-53340000D03*
X109160000Y-53340000D03*
%TO.P,J2,8,Pin_8*%
%TO.N,GND*%
X111760000Y-55880000D03*
X109160000Y-55880000D03*
%TO.P,J2,9,Pin_9*%
%TO.N,/IO6*%
X111760000Y-58420000D03*
X109160000Y-58420000D03*
%TO.P,J2,10,Pin_10*%
%TO.N,/IO7*%
X109160000Y-60960000D03*
X111760000Y-60960000D03*
%TO.P,J2,11,Pin_11*%
%TO.N,/IO8*%
X109160000Y-63500000D03*
X111760000Y-63500000D03*
%TO.P,J2,12,Pin_12*%
%TO.N,/IO9*%
X109160000Y-66040000D03*
X111760000Y-66040000D03*
%TO.P,J2,13,Pin_13*%
%TO.N,GND*%
X111760000Y-68580000D03*
X109160000Y-68580000D03*
%TO.P,J2,14,Pin_14*%
%TO.N,/IO10*%
X109160000Y-71120000D03*
X111760000Y-71120000D03*
%TO.P,J2,15,Pin_15*%
%TO.N,/IO11*%
X109160000Y-73660000D03*
X111760000Y-73660000D03*
%TO.P,J2,16,Pin_16*%
%TO.N,/IO12*%
X111760000Y-76200000D03*
X109160000Y-76200000D03*
%TO.P,J2,17,Pin_17*%
%TO.N,/IO13*%
X109160000Y-78740000D03*
X111760000Y-78740000D03*
%TO.P,J2,18,Pin_18*%
%TO.N,GND*%
X109160000Y-81280000D03*
X111760000Y-81280000D03*
%TO.P,J2,19,Pin_19*%
%TO.N,/IO14*%
X111760000Y-83820000D03*
X109160000Y-83820000D03*
%TO.P,J2,20,Pin_20*%
%TO.N,/IO15*%
X111760000Y-86360000D03*
X109160000Y-86360000D03*
%TD*%
D13*
%TO.P,U4,1,IN*%
%TO.N,+12V*%
X33020000Y-80010000D03*
D14*
%TO.P,U4,2,GND*%
%TO.N,GND*%
X35560000Y-80010000D03*
%TO.P,U4,3,OUT*%
%TO.N,Net-(C4-Pad1)*%
X38100000Y-80010000D03*
%TD*%
D15*
%TO.P,J16,1,Pin_1*%
%TO.N,/BUSBAR-5*%
X45720000Y-43180000D03*
X81280000Y-43180000D03*
X66040000Y-43180000D03*
X50800000Y-43180000D03*
X76200000Y-43180000D03*
X60960000Y-43180000D03*
X71120000Y-43180000D03*
X86360000Y-43180000D03*
X55880000Y-43180000D03*
X91440000Y-43180000D03*
%TD*%
D16*
%TO.P,J24,1,Pin_1*%
%TO.N,Net-(J24-Pad1)*%
X124460000Y-114300000D03*
%TO.P,J24,2,Pin_2*%
%TO.N,Net-(J24-Pad2)*%
X124460000Y-116840000D03*
%TO.P,J24,3,Pin_3*%
%TO.N,Net-(J24-Pad3)*%
X124460000Y-119380000D03*
%TO.P,J24,4,Pin_4*%
%TO.N,Net-(J24-Pad4)*%
X124460000Y-121920000D03*
%TD*%
D17*
%TO.P,J31,1,Pin_1*%
%TO.N,/SO8-5*%
X157480000Y-129540000D03*
%TO.P,J31,2,Pin_2*%
%TO.N,/SO8-6*%
X160020000Y-129540000D03*
%TO.P,J31,3,Pin_3*%
%TO.N,/SO8-7*%
X162560000Y-129540000D03*
%TO.P,J31,4,Pin_4*%
%TO.N,/SO8-8*%
X165100000Y-129540000D03*
%TD*%
D18*
%TO.P,J23,1,Pin_1*%
%TO.N,GND*%
X96520000Y-111760000D03*
%TO.P,J23,2,Pin_2*%
%TO.N,/IO16*%
X96520000Y-109220000D03*
%TO.P,J23,3,Pin_3*%
%TO.N,/IO17*%
X96520000Y-106680000D03*
%TO.P,J23,4,Pin_4*%
%TO.N,/IO18*%
X96520000Y-104140000D03*
%TO.P,J23,5,Pin_5*%
%TO.N,/IO19*%
X96520000Y-101600000D03*
%TD*%
%TO.P,J12,1,Pin_1*%
%TO.N,Net-(J12-Pad1)*%
X43180000Y-129540000D03*
%TO.P,J12,2,Pin_2*%
%TO.N,Net-(J12-Pad2)*%
X43180000Y-127000000D03*
%TO.P,J12,3,Pin_3*%
%TO.N,Net-(J12-Pad3)*%
X43180000Y-124460000D03*
%TO.P,J12,4,Pin_4*%
%TO.N,Net-(J12-Pad4)*%
X43180000Y-121920000D03*
%TD*%
D19*
%TO.P,J30,1,Pin_1*%
%TO.N,/SO8-1*%
X163195000Y-116150000D03*
%TO.P,J30,2,Pin_2*%
%TO.N,/SO8-2*%
X161925000Y-116150000D03*
%TO.P,J30,3,Pin_3*%
%TO.N,/SO8-3*%
X160655000Y-116150000D03*
%TO.P,J30,4,Pin_4*%
%TO.N,/SO8-4*%
X159385000Y-116150000D03*
%TO.P,J30,5,Pin_5*%
%TO.N,/SO8-5*%
X159385000Y-125150000D03*
%TO.P,J30,6,Pin_6*%
%TO.N,/SO8-6*%
X160655000Y-125150000D03*
%TO.P,J30,7,Pin_7*%
%TO.N,/SO8-7*%
X161925000Y-125150000D03*
%TO.P,J30,8,Pin_8*%
%TO.N,/SO8-8*%
X163195000Y-125150000D03*
%TD*%
D16*
%TO.P,J35,1,Pin_1*%
%TO.N,unconnected-(J35-Pad1)*%
X96520000Y-96520000D03*
%TD*%
D20*
%TO.P,J42,1,Pin_1*%
%TO.N,Net-(C8-Pad1)*%
X146050000Y-95250000D03*
D12*
%TO.P,J42,2,Pin_2*%
%TO.N,/IO6*%
X143510000Y-95250000D03*
%TD*%
D21*
%TO.P,J10,1,Pin_1*%
%TO.N,Net-(J10-Pad1)*%
X36830000Y-108998000D03*
D22*
%TO.P,J10,2,Pin_2*%
%TO.N,Net-(J10-Pad2)*%
X36830000Y-110998000D03*
%TO.P,J10,3,Pin_3*%
%TO.N,Net-(J10-Pad3)*%
X36830000Y-112998000D03*
%TD*%
D18*
%TO.P,J27,1,Pin_1*%
%TO.N,Net-(J26-Pad13)*%
X144780000Y-121920000D03*
%TO.P,J27,2,Pin_2*%
%TO.N,Net-(J26-Pad14)*%
X144780000Y-119380000D03*
%TO.P,J27,3,Pin_3*%
%TO.N,Net-(J26-Pad15)*%
X144780000Y-116840000D03*
%TO.P,J27,4,Pin_4*%
%TO.N,/SO16-16*%
X144780000Y-114300000D03*
%TD*%
D23*
%TO.P,C4,1*%
%TO.N,Net-(C4-Pad1)*%
X33020000Y-87272500D03*
%TO.P,C4,2*%
%TO.N,GND*%
X33020000Y-84772500D03*
%TD*%
D18*
%TO.P,J28,1,Pin_1*%
%TO.N,Net-(J26-Pad9)*%
X144780000Y-132080000D03*
%TO.P,J28,2,Pin_2*%
%TO.N,Net-(J26-Pad10)*%
X144780000Y-129540000D03*
%TO.P,J28,3,Pin_3*%
%TO.N,Net-(J26-Pad11)*%
X144780000Y-127000000D03*
%TO.P,J28,4,Pin_4*%
%TO.N,Net-(J26-Pad12)*%
X144780000Y-124460000D03*
%TD*%
D24*
%TO.P,SW3,A,A*%
%TO.N,Net-(R17-Pad1)*%
X157787500Y-97830000D03*
D25*
%TO.P,SW3,B,B*%
%TO.N,Net-(R16-Pad1)*%
X157787500Y-102830000D03*
%TO.P,SW3,C,C*%
%TO.N,GND*%
X157787500Y-100330000D03*
D26*
%TO.P,SW3,MP*%
%TO.N,N/C*%
X165287500Y-105930000D03*
D27*
X165287500Y-94730000D03*
D25*
%TO.P,SW3,S1,S1*%
%TO.N,GND*%
X172287500Y-97830000D03*
%TO.P,SW3,S2,S2*%
%TO.N,Net-(J41-Pad1)*%
X172287500Y-102830000D03*
%TD*%
D18*
%TO.P,J22,1,Pin_1*%
%TO.N,GND*%
X96520000Y-78740000D03*
%TO.P,J22,2,Pin_2*%
%TO.N,/SCL0*%
X96520000Y-76200000D03*
%TO.P,J22,3,Pin_3*%
%TO.N,/SDA0*%
X96520000Y-73660000D03*
%TD*%
%TO.P,J32,1,Pin_1*%
%TO.N,GND*%
X96520000Y-91440000D03*
%TO.P,J32,2,Pin_2*%
%TO.N,/IO15*%
X96520000Y-88900000D03*
%TO.P,J32,3,Pin_3*%
%TO.N,/IO14*%
X96520000Y-86360000D03*
%TD*%
D20*
%TO.P,J5,1,Pin_1*%
%TO.N,Net-(J5-Pad1)*%
X126365000Y-94615000D03*
D12*
%TO.P,J5,2,Pin_2*%
%TO.N,/IO27*%
X123825000Y-94615000D03*
%TD*%
D16*
%TO.P,J37,1,Pin_1*%
%TO.N,unconnected-(J37-Pad1)*%
X96520000Y-116840000D03*
%TO.P,J37,2,Pin_2*%
%TO.N,unconnected-(J37-Pad2)*%
X96520000Y-119380000D03*
%TD*%
D28*
%TO.P,J18,1,Pin_1*%
%TO.N,+12V*%
X66040000Y-40640000D03*
X55880000Y-40640000D03*
X76200000Y-40640000D03*
X45720000Y-40640000D03*
X86360000Y-40640000D03*
%TD*%
D29*
%TO.P,J1,A1,A1*%
%TO.N,VBUS*%
X183440000Y-46990000D03*
%TO.P,J1,A2,A2*%
%TO.N,/VBUS_XIAO*%
X183440000Y-49530000D03*
%TO.P,J1,A3,A3*%
%TO.N,unconnected-(J1-PadA3)*%
X183440000Y-52070000D03*
%TO.P,J1,A4,A4*%
%TO.N,VSYS*%
X183440000Y-54610000D03*
%TO.P,J1,A5,A5*%
%TO.N,3V3*%
X183440000Y-57150000D03*
%TO.P,J1,A6,A6*%
%TO.N,GND*%
X183440000Y-59690000D03*
%TO.P,J1,A7,A7*%
%TO.N,/SCL0*%
X183440000Y-62230000D03*
%TO.P,J1,A8,A8*%
%TO.N,/SDA0*%
X183440000Y-64770000D03*
%TO.P,J1,A9,A9*%
%TO.N,unconnected-(J1-PadA9)*%
X183440000Y-67310000D03*
%TO.P,J1,A10,A10*%
%TO.N,unconnected-(J1-PadA10)*%
X183440000Y-69850000D03*
%TO.P,J1,A11,A11*%
%TO.N,unconnected-(J1-PadA11)*%
X183440000Y-72390000D03*
%TO.P,J1,A12,A12*%
%TO.N,unconnected-(J1-PadA12)*%
X183440000Y-74930000D03*
%TO.P,J1,A13,A13*%
%TO.N,unconnected-(J1-PadA13)*%
X183440000Y-77470000D03*
%TO.P,J1,A14,A14*%
%TO.N,unconnected-(J1-PadA14)*%
X183440000Y-80010000D03*
%TO.P,J1,A15,A15*%
%TO.N,unconnected-(J1-PadA15)*%
X183440000Y-82550000D03*
%TO.P,J1,A16,A16*%
%TO.N,unconnected-(J1-PadA16)*%
X183440000Y-85090000D03*
%TO.P,J1,A17,A17*%
%TO.N,unconnected-(J1-PadA17)*%
X183440000Y-87630000D03*
%TO.P,J1,A18,A18*%
%TO.N,unconnected-(J1-PadA18)*%
X183440000Y-90170000D03*
%TO.P,J1,A19,A19*%
%TO.N,unconnected-(J1-PadA19)*%
X183440000Y-92710000D03*
%TO.P,J1,A20,A20*%
%TO.N,unconnected-(J1-PadA20)*%
X183440000Y-95250000D03*
%TO.P,J1,A21,A21*%
%TO.N,unconnected-(J1-PadA21)*%
X183440000Y-97790000D03*
%TO.P,J1,A22,A22*%
%TO.N,unconnected-(J1-PadA22)*%
X183440000Y-100330000D03*
%TO.P,J1,A23,A23*%
%TO.N,unconnected-(J1-PadA23)*%
X183440000Y-102870000D03*
%TO.P,J1,A24,A24*%
%TO.N,unconnected-(J1-PadA24)*%
X183440000Y-105410000D03*
%TO.P,J1,A25,A25*%
%TO.N,unconnected-(J1-PadA25)*%
X183440000Y-107950000D03*
%TO.P,J1,A26,A26*%
%TO.N,unconnected-(J1-PadA26)*%
X183440000Y-110490000D03*
%TO.P,J1,A27,A27*%
%TO.N,unconnected-(J1-PadA27)*%
X183440000Y-113030000D03*
%TO.P,J1,A28,A28*%
%TO.N,unconnected-(J1-PadA28)*%
X183440000Y-115570000D03*
%TO.P,J1,A29,A29*%
%TO.N,unconnected-(J1-PadA29)*%
X183440000Y-118110000D03*
%TO.P,J1,A30,A30*%
%TO.N,unconnected-(J1-PadA30)*%
X183440000Y-120650000D03*
%TO.P,J1,A31,A31*%
%TO.N,unconnected-(J1-PadA31)*%
X183440000Y-123190000D03*
%TO.P,J1,A32,A32*%
%TO.N,unconnected-(J1-PadA32)*%
X183440000Y-125730000D03*
%TO.P,J1,B1,B1*%
%TO.N,VSYS*%
X180900000Y-46990000D03*
%TO.P,J1,B2,B2*%
%TO.N,3V3*%
X180900000Y-49530000D03*
%TO.P,J1,B3,B3*%
%TO.N,AREF*%
X180900000Y-52070000D03*
%TO.P,J1,B4,B4*%
%TO.N,/IO28*%
X180900000Y-54610000D03*
%TO.P,J1,B5,B5*%
%TO.N,3V3*%
X180900000Y-57150000D03*
%TO.P,J1,B6,B6*%
%TO.N,/IO27*%
X180900000Y-59690000D03*
%TO.P,J1,B7,B7*%
%TO.N,/IO26*%
X180900000Y-62230000D03*
%TO.P,J1,B8,B8*%
%TO.N,/RUN*%
X180900000Y-64770000D03*
%TO.P,J1,B9,B9*%
%TO.N,GND*%
X180900000Y-67310000D03*
%TO.P,J1,B10,B10*%
%TO.N,/IO22*%
X180900000Y-69850000D03*
%TO.P,J1,B11,B11*%
%TO.N,/IO21*%
X180900000Y-72390000D03*
%TO.P,J1,B12,B12*%
%TO.N,/IO20*%
X180900000Y-74930000D03*
%TO.P,J1,B13,B13*%
%TO.N,/IO19*%
X180900000Y-77470000D03*
%TO.P,J1,B14,B14*%
%TO.N,/IO18*%
X180900000Y-80010000D03*
%TO.P,J1,B15,B15*%
%TO.N,/IO17*%
X180900000Y-82550000D03*
%TO.P,J1,B16,B16*%
%TO.N,/IO16*%
X180900000Y-85090000D03*
%TO.P,J1,B17,B17*%
%TO.N,unconnected-(J1-PadB17)*%
X180900000Y-87630000D03*
%TO.P,J1,B18,B18*%
%TO.N,unconnected-(J1-PadB18)*%
X180900000Y-90170000D03*
%TO.P,J1,B19,B19*%
%TO.N,unconnected-(J1-PadB19)*%
X180900000Y-92710000D03*
%TO.P,J1,B20,B20*%
%TO.N,unconnected-(J1-PadB20)*%
X180900000Y-95250000D03*
%TO.P,J1,B21,B21*%
%TO.N,unconnected-(J1-PadB21)*%
X180900000Y-97790000D03*
%TO.P,J1,B22,B22*%
%TO.N,unconnected-(J1-PadB22)*%
X180900000Y-100330000D03*
%TO.P,J1,B23,B23*%
%TO.N,unconnected-(J1-PadB23)*%
X180900000Y-102870000D03*
%TO.P,J1,B24,B24*%
%TO.N,unconnected-(J1-PadB24)*%
X180900000Y-105410000D03*
%TO.P,J1,B25,B25*%
%TO.N,unconnected-(J1-PadB25)*%
X180900000Y-107950000D03*
%TO.P,J1,B26,B26*%
%TO.N,unconnected-(J1-PadB26)*%
X180900000Y-110490000D03*
%TO.P,J1,B27,B27*%
%TO.N,unconnected-(J1-PadB27)*%
X180900000Y-113030000D03*
%TO.P,J1,B28,B28*%
%TO.N,unconnected-(J1-PadB28)*%
X180900000Y-115570000D03*
%TO.P,J1,B29,B29*%
%TO.N,unconnected-(J1-PadB29)*%
X180900000Y-118110000D03*
%TO.P,J1,B30,B30*%
%TO.N,unconnected-(J1-PadB30)*%
X180900000Y-120650000D03*
%TO.P,J1,B31,B31*%
%TO.N,+5VP*%
X180900000Y-123190000D03*
%TO.P,J1,B32,B32*%
%TO.N,+12V*%
X180900000Y-125730000D03*
%TO.P,J1,C1,C1*%
%TO.N,/IO0*%
X178360000Y-46990000D03*
%TO.P,J1,C2,C2*%
%TO.N,/IO1*%
X178360000Y-49530000D03*
%TO.P,J1,C3,C3*%
%TO.N,/IO2*%
X178360000Y-52070000D03*
%TO.P,J1,C4,C4*%
%TO.N,/IO3*%
X178360000Y-54610000D03*
%TO.P,J1,C5,C5*%
%TO.N,/SDA0*%
X178360000Y-57150000D03*
%TO.P,J1,C6,C6*%
%TO.N,/SCL0*%
X178360000Y-59690000D03*
%TO.P,J1,C7,C7*%
%TO.N,/IO6*%
X178360000Y-62230000D03*
%TO.P,J1,C8,C8*%
%TO.N,/IO7*%
X178360000Y-64770000D03*
%TO.P,J1,C9,C9*%
%TO.N,/IO8*%
X178360000Y-67310000D03*
%TO.P,J1,C10,C10*%
%TO.N,/IO9*%
X178360000Y-69850000D03*
%TO.P,J1,C11,C11*%
%TO.N,/IO10*%
X178360000Y-72390000D03*
%TO.P,J1,C12,C12*%
%TO.N,/IO11*%
X178360000Y-74930000D03*
%TO.P,J1,C13,C13*%
%TO.N,/IO12*%
X178360000Y-77470000D03*
%TO.P,J1,C14,C14*%
%TO.N,/IO13*%
X178360000Y-80010000D03*
%TO.P,J1,C15,C15*%
%TO.N,/IO14*%
X178360000Y-82550000D03*
%TO.P,J1,C16,C16*%
%TO.N,/IO15*%
X178360000Y-85090000D03*
%TO.P,J1,C17,C17*%
%TO.N,GND*%
X178360000Y-87630000D03*
%TO.P,J1,C18,C18*%
%TO.N,unconnected-(J1-PadC18)*%
X178360000Y-90170000D03*
%TO.P,J1,C19,C19*%
%TO.N,unconnected-(J1-PadC19)*%
X178360000Y-92710000D03*
%TO.P,J1,C20,C20*%
%TO.N,unconnected-(J1-PadC20)*%
X178360000Y-95250000D03*
%TO.P,J1,C21,C21*%
%TO.N,unconnected-(J1-PadC21)*%
X178360000Y-97790000D03*
%TO.P,J1,C22,C22*%
%TO.N,GND*%
X178360000Y-100330000D03*
%TO.P,J1,C23,C23*%
X178360000Y-102870000D03*
%TO.P,J1,C24,C24*%
%TO.N,unconnected-(J1-PadC24)*%
X178360000Y-105410000D03*
%TO.P,J1,C25,C25*%
%TO.N,unconnected-(J1-PadC25)*%
X178360000Y-107950000D03*
%TO.P,J1,C26,C26*%
%TO.N,unconnected-(J1-PadC26)*%
X178360000Y-110490000D03*
%TO.P,J1,C27,C27*%
%TO.N,unconnected-(J1-PadC27)*%
X178360000Y-113030000D03*
%TO.P,J1,C28,C28*%
%TO.N,unconnected-(J1-PadC28)*%
X178360000Y-115570000D03*
%TO.P,J1,C29,C29*%
%TO.N,unconnected-(J1-PadC29)*%
X178360000Y-118110000D03*
%TO.P,J1,C30,C30*%
%TO.N,unconnected-(J1-PadC30)*%
X178360000Y-120650000D03*
%TO.P,J1,C31,C31*%
%TO.N,+5VP*%
X178360000Y-123190000D03*
%TO.P,J1,C32,C32*%
%TO.N,+12V*%
X178360000Y-125730000D03*
%TD*%
D20*
%TO.P,J20,1,Pin_1*%
%TO.N,3V3*%
X100330000Y-48260000D03*
D12*
%TO.P,J20,2,Pin_2*%
%TO.N,+3V3*%
X100330000Y-45720000D03*
%TO.P,J20,3,Pin_3*%
%TO.N,+3.3VP*%
X100330000Y-43180000D03*
%TD*%
D30*
%TO.P,J15,1,Pin_1*%
%TO.N,Net-(J12-Pad1)*%
X37084000Y-129667000D03*
%TO.P,J15,2,Pin_2*%
%TO.N,Net-(J12-Pad2)*%
X37084000Y-125857000D03*
%TO.P,J15,3,Pin_3*%
%TO.N,Net-(J12-Pad3)*%
X37084000Y-122047000D03*
%TO.P,J15,4,Pin_4*%
%TO.N,Net-(J12-Pad4)*%
X37084000Y-118237000D03*
%TD*%
D12*
%TO.P,J3,21,Pin_21*%
%TO.N,/IO16*%
X147320000Y-86360000D03*
X149860000Y-86360000D03*
%TO.P,J3,22,Pin_22*%
%TO.N,/IO17*%
X149860000Y-83820000D03*
X147320000Y-83820000D03*
%TO.P,J3,23,Pin_23*%
%TO.N,GND*%
X149860000Y-81280000D03*
X147320000Y-81280000D03*
%TO.P,J3,24,Pin_24*%
%TO.N,/IO18*%
X149860000Y-78740000D03*
X147320000Y-78740000D03*
%TO.P,J3,25,Pin_25*%
%TO.N,/IO19*%
X149860000Y-76200000D03*
X147320000Y-76200000D03*
%TO.P,J3,26,Pin_26*%
%TO.N,/IO20*%
X149860000Y-73660000D03*
X147320000Y-73660000D03*
%TO.P,J3,27,Pin_27*%
%TO.N,/IO21*%
X147320000Y-71120000D03*
X149860000Y-71120000D03*
%TO.P,J3,28,Pin_28*%
%TO.N,GND*%
X147320000Y-68580000D03*
X149860000Y-68580000D03*
%TO.P,J3,29,Pin_29*%
%TO.N,/IO22*%
X147320000Y-66040000D03*
X149860000Y-66040000D03*
%TO.P,J3,30,Pin_30*%
%TO.N,/RUN*%
X147320000Y-63500000D03*
X149860000Y-63500000D03*
%TO.P,J3,31,Pin_31*%
%TO.N,/IO26*%
X149860000Y-60960000D03*
X147320000Y-60960000D03*
%TO.P,J3,32,Pin_32*%
%TO.N,/IO27*%
X147320000Y-58420000D03*
X149860000Y-58420000D03*
%TO.P,J3,33,Pin_33*%
%TO.N,GND*%
X147320000Y-55880000D03*
X149860000Y-55880000D03*
%TO.P,J3,34,Pin_34*%
%TO.N,/IO28*%
X147320000Y-53340000D03*
X149860000Y-53340000D03*
%TO.P,J3,35,Pin_35*%
%TO.N,AREF*%
X147320000Y-50800000D03*
X149860000Y-50800000D03*
%TO.P,J3,36,Pin_36*%
%TO.N,3V3*%
X147320000Y-48260000D03*
X149860000Y-48260000D03*
%TO.P,J3,37,Pin_37*%
%TO.N,Net-(J3-Pad37)*%
X149860000Y-45720000D03*
X147320000Y-45720000D03*
%TO.P,J3,38,Pin_38*%
%TO.N,GND*%
X147320000Y-43180000D03*
X149860000Y-43180000D03*
%TO.P,J3,39,Pin_39*%
%TO.N,VSYS*%
X149860000Y-40640000D03*
X147320000Y-40640000D03*
%TO.P,J3,40,Pin_40*%
%TO.N,VBUS*%
X147320000Y-38100000D03*
X149860000Y-38100000D03*
%TD*%
D31*
%TO.P,J7,1*%
%TO.N,+12V*%
X39820000Y-51360000D03*
D32*
%TO.P,J7,2*%
%TO.N,unconnected-(J7-Pad2)*%
X36520000Y-56160000D03*
D33*
%TO.P,J7,3*%
%TO.N,GND*%
X33520000Y-51360000D03*
%TD*%
D20*
%TO.P,J21,1,Pin_1*%
%TO.N,VSYS*%
X105410000Y-48260000D03*
D12*
%TO.P,J21,2,Pin_2*%
%TO.N,/BUSBAR-5*%
X105410000Y-45720000D03*
%TO.P,J21,3,Pin_3*%
%TO.N,+5VP*%
X105410000Y-43180000D03*
%TD*%
D34*
%TO.P,R1,1*%
%TO.N,Net-(J4-Pad1)*%
X137938000Y-90424000D03*
%TO.P,R1,2*%
%TO.N,Net-(D1-Pad2)*%
X139938000Y-90424000D03*
%TD*%
D25*
%TO.P,SW2,1,1*%
%TO.N,Net-(J5-Pad1)*%
X122480000Y-99985000D03*
X128980000Y-99985000D03*
%TO.P,SW2,2,2*%
%TO.N,GND*%
X122480000Y-104485000D03*
X128980000Y-104485000D03*
%TD*%
%TO.P,SW1,1,1*%
%TO.N,/RUN*%
X116840000Y-98500000D03*
X116840000Y-92000000D03*
%TO.P,SW1,2,2*%
%TO.N,GND*%
X112340000Y-98500000D03*
X112340000Y-92000000D03*
%TD*%
D20*
%TO.P,J41,1,Pin_1*%
%TO.N,Net-(J41-Pad1)*%
X146050000Y-100330000D03*
D12*
%TO.P,J41,2,Pin_2*%
%TO.N,/IO8*%
X143510000Y-100330000D03*
%TD*%
D13*
%TO.P,U2,1,IN*%
%TO.N,+12V*%
X33020000Y-96500000D03*
D14*
%TO.P,U2,2,GND*%
%TO.N,GND*%
X35560000Y-96500000D03*
%TO.P,U2,3,OUT*%
%TO.N,Net-(C2-Pad1)*%
X38100000Y-96500000D03*
%TD*%
D20*
%TO.P,J6,1,Pin_1*%
%TO.N,GND*%
X160020000Y-74930000D03*
D12*
%TO.P,J6,2,Pin_2*%
%TO.N,/SWDIO*%
X162560000Y-74930000D03*
%TO.P,J6,3,Pin_3*%
%TO.N,/SWCLK*%
X165100000Y-74930000D03*
%TO.P,J6,4,Pin_4*%
%TO.N,3V3*%
X167640000Y-74930000D03*
%TD*%
D18*
%TO.P,J34,1,Pin_1*%
%TO.N,+3V3*%
X96520000Y-58420000D03*
%TO.P,J34,2,Pin_2*%
%TO.N,/BUSBAR-5*%
X96520000Y-55880000D03*
%TD*%
D35*
%TO.P,J19,1,Pin_1*%
%TO.N,GND*%
X48260000Y-132080000D03*
X83820000Y-132080000D03*
X73660000Y-132080000D03*
X91440000Y-132080000D03*
X53340000Y-132080000D03*
X76200000Y-132080000D03*
X50800000Y-132080000D03*
X58420000Y-132080000D03*
X45720000Y-132080000D03*
X55880000Y-132080000D03*
X81280000Y-132080000D03*
X63500000Y-132080000D03*
X93980000Y-132080000D03*
X86360000Y-132080000D03*
X66040000Y-132080000D03*
X78740000Y-132080000D03*
X68580000Y-132080000D03*
X60960000Y-132080000D03*
X88900000Y-132080000D03*
X71120000Y-132080000D03*
%TD*%
D20*
%TO.P,J39,1,Pin_1*%
%TO.N,Net-(J39-Pad1)*%
X170180000Y-63500000D03*
D12*
%TO.P,J39,2,Pin_2*%
%TO.N,/IO0*%
X167640000Y-63500000D03*
%TD*%
D16*
%TO.P,J25,1,Pin_1*%
%TO.N,Net-(J25-Pad1)*%
X124460000Y-124460000D03*
%TO.P,J25,2,Pin_2*%
%TO.N,Net-(J25-Pad2)*%
X124460000Y-127000000D03*
%TO.P,J25,3,Pin_3*%
%TO.N,/SO16-7*%
X124460000Y-129540000D03*
%TO.P,J25,4,Pin_4*%
%TO.N,/SO16-8*%
X124460000Y-132080000D03*
%TD*%
D20*
%TO.P,J38,1,Pin_1*%
%TO.N,Net-(J38-Pad1)*%
X158750000Y-63500000D03*
D12*
%TO.P,J38,2,Pin_2*%
%TO.N,/IO1*%
X161290000Y-63500000D03*
%TD*%
D23*
%TO.P,C1,1*%
%TO.N,+12V*%
X34290000Y-71100000D03*
%TO.P,C1,2*%
%TO.N,GND*%
X34290000Y-68600000D03*
%TD*%
D36*
%TO.P,U3,1,GPIO26_ADC0*%
%TO.N,unconnected-(U3-Pad1)*%
X155727500Y-39370000D03*
D37*
X156527500Y-39370000D03*
D36*
%TO.P,U3,2,GPIO27_ADC1*%
%TO.N,unconnected-(U3-Pad2)*%
X155727500Y-41910000D03*
D37*
X156527500Y-41910000D03*
%TO.P,U3,3,GPIO28_ADC2*%
%TO.N,unconnected-(U3-Pad3)*%
X156527500Y-44450000D03*
D36*
X155727500Y-44450000D03*
%TO.P,U3,4,GPIO29_ADC3*%
%TO.N,unconnected-(U3-Pad4)*%
X155727500Y-46990000D03*
D37*
X156527500Y-46990000D03*
%TO.P,U3,5,GPIO6*%
%TO.N,unconnected-(U3-Pad5)*%
X156577500Y-49530000D03*
D36*
X155777500Y-49530000D03*
%TO.P,U3,6,GPIO7*%
%TO.N,unconnected-(U3-Pad6)*%
X155727500Y-52070000D03*
D37*
X156527500Y-52070000D03*
%TO.P,U3,7,GPIO0*%
%TO.N,Net-(J38-Pad1)*%
X156527500Y-54610000D03*
D36*
X155727500Y-54610000D03*
%TO.P,U3,8,GPIO1*%
%TO.N,Net-(J39-Pad1)*%
X172567500Y-54610000D03*
D37*
X171767500Y-54610000D03*
D36*
%TO.P,U3,9,GPIO2*%
%TO.N,Net-(R7-Pad1)*%
X172567500Y-52070000D03*
D37*
X171767500Y-52070000D03*
D36*
%TO.P,U3,10,GPIO4*%
%TO.N,unconnected-(U3-Pad10)*%
X172567500Y-49530000D03*
D37*
X171767500Y-49530000D03*
D36*
%TO.P,U3,11,GPIO3*%
%TO.N,Net-(R8-Pad1)*%
X172567500Y-46990000D03*
D37*
X171767500Y-46990000D03*
D36*
%TO.P,U3,12,3V3*%
%TO.N,unconnected-(U3-Pad12)*%
X172517500Y-44450000D03*
D37*
X171717500Y-44450000D03*
D36*
%TO.P,U3,13,GND*%
%TO.N,GND*%
X172567500Y-41910000D03*
D37*
X171767500Y-41910000D03*
%TO.P,U3,14,VBUS*%
%TO.N,/VBUS_XIAO*%
X171767500Y-39370000D03*
D36*
X172567500Y-39370000D03*
D38*
%TO.P,U3,15,SWC*%
%TO.N,unconnected-(U3-Pad15)*%
X166052500Y-38735000D03*
%TO.P,U3,16,SWD*%
%TO.N,unconnected-(U3-Pad16)*%
X162623500Y-38227000D03*
%TO.P,U3,17,RUN*%
%TO.N,unconnected-(U3-Pad17)*%
X162369500Y-41656000D03*
%TD*%
D39*
%TO.P,J9,1,Pin_1*%
%TO.N,GND*%
X36260000Y-60480000D03*
D40*
%TO.P,J9,2,Pin_2*%
%TO.N,+12V*%
X36260000Y-63980000D03*
%TD*%
D41*
%TO.P,D2,1,K*%
%TO.N,GND*%
X108272500Y-95250000D03*
D42*
%TO.P,D2,2,A*%
%TO.N,Net-(D2-Pad2)*%
X105732500Y-95250000D03*
%TD*%
D35*
%TO.P,J17,1,Pin_1*%
%TO.N,+3V3*%
X53340000Y-45720000D03*
X58420000Y-45720000D03*
X48260000Y-45720000D03*
X66040000Y-45720000D03*
X73660000Y-45720000D03*
X78740000Y-45720000D03*
X93980000Y-45720000D03*
X83820000Y-45720000D03*
X68580000Y-45720000D03*
X86360000Y-45720000D03*
X50800000Y-45720000D03*
X60960000Y-45720000D03*
X71120000Y-45720000D03*
X81280000Y-45720000D03*
X88900000Y-45720000D03*
X55880000Y-45720000D03*
X76200000Y-45720000D03*
X91440000Y-45720000D03*
X45720000Y-45720000D03*
X63500000Y-45720000D03*
%TD*%
D41*
%TO.P,D1,1,K*%
%TO.N,GND*%
X132075000Y-102870000D03*
D42*
%TO.P,D1,2,A*%
%TO.N,Net-(D1-Pad2)*%
X134615000Y-102870000D03*
%TD*%
D16*
%TO.P,J11,1,Pin_1*%
%TO.N,Net-(J10-Pad1)*%
X43180000Y-111760000D03*
%TO.P,J11,2,Pin_2*%
%TO.N,Net-(J10-Pad2)*%
X43180000Y-114300000D03*
%TO.P,J11,3,Pin_3*%
%TO.N,Net-(J10-Pad3)*%
X43180000Y-116840000D03*
%TD*%
D20*
%TO.P,J4,1,Pin_1*%
%TO.N,Net-(J4-Pad1)*%
X133350000Y-94615000D03*
D12*
%TO.P,J4,2,Pin_2*%
%TO.N,/IO22*%
X130810000Y-94615000D03*
%TD*%
D43*
%TO.P,J29,1,Pin_1*%
%TO.N,/SO8-1*%
X165100000Y-111760000D03*
%TO.P,J29,2,Pin_2*%
%TO.N,/SO8-2*%
X162560000Y-111760000D03*
%TO.P,J29,3,Pin_3*%
%TO.N,/SO8-3*%
X160020000Y-111760000D03*
%TO.P,J29,4,Pin_4*%
%TO.N,/SO8-4*%
X157480000Y-111760000D03*
%TD*%
D44*
%TO.P,U1,43,SWDIO*%
%TO.N,/SWDIO*%
X132080000Y-87030000D03*
D12*
X132080000Y-86130000D03*
D20*
%TO.P,U1,42,GND*%
%TO.N,GND*%
X129540000Y-86130000D03*
D44*
X129540000Y-87030000D03*
%TO.P,U1,41,SWCLK*%
%TO.N,/SWCLK*%
X127000000Y-87030000D03*
D12*
X127000000Y-86130000D03*
%TO.P,U1,40,VBUS*%
%TO.N,VBUS*%
X138430000Y-38100000D03*
D45*
X139330000Y-38100000D03*
D12*
%TO.P,U1,39,VSYS*%
%TO.N,VSYS*%
X138430000Y-40640000D03*
D45*
X139330000Y-40640000D03*
D20*
%TO.P,U1,38,GND*%
%TO.N,GND*%
X138430000Y-43180000D03*
D45*
X139330000Y-43180000D03*
D12*
%TO.P,U1,37,3V3_EN*%
%TO.N,Net-(J3-Pad37)*%
X138430000Y-45720000D03*
D45*
X139330000Y-45720000D03*
D12*
%TO.P,U1,36,3V3*%
%TO.N,3V3*%
X138430000Y-48260000D03*
D45*
X139330000Y-48260000D03*
%TO.P,U1,35,ADC_VREF*%
%TO.N,AREF*%
X139330000Y-50800000D03*
D12*
X138430000Y-50800000D03*
D45*
%TO.P,U1,34,GPIO28_ADC2*%
%TO.N,/IO28*%
X139330000Y-53340000D03*
D12*
X138430000Y-53340000D03*
D20*
%TO.P,U1,33,AGND*%
%TO.N,GND*%
X138430000Y-55880000D03*
D45*
X139330000Y-55880000D03*
D12*
%TO.P,U1,32,GPIO27_ADC1*%
%TO.N,/IO27*%
X138430000Y-58420000D03*
D45*
X139330000Y-58420000D03*
D12*
%TO.P,U1,31,GPIO26_ADC0*%
%TO.N,/IO26*%
X138430000Y-60960000D03*
D45*
X139330000Y-60960000D03*
%TO.P,U1,30,RUN*%
%TO.N,/RUN*%
X139330000Y-63500000D03*
D12*
X138430000Y-63500000D03*
D45*
%TO.P,U1,29,GPIO22*%
%TO.N,/IO22*%
X139330000Y-66040000D03*
D12*
X138430000Y-66040000D03*
D20*
%TO.P,U1,28,GND*%
%TO.N,GND*%
X138430000Y-68580000D03*
D45*
X139330000Y-68580000D03*
D12*
%TO.P,U1,27,GPIO21*%
%TO.N,/IO21*%
X138430000Y-71120000D03*
D45*
X139330000Y-71120000D03*
%TO.P,U1,26,GPIO20*%
%TO.N,/IO20*%
X139330000Y-73660000D03*
D12*
X138430000Y-73660000D03*
%TO.P,U1,25,GPIO19*%
%TO.N,/IO19*%
X138430000Y-76200000D03*
D45*
X139330000Y-76200000D03*
%TO.P,U1,24,GPIO18*%
%TO.N,/IO18*%
X139330000Y-78740000D03*
D12*
X138430000Y-78740000D03*
D45*
%TO.P,U1,23,GND*%
%TO.N,GND*%
X139330000Y-81280000D03*
D20*
X138430000Y-81280000D03*
D12*
%TO.P,U1,22,GPIO17*%
%TO.N,/IO17*%
X138430000Y-83820000D03*
D45*
X139330000Y-83820000D03*
%TO.P,U1,21,GPIO16*%
%TO.N,/IO16*%
X139330000Y-86360000D03*
D12*
X138430000Y-86360000D03*
%TO.P,U1,20,GPIO15*%
%TO.N,/IO15*%
X120650000Y-86360000D03*
D45*
X119750000Y-86360000D03*
D12*
%TO.P,U1,19,GPIO14*%
%TO.N,/IO14*%
X120650000Y-83820000D03*
D45*
X119750000Y-83820000D03*
D20*
%TO.P,U1,18,GND*%
%TO.N,GND*%
X120650000Y-81280000D03*
D45*
X119750000Y-81280000D03*
D12*
%TO.P,U1,17,GPIO13*%
%TO.N,/IO13*%
X120650000Y-78740000D03*
D45*
X119750000Y-78740000D03*
D12*
%TO.P,U1,16,GPIO12*%
%TO.N,/IO12*%
X120650000Y-76200000D03*
D45*
X119750000Y-76200000D03*
D12*
%TO.P,U1,15,GPIO11*%
%TO.N,/IO11*%
X120650000Y-73660000D03*
D45*
X119750000Y-73660000D03*
%TO.P,U1,14,GPIO10*%
%TO.N,/IO10*%
X119750000Y-71120000D03*
D12*
X120650000Y-71120000D03*
D45*
%TO.P,U1,13,GND*%
%TO.N,GND*%
X119750000Y-68580000D03*
D20*
X120650000Y-68580000D03*
D12*
%TO.P,U1,12,GPIO9*%
%TO.N,/IO9*%
X120650000Y-66040000D03*
D45*
X119750000Y-66040000D03*
D12*
%TO.P,U1,11,GPIO8*%
%TO.N,/IO8*%
X120650000Y-63500000D03*
D45*
X119750000Y-63500000D03*
D12*
%TO.P,U1,10,GPIO7*%
%TO.N,/IO7*%
X120650000Y-60960000D03*
D45*
X119750000Y-60960000D03*
D12*
%TO.P,U1,9,GPIO6*%
%TO.N,/IO6*%
X120650000Y-58420000D03*
D45*
X119750000Y-58420000D03*
D20*
%TO.P,U1,8,GND*%
%TO.N,GND*%
X120650000Y-55880000D03*
D45*
X119750000Y-55880000D03*
D12*
%TO.P,U1,7,GPIO5*%
%TO.N,/SCL0*%
X120650000Y-53340000D03*
D45*
X119750000Y-53340000D03*
%TO.P,U1,6,GPIO4*%
%TO.N,/SDA0*%
X119750000Y-50800000D03*
D12*
X120650000Y-50800000D03*
%TO.P,U1,5,GPIO3*%
%TO.N,/IO3*%
X120650000Y-48260000D03*
D45*
X119750000Y-48260000D03*
D12*
%TO.P,U1,4,GPIO2*%
%TO.N,/IO2*%
X120650000Y-45720000D03*
D45*
X119750000Y-45720000D03*
D20*
%TO.P,U1,3,GND*%
%TO.N,GND*%
X120650000Y-43180000D03*
D45*
X119750000Y-43180000D03*
%TO.P,U1,2,GPIO1*%
%TO.N,/IO1*%
X119750000Y-40640000D03*
D12*
X120650000Y-40640000D03*
%TO.P,U1,1,GPIO0*%
%TO.N,/IO0*%
X120650000Y-38100000D03*
D45*
X119750000Y-38100000D03*
%TD*%
D16*
%TO.P,J36,1,Pin_1*%
%TO.N,/IO28*%
X96520000Y-66040000D03*
%TD*%
%TO.P,J33,1,Pin_1*%
%TO.N,GND*%
X96520000Y-60960000D03*
%TD*%
D23*
%TO.P,C3,1*%
%TO.N,Net-(C2-Pad1)*%
X33000000Y-104100000D03*
%TO.P,C3,2*%
%TO.N,GND*%
X33000000Y-101600000D03*
%TD*%
D46*
%TO.P,J26,1,Pin_1*%
%TO.N,Net-(J24-Pad1)*%
X130120000Y-118745000D03*
%TO.P,J26,2,Pin_2*%
%TO.N,Net-(J24-Pad2)*%
X130120000Y-120015000D03*
%TO.P,J26,3,Pin_3*%
%TO.N,Net-(J24-Pad3)*%
X130120000Y-121285000D03*
%TO.P,J26,4,Pin_4*%
%TO.N,Net-(J24-Pad4)*%
X130120000Y-122555000D03*
%TO.P,J26,5,Pin_5*%
%TO.N,Net-(J25-Pad1)*%
X130120000Y-123825000D03*
%TO.P,J26,6,Pin_6*%
%TO.N,Net-(J25-Pad2)*%
X130120000Y-125095000D03*
%TO.P,J26,7,Pin_7*%
%TO.N,/SO16-7*%
X130120000Y-126365000D03*
%TO.P,J26,8,Pin_8*%
%TO.N,/SO16-8*%
X130120000Y-127635000D03*
%TO.P,J26,9,Pin_9*%
%TO.N,Net-(J26-Pad9)*%
X139120000Y-127635000D03*
%TO.P,J26,10,Pin_10*%
%TO.N,Net-(J26-Pad10)*%
X139120000Y-126365000D03*
%TO.P,J26,11,Pin_11*%
%TO.N,Net-(J26-Pad11)*%
X139120000Y-125095000D03*
%TO.P,J26,12,Pin_12*%
%TO.N,Net-(J26-Pad12)*%
X139120000Y-123825000D03*
%TO.P,J26,13,Pin_13*%
%TO.N,Net-(J26-Pad13)*%
X139120000Y-122555000D03*
%TO.P,J26,14,Pin_14*%
%TO.N,Net-(J26-Pad14)*%
X139120000Y-121285000D03*
%TO.P,J26,15,Pin_15*%
%TO.N,Net-(J26-Pad15)*%
X139120000Y-120015000D03*
%TO.P,J26,16,Pin_16*%
%TO.N,/SO16-16*%
X139120000Y-118745000D03*
%TD*%
D20*
%TO.P,J43,1,Pin_1*%
%TO.N,Net-(C7-Pad1)*%
X146050000Y-97790000D03*
D12*
%TO.P,J43,2,Pin_2*%
%TO.N,/IO7*%
X143510000Y-97790000D03*
%TD*%
D47*
%TO.N,3V3*%
X164592000Y-100076000D03*
X102870000Y-52387500D03*
X166116000Y-56388000D03*
D48*
X109601000Y-117094000D03*
D49*
%TO.N,VBUS*%
X133032500Y-59690000D03*
X136207500Y-45720000D03*
D48*
X106362500Y-65405000D03*
D47*
%TO.N,GND*%
X172466000Y-59944000D03*
D48*
X106362500Y-67945000D03*
D47*
X156718000Y-59944000D03*
D48*
X155257500Y-96520000D03*
X98742500Y-69850000D03*
%TO.N,Net-(D2-Pad2)*%
X106362500Y-70485000D03*
%TO.N,+5VP*%
X105727500Y-55245000D03*
X105727500Y-58102500D03*
D47*
%TO.N,/IO0*%
X167894000Y-56134000D03*
%TO.N,/IO1*%
X161925000Y-56515000D03*
D48*
%TO.N,/IO10*%
X104394000Y-117094000D03*
%TO.N,/IO11*%
X107569000Y-117094000D03*
%TO.N,/IO12*%
X111125000Y-111379000D03*
%TO.N,/IO13*%
X106299000Y-117094000D03*
%TO.N,+3.3VP*%
X31115000Y-40322500D03*
X33020000Y-38417500D03*
X32067500Y-39370000D03*
%TO.N,Net-(C7-Pad1)*%
X150177500Y-97155000D03*
%TO.N,Net-(C8-Pad1)*%
X147637500Y-91122500D03*
%TO.N,Net-(R16-Pad1)*%
X152400000Y-91122500D03*
%TD*%
D50*
%TO.N,Net-(D1-Pad2)*%
X135509000Y-93091000D02*
X135509000Y-101976000D01*
X139446000Y-91948000D02*
X136652000Y-91948000D01*
X139938000Y-90424000D02*
X139938000Y-91456000D01*
X139938000Y-91456000D02*
X139446000Y-91948000D01*
X136652000Y-91948000D02*
X135509000Y-93091000D01*
X135509000Y-101976000D02*
X134615000Y-102870000D01*
%TO.N,/IO22*%
X179070000Y-66040000D02*
X179578000Y-66548000D01*
X179578000Y-68528000D02*
X180900000Y-69850000D01*
X147320000Y-66040000D02*
X149860000Y-66040000D01*
X138430000Y-66040000D02*
X147320000Y-66040000D01*
X177296191Y-66745200D02*
X178001391Y-66040000D01*
X149860000Y-66040000D02*
X150565200Y-66745200D01*
X150565200Y-66745200D02*
X177296191Y-66745200D01*
X178001391Y-66040000D02*
X179070000Y-66040000D01*
X179578000Y-66548000D02*
X179578000Y-68528000D01*
%TO.N,/IO26*%
X149860000Y-60960000D02*
X150876000Y-61976000D01*
X147320000Y-60960000D02*
X149860000Y-60960000D01*
X150876000Y-61976000D02*
X176985391Y-61976000D01*
X177882991Y-61078400D02*
X179748400Y-61078400D01*
X138430000Y-60960000D02*
X147320000Y-60960000D01*
X176985391Y-61976000D02*
X177882991Y-61078400D01*
X179748400Y-61078400D02*
X180900000Y-62230000D01*
%TO.N,/IO27*%
X149860000Y-58420000D02*
X150938210Y-58420000D01*
X177208400Y-60027600D02*
X177208400Y-59212991D01*
X176066400Y-61169600D02*
X177208400Y-60027600D01*
X153687810Y-61169600D02*
X176066400Y-61169600D01*
X147320000Y-58420000D02*
X149860000Y-58420000D01*
X138430000Y-58420000D02*
X147320000Y-58420000D01*
X150938210Y-58420000D02*
X153687810Y-61169600D01*
X177982991Y-58438400D02*
X179648400Y-58438400D01*
X177208400Y-59212991D02*
X177982991Y-58438400D01*
X179648400Y-58438400D02*
X180900000Y-59690000D01*
%TO.N,3V3*%
X167430400Y-56940400D02*
X173752522Y-56940400D01*
D51*
X123190000Y-40322500D02*
X122237500Y-39370000D01*
D50*
X113347500Y-39370000D02*
X107950000Y-39370000D01*
D51*
X117475000Y-39370000D02*
X113347500Y-39370000D01*
X123190000Y-41592500D02*
X123190000Y-40322500D01*
D50*
X182170000Y-50800000D02*
X183997600Y-50800000D01*
D51*
X104457500Y-39370000D02*
X102235000Y-41592500D01*
D50*
X164592000Y-100076000D02*
X164592000Y-100965000D01*
X152400000Y-53340000D02*
X153206400Y-54146400D01*
X151533200Y-51267990D02*
X152400000Y-52134790D01*
X102870000Y-52387500D02*
X102870000Y-48895000D01*
X153206400Y-55545980D02*
X154600820Y-56940400D01*
X149860000Y-48260000D02*
X151415105Y-49815105D01*
X122237500Y-39370000D02*
X117475000Y-39370000D01*
X174796400Y-48895000D02*
X175549800Y-48141600D01*
D51*
X102235000Y-47625000D02*
X101917500Y-47942500D01*
D50*
X174796400Y-55896520D02*
X174796400Y-48895000D01*
X179511600Y-48141600D02*
X180900000Y-49530000D01*
X183997600Y-50800000D02*
X184708800Y-51511200D01*
X154600820Y-56940400D02*
X160100021Y-56940400D01*
X175549800Y-48141600D02*
X179511600Y-48141600D01*
D51*
X102235000Y-41592500D02*
X102235000Y-47625000D01*
D50*
X153206400Y-54146400D02*
X153206400Y-55545980D01*
D51*
X129857500Y-48260000D02*
X123190000Y-41592500D01*
D50*
X173752522Y-56940400D02*
X174796400Y-55896520D01*
X184708800Y-51511200D02*
X184708800Y-55881200D01*
X131318000Y-104648000D02*
X129540000Y-102870000D01*
D51*
X138430000Y-48260000D02*
X147320000Y-48260000D01*
D50*
X161243020Y-55797400D02*
X165525400Y-55797400D01*
X160100021Y-56940400D02*
X161243020Y-55797400D01*
D51*
X147320000Y-48260000D02*
X149860000Y-48260000D01*
D50*
X167430400Y-56940400D02*
X166878000Y-56388000D01*
X129540000Y-102870000D02*
X118804630Y-102870000D01*
X152400000Y-52134790D02*
X152400000Y-53340000D01*
X151415105Y-49815105D02*
X151415105Y-49879895D01*
D51*
X138430000Y-48260000D02*
X129857500Y-48260000D01*
X107950000Y-39370000D02*
X104457500Y-39370000D01*
D50*
X165525400Y-55797400D02*
X166116000Y-56388000D01*
X164592000Y-100965000D02*
X160909000Y-104648000D01*
X180900000Y-49530000D02*
X182170000Y-50800000D01*
X151533200Y-49997990D02*
X151533200Y-51267990D01*
X166878000Y-56388000D02*
X166116000Y-56388000D01*
X102870000Y-48895000D02*
X101917500Y-47942500D01*
X184708800Y-55881200D02*
X183440000Y-57150000D01*
X112417200Y-109257430D02*
X112417200Y-114277800D01*
X112417200Y-114277800D02*
X109601000Y-117094000D01*
D51*
X101917500Y-47942500D02*
X101600000Y-48260000D01*
X101600000Y-48260000D02*
X100330000Y-48260000D01*
D50*
X160909000Y-104648000D02*
X131318000Y-104648000D01*
X151415105Y-49879895D02*
X151533200Y-49997990D01*
X118804630Y-102870000D02*
X112417200Y-109257430D01*
%TO.N,VSYS*%
X154934840Y-56134000D02*
X159766000Y-56134000D01*
X152400000Y-49594790D02*
X152400000Y-50800000D01*
X154108400Y-55307560D02*
X154934840Y-56134000D01*
X151130000Y-47054790D02*
X151765000Y-47689790D01*
X168021000Y-54991000D02*
X169164000Y-56134000D01*
X153206400Y-51606400D02*
X153206400Y-53005980D01*
X169164000Y-56134000D02*
X173418500Y-56134000D01*
X179070000Y-43815000D02*
X180900000Y-45645000D01*
X173418500Y-56134000D02*
X173990000Y-55562500D01*
X149860000Y-40640000D02*
X151130000Y-41910000D01*
X147320000Y-40640000D02*
X149860000Y-40640000D01*
X174625000Y-43815000D02*
X179070000Y-43815000D01*
X138430000Y-40640000D02*
X147320000Y-40640000D01*
X159766000Y-56134000D02*
X160909000Y-54991000D01*
X151765000Y-47689790D02*
X151765000Y-48959790D01*
X180900000Y-45645000D02*
X180900000Y-46990000D01*
X173990000Y-44450000D02*
X174625000Y-43815000D01*
X154108400Y-53907980D02*
X154108400Y-55307560D01*
X151130000Y-41910000D02*
X151130000Y-47054790D01*
X173990000Y-55562500D02*
X173990000Y-44450000D01*
X160909000Y-54991000D02*
X168021000Y-54991000D01*
X151765000Y-48959790D02*
X152400000Y-49594790D01*
X152400000Y-50800000D02*
X153206400Y-51606400D01*
X153206400Y-53005980D02*
X154108400Y-53907980D01*
%TO.N,VBUS*%
X164541400Y-40640000D02*
X167640000Y-40640000D01*
X158785037Y-38100000D02*
X160613637Y-39928600D01*
X167640000Y-40640000D02*
X170180000Y-38100000D01*
X138430000Y-38100000D02*
X147320000Y-38100000D01*
X149860000Y-38100000D02*
X158785037Y-38100000D01*
X136207500Y-45720000D02*
X136207500Y-39052500D01*
X147320000Y-38100000D02*
X149860000Y-38100000D01*
X163830000Y-39928600D02*
X164541400Y-40640000D01*
X133032500Y-59690000D02*
X108585000Y-59690000D01*
X107315000Y-65405000D02*
X106362500Y-65405000D01*
X170180000Y-38100000D02*
X174550000Y-38100000D01*
X136207500Y-39052500D02*
X137160000Y-38100000D01*
X174550000Y-38100000D02*
X183440000Y-46990000D01*
X108585000Y-59690000D02*
X107950000Y-60325000D01*
X137160000Y-38100000D02*
X138430000Y-38100000D01*
X107950000Y-64770000D02*
X107315000Y-65405000D01*
X160613637Y-39928600D02*
X163830000Y-39928600D01*
X107950000Y-60325000D02*
X107950000Y-64770000D01*
D51*
%TO.N,GND*%
X111760000Y-81280000D02*
X109160000Y-81280000D01*
X101675000Y-98500000D02*
X101600000Y-98425000D01*
X101600000Y-109855000D02*
X101123750Y-110331250D01*
D50*
X182118000Y-67310000D02*
X182168800Y-67259200D01*
X106680000Y-68580000D02*
X109160000Y-68580000D01*
X150726800Y-56492800D02*
X154178000Y-59944000D01*
D52*
X30480000Y-101600000D02*
X30480000Y-131445000D01*
D50*
X155448000Y-99695000D02*
X156083000Y-100330000D01*
X179630000Y-88900000D02*
X178360000Y-87630000D01*
X112340000Y-90542500D02*
X112340000Y-92000000D01*
X177215600Y-56898580D02*
X177215600Y-56464400D01*
X162497790Y-100330000D02*
X157787500Y-100330000D01*
D52*
X44767500Y-134302500D02*
X45720000Y-133350000D01*
D51*
X108192500Y-98500000D02*
X101675000Y-98500000D01*
D50*
X182219600Y-59690000D02*
X182168800Y-59639200D01*
D52*
X33337500Y-134302500D02*
X44767500Y-134302500D01*
X33020000Y-84772500D02*
X30480000Y-84772500D01*
D50*
X164021790Y-98806000D02*
X162497790Y-100330000D01*
X181610000Y-88900000D02*
X179630000Y-88900000D01*
X182168800Y-88341200D02*
X181610000Y-88900000D01*
D52*
X30480000Y-68580000D02*
X30480000Y-64770000D01*
D50*
X183440000Y-59690000D02*
X182219600Y-59690000D01*
D52*
X30480000Y-131445000D02*
X33337500Y-134302500D01*
D51*
X101123750Y-110331250D02*
X99695000Y-111760000D01*
D52*
X120650000Y-43180000D02*
X111760000Y-43180000D01*
D50*
X113347500Y-89535000D02*
X128905000Y-89535000D01*
X156718000Y-59944000D02*
X172466000Y-59944000D01*
D51*
X101600000Y-92075000D02*
X100965000Y-91440000D01*
D52*
X30480000Y-84772500D02*
X30480000Y-101600000D01*
D50*
X113347500Y-89535000D02*
X112340000Y-90542500D01*
X129540000Y-86130000D02*
X129540000Y-89535000D01*
D52*
X30500000Y-68600000D02*
X30480000Y-68580000D01*
D51*
X147320000Y-43180000D02*
X138430000Y-43180000D01*
D50*
X108272500Y-95250000D02*
X108272500Y-98420000D01*
D52*
X30480000Y-68580000D02*
X30480000Y-84772500D01*
D50*
X172287500Y-97830000D02*
X172039250Y-97830000D01*
X106680000Y-68580000D02*
X106362500Y-68262500D01*
D52*
X33000000Y-101600000D02*
X30480000Y-101600000D01*
D50*
X154178000Y-59944000D02*
X156718000Y-59944000D01*
D52*
X35560000Y-96500000D02*
X35560000Y-100965000D01*
D50*
X181635400Y-55880000D02*
X182168800Y-56413400D01*
D51*
X111760000Y-68580000D02*
X109160000Y-68580000D01*
D52*
X33540000Y-60480000D02*
X33520000Y-60460000D01*
D51*
X138430000Y-68580000D02*
X147320000Y-68580000D01*
X147320000Y-55880000D02*
X149860000Y-55880000D01*
D50*
X150726800Y-56111800D02*
X150726800Y-56487640D01*
X174752000Y-59944000D02*
X177208400Y-57487600D01*
X182168800Y-56413400D02*
X182168800Y-59639200D01*
D51*
X98742500Y-69850000D02*
X98742500Y-91440000D01*
D52*
X35560000Y-84137500D02*
X34925000Y-84772500D01*
D51*
X101600000Y-98425000D02*
X101600000Y-92075000D01*
X120650000Y-55880000D02*
X111760000Y-55880000D01*
D50*
X177208400Y-56979600D02*
X177208400Y-56898580D01*
D51*
X99695000Y-111760000D02*
X99060000Y-111760000D01*
D50*
X128980000Y-104485000D02*
X122480000Y-104485000D01*
D51*
X99060000Y-111760000D02*
X96520000Y-111760000D01*
D52*
X34925000Y-84772500D02*
X33020000Y-84772500D01*
D50*
X128905000Y-89535000D02*
X129540000Y-89535000D01*
X108272500Y-98420000D02*
X108192500Y-98500000D01*
X177208400Y-56979600D02*
X177208400Y-57487600D01*
D52*
X34925000Y-101600000D02*
X33000000Y-101600000D01*
D50*
X128905000Y-97663000D02*
X132075000Y-100833000D01*
X128905000Y-89535000D02*
X128905000Y-97663000D01*
D52*
X33520000Y-61730000D02*
X33520000Y-60460000D01*
X33520000Y-60460000D02*
X33520000Y-51360000D01*
D50*
X177215600Y-56464400D02*
X177800000Y-55880000D01*
X180900000Y-67310000D02*
X182118000Y-67310000D01*
D51*
X147320000Y-81280000D02*
X149860000Y-81280000D01*
X100965000Y-91440000D02*
X98742500Y-91440000D01*
D52*
X34290000Y-68600000D02*
X30500000Y-68600000D01*
D51*
X101600000Y-98425000D02*
X101600000Y-109855000D01*
X149860000Y-43180000D02*
X147320000Y-43180000D01*
D50*
X172039250Y-97830000D02*
X171063250Y-98806000D01*
D51*
X98742500Y-91440000D02*
X96520000Y-91440000D01*
X108192500Y-98500000D02*
X111415000Y-98500000D01*
D50*
X150495000Y-55880000D02*
X150726800Y-56111800D01*
D51*
X120650000Y-81280000D02*
X111760000Y-81280000D01*
X111760000Y-43180000D02*
X109160000Y-43180000D01*
D52*
X45720000Y-133350000D02*
X45720000Y-132080000D01*
D50*
X156083000Y-100330000D02*
X157787500Y-100330000D01*
D51*
X147320000Y-68580000D02*
X149860000Y-68580000D01*
D50*
X171063250Y-98806000D02*
X164021790Y-98806000D01*
X174752000Y-59944000D02*
X172466000Y-59944000D01*
D51*
X111760000Y-55880000D02*
X109160000Y-55880000D01*
D50*
X150726800Y-56487640D02*
X150726800Y-56492800D01*
X106362500Y-68262500D02*
X106362500Y-67945000D01*
X155257500Y-96520000D02*
X155448000Y-96710500D01*
X182168800Y-67259200D02*
X182168800Y-88341200D01*
D51*
X138430000Y-55880000D02*
X147320000Y-55880000D01*
D50*
X177800000Y-55880000D02*
X181635400Y-55880000D01*
D52*
X36260000Y-60480000D02*
X33540000Y-60480000D01*
D50*
X132075000Y-100833000D02*
X132075000Y-102870000D01*
D51*
X120650000Y-68580000D02*
X111760000Y-68580000D01*
D50*
X182168800Y-59639200D02*
X182168800Y-67259200D01*
D52*
X30480000Y-64770000D02*
X33520000Y-61730000D01*
D50*
X155448000Y-96710500D02*
X155448000Y-99695000D01*
D52*
X35560000Y-100965000D02*
X34925000Y-101600000D01*
X35560000Y-80010000D02*
X35560000Y-84137500D01*
D51*
X138430000Y-81280000D02*
X147320000Y-81280000D01*
D50*
%TO.N,/RUN*%
X149860000Y-63500000D02*
X152298800Y-65938800D01*
X152298800Y-65938800D02*
X175421170Y-65938800D01*
X175421170Y-65938800D02*
X177841570Y-63518400D01*
X147320000Y-63500000D02*
X149860000Y-63500000D01*
X179648400Y-63518400D02*
X180900000Y-64770000D01*
X138430000Y-63500000D02*
X147320000Y-63500000D01*
X177841570Y-63518400D02*
X179648400Y-63518400D01*
%TO.N,Net-(J3-Pad37)*%
X138430000Y-45720000D02*
X147320000Y-45720000D01*
X147320000Y-45720000D02*
X149860000Y-45720000D01*
%TO.N,Net-(J4-Pad1)*%
X135636000Y-90424000D02*
X137938000Y-90424000D01*
X133350000Y-94615000D02*
X133350000Y-92710000D01*
X133350000Y-92710000D02*
X135636000Y-90424000D01*
%TO.N,Net-(J5-Pad1)*%
X126365000Y-99894000D02*
X126456000Y-99985000D01*
X126456000Y-99985000D02*
X128980000Y-99985000D01*
X122480000Y-99985000D02*
X126456000Y-99985000D01*
X126365000Y-94615000D02*
X126365000Y-99894000D01*
D52*
%TO.N,+12V*%
X41910000Y-42164000D02*
X43434000Y-40640000D01*
X40485000Y-63980000D02*
X40640000Y-64135000D01*
X40640000Y-67310000D02*
X40640000Y-64135000D01*
X43434000Y-40640000D02*
X45720000Y-40640000D01*
X36810000Y-71100000D02*
X36830000Y-71120000D01*
X36260000Y-63980000D02*
X40485000Y-63980000D01*
X39820000Y-48826000D02*
X41910000Y-46736000D01*
X39820000Y-53790000D02*
X39820000Y-51360000D01*
X36830000Y-71120000D02*
X40640000Y-67310000D01*
X40640000Y-54610000D02*
X39820000Y-53790000D01*
X40640000Y-64135000D02*
X40640000Y-54610000D01*
X39820000Y-51360000D02*
X39820000Y-48826000D01*
X34290000Y-71100000D02*
X36810000Y-71100000D01*
X41910000Y-46736000D02*
X41910000Y-42164000D01*
D50*
%TO.N,Net-(D2-Pad2)*%
X106362500Y-70485000D02*
X106021140Y-70826360D01*
X106021140Y-70826360D02*
X106021140Y-92733860D01*
X105727500Y-93027500D02*
X105732500Y-93032500D01*
X105732500Y-93032500D02*
X105732500Y-95250000D01*
X106021140Y-92733860D02*
X105727500Y-93027500D01*
%TO.N,/SDA0*%
X176805200Y-58704800D02*
X178360000Y-57150000D01*
X150218609Y-57150000D02*
X151011600Y-57942991D01*
X151011600Y-57942991D02*
X151031411Y-57942991D01*
X111760000Y-50800000D02*
X120650000Y-50800000D01*
X109160000Y-50800000D02*
X111760000Y-50800000D01*
X176805200Y-59860590D02*
X176805200Y-58704800D01*
X125730000Y-50800000D02*
X132080000Y-57150000D01*
X175899390Y-60766400D02*
X176805200Y-59860590D01*
X132080000Y-57150000D02*
X150218609Y-57150000D01*
X120650000Y-50800000D02*
X125730000Y-50800000D01*
X151031411Y-57942991D02*
X153854820Y-60766400D01*
X153854820Y-60766400D02*
X175899390Y-60766400D01*
%TO.N,/SCL0*%
X111760000Y-53340000D02*
X120650000Y-53340000D01*
X151656400Y-59708400D02*
X153520800Y-61572800D01*
X137178400Y-59708400D02*
X151656400Y-59708400D01*
X120650000Y-53340000D02*
X127000000Y-53340000D01*
X153520800Y-61572800D02*
X176425200Y-61572800D01*
X131445000Y-57785000D02*
X135255000Y-57785000D01*
X176425200Y-61572800D02*
X178308000Y-59690000D01*
X109160000Y-53340000D02*
X111760000Y-53340000D01*
X127000000Y-53340000D02*
X131445000Y-57785000D01*
X135255000Y-57785000D02*
X137178400Y-59708400D01*
D51*
%TO.N,+5VP*%
X106934000Y-54038500D02*
X105727500Y-55245000D01*
X106934000Y-54038500D02*
X106934000Y-43942000D01*
X106934000Y-56896000D02*
X105727500Y-58102500D01*
X106934000Y-43942000D02*
X106172000Y-43180000D01*
X106172000Y-43180000D02*
X105410000Y-43180000D01*
X106934000Y-54038500D02*
X106934000Y-56896000D01*
%TO.N,Net-(J12-Pad1)*%
X37084000Y-129667000D02*
X43053000Y-129667000D01*
X43053000Y-129667000D02*
X43180000Y-129540000D01*
%TO.N,Net-(J12-Pad2)*%
X38989000Y-125857000D02*
X37084000Y-125857000D01*
X43180000Y-127000000D02*
X40132000Y-127000000D01*
X40132000Y-127000000D02*
X38989000Y-125857000D01*
%TO.N,Net-(J12-Pad3)*%
X38481000Y-122047000D02*
X39370000Y-122936000D01*
X39370000Y-122936000D02*
X39370000Y-123698000D01*
X40132000Y-124460000D02*
X43180000Y-124460000D01*
X37084000Y-122047000D02*
X38481000Y-122047000D01*
X39370000Y-123698000D02*
X40132000Y-124460000D01*
%TO.N,Net-(J12-Pad4)*%
X39624000Y-120904000D02*
X39624000Y-119380000D01*
X39624000Y-119380000D02*
X38481000Y-118237000D01*
X38481000Y-118237000D02*
X37084000Y-118237000D01*
X40640000Y-121920000D02*
X39624000Y-120904000D01*
X43180000Y-121920000D02*
X40640000Y-121920000D01*
%TO.N,+3V3*%
X98742500Y-51117500D02*
X98425000Y-50800000D01*
X98742500Y-57785000D02*
X98742500Y-51117500D01*
X98425000Y-46672500D02*
X99377500Y-45720000D01*
X98425000Y-50800000D02*
X98425000Y-46672500D01*
X98107500Y-58420000D02*
X98742500Y-57785000D01*
X96520000Y-58420000D02*
X98107500Y-58420000D01*
X99377500Y-45720000D02*
X100330000Y-45720000D01*
D50*
%TO.N,AREF*%
X149860000Y-50800000D02*
X151533200Y-52473200D01*
X151533200Y-53731358D02*
X152400000Y-54598158D01*
X147320000Y-50800000D02*
X149860000Y-50800000D01*
X175602800Y-56230540D02*
X175602800Y-51727200D01*
X154266800Y-57746800D02*
X174086545Y-57746800D01*
X175602800Y-51727200D02*
X176530000Y-50800000D01*
X138430000Y-50800000D02*
X147320000Y-50800000D01*
X152400000Y-54598158D02*
X152400000Y-55880000D01*
X152400000Y-55880000D02*
X154266800Y-57746800D01*
X179630000Y-50800000D02*
X180900000Y-52070000D01*
X176530000Y-50800000D02*
X179630000Y-50800000D01*
X151533200Y-52473200D02*
X151533200Y-53731358D01*
X174086545Y-57746800D02*
X175602800Y-56230540D01*
%TO.N,/IO28*%
X177165000Y-53340000D02*
X179630000Y-53340000D01*
X138430000Y-53340000D02*
X147320000Y-53340000D01*
X100203000Y-64897000D02*
X99060000Y-66040000D01*
X138430000Y-53340000D02*
X129792710Y-53340000D01*
X153932780Y-58553200D02*
X174420569Y-58553200D01*
X174420569Y-58553200D02*
X176409200Y-56564569D01*
X107061000Y-41148000D02*
X104394000Y-41148000D01*
X129792710Y-53340000D02*
X123442710Y-46990000D01*
X123442710Y-46990000D02*
X108267500Y-46990000D01*
X149860000Y-53340000D02*
X151533200Y-55013200D01*
X179630000Y-53340000D02*
X180900000Y-54610000D01*
X104775000Y-54483000D02*
X100203000Y-59055000D01*
X108267500Y-46990000D02*
X107823000Y-46545500D01*
X104775000Y-51562000D02*
X104775000Y-54483000D01*
X147320000Y-53340000D02*
X149860000Y-53340000D01*
X103378000Y-42164000D02*
X103378000Y-50165000D01*
X176409200Y-54095800D02*
X177165000Y-53340000D01*
X103378000Y-50165000D02*
X104775000Y-51562000D01*
X151533200Y-56153620D02*
X153932780Y-58553200D01*
X151533200Y-55013200D02*
X151533200Y-56153620D01*
X104394000Y-41148000D02*
X103378000Y-42164000D01*
X176409200Y-56564569D02*
X176409200Y-54095800D01*
X100203000Y-59055000D02*
X100203000Y-64897000D01*
X107823000Y-46545500D02*
X107823000Y-41910000D01*
X107823000Y-41910000D02*
X107061000Y-41148000D01*
X99060000Y-66040000D02*
X96520000Y-66040000D01*
%TO.N,/IO0*%
X168297200Y-56537200D02*
X173585511Y-56537200D01*
X124142500Y-41275000D02*
X124142500Y-40100600D01*
X173585511Y-56537200D02*
X174393200Y-55729510D01*
X152803200Y-53172990D02*
X152803200Y-51967780D01*
X150495000Y-46990000D02*
X129857500Y-46990000D01*
X124142500Y-40100600D02*
X122141900Y-38100000D01*
X111760000Y-38100000D02*
X120650000Y-38100000D01*
X151936400Y-49701400D02*
X151130000Y-48895000D01*
X174393200Y-47856800D02*
X175260000Y-46990000D01*
X175260000Y-46990000D02*
X178360000Y-46990000D01*
X153609600Y-53979390D02*
X152803200Y-53172990D01*
X151130000Y-48895000D02*
X151130000Y-47625000D01*
X122141900Y-38100000D02*
X120650000Y-38100000D01*
X167154200Y-55394200D02*
X161076010Y-55394200D01*
X159933010Y-56537200D02*
X154767829Y-56537200D01*
X151936400Y-51100980D02*
X151936400Y-49701400D01*
X151130000Y-47625000D02*
X150495000Y-46990000D01*
X153609600Y-55378970D02*
X153609600Y-53979390D01*
X129857500Y-46990000D02*
X124142500Y-41275000D01*
X174393200Y-55729510D02*
X174393200Y-47856800D01*
X109160000Y-38100000D02*
X111760000Y-38100000D01*
X161076010Y-55394200D02*
X159933010Y-56537200D01*
X167894000Y-56134000D02*
X167154200Y-55394200D01*
X152803200Y-51967780D02*
X151936400Y-51100980D01*
X167894000Y-56134000D02*
X168297200Y-56537200D01*
X154767829Y-56537200D02*
X153609600Y-55378970D01*
%TO.N,/IO1*%
X175199600Y-50225400D02*
X175895000Y-49530000D01*
X151130000Y-50165000D02*
X150495000Y-49530000D01*
X111760000Y-40640000D02*
X120650000Y-40640000D01*
X150495000Y-49530000D02*
X129857500Y-49530000D01*
X175199600Y-56063530D02*
X175199600Y-50225400D01*
X154433810Y-57343600D02*
X152803200Y-55712990D01*
X161925000Y-56515000D02*
X161096400Y-57343600D01*
X173919533Y-57343600D02*
X175199600Y-56063530D01*
X161096400Y-57343600D02*
X154433810Y-57343600D01*
X151936400Y-52241400D02*
X151130000Y-51435000D01*
X129857500Y-49530000D02*
X122237500Y-41910000D01*
X109160000Y-40640000D02*
X111760000Y-40640000D01*
X122237500Y-41910000D02*
X122237500Y-40957500D01*
X152803200Y-54431148D02*
X151936400Y-53564348D01*
X152803200Y-55712990D02*
X152803200Y-54431148D01*
X151130000Y-51435000D02*
X151130000Y-50165000D01*
X122237500Y-40957500D02*
X121920000Y-40640000D01*
X151936400Y-53564348D02*
X151936400Y-52241400D01*
X162753600Y-57343600D02*
X173919533Y-57343600D01*
X175895000Y-49530000D02*
X178360000Y-49530000D01*
X161925000Y-56515000D02*
X162753600Y-57343600D01*
X121920000Y-40640000D02*
X120650000Y-40640000D01*
%TO.N,/IO2*%
X151936400Y-55986610D02*
X154099790Y-58150000D01*
X176530000Y-52070000D02*
X178360000Y-52070000D01*
X176006000Y-56397550D02*
X176006000Y-52594000D01*
X151130000Y-53898368D02*
X151936400Y-54704768D01*
X111760000Y-45720000D02*
X120650000Y-45720000D01*
X120650000Y-45720000D02*
X123190000Y-45720000D01*
X123190000Y-45720000D02*
X129558400Y-52088400D01*
X176006000Y-52594000D02*
X176530000Y-52070000D01*
X109160000Y-45720000D02*
X111760000Y-45720000D01*
X151130000Y-52705000D02*
X151130000Y-53898368D01*
X154099790Y-58150000D02*
X174253557Y-58150000D01*
X151936400Y-54704768D02*
X151936400Y-55986610D01*
X174253557Y-58150000D02*
X176006000Y-56397550D01*
X129558400Y-52088400D02*
X150513400Y-52088400D01*
X150513400Y-52088400D02*
X151130000Y-52705000D01*
%TO.N,/IO3*%
X177447400Y-54610000D02*
X178360000Y-54610000D01*
X109160000Y-48260000D02*
X111760000Y-48260000D01*
X151130000Y-55379970D02*
X151130000Y-56320630D01*
X153765770Y-58956400D02*
X174587579Y-58956400D01*
X150378430Y-54628400D02*
X151130000Y-55379970D01*
X111760000Y-48260000D02*
X120650000Y-48260000D01*
X174587579Y-58956400D02*
X176812400Y-56731579D01*
X176812400Y-56731579D02*
X176812400Y-55245000D01*
X120650000Y-48260000D02*
X124142500Y-48260000D01*
X176812400Y-55245000D02*
X177447400Y-54610000D01*
X151130000Y-56320630D02*
X153765770Y-58956400D01*
X130510900Y-54628400D02*
X150378430Y-54628400D01*
X124142500Y-48260000D02*
X130510900Y-54628400D01*
%TO.N,/IO6*%
X153673600Y-65535600D02*
X175002400Y-65535600D01*
X150368000Y-62230000D02*
X153673600Y-65535600D01*
X137160000Y-62230000D02*
X150368000Y-62230000D01*
X111760000Y-58420000D02*
X120650000Y-58420000D01*
X136525000Y-60642500D02*
X136525000Y-61595000D01*
X109160000Y-58420000D02*
X111760000Y-58420000D01*
X134302500Y-58420000D02*
X136525000Y-60642500D01*
X120650000Y-58420000D02*
X134302500Y-58420000D01*
X175002400Y-65535600D02*
X178308000Y-62230000D01*
X136525000Y-61595000D02*
X137160000Y-62230000D01*
%TO.N,/IO7*%
X125730000Y-60960000D02*
X129558400Y-64788400D01*
X120650000Y-60960000D02*
X125730000Y-60960000D01*
X152030200Y-66342000D02*
X176788000Y-66342000D01*
X129558400Y-64788400D02*
X150476600Y-64788400D01*
X150476600Y-64788400D02*
X152030200Y-66342000D01*
X111760000Y-60960000D02*
X120650000Y-60960000D01*
X176788000Y-66342000D02*
X178360000Y-64770000D01*
X109160000Y-60960000D02*
X111760000Y-60960000D01*
%TO.N,/IO8*%
X127000000Y-63500000D02*
X130810000Y-67310000D01*
X120650000Y-63500000D02*
X127000000Y-63500000D01*
X132098400Y-67328400D02*
X155175600Y-67328400D01*
X130810000Y-67310000D02*
X132080000Y-67310000D01*
X132080000Y-67310000D02*
X132098400Y-67328400D01*
X155175600Y-67328400D02*
X155355600Y-67148400D01*
X155355600Y-67148400D02*
X178198400Y-67148400D01*
X111760000Y-63500000D02*
X120650000Y-63500000D01*
X109160000Y-63500000D02*
X111760000Y-63500000D01*
%TO.N,/IO9*%
X132080000Y-69850000D02*
X153358950Y-69850000D01*
X109160000Y-66040000D02*
X111760000Y-66040000D01*
X120650000Y-66040000D02*
X128270000Y-66040000D01*
X174228520Y-69850000D02*
X178360000Y-69850000D01*
X155657350Y-67551600D02*
X171930120Y-67551600D01*
X153358950Y-69850000D02*
X155657350Y-67551600D01*
X171930120Y-67551600D02*
X174228520Y-69850000D01*
X111760000Y-66040000D02*
X120650000Y-66040000D01*
X128270000Y-66040000D02*
X132080000Y-69850000D01*
%TO.N,/IO10*%
X111760000Y-71120000D02*
X120650000Y-71120000D01*
X134620000Y-71120000D02*
X135890000Y-72390000D01*
X155991370Y-68358000D02*
X171596100Y-68358000D01*
X135890000Y-72390000D02*
X151959370Y-72390000D01*
X109832800Y-114894990D02*
X109832800Y-109560990D01*
X117737720Y-94877720D02*
X111266624Y-94877720D01*
X118618000Y-100775790D02*
X118618000Y-95758000D01*
X120650000Y-71120000D02*
X134620000Y-71120000D01*
X104394000Y-117094000D02*
X106216400Y-115271600D01*
X106424340Y-90035436D02*
X106424340Y-72645660D01*
X175628100Y-72390000D02*
X178360000Y-72390000D01*
X111266624Y-94877720D02*
X106424340Y-90035436D01*
X106424340Y-72645660D02*
X107950000Y-71120000D01*
X109160000Y-71120000D02*
X111760000Y-71120000D01*
X151959370Y-72390000D02*
X155991370Y-68358000D01*
X109832800Y-109560990D02*
X118618000Y-100775790D01*
X109456190Y-115271600D02*
X109832800Y-114894990D01*
X106216400Y-115271600D02*
X109456190Y-115271600D01*
X171596100Y-68358000D02*
X175628100Y-72390000D01*
X118618000Y-95758000D02*
X117737720Y-94877720D01*
X107950000Y-71120000D02*
X109160000Y-71120000D01*
%TO.N,/IO11*%
X176519680Y-74422000D02*
X177852000Y-74422000D01*
X106512990Y-115674800D02*
X105537000Y-116650790D01*
X107569000Y-117792500D02*
X107569000Y-117094000D01*
X105537000Y-117729000D02*
X105791000Y-117983000D01*
X109160000Y-73660000D02*
X106827060Y-75992940D01*
X111760000Y-73660000D02*
X120650000Y-73660000D01*
X117970000Y-94475000D02*
X119021200Y-95526200D01*
X156325390Y-69164400D02*
X171262080Y-69164400D01*
X119021200Y-100942800D02*
X110236000Y-109728000D01*
X106827060Y-89868624D02*
X111433436Y-94475000D01*
X150559790Y-74930000D02*
X156325390Y-69164400D01*
X111433436Y-94475000D02*
X117970000Y-94475000D01*
X105791000Y-117983000D02*
X107378500Y-117983000D01*
X119021200Y-95526200D02*
X119021200Y-100942800D01*
X110236000Y-115062000D02*
X109623200Y-115674800D01*
X135890000Y-73660000D02*
X137160000Y-74930000D01*
X107378500Y-117983000D02*
X107569000Y-117792500D01*
X120650000Y-73660000D02*
X135890000Y-73660000D01*
X137160000Y-74930000D02*
X150559790Y-74930000D01*
X109160000Y-73660000D02*
X111760000Y-73660000D01*
X109623200Y-115674800D02*
X106512990Y-115674800D01*
X110236000Y-109728000D02*
X110236000Y-115062000D01*
X105537000Y-116650790D02*
X105537000Y-117729000D01*
X171262080Y-69164400D02*
X176519680Y-74422000D01*
X106827060Y-75992940D02*
X106827060Y-89868624D01*
%TO.N,/IO12*%
X170928060Y-69970800D02*
X176155200Y-75197940D01*
X111125000Y-109409210D02*
X119424400Y-101109810D01*
X107229780Y-76920220D02*
X107950000Y-76200000D01*
X176155200Y-75197940D02*
X176155200Y-76841200D01*
X137160000Y-77470000D02*
X150368000Y-77470000D01*
X176784000Y-77470000D02*
X178360000Y-77470000D01*
X107229780Y-89701812D02*
X107229780Y-76920220D01*
X111125000Y-110363000D02*
X111125000Y-109409210D01*
X151161105Y-75469100D02*
X156659405Y-69970800D01*
X151161105Y-76868685D02*
X151161105Y-75469100D01*
X119424400Y-95359189D02*
X118130431Y-94065220D01*
X107950000Y-76200000D02*
X109160000Y-76200000D01*
X109160000Y-76200000D02*
X111760000Y-76200000D01*
X176155200Y-76841200D02*
X176784000Y-77470000D01*
X120650000Y-76200000D02*
X135890000Y-76200000D01*
X150368000Y-77470000D02*
X150463895Y-77565895D01*
X111760000Y-76200000D02*
X120650000Y-76200000D01*
X118130431Y-94065220D02*
X111593188Y-94065220D01*
X135890000Y-76200000D02*
X137160000Y-77470000D01*
X156659405Y-69970800D02*
X170928060Y-69970800D01*
X119424400Y-101109810D02*
X119424400Y-95359189D01*
X111125000Y-110363000D02*
X111125000Y-111379000D01*
X150463895Y-77565895D02*
X151161105Y-76868685D01*
X111593188Y-94065220D02*
X107229780Y-89701812D01*
%TO.N,/IO13*%
X106299000Y-117094000D02*
X106299000Y-116459000D01*
X119827600Y-101276820D02*
X119827600Y-95192179D01*
X136906000Y-79756000D02*
X137160000Y-80010000D01*
X175348800Y-79336800D02*
X176022000Y-80010000D01*
X175348800Y-75531960D02*
X175348800Y-79336800D01*
X156993427Y-70777200D02*
X170594040Y-70777200D01*
X151967505Y-78410495D02*
X151967504Y-75803125D01*
X120650000Y-78740000D02*
X121666000Y-78740000D01*
X109160000Y-78740000D02*
X111760000Y-78740000D01*
X135722990Y-76603200D02*
X136906000Y-77786210D01*
X111760000Y-78740000D02*
X120650000Y-78740000D01*
X121666000Y-78740000D02*
X122174000Y-78232000D01*
X150368000Y-80010000D02*
X151967505Y-78410495D01*
X112014000Y-109090419D02*
X119827600Y-101276820D01*
X112014000Y-114110790D02*
X112014000Y-109090419D01*
X108267500Y-78740000D02*
X109160000Y-78740000D01*
X170594040Y-70777200D02*
X175348800Y-75531960D01*
X111760000Y-93662500D02*
X107632500Y-89535000D01*
X137160000Y-80010000D02*
X150368000Y-80010000D01*
X107632500Y-79375000D02*
X108267500Y-78740000D01*
X119827600Y-95192179D02*
X118297921Y-93662500D01*
X110046790Y-116078000D02*
X112014000Y-114110790D01*
X176022000Y-80010000D02*
X178360000Y-80010000D01*
X123232590Y-76603200D02*
X135722990Y-76603200D01*
X118297921Y-93662500D02*
X111760000Y-93662500D01*
X122174000Y-77661790D02*
X123232590Y-76603200D01*
X151967504Y-75803125D02*
X156993427Y-70777200D01*
X136906000Y-77786210D02*
X136906000Y-79756000D01*
X107632500Y-89535000D02*
X107632500Y-79375000D01*
X106299000Y-116459000D02*
X106680000Y-116078000D01*
X122174000Y-78232000D02*
X122174000Y-77661790D01*
X106680000Y-116078000D02*
X110046790Y-116078000D01*
%TO.N,/IO14*%
X137160000Y-82550000D02*
X136398000Y-81788000D01*
X174945600Y-81727600D02*
X174945600Y-75698970D01*
X135555980Y-77006400D02*
X123399600Y-77006400D01*
X136398000Y-77848420D02*
X135555980Y-77006400D01*
X157160438Y-71180400D02*
X152370705Y-75970135D01*
X123399600Y-77006400D02*
X122682000Y-77724000D01*
X111760000Y-83820000D02*
X120650000Y-83820000D01*
X109160000Y-83820000D02*
X111760000Y-83820000D01*
X121920000Y-83820000D02*
X120650000Y-83820000D01*
X150876000Y-82550000D02*
X137160000Y-82550000D01*
X136398000Y-81788000D02*
X136398000Y-77848420D01*
X122682000Y-83058000D02*
X121920000Y-83820000D01*
X152370705Y-81055295D02*
X150876000Y-82550000D01*
X174945600Y-75698970D02*
X170427030Y-71180400D01*
X178360000Y-82550000D02*
X175768000Y-82550000D01*
X175768000Y-82550000D02*
X174945600Y-81727600D01*
X170427030Y-71180400D02*
X157160438Y-71180400D01*
X152370705Y-75970135D02*
X152370705Y-81055295D01*
X122682000Y-77724000D02*
X122682000Y-83058000D01*
%TO.N,/IO15*%
X157494459Y-71986800D02*
X153266800Y-76214460D01*
X135388970Y-77409600D02*
X123566610Y-77409600D01*
X174139200Y-82764249D02*
X174139200Y-76032990D01*
X151575790Y-85090000D02*
X136652000Y-85090000D01*
X153266800Y-76214460D02*
X153266800Y-83398990D01*
X176464951Y-85090000D02*
X174139200Y-82764249D01*
X136652000Y-85090000D02*
X135994800Y-84432800D01*
X153266800Y-83398990D02*
X151575790Y-85090000D01*
X123566610Y-77409600D02*
X123085200Y-77891010D01*
X178360000Y-85090000D02*
X176464951Y-85090000D01*
X174139200Y-76032990D02*
X170093010Y-71986800D01*
X123085200Y-77891010D02*
X123085200Y-85702800D01*
X135994800Y-84432800D02*
X135994800Y-78015430D01*
X122428000Y-86360000D02*
X120650000Y-86360000D01*
X123085200Y-85702800D02*
X122428000Y-86360000D01*
X135994800Y-78015430D02*
X135388970Y-77409600D01*
X111760000Y-86360000D02*
X120650000Y-86360000D01*
X109160000Y-86360000D02*
X111760000Y-86360000D01*
X170093010Y-71986800D02*
X157494459Y-71986800D01*
%TO.N,/IO16*%
X153670000Y-76381470D02*
X157661470Y-72390000D01*
X153670000Y-83566000D02*
X153670000Y-76381470D01*
X157661470Y-72390000D02*
X169926000Y-72390000D01*
X149860000Y-86360000D02*
X150876000Y-86360000D01*
X150876000Y-86360000D02*
X153670000Y-83566000D01*
X138430000Y-86360000D02*
X147320000Y-86360000D01*
X169926000Y-72390000D02*
X173736000Y-76200000D01*
X177164741Y-86360000D02*
X179630000Y-86360000D01*
X147320000Y-86360000D02*
X149860000Y-86360000D01*
X179630000Y-86360000D02*
X180900000Y-85090000D01*
X173736000Y-76200000D02*
X173736000Y-82931259D01*
X173736000Y-82931259D02*
X177164741Y-86360000D01*
%TO.N,/IO17*%
X151062081Y-83820000D02*
X152773905Y-82108176D01*
X177546000Y-83820000D02*
X179630000Y-83820000D01*
X157327449Y-71583600D02*
X170260020Y-71583600D01*
X152773905Y-82108176D02*
X152773905Y-76137145D01*
X149860000Y-83820000D02*
X151062081Y-83820000D01*
X138430000Y-83820000D02*
X147320000Y-83820000D01*
X174542400Y-82597239D02*
X176019162Y-84074000D01*
X170260020Y-71583600D02*
X174542400Y-75865980D01*
X177292000Y-84074000D02*
X177546000Y-83820000D01*
X176019162Y-84074000D02*
X177292000Y-84074000D01*
X147320000Y-83820000D02*
X149860000Y-83820000D01*
X152773905Y-76137145D02*
X157327449Y-71583600D01*
X179630000Y-83820000D02*
X180900000Y-82550000D01*
X174542400Y-75865980D02*
X174542400Y-82597239D01*
%TO.N,/IO18*%
X149860000Y-78740000D02*
X151564305Y-77035695D01*
X175752000Y-75364950D02*
X175752000Y-78216000D01*
X170761050Y-70374000D02*
X175752000Y-75364950D01*
X176276000Y-78740000D02*
X179630000Y-78740000D01*
X138430000Y-78740000D02*
X147320000Y-78740000D01*
X156826416Y-70374000D02*
X170761050Y-70374000D01*
X151564305Y-77035695D02*
X151564303Y-75636115D01*
X147320000Y-78740000D02*
X149860000Y-78740000D01*
X151564303Y-75636115D02*
X156826416Y-70374000D01*
X175752000Y-78216000D02*
X176276000Y-78740000D01*
X179630000Y-78740000D02*
X180900000Y-80010000D01*
%TO.N,/IO19*%
X176558400Y-75030930D02*
X176558400Y-75720400D01*
X176558400Y-75720400D02*
X177038000Y-76200000D01*
X179630000Y-76200000D02*
X180900000Y-77470000D01*
X147320000Y-76200000D02*
X149860000Y-76200000D01*
X138430000Y-76200000D02*
X147320000Y-76200000D01*
X171095070Y-69567600D02*
X176558400Y-75030930D01*
X156492400Y-69567600D02*
X171095070Y-69567600D01*
X149860000Y-76200000D02*
X156492400Y-69567600D01*
X177038000Y-76200000D02*
X179630000Y-76200000D01*
%TO.N,/IO20*%
X149860000Y-73660000D02*
X151259580Y-73660000D01*
X151259580Y-73660000D02*
X156158380Y-68761200D01*
X147320000Y-73660000D02*
X149860000Y-73660000D01*
X171429090Y-68761200D02*
X176365390Y-73697500D01*
X156158380Y-68761200D02*
X171429090Y-68761200D01*
X176365390Y-73697500D02*
X179667500Y-73697500D01*
X138430000Y-73660000D02*
X147320000Y-73660000D01*
X180900000Y-74930000D02*
X179667500Y-73697500D01*
%TO.N,/IO21*%
X179630000Y-71120000D02*
X180900000Y-72390000D01*
X155824360Y-67954800D02*
X171763110Y-67954800D01*
X138430000Y-71120000D02*
X147320000Y-71120000D01*
X147320000Y-71120000D02*
X149860000Y-71120000D01*
X152659160Y-71120000D02*
X155824360Y-67954800D01*
X149860000Y-71120000D02*
X152659160Y-71120000D01*
X171763110Y-67954800D02*
X174928310Y-71120000D01*
X174928310Y-71120000D02*
X179630000Y-71120000D01*
%TO.N,Net-(J24-Pad1)*%
X127635000Y-118745000D02*
X127000000Y-118110000D01*
X130120000Y-118745000D02*
X127635000Y-118745000D01*
X125730000Y-114300000D02*
X124460000Y-114300000D01*
X127000000Y-118110000D02*
X127000000Y-115570000D01*
X127000000Y-115570000D02*
X125730000Y-114300000D01*
%TO.N,Net-(J24-Pad2)*%
X126365000Y-117475000D02*
X126365000Y-118745000D01*
X127635000Y-120015000D02*
X130120000Y-120015000D01*
X126365000Y-118745000D02*
X127635000Y-120015000D01*
X125730000Y-116840000D02*
X126365000Y-117475000D01*
X124460000Y-116840000D02*
X125730000Y-116840000D01*
%TO.N,Net-(J24-Pad3)*%
X125095000Y-120015000D02*
X125730000Y-120015000D01*
X125730000Y-120015000D02*
X127000000Y-121285000D01*
X127000000Y-121285000D02*
X130120000Y-121285000D01*
%TO.N,Net-(J24-Pad4)*%
X125095000Y-122555000D02*
X130120000Y-122555000D01*
%TO.N,Net-(J25-Pad1)*%
X125095000Y-123825000D02*
X130120000Y-123825000D01*
%TO.N,Net-(J25-Pad2)*%
X125730000Y-126365000D02*
X127000000Y-125095000D01*
X125095000Y-126365000D02*
X125730000Y-126365000D01*
X127000000Y-125095000D02*
X130120000Y-125095000D01*
%TO.N,Net-(J26-Pad9)*%
X143510000Y-132080000D02*
X144780000Y-132080000D01*
X141605000Y-127635000D02*
X142240000Y-128270000D01*
X142240000Y-130810000D02*
X143510000Y-132080000D01*
X139120000Y-127635000D02*
X141605000Y-127635000D01*
X142240000Y-128270000D02*
X142240000Y-130810000D01*
%TO.N,Net-(J26-Pad10)*%
X142875000Y-127635000D02*
X142875000Y-128905000D01*
X143510000Y-129540000D02*
X144780000Y-129540000D01*
X139120000Y-126365000D02*
X141605000Y-126365000D01*
X141605000Y-126365000D02*
X142875000Y-127635000D01*
X142875000Y-128905000D02*
X143510000Y-129540000D01*
%TO.N,Net-(J26-Pad11)*%
X143510000Y-126365000D02*
X142240000Y-125095000D01*
X142240000Y-125095000D02*
X139120000Y-125095000D01*
X144145000Y-126365000D02*
X143510000Y-126365000D01*
%TO.N,Net-(J26-Pad12)*%
X144145000Y-123825000D02*
X139120000Y-123825000D01*
%TO.N,Net-(J26-Pad13)*%
X144145000Y-122555000D02*
X139120000Y-122555000D01*
%TO.N,Net-(J26-Pad14)*%
X144145000Y-120015000D02*
X143510000Y-120015000D01*
X143510000Y-120015000D02*
X142240000Y-121285000D01*
X142240000Y-121285000D02*
X139120000Y-121285000D01*
%TO.N,Net-(J26-Pad15)*%
X142875000Y-118745000D02*
X141605000Y-120015000D01*
X143510000Y-116840000D02*
X142875000Y-117475000D01*
X144780000Y-116840000D02*
X143510000Y-116840000D01*
X141605000Y-120015000D02*
X139120000Y-120015000D01*
X142875000Y-117475000D02*
X142875000Y-118745000D01*
D53*
%TO.N,/SO8-1*%
X164465000Y-113030000D02*
X163195000Y-114300000D01*
X164465000Y-112395000D02*
X164465000Y-113030000D01*
%TO.N,/SO8-2*%
X161925000Y-112395000D02*
X161925000Y-116150000D01*
%TO.N,/SO8-3*%
X160655000Y-112395000D02*
X160655000Y-116150000D01*
%TO.N,/SO8-4*%
X158115000Y-113030000D02*
X159385000Y-114300000D01*
X158115000Y-112395000D02*
X158115000Y-113030000D01*
%TO.N,/SO8-5*%
X158115000Y-128270000D02*
X159385000Y-127000000D01*
X158115000Y-128905000D02*
X158115000Y-128270000D01*
%TO.N,/SO8-6*%
X160655000Y-128905000D02*
X160655000Y-125150000D01*
D50*
%TO.N,/SO8-7*%
X161925000Y-125150000D02*
X161925000Y-128905000D01*
%TO.N,/SO8-8*%
X164465000Y-128905000D02*
X164465000Y-128270000D01*
X163195000Y-127000000D02*
X164465000Y-128270000D01*
%TO.N,/SWDIO*%
X132080000Y-86130000D02*
X133437500Y-86130000D01*
X133437500Y-86130000D02*
X135340700Y-88033200D01*
X135340700Y-88033200D02*
X151297010Y-88033200D01*
X151297010Y-88033200D02*
X154476400Y-84853810D01*
X154476400Y-76715490D02*
X157995490Y-73196400D01*
X162096400Y-73196400D02*
X162560000Y-73660000D01*
X154476400Y-84853810D02*
X154476400Y-76715490D01*
X157995490Y-73196400D02*
X162096400Y-73196400D01*
X162560000Y-73660000D02*
X162560000Y-74930000D01*
%TO.N,/SWCLK*%
X151130000Y-87630000D02*
X154073200Y-84686800D01*
X136207500Y-87630000D02*
X151130000Y-87630000D01*
X127635000Y-84455000D02*
X133032500Y-84455000D01*
X127000000Y-86130000D02*
X127000000Y-85090000D01*
X165100000Y-73660000D02*
X165100000Y-74930000D01*
X127000000Y-85090000D02*
X127635000Y-84455000D01*
X154073200Y-76548480D02*
X157828480Y-72793200D01*
X157828480Y-72793200D02*
X164233200Y-72793200D01*
X133032500Y-84455000D02*
X136207500Y-87630000D01*
X164233200Y-72793200D02*
X165100000Y-73660000D01*
X154073200Y-84686800D02*
X154073200Y-76548480D01*
%TO.N,/SO16-7*%
X127635000Y-126365000D02*
X126365000Y-127635000D01*
X125730000Y-129540000D02*
X124460000Y-129540000D01*
X126365000Y-128905000D02*
X125730000Y-129540000D01*
X126365000Y-127635000D02*
X126365000Y-128905000D01*
X130120000Y-126365000D02*
X127635000Y-126365000D01*
%TO.N,/SO16-8*%
X127000000Y-130810000D02*
X125730000Y-132080000D01*
X130120000Y-127635000D02*
X127635000Y-127635000D01*
X127635000Y-127635000D02*
X127000000Y-128270000D01*
X127000000Y-128270000D02*
X127000000Y-130810000D01*
X125730000Y-132080000D02*
X124460000Y-132080000D01*
%TO.N,/SO16-16*%
X142240000Y-115570000D02*
X143510000Y-114300000D01*
X143510000Y-114300000D02*
X144780000Y-114300000D01*
X139120000Y-118745000D02*
X141605000Y-118745000D01*
X141605000Y-118745000D02*
X142240000Y-118110000D01*
X142240000Y-118110000D02*
X142240000Y-115570000D01*
%TO.N,/VBUS_XIAO*%
X175195210Y-39370000D02*
X182051600Y-46226390D01*
X182051600Y-48141600D02*
X183440000Y-49530000D01*
X182051600Y-46226390D02*
X182051600Y-48141600D01*
X171767500Y-39370000D02*
X175195210Y-39370000D01*
D52*
%TO.N,+3.3VP*%
X31115000Y-40322500D02*
X32448500Y-40322500D01*
X32067500Y-39370000D02*
X33401000Y-39370000D01*
X35306000Y-37465000D02*
X98552000Y-37465000D01*
X33020000Y-38417500D02*
X33972500Y-37465000D01*
X98552000Y-37465000D02*
X100330000Y-39243000D01*
X32448500Y-40322500D02*
X33401000Y-39370000D01*
X33972500Y-37465000D02*
X35306000Y-37465000D01*
X33401000Y-39370000D02*
X35306000Y-37465000D01*
X100330000Y-39243000D02*
X100330000Y-43180000D01*
D50*
%TO.N,Net-(C7-Pad1)*%
X150177500Y-97155000D02*
X149542500Y-97790000D01*
X149542500Y-97790000D02*
X146050000Y-97790000D01*
%TO.N,Net-(C8-Pad1)*%
X146050000Y-92710000D02*
X147637500Y-91122500D01*
X146050000Y-95250000D02*
X146050000Y-92710000D01*
D52*
%TO.N,Net-(C2-Pad1)*%
X38100000Y-102552500D02*
X36552500Y-104100000D01*
X38100000Y-96500000D02*
X38100000Y-102552500D01*
X36552500Y-104100000D02*
X33000000Y-104100000D01*
%TO.N,Net-(C4-Pad1)*%
X38100000Y-85725000D02*
X36552500Y-87272500D01*
X36552500Y-87272500D02*
X33020000Y-87272500D01*
X38100000Y-80010000D02*
X38100000Y-85725000D01*
D50*
%TO.N,Net-(J41-Pad1)*%
X171091200Y-99209200D02*
X164188800Y-99209200D01*
X147701000Y-104140000D02*
X146050000Y-102489000D01*
X160846790Y-104140000D02*
X147701000Y-104140000D01*
X172287500Y-102830000D02*
X172287500Y-100405500D01*
X163576000Y-101410790D02*
X160846790Y-104140000D01*
X164188800Y-99209200D02*
X163576000Y-99822000D01*
X163576000Y-99822000D02*
X163576000Y-101410790D01*
X172287500Y-100405500D02*
X171091200Y-99209200D01*
X146050000Y-102489000D02*
X146050000Y-100330000D01*
D51*
%TO.N,Net-(J10-Pad1)*%
X36830000Y-108998000D02*
X39148000Y-108998000D01*
X39148000Y-108998000D02*
X41910000Y-111760000D01*
X41910000Y-111760000D02*
X43180000Y-111760000D01*
%TO.N,Net-(J10-Pad2)*%
X41402000Y-114300000D02*
X43180000Y-114300000D01*
X39116000Y-110998000D02*
X40640000Y-112522000D01*
X40640000Y-113538000D02*
X41402000Y-114300000D01*
X40640000Y-112522000D02*
X40640000Y-113538000D01*
X36830000Y-110998000D02*
X39116000Y-110998000D01*
%TO.N,Net-(J10-Pad3)*%
X40132000Y-116840000D02*
X43180000Y-116840000D01*
X38830000Y-112998000D02*
X39624000Y-113792000D01*
X39624000Y-116332000D02*
X40132000Y-116840000D01*
X39624000Y-113792000D02*
X39624000Y-116332000D01*
X36830000Y-112998000D02*
X38830000Y-112998000D01*
D50*
%TO.N,Net-(R16-Pad1)*%
X153987500Y-91440000D02*
X153987500Y-100393500D01*
X152400000Y-91122500D02*
X153670000Y-91122500D01*
X153987500Y-100393500D02*
X156424000Y-102830000D01*
X156424000Y-102830000D02*
X157787500Y-102830000D01*
X153670000Y-91122500D02*
X153987500Y-91440000D01*
%TD*%
M02*
