%TF.GenerationSoftware,KiCad,Pcbnew,(6.0.7)*%
%TF.CreationDate,2022-11-12T16:25:49+00:00*%
%TF.ProjectId,pico-euro,7069636f-2d65-4757-926f-2e6b69636164,rev?*%
%TF.SameCoordinates,Original*%
%TF.FileFunction,Copper,L2,Bot*%
%TF.FilePolarity,Positive*%
%FSLAX46Y46*%
G04 Gerber Fmt 4.6, Leading zero omitted, Abs format (unit mm)*
G04 Created by KiCad (PCBNEW (6.0.7)) date 2022-11-12 16:25:49*
%MOMM*%
%LPD*%
G01*
G04 APERTURE LIST*
G04 Aperture macros list*
%AMRoundRect*
0 Rectangle with rounded corners*
0 $1 Rounding radius*
0 $2 $3 $4 $5 $6 $7 $8 $9 X,Y pos of 4 corners*
0 Add a 4 corners polygon primitive as box body*
4,1,4,$2,$3,$4,$5,$6,$7,$8,$9,$2,$3,0*
0 Add four circle primitives for the rounded corners*
1,1,$1+$1,$2,$3*
1,1,$1+$1,$4,$5*
1,1,$1+$1,$6,$7*
1,1,$1+$1,$8,$9*
0 Add four rect primitives between the rounded corners*
20,1,$1+$1,$2,$3,$4,$5,0*
20,1,$1+$1,$4,$5,$6,$7,0*
20,1,$1+$1,$6,$7,$8,$9,0*
20,1,$1+$1,$8,$9,$2,$3,0*%
%AMFreePoly0*
4,1,45,1.912603,1.631106,1.928902,1.631106,1.941342,1.622068,1.956012,1.617454,1.965717,1.604359,1.978902,1.594779,1.983654,1.580154,1.992810,1.567799,1.992964,1.551500,1.998000,1.536000,1.998000,-1.500000,1.993154,-1.514916,1.993203,-1.530602,1.983844,-1.543570,1.978902,-1.558779,1.966213,-1.567998,1.957034,-1.580716,1.941840,-1.585706,1.928902,-1.595106,1.913217,-1.595106,
1.898315,-1.600000,-1.911685,-1.612000,-1.926910,-1.607106,-1.942902,-1.607106,-1.955591,-1.597887,-1.970524,-1.593087,-1.979965,-1.580179,-1.992902,-1.570779,-1.997749,-1.555861,-2.007008,-1.543201,-2.007058,-1.527209,-2.012000,-1.512000,-2.012000,1.500000,-2.007249,1.514623,-2.007394,1.530002,-1.997938,1.543279,-1.992902,1.558779,-1.980462,1.567817,-1.971541,1.580343,-1.956088,1.585526,
-1.942902,1.595106,-1.927525,1.595106,-1.912945,1.599996,1.897055,1.635996,1.912603,1.631106,1.912603,1.631106,$1*%
%AMFreePoly1*
4,1,45,1.898315,1.600000,1.913217,1.595106,1.928902,1.595106,1.941840,1.585706,1.957034,1.580716,1.966213,1.567998,1.978902,1.558779,1.983844,1.543570,1.993203,1.530602,1.993154,1.514916,1.998000,1.500000,1.998000,-1.536000,1.992964,-1.551500,1.992810,-1.567799,1.983654,-1.580154,1.978902,-1.594779,1.965717,-1.604359,1.956012,-1.617454,1.941342,-1.622068,1.928902,-1.631106,
1.912603,-1.631106,1.897055,-1.635996,-1.912945,-1.599996,-1.927525,-1.595106,-1.942902,-1.595106,-1.956088,-1.585526,-1.971541,-1.580343,-1.980462,-1.567817,-1.992902,-1.558779,-1.997938,-1.543279,-2.007394,-1.530002,-2.007249,-1.514623,-2.012000,-1.500000,-2.012000,1.512000,-2.007058,1.527209,-2.007008,1.543201,-1.997749,1.555861,-1.992902,1.570779,-1.979965,1.580179,-1.970524,1.593087,
-1.955591,1.597887,-1.942902,1.607106,-1.926910,1.607106,-1.911685,1.612000,1.898315,1.600000,1.898315,1.600000,$1*%
%AMFreePoly2*
4,1,55,0.485956,0.271440,0.497433,0.272452,0.514667,0.262112,0.533779,0.255902,0.540551,0.246582,0.550430,0.240654,0.558295,0.222159,0.570106,0.205902,0.570106,0.194383,0.574615,0.183779,0.570106,0.164194,0.570106,0.144098,0.563333,0.134776,0.560749,0.123551,0.485749,-0.001450,0.476362,-0.009621,0.470711,-0.020711,0.395711,-0.095711,0.381268,-0.103070,0.369721,-0.114443,
0.219721,-0.189443,0.208700,-0.191103,0.199254,-0.197014,0.099254,-0.222014,0.086838,-0.221154,0.075000,-0.225000,-0.075000,-0.225000,-0.090416,-0.219991,-0.106623,-0.219868,-0.256623,-0.169868,-0.265589,-0.163249,-0.276449,-0.160749,-0.401450,-0.085749,-0.409621,-0.076362,-0.420711,-0.070711,-0.495711,0.004289,-0.503070,0.018732,-0.514443,0.030279,-0.564443,0.130279,-0.565588,0.137879,
-0.570106,0.144098,-0.570106,0.167877,-0.573648,0.191393,-0.570106,0.198216,-0.570106,0.205902,-0.556129,0.225140,-0.545172,0.246246,-0.538297,0.249683,-0.533779,0.255902,-0.511163,0.263250,-0.489893,0.273885,-0.482310,0.272625,-0.475000,0.275000,0.475000,0.275000,0.485956,0.271440,0.485956,0.271440,$1*%
%AMFreePoly3*
4,1,58,0.061838,0.221154,0.074254,0.222014,0.174254,0.197014,0.180172,0.193311,0.187139,0.192848,0.312139,0.142848,0.322383,0.134312,0.335000,0.130000,0.435000,0.055000,0.446143,0.039163,0.460749,0.026450,0.535749,-0.098551,0.538333,-0.109776,0.545106,-0.119098,0.545106,-0.139194,0.549615,-0.158779,0.545106,-0.169383,0.545106,-0.180902,0.533295,-0.197159,0.525430,-0.215654,
0.515551,-0.221582,0.508779,-0.230902,0.489667,-0.237112,0.472433,-0.247452,0.460956,-0.246440,0.450000,-0.250000,-0.450000,-0.250000,-0.457310,-0.247625,-0.464893,-0.248885,-0.486163,-0.238250,-0.508779,-0.230902,-0.513297,-0.224683,-0.520172,-0.221246,-0.531129,-0.200140,-0.545106,-0.180902,-0.545106,-0.173216,-0.548648,-0.166393,-0.545106,-0.142877,-0.545106,-0.119098,-0.540588,-0.112879,
-0.539443,-0.105279,-0.514443,-0.055278,-0.509940,-0.050706,-0.508205,-0.044530,-0.458205,0.030470,-0.444817,0.041047,-0.435000,0.055000,-0.335000,0.130000,-0.326284,0.132979,-0.319721,0.139443,-0.219722,0.189443,-0.208700,0.191103,-0.199254,0.197014,-0.099253,0.222014,-0.086837,0.221154,-0.075000,0.225000,0.050000,0.225000,0.061838,0.221154,0.061838,0.221154,$1*%
G04 Aperture macros list end*
%TA.AperFunction,ComponentPad*%
%ADD10O,1.700000X1.700000*%
%TD*%
%TA.AperFunction,ComponentPad*%
%ADD11R,1.905000X2.000000*%
%TD*%
%TA.AperFunction,ComponentPad*%
%ADD12O,1.905000X2.000000*%
%TD*%
%TA.AperFunction,ComponentPad*%
%ADD13RoundRect,0.180000X-0.820000X0.720000X-0.820000X-0.720000X0.820000X-0.720000X0.820000X0.720000X0*%
%TD*%
%TA.AperFunction,ComponentPad*%
%ADD14RoundRect,0.200000X-0.800000X-0.800000X0.800000X-0.800000X0.800000X0.800000X-0.800000X0.800000X0*%
%TD*%
%TA.AperFunction,ComponentPad*%
%ADD15RoundRect,0.200000X0.800000X-0.800000X0.800000X0.800000X-0.800000X0.800000X-0.800000X-0.800000X0*%
%TD*%
%TA.AperFunction,ComponentPad*%
%ADD16RoundRect,0.200000X0.800000X0.800000X-0.800000X0.800000X-0.800000X-0.800000X0.800000X-0.800000X0*%
%TD*%
%TA.AperFunction,ComponentPad*%
%ADD17R,1.700000X1.700000*%
%TD*%
%TA.AperFunction,ComponentPad*%
%ADD18RoundRect,0.250000X-0.625000X0.350000X-0.625000X-0.350000X0.625000X-0.350000X0.625000X0.350000X0*%
%TD*%
%TA.AperFunction,ComponentPad*%
%ADD19O,1.750000X1.200000*%
%TD*%
%TA.AperFunction,ComponentPad*%
%ADD20O,2.500000X1.600000*%
%TD*%
%TA.AperFunction,ComponentPad*%
%ADD21R,2.000000X2.000000*%
%TD*%
%TA.AperFunction,ComponentPad*%
%ADD22C,2.000000*%
%TD*%
%TA.AperFunction,ComponentPad*%
%ADD23FreePoly0,0.000000*%
%TD*%
%TA.AperFunction,ComponentPad*%
%ADD24FreePoly1,0.000000*%
%TD*%
%TA.AperFunction,ComponentPad*%
%ADD25O,2.000000X1.800000*%
%TD*%
%TA.AperFunction,ComponentPad*%
%ADD26C,1.700000*%
%TD*%
%TA.AperFunction,ComponentPad*%
%ADD27RoundRect,0.220000X0.880000X0.880000X-0.880000X0.880000X-0.880000X-0.880000X0.880000X-0.880000X0*%
%TD*%
%TA.AperFunction,ComponentPad*%
%ADD28O,2.400000X5.000000*%
%TD*%
%TA.AperFunction,ComponentPad*%
%ADD29O,4.500000X2.000000*%
%TD*%
%TA.AperFunction,ComponentPad*%
%ADD30O,2.400000X4.600000*%
%TD*%
%TA.AperFunction,ComponentPad*%
%ADD31RoundRect,0.180000X0.820000X-0.720000X0.820000X0.720000X-0.820000X0.720000X-0.820000X-0.720000X0*%
%TD*%
%TA.AperFunction,ComponentPad*%
%ADD32C,1.600000*%
%TD*%
%TA.AperFunction,ComponentPad*%
%ADD33C,2.800000*%
%TD*%
%TA.AperFunction,ComponentPad*%
%ADD34R,2.400000X2.400000*%
%TD*%
%TA.AperFunction,ComponentPad*%
%ADD35C,2.400000*%
%TD*%
%TA.AperFunction,ComponentPad*%
%ADD36R,1.800000X1.800000*%
%TD*%
%TA.AperFunction,ComponentPad*%
%ADD37C,1.800000*%
%TD*%
%TA.AperFunction,ComponentPad*%
%ADD38RoundRect,0.200000X-0.800000X0.800000X-0.800000X-0.800000X0.800000X-0.800000X0.800000X0.800000X0*%
%TD*%
%TA.AperFunction,SMDPad,CuDef*%
%ADD39C,1.000000*%
%TD*%
%TA.AperFunction,SMDPad,CuDef*%
%ADD40RoundRect,0.250000X-0.350000X-0.450000X0.350000X-0.450000X0.350000X0.450000X-0.350000X0.450000X0*%
%TD*%
%TA.AperFunction,SMDPad,CuDef*%
%ADD41RoundRect,0.250000X0.350000X0.450000X-0.350000X0.450000X-0.350000X-0.450000X0.350000X-0.450000X0*%
%TD*%
%TA.AperFunction,WasherPad*%
%ADD42RoundRect,0.200000X-0.800000X0.800000X-0.800000X-0.800000X0.800000X-0.800000X0.800000X0.800000X0*%
%TD*%
%TA.AperFunction,WasherPad*%
%ADD43RoundRect,0.200000X0.800000X0.800000X-0.800000X0.800000X-0.800000X-0.800000X0.800000X-0.800000X0*%
%TD*%
%TA.AperFunction,SMDPad,CuDef*%
%ADD44RoundRect,0.120000X-0.280000X-0.749000X0.280000X-0.749000X0.280000X0.749000X-0.280000X0.749000X0*%
%TD*%
%TA.AperFunction,SMDPad,CuDef*%
%ADD45RoundRect,0.279450X-0.652050X-1.056550X0.652050X-1.056550X0.652050X1.056550X-0.652050X1.056550X0*%
%TD*%
%TA.AperFunction,SMDPad,CuDef*%
%ADD46RoundRect,0.285750X-1.079750X-0.666750X1.079750X-0.666750X1.079750X0.666750X-1.079750X0.666750X0*%
%TD*%
%TA.AperFunction,SMDPad,CuDef*%
%ADD47RoundRect,0.252450X-0.589050X-0.644550X0.589050X-0.644550X0.589050X0.644550X-0.589050X0.644550X0*%
%TD*%
%TA.AperFunction,SMDPad,CuDef*%
%ADD48RoundRect,0.289800X-0.829700X-0.676200X0.829700X-0.676200X0.829700X0.676200X-0.829700X0.676200X0*%
%TD*%
%TA.AperFunction,SMDPad,CuDef*%
%ADD49RoundRect,0.225000X-0.525000X-0.625000X0.525000X-0.625000X0.525000X0.625000X-0.525000X0.625000X0*%
%TD*%
%TA.AperFunction,SMDPad,CuDef*%
%ADD50RoundRect,0.250000X-0.400000X-1.075000X0.400000X-1.075000X0.400000X1.075000X-0.400000X1.075000X0*%
%TD*%
%TA.AperFunction,SMDPad,CuDef*%
%ADD51R,0.800000X1.900000*%
%TD*%
%TA.AperFunction,SMDPad,CuDef*%
%ADD52RoundRect,0.250000X-0.450000X0.350000X-0.450000X-0.350000X0.450000X-0.350000X0.450000X0.350000X0*%
%TD*%
%TA.AperFunction,SMDPad,CuDef*%
%ADD53FreePoly2,270.000000*%
%TD*%
%TA.AperFunction,SMDPad,CuDef*%
%ADD54FreePoly3,270.000000*%
%TD*%
%TA.AperFunction,SMDPad,CuDef*%
%ADD55FreePoly2,180.000000*%
%TD*%
%TA.AperFunction,SMDPad,CuDef*%
%ADD56FreePoly3,180.000000*%
%TD*%
%TA.AperFunction,SMDPad,CuDef*%
%ADD57RoundRect,0.250000X0.337500X0.475000X-0.337500X0.475000X-0.337500X-0.475000X0.337500X-0.475000X0*%
%TD*%
%TA.AperFunction,SMDPad,CuDef*%
%ADD58RoundRect,0.250000X-0.412500X-1.100000X0.412500X-1.100000X0.412500X1.100000X-0.412500X1.100000X0*%
%TD*%
%TA.AperFunction,SMDPad,CuDef*%
%ADD59RoundRect,0.250000X-0.337500X-0.475000X0.337500X-0.475000X0.337500X0.475000X-0.337500X0.475000X0*%
%TD*%
%TA.AperFunction,ViaPad*%
%ADD60C,0.804800*%
%TD*%
%TA.AperFunction,ViaPad*%
%ADD61C,0.904800*%
%TD*%
%TA.AperFunction,ViaPad*%
%ADD62C,0.800000*%
%TD*%
%TA.AperFunction,Conductor*%
%ADD63C,0.203200*%
%TD*%
%TA.AperFunction,Conductor*%
%ADD64C,0.609600*%
%TD*%
%TA.AperFunction,Conductor*%
%ADD65C,1.016000*%
%TD*%
%TA.AperFunction,Conductor*%
%ADD66C,0.254000*%
%TD*%
G04 APERTURE END LIST*
D10*
%TO.P,J2,1,Pin_1*%
%TO.N,/IO0*%
X109160000Y-38100000D03*
X111760000Y-38100000D03*
%TO.P,J2,2,Pin_2*%
%TO.N,/IO1*%
X109160000Y-40640000D03*
X111760000Y-40640000D03*
%TO.P,J2,3,Pin_3*%
%TO.N,GND*%
X111760000Y-43180000D03*
X109160000Y-43180000D03*
%TO.P,J2,4,Pin_4*%
%TO.N,/IO2*%
X111760000Y-45720000D03*
X109160000Y-45720000D03*
%TO.P,J2,5,Pin_5*%
%TO.N,/IO3*%
X111760000Y-48260000D03*
X109160000Y-48260000D03*
%TO.P,J2,6,Pin_6*%
%TO.N,/SDA0*%
X109160000Y-50800000D03*
X111760000Y-50800000D03*
%TO.P,J2,7,Pin_7*%
%TO.N,/SCL0*%
X111760000Y-53340000D03*
X109160000Y-53340000D03*
%TO.P,J2,8,Pin_8*%
%TO.N,GND*%
X111760000Y-55880000D03*
X109160000Y-55880000D03*
%TO.P,J2,9,Pin_9*%
%TO.N,/IO6*%
X111760000Y-58420000D03*
X109160000Y-58420000D03*
%TO.P,J2,10,Pin_10*%
%TO.N,/IO7*%
X109160000Y-60960000D03*
X111760000Y-60960000D03*
%TO.P,J2,11,Pin_11*%
%TO.N,/IO8*%
X109160000Y-63500000D03*
X111760000Y-63500000D03*
%TO.P,J2,12,Pin_12*%
%TO.N,/IO9*%
X109160000Y-66040000D03*
X111760000Y-66040000D03*
%TO.P,J2,13,Pin_13*%
%TO.N,GND*%
X111760000Y-68580000D03*
X109160000Y-68580000D03*
%TO.P,J2,14,Pin_14*%
%TO.N,/IO10*%
X109160000Y-71120000D03*
X111760000Y-71120000D03*
%TO.P,J2,15,Pin_15*%
%TO.N,/IO11*%
X109160000Y-73660000D03*
X111760000Y-73660000D03*
%TO.P,J2,16,Pin_16*%
%TO.N,/IO12*%
X111760000Y-76200000D03*
X109160000Y-76200000D03*
%TO.P,J2,17,Pin_17*%
%TO.N,/IO13*%
X109160000Y-78740000D03*
X111760000Y-78740000D03*
%TO.P,J2,18,Pin_18*%
%TO.N,GND*%
X109160000Y-81280000D03*
X111760000Y-81280000D03*
%TO.P,J2,19,Pin_19*%
%TO.N,/IO14*%
X111760000Y-83820000D03*
X109160000Y-83820000D03*
%TO.P,J2,20,Pin_20*%
%TO.N,/IO15*%
X111760000Y-86360000D03*
X109160000Y-86360000D03*
%TD*%
D11*
%TO.P,U4,1,IN*%
%TO.N,+12V*%
X33020000Y-80010000D03*
D12*
%TO.P,U4,2,GND*%
%TO.N,GND*%
X35560000Y-80010000D03*
%TO.P,U4,3,OUT*%
%TO.N,Net-(C4-Pad1)*%
X38100000Y-80010000D03*
%TD*%
D13*
%TO.P,J16,1,Pin_1*%
%TO.N,/BUSBAR-5*%
X45720000Y-43180000D03*
X81280000Y-43180000D03*
X66040000Y-43180000D03*
X50800000Y-43180000D03*
X76200000Y-43180000D03*
X60960000Y-43180000D03*
X71120000Y-43180000D03*
X86360000Y-43180000D03*
X55880000Y-43180000D03*
X91440000Y-43180000D03*
%TD*%
D14*
%TO.P,J24,1,Pin_1*%
%TO.N,Net-(J24-Pad1)*%
X124460000Y-114300000D03*
%TO.P,J24,2,Pin_2*%
%TO.N,Net-(J24-Pad2)*%
X124460000Y-116840000D03*
%TO.P,J24,3,Pin_3*%
%TO.N,Net-(J24-Pad3)*%
X124460000Y-119380000D03*
%TO.P,J24,4,Pin_4*%
%TO.N,Net-(J24-Pad4)*%
X124460000Y-121920000D03*
%TD*%
D15*
%TO.P,J31,1,Pin_1*%
%TO.N,/SO8-5*%
X157480000Y-129540000D03*
%TO.P,J31,2,Pin_2*%
%TO.N,/SO8-6*%
X160020000Y-129540000D03*
%TO.P,J31,3,Pin_3*%
%TO.N,/SO8-7*%
X162560000Y-129540000D03*
%TO.P,J31,4,Pin_4*%
%TO.N,/SO8-8*%
X165100000Y-129540000D03*
%TD*%
D16*
%TO.P,J23,1,Pin_1*%
%TO.N,GND*%
X96520000Y-111760000D03*
%TO.P,J23,2,Pin_2*%
%TO.N,/IO16*%
X96520000Y-109220000D03*
%TO.P,J23,3,Pin_3*%
%TO.N,/IO17*%
X96520000Y-106680000D03*
%TO.P,J23,4,Pin_4*%
%TO.N,/IO18*%
X96520000Y-104140000D03*
%TO.P,J23,5,Pin_5*%
%TO.N,/IO19*%
X96520000Y-101600000D03*
%TD*%
%TO.P,J12,1,Pin_1*%
%TO.N,Net-(J12-Pad1)*%
X43180000Y-129540000D03*
%TO.P,J12,2,Pin_2*%
%TO.N,Net-(J12-Pad2)*%
X43180000Y-127000000D03*
%TO.P,J12,3,Pin_3*%
%TO.N,Net-(J12-Pad3)*%
X43180000Y-124460000D03*
%TO.P,J12,4,Pin_4*%
%TO.N,Net-(J12-Pad4)*%
X43180000Y-121920000D03*
%TD*%
D14*
%TO.P,J35,1,Pin_1*%
%TO.N,unconnected-(J35-Pad1)*%
X96520000Y-96520000D03*
%TD*%
D17*
%TO.P,J42,1,Pin_1*%
%TO.N,Net-(C8-Pad1)*%
X146050000Y-95250000D03*
D10*
%TO.P,J42,2,Pin_2*%
%TO.N,/IO6*%
X143510000Y-95250000D03*
%TD*%
D18*
%TO.P,J10,1,Pin_1*%
%TO.N,Net-(J10-Pad1)*%
X36830000Y-108998000D03*
D19*
%TO.P,J10,2,Pin_2*%
%TO.N,Net-(J10-Pad2)*%
X36830000Y-110998000D03*
%TO.P,J10,3,Pin_3*%
%TO.N,Net-(J10-Pad3)*%
X36830000Y-112998000D03*
%TD*%
D16*
%TO.P,J27,1,Pin_1*%
%TO.N,Net-(J26-Pad13)*%
X144780000Y-121920000D03*
%TO.P,J27,2,Pin_2*%
%TO.N,Net-(J26-Pad14)*%
X144780000Y-119380000D03*
%TO.P,J27,3,Pin_3*%
%TO.N,Net-(J26-Pad15)*%
X144780000Y-116840000D03*
%TO.P,J27,4,Pin_4*%
%TO.N,/SO16-16*%
X144780000Y-114300000D03*
%TD*%
D20*
%TO.P,C4,1*%
%TO.N,Net-(C4-Pad1)*%
X33020000Y-87272500D03*
%TO.P,C4,2*%
%TO.N,GND*%
X33020000Y-84772500D03*
%TD*%
D16*
%TO.P,J28,1,Pin_1*%
%TO.N,Net-(J26-Pad9)*%
X144780000Y-132080000D03*
%TO.P,J28,2,Pin_2*%
%TO.N,Net-(J26-Pad10)*%
X144780000Y-129540000D03*
%TO.P,J28,3,Pin_3*%
%TO.N,Net-(J26-Pad11)*%
X144780000Y-127000000D03*
%TO.P,J28,4,Pin_4*%
%TO.N,Net-(J26-Pad12)*%
X144780000Y-124460000D03*
%TD*%
D21*
%TO.P,SW3,A,A*%
%TO.N,Net-(R17-Pad1)*%
X157787500Y-97830000D03*
D22*
%TO.P,SW3,B,B*%
%TO.N,Net-(R16-Pad1)*%
X157787500Y-102830000D03*
%TO.P,SW3,C,C*%
%TO.N,GND*%
X157787500Y-100330000D03*
D23*
%TO.P,SW3,MP*%
%TO.N,N/C*%
X165287500Y-105930000D03*
D24*
X165287500Y-94730000D03*
D22*
%TO.P,SW3,S1,S1*%
%TO.N,GND*%
X172287500Y-97830000D03*
%TO.P,SW3,S2,S2*%
%TO.N,Net-(J41-Pad1)*%
X172287500Y-102830000D03*
%TD*%
D16*
%TO.P,J22,1,Pin_1*%
%TO.N,GND*%
X96520000Y-78740000D03*
%TO.P,J22,2,Pin_2*%
%TO.N,/SCL0*%
X96520000Y-76200000D03*
%TO.P,J22,3,Pin_3*%
%TO.N,/SDA0*%
X96520000Y-73660000D03*
%TD*%
%TO.P,J32,1,Pin_1*%
%TO.N,GND*%
X96520000Y-91440000D03*
%TO.P,J32,2,Pin_2*%
%TO.N,/IO15*%
X96520000Y-88900000D03*
%TO.P,J32,3,Pin_3*%
%TO.N,/IO14*%
X96520000Y-86360000D03*
%TD*%
D17*
%TO.P,J5,1,Pin_1*%
%TO.N,Net-(J5-Pad1)*%
X126365000Y-94615000D03*
D10*
%TO.P,J5,2,Pin_2*%
%TO.N,/IO27*%
X123825000Y-94615000D03*
%TD*%
D14*
%TO.P,J37,1,Pin_1*%
%TO.N,unconnected-(J37-Pad1)*%
X96520000Y-116840000D03*
%TO.P,J37,2,Pin_2*%
%TO.N,unconnected-(J37-Pad2)*%
X96520000Y-119380000D03*
%TD*%
D25*
%TO.P,J18,1,Pin_1*%
%TO.N,+12V*%
X66040000Y-40640000D03*
X55880000Y-40640000D03*
X76200000Y-40640000D03*
X45720000Y-40640000D03*
X86360000Y-40640000D03*
%TD*%
D26*
%TO.P,J1,A1,A1*%
%TO.N,VBUS*%
X183440000Y-46990000D03*
%TO.P,J1,A2,A2*%
%TO.N,/VBUS_XIAO*%
X183440000Y-49530000D03*
%TO.P,J1,A3,A3*%
%TO.N,unconnected-(J1-PadA3)*%
X183440000Y-52070000D03*
%TO.P,J1,A4,A4*%
%TO.N,VSYS*%
X183440000Y-54610000D03*
%TO.P,J1,A5,A5*%
%TO.N,3V3*%
X183440000Y-57150000D03*
%TO.P,J1,A6,A6*%
%TO.N,GND*%
X183440000Y-59690000D03*
%TO.P,J1,A7,A7*%
%TO.N,/SCL0*%
X183440000Y-62230000D03*
%TO.P,J1,A8,A8*%
%TO.N,/SDA0*%
X183440000Y-64770000D03*
%TO.P,J1,A9,A9*%
%TO.N,unconnected-(J1-PadA9)*%
X183440000Y-67310000D03*
%TO.P,J1,A10,A10*%
%TO.N,unconnected-(J1-PadA10)*%
X183440000Y-69850000D03*
%TO.P,J1,A11,A11*%
%TO.N,unconnected-(J1-PadA11)*%
X183440000Y-72390000D03*
%TO.P,J1,A12,A12*%
%TO.N,unconnected-(J1-PadA12)*%
X183440000Y-74930000D03*
%TO.P,J1,A13,A13*%
%TO.N,unconnected-(J1-PadA13)*%
X183440000Y-77470000D03*
%TO.P,J1,A14,A14*%
%TO.N,unconnected-(J1-PadA14)*%
X183440000Y-80010000D03*
%TO.P,J1,A15,A15*%
%TO.N,unconnected-(J1-PadA15)*%
X183440000Y-82550000D03*
%TO.P,J1,A16,A16*%
%TO.N,unconnected-(J1-PadA16)*%
X183440000Y-85090000D03*
%TO.P,J1,A17,A17*%
%TO.N,unconnected-(J1-PadA17)*%
X183440000Y-87630000D03*
%TO.P,J1,A18,A18*%
%TO.N,unconnected-(J1-PadA18)*%
X183440000Y-90170000D03*
%TO.P,J1,A19,A19*%
%TO.N,unconnected-(J1-PadA19)*%
X183440000Y-92710000D03*
%TO.P,J1,A20,A20*%
%TO.N,unconnected-(J1-PadA20)*%
X183440000Y-95250000D03*
%TO.P,J1,A21,A21*%
%TO.N,unconnected-(J1-PadA21)*%
X183440000Y-97790000D03*
%TO.P,J1,A22,A22*%
%TO.N,unconnected-(J1-PadA22)*%
X183440000Y-100330000D03*
%TO.P,J1,A23,A23*%
%TO.N,unconnected-(J1-PadA23)*%
X183440000Y-102870000D03*
%TO.P,J1,A24,A24*%
%TO.N,unconnected-(J1-PadA24)*%
X183440000Y-105410000D03*
%TO.P,J1,A25,A25*%
%TO.N,unconnected-(J1-PadA25)*%
X183440000Y-107950000D03*
%TO.P,J1,A26,A26*%
%TO.N,unconnected-(J1-PadA26)*%
X183440000Y-110490000D03*
%TO.P,J1,A27,A27*%
%TO.N,unconnected-(J1-PadA27)*%
X183440000Y-113030000D03*
%TO.P,J1,A28,A28*%
%TO.N,unconnected-(J1-PadA28)*%
X183440000Y-115570000D03*
%TO.P,J1,A29,A29*%
%TO.N,unconnected-(J1-PadA29)*%
X183440000Y-118110000D03*
%TO.P,J1,A30,A30*%
%TO.N,unconnected-(J1-PadA30)*%
X183440000Y-120650000D03*
%TO.P,J1,A31,A31*%
%TO.N,unconnected-(J1-PadA31)*%
X183440000Y-123190000D03*
%TO.P,J1,A32,A32*%
%TO.N,unconnected-(J1-PadA32)*%
X183440000Y-125730000D03*
%TO.P,J1,B1,B1*%
%TO.N,VSYS*%
X180900000Y-46990000D03*
%TO.P,J1,B2,B2*%
%TO.N,3V3*%
X180900000Y-49530000D03*
%TO.P,J1,B3,B3*%
%TO.N,AREF*%
X180900000Y-52070000D03*
%TO.P,J1,B4,B4*%
%TO.N,/IO28*%
X180900000Y-54610000D03*
%TO.P,J1,B5,B5*%
%TO.N,3V3*%
X180900000Y-57150000D03*
%TO.P,J1,B6,B6*%
%TO.N,/IO27*%
X180900000Y-59690000D03*
%TO.P,J1,B7,B7*%
%TO.N,/IO26*%
X180900000Y-62230000D03*
%TO.P,J1,B8,B8*%
%TO.N,/RUN*%
X180900000Y-64770000D03*
%TO.P,J1,B9,B9*%
%TO.N,GND*%
X180900000Y-67310000D03*
%TO.P,J1,B10,B10*%
%TO.N,/IO22*%
X180900000Y-69850000D03*
%TO.P,J1,B11,B11*%
%TO.N,/IO21*%
X180900000Y-72390000D03*
%TO.P,J1,B12,B12*%
%TO.N,/IO20*%
X180900000Y-74930000D03*
%TO.P,J1,B13,B13*%
%TO.N,/IO19*%
X180900000Y-77470000D03*
%TO.P,J1,B14,B14*%
%TO.N,/IO18*%
X180900000Y-80010000D03*
%TO.P,J1,B15,B15*%
%TO.N,/IO17*%
X180900000Y-82550000D03*
%TO.P,J1,B16,B16*%
%TO.N,/IO16*%
X180900000Y-85090000D03*
%TO.P,J1,B17,B17*%
%TO.N,unconnected-(J1-PadB17)*%
X180900000Y-87630000D03*
%TO.P,J1,B18,B18*%
%TO.N,unconnected-(J1-PadB18)*%
X180900000Y-90170000D03*
%TO.P,J1,B19,B19*%
%TO.N,unconnected-(J1-PadB19)*%
X180900000Y-92710000D03*
%TO.P,J1,B20,B20*%
%TO.N,unconnected-(J1-PadB20)*%
X180900000Y-95250000D03*
%TO.P,J1,B21,B21*%
%TO.N,unconnected-(J1-PadB21)*%
X180900000Y-97790000D03*
%TO.P,J1,B22,B22*%
%TO.N,unconnected-(J1-PadB22)*%
X180900000Y-100330000D03*
%TO.P,J1,B23,B23*%
%TO.N,unconnected-(J1-PadB23)*%
X180900000Y-102870000D03*
%TO.P,J1,B24,B24*%
%TO.N,unconnected-(J1-PadB24)*%
X180900000Y-105410000D03*
%TO.P,J1,B25,B25*%
%TO.N,unconnected-(J1-PadB25)*%
X180900000Y-107950000D03*
%TO.P,J1,B26,B26*%
%TO.N,unconnected-(J1-PadB26)*%
X180900000Y-110490000D03*
%TO.P,J1,B27,B27*%
%TO.N,unconnected-(J1-PadB27)*%
X180900000Y-113030000D03*
%TO.P,J1,B28,B28*%
%TO.N,unconnected-(J1-PadB28)*%
X180900000Y-115570000D03*
%TO.P,J1,B29,B29*%
%TO.N,unconnected-(J1-PadB29)*%
X180900000Y-118110000D03*
%TO.P,J1,B30,B30*%
%TO.N,unconnected-(J1-PadB30)*%
X180900000Y-120650000D03*
%TO.P,J1,B31,B31*%
%TO.N,+5VP*%
X180900000Y-123190000D03*
%TO.P,J1,B32,B32*%
%TO.N,+12V*%
X180900000Y-125730000D03*
%TO.P,J1,C1,C1*%
%TO.N,/IO0*%
X178360000Y-46990000D03*
%TO.P,J1,C2,C2*%
%TO.N,/IO1*%
X178360000Y-49530000D03*
%TO.P,J1,C3,C3*%
%TO.N,/IO2*%
X178360000Y-52070000D03*
%TO.P,J1,C4,C4*%
%TO.N,/IO3*%
X178360000Y-54610000D03*
%TO.P,J1,C5,C5*%
%TO.N,/SDA0*%
X178360000Y-57150000D03*
%TO.P,J1,C6,C6*%
%TO.N,/SCL0*%
X178360000Y-59690000D03*
%TO.P,J1,C7,C7*%
%TO.N,/IO6*%
X178360000Y-62230000D03*
%TO.P,J1,C8,C8*%
%TO.N,/IO7*%
X178360000Y-64770000D03*
%TO.P,J1,C9,C9*%
%TO.N,/IO8*%
X178360000Y-67310000D03*
%TO.P,J1,C10,C10*%
%TO.N,/IO9*%
X178360000Y-69850000D03*
%TO.P,J1,C11,C11*%
%TO.N,/IO10*%
X178360000Y-72390000D03*
%TO.P,J1,C12,C12*%
%TO.N,/IO11*%
X178360000Y-74930000D03*
%TO.P,J1,C13,C13*%
%TO.N,/IO12*%
X178360000Y-77470000D03*
%TO.P,J1,C14,C14*%
%TO.N,/IO13*%
X178360000Y-80010000D03*
%TO.P,J1,C15,C15*%
%TO.N,/IO14*%
X178360000Y-82550000D03*
%TO.P,J1,C16,C16*%
%TO.N,/IO15*%
X178360000Y-85090000D03*
%TO.P,J1,C17,C17*%
%TO.N,GND*%
X178360000Y-87630000D03*
%TO.P,J1,C18,C18*%
%TO.N,unconnected-(J1-PadC18)*%
X178360000Y-90170000D03*
%TO.P,J1,C19,C19*%
%TO.N,unconnected-(J1-PadC19)*%
X178360000Y-92710000D03*
%TO.P,J1,C20,C20*%
%TO.N,unconnected-(J1-PadC20)*%
X178360000Y-95250000D03*
%TO.P,J1,C21,C21*%
%TO.N,unconnected-(J1-PadC21)*%
X178360000Y-97790000D03*
%TO.P,J1,C22,C22*%
%TO.N,GND*%
X178360000Y-100330000D03*
%TO.P,J1,C23,C23*%
X178360000Y-102870000D03*
%TO.P,J1,C24,C24*%
%TO.N,unconnected-(J1-PadC24)*%
X178360000Y-105410000D03*
%TO.P,J1,C25,C25*%
%TO.N,unconnected-(J1-PadC25)*%
X178360000Y-107950000D03*
%TO.P,J1,C26,C26*%
%TO.N,unconnected-(J1-PadC26)*%
X178360000Y-110490000D03*
%TO.P,J1,C27,C27*%
%TO.N,unconnected-(J1-PadC27)*%
X178360000Y-113030000D03*
%TO.P,J1,C28,C28*%
%TO.N,unconnected-(J1-PadC28)*%
X178360000Y-115570000D03*
%TO.P,J1,C29,C29*%
%TO.N,unconnected-(J1-PadC29)*%
X178360000Y-118110000D03*
%TO.P,J1,C30,C30*%
%TO.N,unconnected-(J1-PadC30)*%
X178360000Y-120650000D03*
%TO.P,J1,C31,C31*%
%TO.N,+5VP*%
X178360000Y-123190000D03*
%TO.P,J1,C32,C32*%
%TO.N,+12V*%
X178360000Y-125730000D03*
%TD*%
D17*
%TO.P,J20,1,Pin_1*%
%TO.N,3V3*%
X100330000Y-48260000D03*
D10*
%TO.P,J20,2,Pin_2*%
%TO.N,+3V3*%
X100330000Y-45720000D03*
%TO.P,J20,3,Pin_3*%
%TO.N,+3.3VP*%
X100330000Y-43180000D03*
%TD*%
D27*
%TO.P,J15,1,Pin_1*%
%TO.N,Net-(J12-Pad1)*%
X37084000Y-129667000D03*
%TO.P,J15,2,Pin_2*%
%TO.N,Net-(J12-Pad2)*%
X37084000Y-125857000D03*
%TO.P,J15,3,Pin_3*%
%TO.N,Net-(J12-Pad3)*%
X37084000Y-122047000D03*
%TO.P,J15,4,Pin_4*%
%TO.N,Net-(J12-Pad4)*%
X37084000Y-118237000D03*
%TD*%
D10*
%TO.P,J3,21,Pin_21*%
%TO.N,/IO16*%
X147320000Y-86360000D03*
X149860000Y-86360000D03*
%TO.P,J3,22,Pin_22*%
%TO.N,/IO17*%
X149860000Y-83820000D03*
X147320000Y-83820000D03*
%TO.P,J3,23,Pin_23*%
%TO.N,GND*%
X149860000Y-81280000D03*
X147320000Y-81280000D03*
%TO.P,J3,24,Pin_24*%
%TO.N,/IO18*%
X149860000Y-78740000D03*
X147320000Y-78740000D03*
%TO.P,J3,25,Pin_25*%
%TO.N,/IO19*%
X149860000Y-76200000D03*
X147320000Y-76200000D03*
%TO.P,J3,26,Pin_26*%
%TO.N,/IO20*%
X149860000Y-73660000D03*
X147320000Y-73660000D03*
%TO.P,J3,27,Pin_27*%
%TO.N,/IO21*%
X147320000Y-71120000D03*
X149860000Y-71120000D03*
%TO.P,J3,28,Pin_28*%
%TO.N,GND*%
X147320000Y-68580000D03*
X149860000Y-68580000D03*
%TO.P,J3,29,Pin_29*%
%TO.N,/IO22*%
X147320000Y-66040000D03*
X149860000Y-66040000D03*
%TO.P,J3,30,Pin_30*%
%TO.N,/RUN*%
X147320000Y-63500000D03*
X149860000Y-63500000D03*
%TO.P,J3,31,Pin_31*%
%TO.N,/IO26*%
X149860000Y-60960000D03*
X147320000Y-60960000D03*
%TO.P,J3,32,Pin_32*%
%TO.N,/IO27*%
X147320000Y-58420000D03*
X149860000Y-58420000D03*
%TO.P,J3,33,Pin_33*%
%TO.N,GND*%
X147320000Y-55880000D03*
X149860000Y-55880000D03*
%TO.P,J3,34,Pin_34*%
%TO.N,/IO28*%
X147320000Y-53340000D03*
X149860000Y-53340000D03*
%TO.P,J3,35,Pin_35*%
%TO.N,AREF*%
X147320000Y-50800000D03*
X149860000Y-50800000D03*
%TO.P,J3,36,Pin_36*%
%TO.N,3V3*%
X147320000Y-48260000D03*
X149860000Y-48260000D03*
%TO.P,J3,37,Pin_37*%
%TO.N,Net-(J3-Pad37)*%
X149860000Y-45720000D03*
X147320000Y-45720000D03*
%TO.P,J3,38,Pin_38*%
%TO.N,GND*%
X147320000Y-43180000D03*
X149860000Y-43180000D03*
%TO.P,J3,39,Pin_39*%
%TO.N,VSYS*%
X149860000Y-40640000D03*
X147320000Y-40640000D03*
%TO.P,J3,40,Pin_40*%
%TO.N,VBUS*%
X147320000Y-38100000D03*
X149860000Y-38100000D03*
%TD*%
D28*
%TO.P,J7,1*%
%TO.N,+12V*%
X39820000Y-51360000D03*
D29*
%TO.P,J7,2*%
%TO.N,unconnected-(J7-Pad2)*%
X36520000Y-56160000D03*
D30*
%TO.P,J7,3*%
%TO.N,GND*%
X33520000Y-51360000D03*
%TD*%
D17*
%TO.P,J21,1,Pin_1*%
%TO.N,VSYS*%
X105410000Y-48260000D03*
D10*
%TO.P,J21,2,Pin_2*%
%TO.N,/BUSBAR-5*%
X105410000Y-45720000D03*
%TO.P,J21,3,Pin_3*%
%TO.N,+5VP*%
X105410000Y-43180000D03*
%TD*%
D22*
%TO.P,SW2,1,1*%
%TO.N,Net-(J5-Pad1)*%
X122480000Y-99985000D03*
X128980000Y-99985000D03*
%TO.P,SW2,2,2*%
%TO.N,GND*%
X122480000Y-104485000D03*
X128980000Y-104485000D03*
%TD*%
%TO.P,SW1,1,1*%
%TO.N,/RUN*%
X116840000Y-98500000D03*
X116840000Y-92000000D03*
%TO.P,SW1,2,2*%
%TO.N,GND*%
X112340000Y-98500000D03*
X112340000Y-92000000D03*
%TD*%
D17*
%TO.P,J41,1,Pin_1*%
%TO.N,Net-(J41-Pad1)*%
X146050000Y-100330000D03*
D10*
%TO.P,J41,2,Pin_2*%
%TO.N,/IO8*%
X143510000Y-100330000D03*
%TD*%
D11*
%TO.P,U2,1,IN*%
%TO.N,+12V*%
X33020000Y-96500000D03*
D12*
%TO.P,U2,2,GND*%
%TO.N,GND*%
X35560000Y-96500000D03*
%TO.P,U2,3,OUT*%
%TO.N,Net-(C2-Pad1)*%
X38100000Y-96500000D03*
%TD*%
D17*
%TO.P,J6,1,Pin_1*%
%TO.N,GND*%
X160020000Y-74930000D03*
D10*
%TO.P,J6,2,Pin_2*%
%TO.N,/SWDIO*%
X162560000Y-74930000D03*
%TO.P,J6,3,Pin_3*%
%TO.N,/SWCLK*%
X165100000Y-74930000D03*
%TO.P,J6,4,Pin_4*%
%TO.N,3V3*%
X167640000Y-74930000D03*
%TD*%
D16*
%TO.P,J34,1,Pin_1*%
%TO.N,+3V3*%
X96520000Y-58420000D03*
%TO.P,J34,2,Pin_2*%
%TO.N,/BUSBAR-5*%
X96520000Y-55880000D03*
%TD*%
D31*
%TO.P,J19,1,Pin_1*%
%TO.N,GND*%
X48260000Y-132080000D03*
X83820000Y-132080000D03*
X73660000Y-132080000D03*
X91440000Y-132080000D03*
X53340000Y-132080000D03*
X76200000Y-132080000D03*
X50800000Y-132080000D03*
X58420000Y-132080000D03*
X45720000Y-132080000D03*
X55880000Y-132080000D03*
X81280000Y-132080000D03*
X63500000Y-132080000D03*
X93980000Y-132080000D03*
X86360000Y-132080000D03*
X66040000Y-132080000D03*
X78740000Y-132080000D03*
X68580000Y-132080000D03*
X60960000Y-132080000D03*
X88900000Y-132080000D03*
X71120000Y-132080000D03*
%TD*%
D17*
%TO.P,J39,1,Pin_1*%
%TO.N,Net-(J39-Pad1)*%
X170180000Y-63500000D03*
D10*
%TO.P,J39,2,Pin_2*%
%TO.N,/IO0*%
X167640000Y-63500000D03*
%TD*%
D14*
%TO.P,J25,1,Pin_1*%
%TO.N,Net-(J25-Pad1)*%
X124460000Y-124460000D03*
%TO.P,J25,2,Pin_2*%
%TO.N,Net-(J25-Pad2)*%
X124460000Y-127000000D03*
%TO.P,J25,3,Pin_3*%
%TO.N,/SO16-7*%
X124460000Y-129540000D03*
%TO.P,J25,4,Pin_4*%
%TO.N,/SO16-8*%
X124460000Y-132080000D03*
%TD*%
D17*
%TO.P,J38,1,Pin_1*%
%TO.N,Net-(J38-Pad1)*%
X158750000Y-63500000D03*
D10*
%TO.P,J38,2,Pin_2*%
%TO.N,/IO1*%
X161290000Y-63500000D03*
%TD*%
D20*
%TO.P,C1,1*%
%TO.N,+12V*%
X34290000Y-71100000D03*
%TO.P,C1,2*%
%TO.N,GND*%
X34290000Y-68600000D03*
%TD*%
D32*
%TO.P,U3,1,GPIO26_ADC0*%
%TO.N,unconnected-(U3-Pad1)*%
X156527500Y-39370000D03*
%TO.P,U3,2,GPIO27_ADC1*%
%TO.N,unconnected-(U3-Pad2)*%
X156527500Y-41910000D03*
%TO.P,U3,3,GPIO28_ADC2*%
%TO.N,unconnected-(U3-Pad3)*%
X156527500Y-44450000D03*
%TO.P,U3,4,GPIO29_ADC3*%
%TO.N,unconnected-(U3-Pad4)*%
X156527500Y-46990000D03*
%TO.P,U3,5,GPIO6*%
%TO.N,unconnected-(U3-Pad5)*%
X156577500Y-49530000D03*
%TO.P,U3,6,GPIO7*%
%TO.N,unconnected-(U3-Pad6)*%
X156527500Y-52070000D03*
%TO.P,U3,7,GPIO0*%
%TO.N,Net-(J38-Pad1)*%
X156527500Y-54610000D03*
%TO.P,U3,8,GPIO1*%
%TO.N,Net-(J39-Pad1)*%
X171767500Y-54610000D03*
%TO.P,U3,9,GPIO2*%
%TO.N,Net-(R7-Pad1)*%
X171767500Y-52070000D03*
%TO.P,U3,10,GPIO4*%
%TO.N,unconnected-(U3-Pad10)*%
X171767500Y-49530000D03*
%TO.P,U3,11,GPIO3*%
%TO.N,Net-(R8-Pad1)*%
X171767500Y-46990000D03*
%TO.P,U3,12,3V3*%
%TO.N,unconnected-(U3-Pad12)*%
X171717500Y-44450000D03*
%TO.P,U3,13,GND*%
%TO.N,GND*%
X171767500Y-41910000D03*
%TO.P,U3,14,VBUS*%
%TO.N,/VBUS_XIAO*%
X171767500Y-39370000D03*
D33*
%TO.P,U3,15,SWC*%
%TO.N,unconnected-(U3-Pad15)*%
X166052500Y-38735000D03*
%TO.P,U3,16,SWD*%
%TO.N,unconnected-(U3-Pad16)*%
X162623500Y-38227000D03*
%TO.P,U3,17,RUN*%
%TO.N,unconnected-(U3-Pad17)*%
X162369500Y-41656000D03*
%TD*%
D34*
%TO.P,J9,1,Pin_1*%
%TO.N,GND*%
X36260000Y-60480000D03*
D35*
%TO.P,J9,2,Pin_2*%
%TO.N,+12V*%
X36260000Y-63980000D03*
%TD*%
D36*
%TO.P,D2,1,K*%
%TO.N,GND*%
X108272500Y-95250000D03*
D37*
%TO.P,D2,2,A*%
%TO.N,Net-(D2-Pad2)*%
X105732500Y-95250000D03*
%TD*%
D31*
%TO.P,J17,1,Pin_1*%
%TO.N,+3V3*%
X53340000Y-45720000D03*
X58420000Y-45720000D03*
X48260000Y-45720000D03*
X66040000Y-45720000D03*
X73660000Y-45720000D03*
X78740000Y-45720000D03*
X93980000Y-45720000D03*
X83820000Y-45720000D03*
X68580000Y-45720000D03*
X86360000Y-45720000D03*
X50800000Y-45720000D03*
X60960000Y-45720000D03*
X71120000Y-45720000D03*
X81280000Y-45720000D03*
X88900000Y-45720000D03*
X55880000Y-45720000D03*
X76200000Y-45720000D03*
X91440000Y-45720000D03*
X45720000Y-45720000D03*
X63500000Y-45720000D03*
%TD*%
D36*
%TO.P,D1,1,K*%
%TO.N,GND*%
X132075000Y-102870000D03*
D37*
%TO.P,D1,2,A*%
%TO.N,Net-(D1-Pad2)*%
X134615000Y-102870000D03*
%TD*%
D14*
%TO.P,J11,1,Pin_1*%
%TO.N,Net-(J10-Pad1)*%
X43180000Y-111760000D03*
%TO.P,J11,2,Pin_2*%
%TO.N,Net-(J10-Pad2)*%
X43180000Y-114300000D03*
%TO.P,J11,3,Pin_3*%
%TO.N,Net-(J10-Pad3)*%
X43180000Y-116840000D03*
%TD*%
D17*
%TO.P,J4,1,Pin_1*%
%TO.N,Net-(J4-Pad1)*%
X133350000Y-94615000D03*
D10*
%TO.P,J4,2,Pin_2*%
%TO.N,/IO22*%
X130810000Y-94615000D03*
%TD*%
D38*
%TO.P,J29,1,Pin_1*%
%TO.N,/SO8-1*%
X165100000Y-111760000D03*
%TO.P,J29,2,Pin_2*%
%TO.N,/SO8-2*%
X162560000Y-111760000D03*
%TO.P,J29,3,Pin_3*%
%TO.N,/SO8-3*%
X160020000Y-111760000D03*
%TO.P,J29,4,Pin_4*%
%TO.N,/SO8-4*%
X157480000Y-111760000D03*
%TD*%
D10*
%TO.P,U1,43,SWDIO*%
%TO.N,/SWDIO*%
X132080000Y-86130000D03*
D17*
%TO.P,U1,42,GND*%
%TO.N,GND*%
X129540000Y-86130000D03*
D10*
%TO.P,U1,41,SWCLK*%
%TO.N,/SWCLK*%
X127000000Y-86130000D03*
%TO.P,U1,40,VBUS*%
%TO.N,VBUS*%
X138430000Y-38100000D03*
%TO.P,U1,39,VSYS*%
%TO.N,VSYS*%
X138430000Y-40640000D03*
D17*
%TO.P,U1,38,GND*%
%TO.N,GND*%
X138430000Y-43180000D03*
D10*
%TO.P,U1,37,3V3_EN*%
%TO.N,Net-(J3-Pad37)*%
X138430000Y-45720000D03*
%TO.P,U1,36,3V3*%
%TO.N,3V3*%
X138430000Y-48260000D03*
%TO.P,U1,35,ADC_VREF*%
%TO.N,AREF*%
X138430000Y-50800000D03*
%TO.P,U1,34,GPIO28_ADC2*%
%TO.N,/IO28*%
X138430000Y-53340000D03*
D17*
%TO.P,U1,33,AGND*%
%TO.N,GND*%
X138430000Y-55880000D03*
D10*
%TO.P,U1,32,GPIO27_ADC1*%
%TO.N,/IO27*%
X138430000Y-58420000D03*
%TO.P,U1,31,GPIO26_ADC0*%
%TO.N,/IO26*%
X138430000Y-60960000D03*
%TO.P,U1,30,RUN*%
%TO.N,/RUN*%
X138430000Y-63500000D03*
%TO.P,U1,29,GPIO22*%
%TO.N,/IO22*%
X138430000Y-66040000D03*
D17*
%TO.P,U1,28,GND*%
%TO.N,GND*%
X138430000Y-68580000D03*
D10*
%TO.P,U1,27,GPIO21*%
%TO.N,/IO21*%
X138430000Y-71120000D03*
%TO.P,U1,26,GPIO20*%
%TO.N,/IO20*%
X138430000Y-73660000D03*
%TO.P,U1,25,GPIO19*%
%TO.N,/IO19*%
X138430000Y-76200000D03*
%TO.P,U1,24,GPIO18*%
%TO.N,/IO18*%
X138430000Y-78740000D03*
D17*
%TO.P,U1,23,GND*%
%TO.N,GND*%
X138430000Y-81280000D03*
D10*
%TO.P,U1,22,GPIO17*%
%TO.N,/IO17*%
X138430000Y-83820000D03*
%TO.P,U1,21,GPIO16*%
%TO.N,/IO16*%
X138430000Y-86360000D03*
%TO.P,U1,20,GPIO15*%
%TO.N,/IO15*%
X120650000Y-86360000D03*
%TO.P,U1,19,GPIO14*%
%TO.N,/IO14*%
X120650000Y-83820000D03*
D17*
%TO.P,U1,18,GND*%
%TO.N,GND*%
X120650000Y-81280000D03*
D10*
%TO.P,U1,17,GPIO13*%
%TO.N,/IO13*%
X120650000Y-78740000D03*
%TO.P,U1,16,GPIO12*%
%TO.N,/IO12*%
X120650000Y-76200000D03*
%TO.P,U1,15,GPIO11*%
%TO.N,/IO11*%
X120650000Y-73660000D03*
%TO.P,U1,14,GPIO10*%
%TO.N,/IO10*%
X120650000Y-71120000D03*
D17*
%TO.P,U1,13,GND*%
%TO.N,GND*%
X120650000Y-68580000D03*
D10*
%TO.P,U1,12,GPIO9*%
%TO.N,/IO9*%
X120650000Y-66040000D03*
%TO.P,U1,11,GPIO8*%
%TO.N,/IO8*%
X120650000Y-63500000D03*
%TO.P,U1,10,GPIO7*%
%TO.N,/IO7*%
X120650000Y-60960000D03*
%TO.P,U1,9,GPIO6*%
%TO.N,/IO6*%
X120650000Y-58420000D03*
D17*
%TO.P,U1,8,GND*%
%TO.N,GND*%
X120650000Y-55880000D03*
D10*
%TO.P,U1,7,GPIO5*%
%TO.N,/SCL0*%
X120650000Y-53340000D03*
%TO.P,U1,6,GPIO4*%
%TO.N,/SDA0*%
X120650000Y-50800000D03*
%TO.P,U1,5,GPIO3*%
%TO.N,/IO3*%
X120650000Y-48260000D03*
%TO.P,U1,4,GPIO2*%
%TO.N,/IO2*%
X120650000Y-45720000D03*
D17*
%TO.P,U1,3,GND*%
%TO.N,GND*%
X120650000Y-43180000D03*
D10*
%TO.P,U1,2,GPIO1*%
%TO.N,/IO1*%
X120650000Y-40640000D03*
%TO.P,U1,1,GPIO0*%
%TO.N,/IO0*%
X120650000Y-38100000D03*
%TD*%
D14*
%TO.P,J36,1,Pin_1*%
%TO.N,/IO28*%
X96520000Y-66040000D03*
%TD*%
%TO.P,J33,1,Pin_1*%
%TO.N,GND*%
X96520000Y-60960000D03*
%TD*%
D20*
%TO.P,C3,1*%
%TO.N,Net-(C2-Pad1)*%
X33000000Y-104100000D03*
%TO.P,C3,2*%
%TO.N,GND*%
X33000000Y-101600000D03*
%TD*%
D17*
%TO.P,J43,1,Pin_1*%
%TO.N,Net-(C7-Pad1)*%
X146050000Y-97790000D03*
D10*
%TO.P,J43,2,Pin_2*%
%TO.N,/IO7*%
X143510000Y-97790000D03*
%TD*%
D39*
%TO.P,FID2,*%
%TO.N,*%
X187020000Y-52360000D03*
%TD*%
D40*
%TO.P,R2,1*%
%TO.N,/SDA0*%
X123460000Y-50800000D03*
%TO.P,R2,2*%
%TO.N,3V3*%
X125460000Y-50800000D03*
%TD*%
%TO.P,R20,1*%
%TO.N,Net-(C4-Pad1)*%
X37100000Y-74803000D03*
%TO.P,R20,2*%
%TO.N,+3.3VP*%
X39100000Y-74803000D03*
%TD*%
D41*
%TO.P,R8,1*%
%TO.N,Net-(R8-Pad1)*%
X168640000Y-46990000D03*
%TO.P,R8,2*%
%TO.N,/SWDIO*%
X166640000Y-46990000D03*
%TD*%
D42*
%TO.P,H34,*%
%TO.N,*%
X139700000Y-106680000D03*
X137160000Y-106680000D03*
%TD*%
D43*
%TO.P,H26,*%
%TO.N,*%
X139700000Y-114300000D03*
X139700000Y-116840000D03*
%TD*%
%TO.P,H18,*%
%TO.N,*%
X154940000Y-114300000D03*
X154940000Y-116840000D03*
X154940000Y-124460000D03*
X154940000Y-129540000D03*
X154940000Y-111760000D03*
X154940000Y-121920000D03*
X154940000Y-127000000D03*
X154940000Y-119380000D03*
%TD*%
%TO.P,H24,*%
%TO.N,*%
X139700000Y-129540000D03*
X139700000Y-132080000D03*
%TD*%
%TO.P,H17,*%
%TO.N,*%
X167640000Y-114300000D03*
X167640000Y-124460000D03*
X167640000Y-116840000D03*
X167640000Y-129540000D03*
X167640000Y-127000000D03*
X167640000Y-121920000D03*
X167640000Y-119380000D03*
X167640000Y-111760000D03*
%TD*%
D44*
%TO.P,J40,1,NC*%
%TO.N,unconnected-(J40-Pad1)*%
X105203000Y-118979000D03*
%TO.P,J40,2,\u002ACS*%
%TO.N,/IO13*%
X106303000Y-118979000D03*
%TO.P,J40,3,MOSI*%
%TO.N,/IO11*%
X107403000Y-118979000D03*
%TO.P,J40,4,3V3*%
%TO.N,3V3*%
X108503000Y-118979000D03*
%TO.P,J40,5,SCLK*%
%TO.N,/IO10*%
X109603000Y-118979000D03*
%TO.P,J40,6,GND*%
%TO.N,GND*%
X110703000Y-118979000D03*
%TO.P,J40,7,MISO*%
%TO.N,/IO12*%
X111803000Y-118979000D03*
%TO.P,J40,8,NC*%
%TO.N,unconnected-(J40-Pad8)*%
X112903000Y-118979000D03*
D45*
%TO.P,J40,MP*%
%TO.N,N/C*%
X115231500Y-128839000D03*
D46*
X101187500Y-119189500D03*
D47*
X115744500Y-119245000D03*
D48*
X100433500Y-128982000D03*
D49*
X114903000Y-133948000D03*
D44*
X114003000Y-118979000D03*
D49*
%TO.P,J40,SHIELD,SHIELD*%
%TO.N,unconnected-(J40-PadSHIELD)*%
X101403000Y-133948000D03*
%TD*%
D42*
%TO.P,H29,*%
%TO.N,*%
X132080000Y-109220000D03*
X137160000Y-109220000D03*
X134620000Y-109220000D03*
X129540000Y-109220000D03*
%TD*%
D43*
%TO.P,H32,*%
%TO.N,*%
X121920000Y-111760000D03*
%TD*%
D42*
%TO.P,H31,*%
%TO.N,*%
X137160000Y-129540000D03*
X134620000Y-129540000D03*
X129540000Y-129540000D03*
X132080000Y-129540000D03*
%TD*%
D40*
%TO.P,R14,1*%
%TO.N,Net-(R14-Pad1)*%
X133620000Y-121285000D03*
%TO.P,R14,2*%
%TO.N,/SO16-16*%
X135620000Y-121285000D03*
%TD*%
D50*
%TO.P,R15,1*%
%TO.N,Net-(R14-Pad1)*%
X133070000Y-124142500D03*
%TO.P,R15,2*%
%TO.N,/SO16-16*%
X136170000Y-124142500D03*
%TD*%
D51*
%TO.P,Q1,1,G*%
%TO.N,Net-(Q1-Pad1)*%
X105090000Y-61190000D03*
%TO.P,Q1,2,S*%
%TO.N,VSYS*%
X103190000Y-61190000D03*
%TO.P,Q1,3,D*%
%TO.N,+5VP*%
X104140000Y-58190000D03*
%TD*%
D40*
%TO.P,R16,1*%
%TO.N,Net-(R16-Pad1)*%
X161127500Y-101600000D03*
%TO.P,R16,2*%
%TO.N,3V3*%
X163127500Y-101600000D03*
%TD*%
D42*
%TO.P,H15,*%
%TO.N,*%
X149860000Y-109220000D03*
X152400000Y-109220000D03*
%TD*%
%TO.P,H28,*%
%TO.N,*%
X139700000Y-109220000D03*
X142240000Y-109220000D03*
%TD*%
D40*
%TO.P,R11,1*%
%TO.N,/SO8-4*%
X157115000Y-114617500D03*
%TO.P,R11,2*%
%TO.N,Net-(R11-Pad2)*%
X159115000Y-114617500D03*
%TD*%
D43*
%TO.P,H21,*%
%TO.N,*%
X157480000Y-121920000D03*
X157480000Y-124460000D03*
X157480000Y-119380000D03*
X157480000Y-116840000D03*
%TD*%
D41*
%TO.P,R7,1*%
%TO.N,Net-(R7-Pad1)*%
X168640000Y-52070000D03*
%TO.P,R7,2*%
%TO.N,/SWCLK*%
X166640000Y-52070000D03*
%TD*%
D43*
%TO.P,H27,*%
%TO.N,*%
X144780000Y-111760000D03*
X144780000Y-109220000D03*
%TD*%
D52*
%TO.P,R13,1*%
%TO.N,Net-(R10-Pad2)*%
X160337500Y-121237500D03*
%TO.P,R13,2*%
%TO.N,/SO8-6*%
X160337500Y-123237500D03*
%TD*%
%TO.P,R10,1*%
%TO.N,/SO8-3*%
X160337500Y-117427500D03*
%TO.P,R10,2*%
%TO.N,Net-(R10-Pad2)*%
X160337500Y-119427500D03*
%TD*%
D42*
%TO.P,H23,*%
%TO.N,*%
X129540000Y-114300000D03*
X137160000Y-114300000D03*
X134620000Y-114300000D03*
X132080000Y-114300000D03*
%TD*%
D53*
%TO.P,S4,1,K*%
%TO.N,/SO16-8*%
X126917500Y-130492500D03*
D54*
%TO.P,S4,2,A*%
%TO.N,Net-(R14-Pad1)*%
X127717500Y-130492500D03*
%TD*%
D42*
%TO.P,H30,*%
%TO.N,*%
X132080000Y-132080000D03*
X129540000Y-132080000D03*
X137160000Y-132080000D03*
X134620000Y-132080000D03*
%TD*%
D43*
%TO.P,H6,*%
%TO.N,*%
X83820000Y-76200000D03*
X83820000Y-99060000D03*
X86360000Y-88900000D03*
X83820000Y-104140000D03*
X88900000Y-121920000D03*
X93980000Y-129540000D03*
X86360000Y-121920000D03*
X91440000Y-127000000D03*
X93980000Y-48260000D03*
X88900000Y-86360000D03*
X93980000Y-109220000D03*
X91440000Y-83820000D03*
X83820000Y-121920000D03*
X88900000Y-116840000D03*
X91440000Y-68580000D03*
X88900000Y-71120000D03*
X86360000Y-60960000D03*
X83820000Y-111760000D03*
X93980000Y-124460000D03*
X91440000Y-73660000D03*
X86360000Y-104140000D03*
X93980000Y-73660000D03*
X91440000Y-91440000D03*
X93980000Y-50800000D03*
X93980000Y-53340000D03*
X88900000Y-129540000D03*
X93980000Y-88900000D03*
X86360000Y-106680000D03*
X91440000Y-66040000D03*
X88900000Y-83820000D03*
X88900000Y-88900000D03*
X91440000Y-78740000D03*
X86360000Y-71120000D03*
X83820000Y-83820000D03*
X86360000Y-58420000D03*
X86360000Y-99060000D03*
X93980000Y-96520000D03*
X91440000Y-114300000D03*
X86360000Y-78740000D03*
X91440000Y-111760000D03*
X83820000Y-129540000D03*
X93980000Y-60960000D03*
X88900000Y-91440000D03*
X88900000Y-53340000D03*
X88900000Y-58420000D03*
X93980000Y-121920000D03*
X88900000Y-109220000D03*
X83820000Y-48260000D03*
X86360000Y-63500000D03*
X83820000Y-73660000D03*
X93980000Y-104140000D03*
X86360000Y-109220000D03*
X88900000Y-68580000D03*
X93980000Y-63500000D03*
X88900000Y-99060000D03*
X91440000Y-93980000D03*
X91440000Y-99060000D03*
X91440000Y-119380000D03*
X86360000Y-127000000D03*
X86360000Y-119380000D03*
X93980000Y-55880000D03*
X91440000Y-63500000D03*
X86360000Y-68580000D03*
X93980000Y-58420000D03*
X83820000Y-119380000D03*
X93980000Y-78740000D03*
X83820000Y-114300000D03*
X83820000Y-66040000D03*
X83820000Y-78740000D03*
X91440000Y-55880000D03*
X91440000Y-81280000D03*
X83820000Y-101600000D03*
X86360000Y-53340000D03*
X91440000Y-96520000D03*
X86360000Y-55880000D03*
X88900000Y-76200000D03*
X83820000Y-96520000D03*
X83820000Y-109220000D03*
X88900000Y-111760000D03*
X88900000Y-96520000D03*
X91440000Y-60960000D03*
X88900000Y-124460000D03*
X93980000Y-106680000D03*
X83820000Y-60960000D03*
X91440000Y-129540000D03*
X91440000Y-76200000D03*
X83820000Y-58420000D03*
X91440000Y-116840000D03*
X83820000Y-81280000D03*
X93980000Y-119380000D03*
X93980000Y-66040000D03*
X83820000Y-86360000D03*
X88900000Y-93980000D03*
X83820000Y-127000000D03*
X91440000Y-48260000D03*
X91440000Y-58420000D03*
X91440000Y-88900000D03*
X83820000Y-106680000D03*
X91440000Y-53340000D03*
X93980000Y-71120000D03*
X88900000Y-101600000D03*
X91440000Y-50800000D03*
X83820000Y-50800000D03*
X91440000Y-86360000D03*
X83820000Y-124460000D03*
X86360000Y-50800000D03*
X93980000Y-68580000D03*
X93980000Y-81280000D03*
X88900000Y-48260000D03*
X86360000Y-93980000D03*
X86360000Y-86360000D03*
X93980000Y-116840000D03*
X93980000Y-93980000D03*
X83820000Y-55880000D03*
X93980000Y-99060000D03*
X86360000Y-81280000D03*
X88900000Y-114300000D03*
X83820000Y-88900000D03*
X83820000Y-63500000D03*
X93980000Y-91440000D03*
X86360000Y-76200000D03*
X88900000Y-106680000D03*
X86360000Y-129540000D03*
X86360000Y-124460000D03*
X93980000Y-111760000D03*
X86360000Y-111760000D03*
X86360000Y-96520000D03*
X91440000Y-109220000D03*
X88900000Y-73660000D03*
X88900000Y-104140000D03*
X83820000Y-116840000D03*
X93980000Y-114300000D03*
X88900000Y-127000000D03*
X93980000Y-101600000D03*
X88900000Y-66040000D03*
X86360000Y-114300000D03*
X91440000Y-71120000D03*
X88900000Y-119380000D03*
X86360000Y-101600000D03*
X86360000Y-66040000D03*
X88900000Y-60960000D03*
X83820000Y-53340000D03*
X83820000Y-93980000D03*
X91440000Y-121920000D03*
X88900000Y-50800000D03*
X88900000Y-63500000D03*
X86360000Y-48260000D03*
X91440000Y-101600000D03*
X93980000Y-86360000D03*
X93980000Y-127000000D03*
X86360000Y-116840000D03*
X86360000Y-91440000D03*
X83820000Y-71120000D03*
X86360000Y-83820000D03*
X88900000Y-81280000D03*
X93980000Y-76200000D03*
X88900000Y-78740000D03*
X93980000Y-83820000D03*
X83820000Y-91440000D03*
X86360000Y-73660000D03*
X91440000Y-106680000D03*
X91440000Y-104140000D03*
X83820000Y-68580000D03*
X91440000Y-124460000D03*
X88900000Y-55880000D03*
%TD*%
D42*
%TO.P,H11,*%
%TO.N,*%
X167640000Y-109220000D03*
X165100000Y-109220000D03*
%TD*%
D52*
%TO.P,R12,1*%
%TO.N,Net-(R12-Pad1)*%
X162242500Y-121237500D03*
%TO.P,R12,2*%
%TO.N,/SO8-6*%
X162242500Y-123237500D03*
%TD*%
D43*
%TO.P,H9,*%
%TO.N,*%
X119380000Y-114300000D03*
X119380000Y-132080000D03*
X119380000Y-127000000D03*
X119380000Y-129540000D03*
X119380000Y-124460000D03*
X119380000Y-121920000D03*
X119380000Y-119380000D03*
X119380000Y-116840000D03*
%TD*%
D42*
%TO.P,H25,*%
%TO.N,*%
X137160000Y-111760000D03*
X142240000Y-111760000D03*
X124460000Y-111760000D03*
X134620000Y-111760000D03*
X127000000Y-111760000D03*
X139700000Y-111760000D03*
X132080000Y-111760000D03*
X129540000Y-111760000D03*
%TD*%
D43*
%TO.P,H8,*%
%TO.N,*%
X147320000Y-119380000D03*
X147320000Y-132080000D03*
X147320000Y-127000000D03*
X147320000Y-121920000D03*
X147320000Y-116840000D03*
X147320000Y-124460000D03*
X147320000Y-114300000D03*
X147320000Y-129540000D03*
%TD*%
D42*
%TO.P,H10,*%
%TO.N,*%
X162560000Y-132080000D03*
X149860000Y-132080000D03*
X157480000Y-132080000D03*
X160020000Y-132080000D03*
X152400000Y-132080000D03*
X154940000Y-132080000D03*
X165100000Y-132080000D03*
X167640000Y-132080000D03*
%TD*%
D41*
%TO.P,R22,1*%
%TO.N,Net-(Q1-Pad1)*%
X105187500Y-63817500D03*
%TO.P,R22,2*%
%TO.N,VSYS*%
X103187500Y-63817500D03*
%TD*%
D42*
%TO.P,H12,*%
%TO.N,*%
X154940000Y-109220000D03*
X157480000Y-109220000D03*
%TD*%
D41*
%TO.P,R19,1*%
%TO.N,Net-(R17-Pad1)*%
X152362500Y-99060000D03*
%TO.P,R19,2*%
%TO.N,Net-(C7-Pad1)*%
X150362500Y-99060000D03*
%TD*%
D42*
%TO.P,H13,*%
%TO.N,*%
X162560000Y-109220000D03*
X160020000Y-109220000D03*
%TD*%
D43*
%TO.P,H3,*%
%TO.N,*%
X76200000Y-78740000D03*
X78740000Y-88900000D03*
X71120000Y-104140000D03*
X71120000Y-109220000D03*
X81280000Y-116840000D03*
X71120000Y-106680000D03*
X76200000Y-121920000D03*
X81280000Y-91440000D03*
X76200000Y-76200000D03*
X81280000Y-66040000D03*
X81280000Y-55880000D03*
X73660000Y-71120000D03*
X81280000Y-76200000D03*
X81280000Y-99060000D03*
X78740000Y-111760000D03*
X73660000Y-99060000D03*
X73660000Y-86360000D03*
X73660000Y-93980000D03*
X78740000Y-116840000D03*
X71120000Y-99060000D03*
X81280000Y-48260000D03*
X73660000Y-119380000D03*
X78740000Y-114300000D03*
X81280000Y-86360000D03*
X73660000Y-50800000D03*
X71120000Y-127000000D03*
X81280000Y-50800000D03*
X76200000Y-73660000D03*
X71120000Y-73660000D03*
X73660000Y-91440000D03*
X73660000Y-127000000D03*
X76200000Y-116840000D03*
X76200000Y-91440000D03*
X73660000Y-60960000D03*
X81280000Y-111760000D03*
X76200000Y-99060000D03*
X81280000Y-78740000D03*
X76200000Y-71120000D03*
X76200000Y-63500000D03*
X73660000Y-63500000D03*
X71120000Y-48260000D03*
X81280000Y-73660000D03*
X78740000Y-104140000D03*
X76200000Y-114300000D03*
X81280000Y-53340000D03*
X78740000Y-60960000D03*
X78740000Y-68580000D03*
X78740000Y-81280000D03*
X71120000Y-114300000D03*
X71120000Y-111760000D03*
X73660000Y-48260000D03*
X81280000Y-93980000D03*
X73660000Y-58420000D03*
X81280000Y-124460000D03*
X73660000Y-55880000D03*
X71120000Y-60960000D03*
X81280000Y-121920000D03*
X73660000Y-106680000D03*
X81280000Y-88900000D03*
X73660000Y-129540000D03*
X78740000Y-127000000D03*
X81280000Y-127000000D03*
X76200000Y-68580000D03*
X76200000Y-111760000D03*
X71120000Y-116840000D03*
X73660000Y-76200000D03*
X81280000Y-58420000D03*
X76200000Y-58420000D03*
X73660000Y-68580000D03*
X76200000Y-88900000D03*
X71120000Y-78740000D03*
X76200000Y-55880000D03*
X76200000Y-109220000D03*
X78740000Y-58420000D03*
X78740000Y-121920000D03*
X76200000Y-127000000D03*
X73660000Y-81280000D03*
X71120000Y-68580000D03*
X71120000Y-121920000D03*
X81280000Y-68580000D03*
X78740000Y-99060000D03*
X81280000Y-63500000D03*
X73660000Y-124460000D03*
X76200000Y-96520000D03*
X73660000Y-121920000D03*
X78740000Y-76200000D03*
X71120000Y-129540000D03*
X73660000Y-101600000D03*
X73660000Y-96520000D03*
X78740000Y-129540000D03*
X73660000Y-104140000D03*
X76200000Y-86360000D03*
X76200000Y-81280000D03*
X78740000Y-53340000D03*
X81280000Y-101600000D03*
X71120000Y-83820000D03*
X71120000Y-119380000D03*
X78740000Y-83820000D03*
X71120000Y-76200000D03*
X71120000Y-53340000D03*
X73660000Y-88900000D03*
X71120000Y-66040000D03*
X73660000Y-114300000D03*
X78740000Y-101600000D03*
X71120000Y-50800000D03*
X78740000Y-55880000D03*
X76200000Y-60960000D03*
X76200000Y-124460000D03*
X81280000Y-119380000D03*
X78740000Y-109220000D03*
X76200000Y-66040000D03*
X73660000Y-73660000D03*
X81280000Y-106680000D03*
X73660000Y-53340000D03*
X78740000Y-71120000D03*
X78740000Y-124460000D03*
X78740000Y-91440000D03*
X73660000Y-116840000D03*
X81280000Y-81280000D03*
X71120000Y-86360000D03*
X78740000Y-73660000D03*
X81280000Y-71120000D03*
X81280000Y-109220000D03*
X71120000Y-93980000D03*
X73660000Y-109220000D03*
X76200000Y-93980000D03*
X76200000Y-48260000D03*
X81280000Y-114300000D03*
X78740000Y-78740000D03*
X78740000Y-63500000D03*
X81280000Y-60960000D03*
X78740000Y-93980000D03*
X81280000Y-104140000D03*
X71120000Y-88900000D03*
X76200000Y-106680000D03*
X78740000Y-106680000D03*
X78740000Y-50800000D03*
X78740000Y-119380000D03*
X81280000Y-83820000D03*
X81280000Y-129540000D03*
X71120000Y-91440000D03*
X71120000Y-58420000D03*
X71120000Y-124460000D03*
X71120000Y-55880000D03*
X73660000Y-78740000D03*
X76200000Y-50800000D03*
X73660000Y-83820000D03*
X76200000Y-53340000D03*
X76200000Y-83820000D03*
X73660000Y-111760000D03*
X78740000Y-86360000D03*
X78740000Y-96520000D03*
X81280000Y-96520000D03*
X71120000Y-96520000D03*
X71120000Y-71120000D03*
X78740000Y-66040000D03*
X78740000Y-48260000D03*
X71120000Y-101600000D03*
X71120000Y-81280000D03*
X76200000Y-129540000D03*
X76200000Y-101600000D03*
X71120000Y-63500000D03*
X73660000Y-66040000D03*
X76200000Y-104140000D03*
X76200000Y-119380000D03*
%TD*%
D39*
%TO.P,FID1,*%
%TO.N,*%
X187020000Y-119360000D03*
%TD*%
D55*
%TO.P,S2,1,K*%
%TO.N,Net-(R11-Pad2)*%
X163195000Y-125647500D03*
D56*
%TO.P,S2,2,A*%
%TO.N,/SO8-8*%
X163195000Y-126447500D03*
%TD*%
D43*
%TO.P,H19,*%
%TO.N,*%
X149860000Y-121920000D03*
X149860000Y-119380000D03*
X149860000Y-111760000D03*
X149860000Y-129540000D03*
X149860000Y-116840000D03*
X149860000Y-124460000D03*
X149860000Y-127000000D03*
X149860000Y-114300000D03*
%TD*%
D41*
%TO.P,R6,1*%
%TO.N,Net-(D2-Pad2)*%
X104140000Y-71755000D03*
%TO.P,R6,2*%
%TO.N,VSYS*%
X102140000Y-71755000D03*
%TD*%
D57*
%TO.P,C2,1*%
%TO.N,Net-(C2-Pad1)*%
X37867500Y-99822000D03*
%TO.P,C2,2*%
%TO.N,GND*%
X35792500Y-99822000D03*
%TD*%
D43*
%TO.P,H22,*%
%TO.N,*%
X165100000Y-124460000D03*
X165100000Y-116840000D03*
X165100000Y-121920000D03*
X165100000Y-119380000D03*
%TD*%
%TO.P,H35,*%
%TO.N,*%
X142240000Y-106680000D03*
%TD*%
%TO.P,H7,*%
%TO.N,*%
X121920000Y-116840000D03*
X121920000Y-114300000D03*
X121920000Y-121920000D03*
X121920000Y-124460000D03*
X121920000Y-132080000D03*
X121920000Y-119380000D03*
X121920000Y-127000000D03*
X121920000Y-129540000D03*
%TD*%
D40*
%TO.P,R3,1*%
%TO.N,/SCL0*%
X123460000Y-53340000D03*
%TO.P,R3,2*%
%TO.N,3V3*%
X125460000Y-53340000D03*
%TD*%
D57*
%TO.P,C5,1*%
%TO.N,Net-(C4-Pad1)*%
X39772500Y-83185000D03*
%TO.P,C5,2*%
%TO.N,GND*%
X37697500Y-83185000D03*
%TD*%
D43*
%TO.P,H16,*%
%TO.N,*%
X152400000Y-121920000D03*
X152400000Y-129540000D03*
X152400000Y-114300000D03*
X152400000Y-124460000D03*
X152400000Y-127000000D03*
X152400000Y-111760000D03*
X152400000Y-116840000D03*
X152400000Y-119380000D03*
%TD*%
D41*
%TO.P,R4,1*%
%TO.N,VBUS*%
X104505000Y-66675000D03*
%TO.P,R4,2*%
%TO.N,Net-(Q1-Pad1)*%
X102505000Y-66675000D03*
%TD*%
D43*
%TO.P,H1,*%
%TO.N,*%
X48260000Y-58420000D03*
X55880000Y-104140000D03*
X45720000Y-50800000D03*
X45720000Y-119380000D03*
X53340000Y-114300000D03*
X50800000Y-48260000D03*
X55880000Y-50800000D03*
X55880000Y-106680000D03*
X45720000Y-55880000D03*
X53340000Y-93980000D03*
X48260000Y-68580000D03*
X48260000Y-73660000D03*
X53340000Y-48260000D03*
X55880000Y-88900000D03*
X45720000Y-96520000D03*
X55880000Y-53340000D03*
X50800000Y-50800000D03*
X50800000Y-68580000D03*
X45720000Y-73660000D03*
X48260000Y-91440000D03*
X55880000Y-76200000D03*
X48260000Y-71120000D03*
X50800000Y-104140000D03*
X45720000Y-127000000D03*
X48260000Y-48260000D03*
X53340000Y-88900000D03*
X55880000Y-93980000D03*
X50800000Y-76200000D03*
X48260000Y-119380000D03*
X55880000Y-101600000D03*
X48260000Y-111760000D03*
X55880000Y-96520000D03*
X55880000Y-48260000D03*
X45720000Y-93980000D03*
X50800000Y-73660000D03*
X48260000Y-124460000D03*
X48260000Y-101600000D03*
X55880000Y-121920000D03*
X50800000Y-124460000D03*
X48260000Y-53340000D03*
X53340000Y-127000000D03*
X55880000Y-55880000D03*
X48260000Y-93980000D03*
X55880000Y-129540000D03*
X50800000Y-60960000D03*
X50800000Y-66040000D03*
X48260000Y-127000000D03*
X48260000Y-88900000D03*
X53340000Y-58420000D03*
X50800000Y-96520000D03*
X55880000Y-73660000D03*
X53340000Y-83820000D03*
X45720000Y-99060000D03*
X55880000Y-119380000D03*
X48260000Y-114300000D03*
X50800000Y-106680000D03*
X53340000Y-106680000D03*
X53340000Y-99060000D03*
X55880000Y-99060000D03*
X55880000Y-71120000D03*
X50800000Y-86360000D03*
X45720000Y-78740000D03*
X48260000Y-63500000D03*
X53340000Y-55880000D03*
X50800000Y-93980000D03*
X55880000Y-116840000D03*
X50800000Y-129540000D03*
X53340000Y-129540000D03*
X50800000Y-71120000D03*
X55880000Y-114300000D03*
X55880000Y-68580000D03*
X53340000Y-50800000D03*
X53340000Y-78740000D03*
X48260000Y-99060000D03*
X48260000Y-116840000D03*
X53340000Y-81280000D03*
X50800000Y-81280000D03*
X53340000Y-63500000D03*
X45720000Y-106680000D03*
X48260000Y-121920000D03*
X53340000Y-96520000D03*
X45720000Y-68580000D03*
X53340000Y-73660000D03*
X48260000Y-76200000D03*
X45720000Y-66040000D03*
X45720000Y-104140000D03*
X45720000Y-101600000D03*
X53340000Y-76200000D03*
X50800000Y-78740000D03*
X53340000Y-121920000D03*
X50800000Y-119380000D03*
X48260000Y-60960000D03*
X50800000Y-58420000D03*
X50800000Y-101600000D03*
X53340000Y-53340000D03*
X53340000Y-119380000D03*
X53340000Y-86360000D03*
X48260000Y-50800000D03*
X50800000Y-63500000D03*
X45720000Y-60960000D03*
X48260000Y-96520000D03*
X45720000Y-71120000D03*
X45720000Y-63500000D03*
X45720000Y-86360000D03*
X50800000Y-91440000D03*
X45720000Y-91440000D03*
X53340000Y-111760000D03*
X53340000Y-104140000D03*
X55880000Y-60960000D03*
X53340000Y-60960000D03*
X50800000Y-53340000D03*
X53340000Y-124460000D03*
X55880000Y-66040000D03*
X50800000Y-114300000D03*
X48260000Y-81280000D03*
X50800000Y-111760000D03*
X53340000Y-66040000D03*
X48260000Y-106680000D03*
X45720000Y-114300000D03*
X48260000Y-86360000D03*
X53340000Y-109220000D03*
X45720000Y-48260000D03*
X48260000Y-66040000D03*
X53340000Y-101600000D03*
X45720000Y-109220000D03*
X48260000Y-55880000D03*
X55880000Y-83820000D03*
X48260000Y-78740000D03*
X50800000Y-55880000D03*
X45720000Y-88900000D03*
X50800000Y-116840000D03*
X45720000Y-121920000D03*
X45720000Y-124460000D03*
X45720000Y-111760000D03*
X55880000Y-81280000D03*
X45720000Y-58420000D03*
X45720000Y-129540000D03*
X48260000Y-129540000D03*
X55880000Y-111760000D03*
X50800000Y-121920000D03*
X45720000Y-53340000D03*
X50800000Y-99060000D03*
X53340000Y-116840000D03*
X50800000Y-83820000D03*
X50800000Y-127000000D03*
X50800000Y-109220000D03*
X45720000Y-116840000D03*
X55880000Y-63500000D03*
X48260000Y-104140000D03*
X48260000Y-109220000D03*
X55880000Y-127000000D03*
X55880000Y-109220000D03*
X55880000Y-78740000D03*
X55880000Y-86360000D03*
X55880000Y-58420000D03*
X53340000Y-91440000D03*
X45720000Y-81280000D03*
X55880000Y-91440000D03*
X48260000Y-83820000D03*
X55880000Y-124460000D03*
X45720000Y-83820000D03*
X53340000Y-68580000D03*
X45720000Y-76200000D03*
X53340000Y-71120000D03*
X50800000Y-88900000D03*
%TD*%
D58*
%TO.P,C6,1*%
%TO.N,3V3*%
X108673500Y-114554000D03*
%TO.P,C6,2*%
%TO.N,GND*%
X111798500Y-114554000D03*
%TD*%
D53*
%TO.P,S3,1,K*%
%TO.N,/SO16-7*%
X126917500Y-128587500D03*
D54*
%TO.P,S3,2,A*%
%TO.N,Net-(R14-Pad1)*%
X127717500Y-128587500D03*
%TD*%
D40*
%TO.P,R21,1*%
%TO.N,Net-(C2-Pad1)*%
X36592000Y-103505000D03*
%TO.P,R21,2*%
%TO.N,+5VP*%
X38592000Y-103505000D03*
%TD*%
%TO.P,R17,1*%
%TO.N,Net-(R17-Pad1)*%
X161127500Y-98425000D03*
%TO.P,R17,2*%
%TO.N,3V3*%
X163127500Y-98425000D03*
%TD*%
D43*
%TO.P,H14,*%
%TO.N,*%
X147320000Y-111760000D03*
X147320000Y-109220000D03*
%TD*%
%TO.P,H2,*%
%TO.N,*%
X68580000Y-50800000D03*
X63500000Y-99060000D03*
X66040000Y-78740000D03*
X66040000Y-124460000D03*
X58420000Y-127000000D03*
X60960000Y-129540000D03*
X63500000Y-50800000D03*
X63500000Y-76200000D03*
X68580000Y-83820000D03*
X66040000Y-116840000D03*
X63500000Y-116840000D03*
X66040000Y-101600000D03*
X68580000Y-101600000D03*
X58420000Y-76200000D03*
X58420000Y-101600000D03*
X66040000Y-68580000D03*
X68580000Y-91440000D03*
X58420000Y-96520000D03*
X63500000Y-60960000D03*
X66040000Y-111760000D03*
X60960000Y-109220000D03*
X68580000Y-111760000D03*
X66040000Y-91440000D03*
X68580000Y-121920000D03*
X60960000Y-68580000D03*
X60960000Y-93980000D03*
X58420000Y-71120000D03*
X63500000Y-88900000D03*
X68580000Y-86360000D03*
X63500000Y-96520000D03*
X66040000Y-93980000D03*
X63500000Y-109220000D03*
X66040000Y-86360000D03*
X68580000Y-96520000D03*
X68580000Y-55880000D03*
X63500000Y-111760000D03*
X58420000Y-81280000D03*
X58420000Y-86360000D03*
X68580000Y-116840000D03*
X63500000Y-106680000D03*
X58420000Y-88900000D03*
X63500000Y-81280000D03*
X63500000Y-93980000D03*
X66040000Y-109220000D03*
X60960000Y-121920000D03*
X60960000Y-73660000D03*
X68580000Y-78740000D03*
X58420000Y-104140000D03*
X58420000Y-50800000D03*
X63500000Y-71120000D03*
X66040000Y-127000000D03*
X63500000Y-101600000D03*
X68580000Y-48260000D03*
X63500000Y-83820000D03*
X60960000Y-104140000D03*
X66040000Y-114300000D03*
X63500000Y-63500000D03*
X68580000Y-106680000D03*
X68580000Y-99060000D03*
X68580000Y-58420000D03*
X58420000Y-83820000D03*
X68580000Y-127000000D03*
X60960000Y-76200000D03*
X58420000Y-73660000D03*
X60960000Y-99060000D03*
X58420000Y-60960000D03*
X63500000Y-53340000D03*
X66040000Y-96520000D03*
X66040000Y-71120000D03*
X63500000Y-124460000D03*
X66040000Y-88900000D03*
X58420000Y-114300000D03*
X58420000Y-63500000D03*
X68580000Y-88900000D03*
X63500000Y-91440000D03*
X60960000Y-101600000D03*
X60960000Y-71120000D03*
X58420000Y-121920000D03*
X63500000Y-86360000D03*
X68580000Y-76200000D03*
X60960000Y-86360000D03*
X68580000Y-53340000D03*
X58420000Y-129540000D03*
X60960000Y-63500000D03*
X60960000Y-50800000D03*
X66040000Y-99060000D03*
X68580000Y-124460000D03*
X63500000Y-121920000D03*
X60960000Y-58420000D03*
X60960000Y-116840000D03*
X63500000Y-68580000D03*
X68580000Y-71120000D03*
X58420000Y-55880000D03*
X58420000Y-78740000D03*
X60960000Y-81280000D03*
X63500000Y-78740000D03*
X68580000Y-66040000D03*
X63500000Y-119380000D03*
X58420000Y-93980000D03*
X68580000Y-93980000D03*
X60960000Y-66040000D03*
X63500000Y-55880000D03*
X60960000Y-114300000D03*
X66040000Y-60960000D03*
X66040000Y-53340000D03*
X63500000Y-114300000D03*
X66040000Y-119380000D03*
X58420000Y-116840000D03*
X66040000Y-121920000D03*
X58420000Y-53340000D03*
X60960000Y-127000000D03*
X68580000Y-114300000D03*
X58420000Y-91440000D03*
X60960000Y-124460000D03*
X60960000Y-119380000D03*
X60960000Y-111760000D03*
X66040000Y-58420000D03*
X66040000Y-50800000D03*
X63500000Y-73660000D03*
X60960000Y-55880000D03*
X66040000Y-106680000D03*
X66040000Y-55880000D03*
X66040000Y-83820000D03*
X58420000Y-68580000D03*
X68580000Y-60960000D03*
X60960000Y-91440000D03*
X63500000Y-66040000D03*
X60960000Y-88900000D03*
X58420000Y-58420000D03*
X60960000Y-96520000D03*
X66040000Y-129540000D03*
X60960000Y-83820000D03*
X60960000Y-106680000D03*
X58420000Y-119380000D03*
X68580000Y-81280000D03*
X63500000Y-129540000D03*
X68580000Y-109220000D03*
X66040000Y-81280000D03*
X60960000Y-60960000D03*
X66040000Y-48260000D03*
X63500000Y-58420000D03*
X63500000Y-48260000D03*
X63500000Y-127000000D03*
X66040000Y-63500000D03*
X68580000Y-63500000D03*
X58420000Y-111760000D03*
X68580000Y-68580000D03*
X58420000Y-109220000D03*
X68580000Y-119380000D03*
X58420000Y-48260000D03*
X66040000Y-104140000D03*
X63500000Y-104140000D03*
X68580000Y-129540000D03*
X60960000Y-53340000D03*
X66040000Y-66040000D03*
X60960000Y-78740000D03*
X58420000Y-106680000D03*
X58420000Y-99060000D03*
X58420000Y-124460000D03*
X66040000Y-76200000D03*
X68580000Y-73660000D03*
X68580000Y-104140000D03*
X58420000Y-66040000D03*
X60960000Y-48260000D03*
X66040000Y-73660000D03*
%TD*%
D59*
%TO.P,C7,1*%
%TO.N,Net-(C7-Pad1)*%
X150325000Y-101600000D03*
%TO.P,C7,2*%
%TO.N,GND*%
X152400000Y-101600000D03*
%TD*%
D41*
%TO.P,R18,1*%
%TO.N,Net-(R16-Pad1)*%
X152346500Y-92710000D03*
%TO.P,R18,2*%
%TO.N,Net-(C8-Pad1)*%
X150346500Y-92710000D03*
%TD*%
D52*
%TO.P,R9,1*%
%TO.N,/SO8-2*%
X162242500Y-117427500D03*
%TO.P,R9,2*%
%TO.N,Net-(R12-Pad1)*%
X162242500Y-119427500D03*
%TD*%
D59*
%TO.P,C8,1*%
%TO.N,Net-(C8-Pad1)*%
X150346500Y-95250000D03*
%TO.P,C8,2*%
%TO.N,GND*%
X152421500Y-95250000D03*
%TD*%
D39*
%TO.P,FID3,*%
%TO.N,*%
X33020000Y-129360000D03*
%TD*%
D42*
%TO.P,H20,*%
%TO.N,*%
X132080000Y-116840000D03*
X134620000Y-116840000D03*
X137160000Y-116840000D03*
X129540000Y-116840000D03*
%TD*%
%TO.P,H33,*%
%TO.N,*%
X149860000Y-106680000D03*
X152400000Y-106680000D03*
X147320000Y-106680000D03*
X144780000Y-106680000D03*
%TD*%
D55*
%TO.P,S1,1,K*%
%TO.N,Net-(R11-Pad2)*%
X161290000Y-125647500D03*
D56*
%TO.P,S1,2,A*%
%TO.N,/SO8-7*%
X161290000Y-126447500D03*
%TD*%
D41*
%TO.P,R5,1*%
%TO.N,GND*%
X104505000Y-69215000D03*
%TO.P,R5,2*%
%TO.N,Net-(Q1-Pad1)*%
X102505000Y-69215000D03*
%TD*%
D60*
%TO.N,3V3*%
X164592000Y-100076000D03*
X102870000Y-52387500D03*
X166116000Y-56388000D03*
D61*
X109601000Y-117094000D03*
D62*
%TO.N,VBUS*%
X133032500Y-59690000D03*
X136207500Y-45720000D03*
D61*
X106362500Y-65405000D03*
D60*
%TO.N,GND*%
X172466000Y-59944000D03*
D61*
X106362500Y-67945000D03*
D60*
X156718000Y-59944000D03*
D61*
X155257500Y-96520000D03*
X98742500Y-69850000D03*
%TO.N,Net-(D2-Pad2)*%
X106362500Y-70485000D03*
%TO.N,+5VP*%
X105727500Y-55245000D03*
X105727500Y-58102500D03*
D60*
%TO.N,/IO0*%
X167894000Y-56134000D03*
%TO.N,/IO1*%
X161925000Y-56515000D03*
D61*
%TO.N,/IO10*%
X104394000Y-117094000D03*
%TO.N,/IO11*%
X107569000Y-117094000D03*
%TO.N,/IO12*%
X111125000Y-111379000D03*
%TO.N,/IO13*%
X106299000Y-117094000D03*
%TO.N,+3.3VP*%
X31115000Y-40322500D03*
X33020000Y-38417500D03*
X32067500Y-39370000D03*
%TO.N,Net-(C7-Pad1)*%
X150177500Y-97155000D03*
%TO.N,Net-(C8-Pad1)*%
X147637500Y-91122500D03*
%TO.N,Net-(R16-Pad1)*%
X152400000Y-91122500D03*
%TD*%
D63*
%TO.N,/IO22*%
X138430000Y-66040000D02*
X137160000Y-66040000D01*
X135547200Y-89750800D02*
X134493000Y-90805000D01*
X136652000Y-66548000D02*
X136652000Y-76137790D01*
X136652000Y-76137790D02*
X135547200Y-77242590D01*
X134493000Y-90805000D02*
X131127500Y-90805000D01*
X135547200Y-77242590D02*
X135547200Y-89750800D01*
X131127500Y-90805000D02*
X130810000Y-91122500D01*
X130810000Y-91122500D02*
X130810000Y-94615000D01*
X137160000Y-66040000D02*
X136652000Y-66548000D01*
%TO.N,/IO27*%
X134325990Y-90401800D02*
X130960489Y-90401800D01*
X138430000Y-58420000D02*
X139700000Y-58420000D01*
X130938289Y-90424000D02*
X124846000Y-90424000D01*
X140335000Y-63817500D02*
X139382500Y-64770000D01*
X139382500Y-64770000D02*
X137414000Y-64770000D01*
X139700000Y-58420000D02*
X140335000Y-59055000D01*
X135144000Y-77075580D02*
X135144000Y-89583790D01*
X137414000Y-64770000D02*
X136248800Y-65935200D01*
X124846000Y-90424000D02*
X123825000Y-91445000D01*
X123825000Y-91445000D02*
X123825000Y-94615000D01*
X136248800Y-65935200D02*
X136248800Y-75970780D01*
X136248800Y-75970780D02*
X135144000Y-77075580D01*
X130960489Y-90401800D02*
X130938289Y-90424000D01*
X135144000Y-89583790D02*
X134325990Y-90401800D01*
X140335000Y-59055000D02*
X140335000Y-63817500D01*
%TO.N,3V3*%
X125460000Y-53340000D02*
X125460000Y-50800000D01*
X163127500Y-98425000D02*
X163127500Y-97595500D01*
X163127500Y-101600000D02*
X163127500Y-100016500D01*
X102870000Y-52387500D02*
X104457500Y-52387500D01*
X183440000Y-57150000D02*
X180900000Y-57150000D01*
X166116000Y-56388000D02*
X164846000Y-57658000D01*
X125460000Y-49895000D02*
X125460000Y-50800000D01*
D64*
X149860000Y-48260000D02*
X151447500Y-48260000D01*
D63*
X108548000Y-117094000D02*
X108503000Y-117049000D01*
X104457500Y-52387500D02*
X107433889Y-49411111D01*
D64*
X152717500Y-49530000D02*
X152717500Y-88900000D01*
D63*
X108503000Y-114724500D02*
X108673500Y-114554000D01*
X161544000Y-96012000D02*
X156718000Y-96012000D01*
X163187000Y-100076000D02*
X163127500Y-100016500D01*
X163127500Y-97595500D02*
X161544000Y-96012000D01*
X164592000Y-100076000D02*
X163187000Y-100076000D01*
X107433889Y-49411111D02*
X124976111Y-49411111D01*
X156718000Y-96012000D02*
X154432000Y-93726000D01*
X164846000Y-57658000D02*
X164846000Y-72136000D01*
X163127500Y-100016500D02*
X163127500Y-98425000D01*
X164846000Y-72136000D02*
X167640000Y-74930000D01*
X109601000Y-117094000D02*
X108548000Y-117094000D01*
X108503000Y-117049000D02*
X108503000Y-114724500D01*
X154432000Y-93726000D02*
X154432000Y-90614500D01*
D64*
X151447500Y-48260000D02*
X152717500Y-49530000D01*
D63*
X108503000Y-118979000D02*
X108503000Y-117049000D01*
X124976111Y-49411111D02*
X125460000Y-49895000D01*
X154432000Y-90614500D02*
X152717500Y-88900000D01*
D64*
%TO.N,VSYS*%
X122872500Y-46672500D02*
X122555000Y-46990000D01*
X101600000Y-51752500D02*
X101600000Y-60325000D01*
X107632500Y-44450000D02*
X106997500Y-45085000D01*
X133350000Y-44450000D02*
X122872500Y-44450000D01*
D63*
X113982500Y-44450000D02*
X107950000Y-44450000D01*
D64*
X122872500Y-44450000D02*
X122872500Y-46672500D01*
D63*
X182168800Y-53338800D02*
X183440000Y-54610000D01*
D64*
X117475000Y-46990000D02*
X113665000Y-46990000D01*
X106997500Y-45085000D02*
X106997500Y-46990000D01*
X102465000Y-61190000D02*
X103190000Y-61190000D01*
X122872500Y-44450000D02*
X122555000Y-44450000D01*
D63*
X100965000Y-64770000D02*
X101917500Y-63817500D01*
D64*
X107950000Y-46990000D02*
X106997500Y-46990000D01*
X103822500Y-51435000D02*
X101917500Y-51435000D01*
D63*
X180900000Y-46990000D02*
X182168800Y-48258800D01*
X101282500Y-71755000D02*
X100965000Y-71437500D01*
X100965000Y-71437500D02*
X100965000Y-64770000D01*
D64*
X117475000Y-44450000D02*
X113982500Y-44450000D01*
X106997500Y-46990000D02*
X106997500Y-47942500D01*
D63*
X103190000Y-61190000D02*
X103190000Y-63815000D01*
D64*
X138430000Y-40640000D02*
X137160000Y-40640000D01*
X106680000Y-48260000D02*
X105410000Y-48260000D01*
D63*
X101282500Y-71755000D02*
X102140000Y-71755000D01*
X122555000Y-44450000D02*
X117475000Y-44450000D01*
D64*
X105410000Y-48260000D02*
X105410000Y-49847500D01*
D63*
X101917500Y-63817500D02*
X103187500Y-63817500D01*
D64*
X133350000Y-44450000D02*
X137160000Y-40640000D01*
X107950000Y-44450000D02*
X107632500Y-44450000D01*
X105410000Y-49847500D02*
X103822500Y-51435000D01*
X101600000Y-60325000D02*
X102465000Y-61190000D01*
D63*
X113665000Y-46990000D02*
X107950000Y-46990000D01*
D64*
X101917500Y-51435000D02*
X101600000Y-51752500D01*
D63*
X103190000Y-63815000D02*
X103187500Y-63817500D01*
D64*
X106997500Y-47942500D02*
X106680000Y-48260000D01*
D63*
X122555000Y-46990000D02*
X117475000Y-46990000D01*
X182168800Y-48258800D02*
X182168800Y-53338800D01*
%TO.N,VBUS*%
X105775000Y-65405000D02*
X104505000Y-66675000D01*
X133032500Y-59690000D02*
X133032500Y-48895000D01*
X133032500Y-48895000D02*
X136207500Y-45720000D01*
X106362500Y-65405000D02*
X105775000Y-65405000D01*
D65*
%TO.N,GND*%
X147320000Y-81280000D02*
X145288000Y-81280000D01*
X172339000Y-100330000D02*
X175895000Y-100330000D01*
D63*
X152421500Y-95250000D02*
X153987500Y-95250000D01*
D65*
X152527000Y-103632000D02*
X154432000Y-103632000D01*
D64*
X73660000Y-132080000D02*
X76200000Y-132080000D01*
D63*
X97536000Y-111760000D02*
X96520000Y-111760000D01*
D64*
X105410000Y-81280000D02*
X102870000Y-78740000D01*
D65*
X112340000Y-92000000D02*
X112340000Y-98500000D01*
D64*
X91440000Y-132080000D02*
X93980000Y-132080000D01*
X83820000Y-132080000D02*
X86360000Y-132080000D01*
D63*
X100203000Y-121412000D02*
X98679000Y-119888000D01*
D64*
X35560000Y-82232500D02*
X35560000Y-80010000D01*
X86360000Y-132080000D02*
X88900000Y-132080000D01*
D65*
X145288000Y-42418000D02*
X142240000Y-39370000D01*
D66*
X135890000Y-37465000D02*
X136431511Y-36923489D01*
D65*
X147320000Y-55880000D02*
X145288000Y-55880000D01*
X114617500Y-87630000D02*
X112340000Y-89907500D01*
X136842500Y-43180000D02*
X133667500Y-46355000D01*
D63*
X152400000Y-103505000D02*
X152527000Y-103632000D01*
D65*
X160401000Y-104902000D02*
X162052000Y-103251000D01*
D64*
X45720000Y-132080000D02*
X48260000Y-132080000D01*
D65*
X33520000Y-48077500D02*
X35877500Y-45720000D01*
X107950000Y-43180000D02*
X109160000Y-43180000D01*
X127317500Y-48577500D02*
X127317500Y-54927500D01*
D63*
X174498000Y-57912000D02*
X174498000Y-43688000D01*
X135890000Y-39370000D02*
X142240000Y-39370000D01*
D65*
X35877500Y-45720000D02*
X35877500Y-39052500D01*
X138430000Y-43180000D02*
X136842500Y-43180000D01*
D63*
X106362500Y-67945000D02*
X105775000Y-67945000D01*
D64*
X35560000Y-99589500D02*
X35560000Y-96500000D01*
D65*
X147955000Y-92964000D02*
X148590000Y-93599000D01*
X111760000Y-68580000D02*
X114300000Y-68580000D01*
X175895000Y-100330000D02*
X178360000Y-100330000D01*
D64*
X50800000Y-132080000D02*
X53340000Y-132080000D01*
X109160000Y-81280000D02*
X105410000Y-81280000D01*
D65*
X114617500Y-55880000D02*
X114617500Y-68897500D01*
X120650000Y-43180000D02*
X132715000Y-43180000D01*
D64*
X98107500Y-60960000D02*
X98742500Y-61595000D01*
X98742500Y-61595000D02*
X98742500Y-69850000D01*
D65*
X33520000Y-51360000D02*
X33520000Y-48077500D01*
D66*
X142240000Y-37147500D02*
X142240000Y-37782500D01*
D63*
X160020000Y-72898000D02*
X160020000Y-74930000D01*
D65*
X175895000Y-100330000D02*
X175895000Y-102108000D01*
X169418000Y-103251000D02*
X172339000Y-100330000D01*
D63*
X110703000Y-119864210D02*
X109155210Y-121412000D01*
D64*
X48260000Y-132080000D02*
X50800000Y-132080000D01*
D63*
X110703000Y-117389000D02*
X110703000Y-118979000D01*
X110703000Y-118979000D02*
X110703000Y-119864210D01*
D65*
X135890000Y-40005000D02*
X135890000Y-39370000D01*
X145288000Y-43180000D02*
X145288000Y-55880000D01*
D64*
X37697500Y-83185000D02*
X36512500Y-83185000D01*
D65*
X111760000Y-55880000D02*
X114617500Y-55880000D01*
D66*
X142015989Y-36923489D02*
X142240000Y-37147500D01*
D63*
X105775000Y-67945000D02*
X104505000Y-69215000D01*
D65*
X147320000Y-68580000D02*
X145542000Y-68580000D01*
X114300000Y-68580000D02*
X114617500Y-68897500D01*
D66*
X136431511Y-36923489D02*
X142015989Y-36923489D01*
D64*
X36512500Y-83185000D02*
X35560000Y-82232500D01*
D63*
X128980000Y-104485000D02*
X130460000Y-104485000D01*
D65*
X129540000Y-46355000D02*
X127317500Y-48577500D01*
X142240000Y-39370000D02*
X142240000Y-37782500D01*
X114617500Y-80962500D02*
X114617500Y-87630000D01*
X104457500Y-37465000D02*
X107315000Y-40322500D01*
X133667500Y-46355000D02*
X129540000Y-46355000D01*
D64*
X71120000Y-132080000D02*
X73660000Y-132080000D01*
D63*
X109155210Y-121412000D02*
X100203000Y-121412000D01*
D65*
X146304000Y-92964000D02*
X147955000Y-92964000D01*
D64*
X76200000Y-132080000D02*
X78740000Y-132080000D01*
D65*
X162052000Y-103251000D02*
X169418000Y-103251000D01*
D63*
X156718000Y-69596000D02*
X160020000Y-72898000D01*
D65*
X37465000Y-37465000D02*
X104457500Y-37465000D01*
X154432000Y-103632000D02*
X155702000Y-104902000D01*
D64*
X60960000Y-132080000D02*
X63500000Y-132080000D01*
D65*
X175895000Y-102108000D02*
X176657000Y-102870000D01*
X107315000Y-42545000D02*
X107950000Y-43180000D01*
D64*
X55880000Y-132080000D02*
X58420000Y-132080000D01*
D65*
X114617500Y-68897500D02*
X114617500Y-80962500D01*
D63*
X152400000Y-101600000D02*
X152400000Y-103505000D01*
D64*
X96520000Y-60960000D02*
X98107500Y-60960000D01*
D65*
X145288000Y-43180000D02*
X145288000Y-42418000D01*
D63*
X153987500Y-95250000D02*
X155257500Y-96520000D01*
X111798500Y-116293500D02*
X110703000Y-117389000D01*
D65*
X114300000Y-81280000D02*
X114617500Y-80962500D01*
X132715000Y-43180000D02*
X135890000Y-40005000D01*
D64*
X53340000Y-132080000D02*
X55880000Y-132080000D01*
D65*
X148590000Y-93599000D02*
X148590000Y-102552500D01*
D63*
X174498000Y-43688000D02*
X172720000Y-41910000D01*
D65*
X145288000Y-43180000D02*
X147320000Y-43180000D01*
X176657000Y-102870000D02*
X178360000Y-102870000D01*
X145288000Y-81280000D02*
X145288000Y-91948000D01*
D64*
X88900000Y-132080000D02*
X91440000Y-132080000D01*
D65*
X155702000Y-104902000D02*
X160401000Y-104902000D01*
D63*
X172466000Y-59944000D02*
X174498000Y-57912000D01*
D64*
X81280000Y-132080000D02*
X83820000Y-132080000D01*
D65*
X126365000Y-55880000D02*
X120650000Y-55880000D01*
D64*
X35792500Y-99822000D02*
X35560000Y-99589500D01*
D65*
X145542000Y-68580000D02*
X145288000Y-68326000D01*
D63*
X98679000Y-119888000D02*
X98679000Y-112903000D01*
D64*
X58420000Y-132080000D02*
X60960000Y-132080000D01*
D65*
X35877500Y-39052500D02*
X37465000Y-37465000D01*
X145288000Y-91948000D02*
X146304000Y-92964000D01*
X149669500Y-103632000D02*
X152527000Y-103632000D01*
D63*
X172287500Y-100278500D02*
X172339000Y-100330000D01*
X130460000Y-104485000D02*
X132075000Y-102870000D01*
D64*
X102870000Y-78740000D02*
X96520000Y-78740000D01*
D65*
X145288000Y-68326000D02*
X145288000Y-81280000D01*
D63*
X172720000Y-41910000D02*
X171767500Y-41910000D01*
D65*
X107315000Y-40322500D02*
X107315000Y-42545000D01*
D64*
X63500000Y-132080000D02*
X66040000Y-132080000D01*
X66040000Y-132080000D02*
X68580000Y-132080000D01*
D63*
X156718000Y-59944000D02*
X156718000Y-69596000D01*
X98679000Y-112903000D02*
X97536000Y-111760000D01*
X172287500Y-97830000D02*
X172287500Y-100278500D01*
D65*
X127317500Y-54927500D02*
X126365000Y-55880000D01*
D63*
X111798500Y-114554000D02*
X111798500Y-116293500D01*
D65*
X112340000Y-89907500D02*
X112340000Y-92000000D01*
X148590000Y-102552500D02*
X149669500Y-103632000D01*
X145288000Y-55880000D02*
X145288000Y-68326000D01*
X135890000Y-39370000D02*
X135890000Y-37465000D01*
D64*
X68580000Y-132080000D02*
X71120000Y-132080000D01*
X78740000Y-132080000D02*
X81280000Y-132080000D01*
D65*
X111760000Y-81280000D02*
X114300000Y-81280000D01*
D63*
%TO.N,/RUN*%
X134158980Y-89998600D02*
X117519400Y-89998600D01*
X135845600Y-75803770D02*
X134740800Y-76908570D01*
X134740800Y-89416780D02*
X134158980Y-89998600D01*
X138430000Y-63500000D02*
X136590468Y-63500000D01*
X136590468Y-63500000D02*
X135845600Y-64244868D01*
X116840000Y-98500000D02*
X116840000Y-92000000D01*
X134740800Y-76908570D02*
X134740800Y-89416780D01*
X117519400Y-89998600D02*
X116840000Y-90678000D01*
X135845600Y-64244868D02*
X135845600Y-75803770D01*
X116840000Y-90678000D02*
X116840000Y-92000000D01*
D65*
%TO.N,+12V*%
X34413800Y-134997800D02*
X96304516Y-134997800D01*
X34290000Y-71100000D02*
X30480000Y-74910000D01*
X30480000Y-80010000D02*
X30480000Y-96520000D01*
X30480000Y-96520000D02*
X30480000Y-131064000D01*
D64*
X45720000Y-40640000D02*
X55880000Y-40640000D01*
D65*
X30480000Y-131064000D02*
X34413800Y-134997800D01*
X116462200Y-132210200D02*
X116462200Y-134404515D01*
X178360000Y-127710000D02*
X178360000Y-125730000D01*
D64*
X55880000Y-40640000D02*
X66040000Y-40640000D01*
X76200000Y-40640000D02*
X86360000Y-40640000D01*
D65*
X96304516Y-134997800D02*
X99984316Y-131318000D01*
X99984316Y-131318000D02*
X115570000Y-131318000D01*
X30500000Y-96500000D02*
X30480000Y-96520000D01*
X115570000Y-131318000D02*
X116462200Y-132210200D01*
X180900000Y-125730000D02*
X180900000Y-127075000D01*
X180265000Y-127710000D02*
X178360000Y-127710000D01*
D64*
X66040000Y-40640000D02*
X76200000Y-40640000D01*
D65*
X117055485Y-134997800D02*
X174409516Y-134997800D01*
X33020000Y-80010000D02*
X30480000Y-80010000D01*
X116462200Y-134404515D02*
X117055485Y-134997800D01*
X174409516Y-134997800D02*
X178360000Y-131047316D01*
X30480000Y-74910000D02*
X30480000Y-80010000D01*
X180900000Y-127075000D02*
X180265000Y-127710000D01*
X178360000Y-131047316D02*
X178360000Y-127710000D01*
X33020000Y-96500000D02*
X30500000Y-96500000D01*
D63*
%TO.N,Net-(D2-Pad2)*%
X104140000Y-71755000D02*
X105092500Y-71755000D01*
X105092500Y-71755000D02*
X106362500Y-70485000D01*
%TO.N,/SDA0*%
X107229300Y-71205700D02*
X104775000Y-73660000D01*
X107229300Y-51203200D02*
X107229300Y-71205700D01*
X107632500Y-50800000D02*
X107229300Y-51203200D01*
X179630000Y-58420000D02*
X184048400Y-58420000D01*
X178360000Y-57150000D02*
X179630000Y-58420000D01*
X184708800Y-59080400D02*
X184708800Y-63501200D01*
X104775000Y-73660000D02*
X96520000Y-73660000D01*
X109160000Y-50800000D02*
X107632500Y-50800000D01*
X184708800Y-63501200D02*
X183440000Y-64770000D01*
X184048400Y-58420000D02*
X184708800Y-59080400D01*
X120650000Y-50800000D02*
X123460000Y-50800000D01*
%TO.N,/SCL0*%
X178360000Y-59690000D02*
X179630000Y-60960000D01*
X107632500Y-53657500D02*
X107632500Y-71372032D01*
X179630000Y-60960000D02*
X182170000Y-60960000D01*
X109160000Y-53340000D02*
X107950000Y-53340000D01*
X107632500Y-71372032D02*
X102804532Y-76200000D01*
X102804532Y-76200000D02*
X96520000Y-76200000D01*
X120650000Y-53340000D02*
X123460000Y-53340000D01*
X182170000Y-60960000D02*
X183440000Y-62230000D01*
X107950000Y-53340000D02*
X107632500Y-53657500D01*
D64*
%TO.N,+5VP*%
X98425000Y-127508000D02*
X98425000Y-131445000D01*
X95885000Y-133985000D02*
X43815000Y-133985000D01*
X174625000Y-125095000D02*
X174625000Y-133350000D01*
D65*
X38592000Y-103505000D02*
X41148000Y-103505000D01*
X41148000Y-103505000D02*
X42037000Y-103505000D01*
D64*
X105727500Y-56515000D02*
X105092500Y-55880000D01*
D65*
X42672000Y-48768000D02*
X38100000Y-44196000D01*
D64*
X41275000Y-131445000D02*
X41275000Y-103632000D01*
X178360000Y-123190000D02*
X180900000Y-123190000D01*
X105727500Y-55245000D02*
X105092500Y-55880000D01*
D65*
X42037000Y-103505000D02*
X42672000Y-102870000D01*
D64*
X105092500Y-55880000D02*
X104140000Y-56832500D01*
X176530000Y-123190000D02*
X174625000Y-125095000D01*
X104140000Y-56832500D02*
X104140000Y-58190000D01*
X99314000Y-126619000D02*
X98425000Y-127508000D01*
X105727500Y-58102500D02*
X105727500Y-56515000D01*
X105410000Y-41592500D02*
X102870000Y-39052500D01*
D65*
X42672000Y-102870000D02*
X42672000Y-48768000D01*
D64*
X38100000Y-40640000D02*
X38100000Y-43180000D01*
X105410000Y-43180000D02*
X105410000Y-41592500D01*
X173990000Y-133985000D02*
X117475000Y-133985000D01*
X41275000Y-103632000D02*
X41148000Y-103505000D01*
X98425000Y-131445000D02*
X95885000Y-133985000D01*
X43815000Y-133985000D02*
X41275000Y-131445000D01*
X174625000Y-133350000D02*
X173990000Y-133985000D01*
X116459000Y-126619000D02*
X99314000Y-126619000D01*
X178360000Y-123190000D02*
X176530000Y-123190000D01*
X117475000Y-133985000D02*
X117475000Y-127635000D01*
X39687500Y-39052500D02*
X38100000Y-40640000D01*
X117475000Y-127635000D02*
X116459000Y-126619000D01*
X102870000Y-39052500D02*
X39687500Y-39052500D01*
D65*
X38100000Y-44196000D02*
X38100000Y-43180000D01*
D63*
%TO.N,Net-(Q1-Pad1)*%
X105090000Y-63720000D02*
X105187500Y-63817500D01*
X104457500Y-65405000D02*
X103187500Y-65405000D01*
X105187500Y-64675000D02*
X104457500Y-65405000D01*
X102505000Y-66675000D02*
X102505000Y-69215000D01*
X102505000Y-66087500D02*
X102505000Y-66675000D01*
X105187500Y-63817500D02*
X105187500Y-64675000D01*
X105090000Y-61190000D02*
X105090000Y-63720000D01*
X103187500Y-65405000D02*
X102505000Y-66087500D01*
D64*
%TO.N,+3V3*%
X60960000Y-45720000D02*
X63500000Y-45720000D01*
X73660000Y-45720000D02*
X76200000Y-45720000D01*
X88900000Y-45720000D02*
X91440000Y-45720000D01*
X86360000Y-45720000D02*
X88900000Y-45720000D01*
X91440000Y-45720000D02*
X93980000Y-45720000D01*
X58420000Y-45720000D02*
X60960000Y-45720000D01*
X55880000Y-45720000D02*
X58420000Y-45720000D01*
X63500000Y-45720000D02*
X66040000Y-45720000D01*
X100330000Y-45720000D02*
X93980000Y-45720000D01*
X48260000Y-45720000D02*
X50800000Y-45720000D01*
X78740000Y-45720000D02*
X81280000Y-45720000D01*
X66040000Y-45720000D02*
X68580000Y-45720000D01*
X71120000Y-45720000D02*
X73660000Y-45720000D01*
X68580000Y-45720000D02*
X71120000Y-45720000D01*
X50800000Y-45720000D02*
X53340000Y-45720000D01*
X53340000Y-45720000D02*
X55880000Y-45720000D01*
X83820000Y-45720000D02*
X86360000Y-45720000D01*
X45720000Y-45720000D02*
X48260000Y-45720000D01*
X76200000Y-45720000D02*
X78740000Y-45720000D01*
X81280000Y-45720000D02*
X83820000Y-45720000D01*
%TO.N,/BUSBAR-5*%
X60960000Y-43180000D02*
X55880000Y-43180000D01*
X81280000Y-43180000D02*
X76200000Y-43180000D01*
X96520000Y-43180000D02*
X91440000Y-43180000D01*
X86360000Y-43180000D02*
X81280000Y-43180000D01*
X97790000Y-55880000D02*
X96520000Y-55880000D01*
X98425000Y-41275000D02*
X96520000Y-43180000D01*
X76200000Y-43180000D02*
X71120000Y-43180000D01*
X105410000Y-45720000D02*
X102235000Y-45720000D01*
X100965000Y-50800000D02*
X99695000Y-50800000D01*
X102235000Y-49530000D02*
X100965000Y-50800000D01*
X71120000Y-43180000D02*
X66040000Y-43180000D01*
X102235000Y-49530000D02*
X102235000Y-45720000D01*
X102235000Y-45720000D02*
X102235000Y-41910000D01*
X55880000Y-43180000D02*
X50800000Y-43180000D01*
X91440000Y-43180000D02*
X86360000Y-43180000D01*
X102235000Y-41910000D02*
X101600000Y-41275000D01*
X50800000Y-43180000D02*
X45720000Y-43180000D01*
X98742500Y-51752500D02*
X98742500Y-54927500D01*
X101600000Y-41275000D02*
X98425000Y-41275000D01*
X99695000Y-50800000D02*
X98742500Y-51752500D01*
X98742500Y-54927500D02*
X97790000Y-55880000D01*
X66040000Y-43180000D02*
X60960000Y-43180000D01*
D63*
%TO.N,/IO0*%
X167894000Y-56134000D02*
X165354000Y-58674000D01*
X166370000Y-63500000D02*
X167640000Y-63500000D01*
X165354000Y-62484000D02*
X166370000Y-63500000D01*
X165354000Y-58674000D02*
X165354000Y-62484000D01*
%TO.N,/IO1*%
X161925000Y-56515000D02*
X161290000Y-57150000D01*
X161290000Y-57150000D02*
X161290000Y-63500000D01*
%TO.N,/IO6*%
X135845600Y-61831190D02*
X135845600Y-53511400D01*
X141544600Y-54676600D02*
X141544600Y-94681600D01*
X120650000Y-58420000D02*
X121666000Y-58420000D01*
X121666000Y-58420000D02*
X125939600Y-62693600D01*
X141544600Y-94681600D02*
X142113000Y-95250000D01*
X138938000Y-52070000D02*
X141544600Y-54676600D01*
X125939600Y-62693600D02*
X134983190Y-62693600D01*
X142113000Y-95250000D02*
X143510000Y-95250000D01*
X134983190Y-62693600D02*
X135845600Y-61831190D01*
X137287000Y-52070000D02*
X138938000Y-52070000D01*
X135845600Y-53511400D02*
X137287000Y-52070000D01*
%TO.N,/IO7*%
X125707800Y-63096800D02*
X135150200Y-63096800D01*
X136248800Y-55567657D02*
X137119729Y-54696728D01*
X141141400Y-97199400D02*
X141732000Y-97790000D01*
X120650000Y-60960000D02*
X123571000Y-60960000D01*
X141141400Y-56334657D02*
X141141400Y-97199400D01*
X139503471Y-54696728D02*
X141141400Y-56334657D01*
X137119729Y-54696728D02*
X139503471Y-54696728D01*
X135150200Y-63096800D02*
X136248800Y-61998200D01*
X123571000Y-60960000D02*
X125707800Y-63096800D01*
X136248800Y-61998200D02*
X136248800Y-55567657D01*
X141732000Y-97790000D02*
X143510000Y-97790000D01*
%TO.N,/IO8*%
X140738200Y-58887989D02*
X140738200Y-99082200D01*
X137287000Y-57150000D02*
X139000211Y-57150000D01*
X135382000Y-63500000D02*
X136652000Y-62230000D01*
X141986000Y-100330000D02*
X143510000Y-100330000D01*
X139000211Y-57150000D02*
X140738200Y-58887989D01*
X136652000Y-62230000D02*
X136652000Y-57785000D01*
X136652000Y-57785000D02*
X137287000Y-57150000D01*
X140738200Y-99082200D02*
X141986000Y-100330000D01*
X120650000Y-63500000D02*
X135382000Y-63500000D01*
%TO.N,/IO10*%
X109603000Y-120140000D02*
X109603000Y-118979000D01*
X109347000Y-120396000D02*
X109603000Y-120140000D01*
X104394000Y-117094000D02*
X104394000Y-120015000D01*
X104775000Y-120396000D02*
X109347000Y-120396000D01*
X104394000Y-120015000D02*
X104775000Y-120396000D01*
%TO.N,/IO11*%
X107403000Y-118979000D02*
X107403000Y-117260000D01*
X107403000Y-117260000D02*
X107569000Y-117094000D01*
%TO.N,/IO12*%
X111803000Y-117686000D02*
X111803000Y-118979000D01*
X113157000Y-111633000D02*
X113157000Y-116332000D01*
X112903000Y-111379000D02*
X113157000Y-111633000D01*
X113157000Y-116332000D02*
X111803000Y-117686000D01*
X111125000Y-111379000D02*
X112903000Y-111379000D01*
%TO.N,/IO13*%
X106303000Y-117098000D02*
X106299000Y-117094000D01*
X106303000Y-118979000D02*
X106303000Y-117098000D01*
%TO.N,/IO14*%
X101600000Y-86360000D02*
X96520000Y-86360000D01*
X104140000Y-83820000D02*
X101600000Y-86360000D01*
X109160000Y-83820000D02*
X104140000Y-83820000D01*
%TO.N,/IO15*%
X104140000Y-86360000D02*
X101600000Y-88900000D01*
X109160000Y-86360000D02*
X104140000Y-86360000D01*
X101600000Y-88900000D02*
X96520000Y-88900000D01*
%TO.N,/IO16*%
X134110340Y-98045660D02*
X137160000Y-94996000D01*
X96434780Y-109220000D02*
X98339780Y-109220000D01*
X98339780Y-109220000D02*
X98742500Y-108817280D01*
X98742500Y-108817280D02*
X98742500Y-104876344D01*
X122102936Y-98045660D02*
X134110340Y-98045660D01*
X137668000Y-86360000D02*
X138430000Y-86360000D01*
X137160000Y-86868000D02*
X137668000Y-86360000D01*
X98742500Y-104876344D02*
X100810684Y-102808160D01*
X137160000Y-94996000D02*
X137160000Y-86868000D01*
X100810684Y-102808160D02*
X117340436Y-102808160D01*
X117340436Y-102808160D02*
X122102936Y-98045660D01*
%TO.N,/IO17*%
X137414000Y-83820000D02*
X136756800Y-84477200D01*
X136756800Y-84477200D02*
X136756800Y-94828990D01*
X100643872Y-102405440D02*
X98339780Y-104709532D01*
X117173624Y-102405440D02*
X100643872Y-102405440D01*
X121936124Y-97642940D02*
X117173624Y-102405440D01*
X136756800Y-94828990D02*
X133942850Y-97642940D01*
X98022280Y-106680000D02*
X96434780Y-106680000D01*
X133942850Y-97642940D02*
X121936124Y-97642940D01*
X98339780Y-104709532D02*
X98339780Y-106362500D01*
X98339780Y-106362500D02*
X98022280Y-106680000D01*
X138430000Y-83820000D02*
X137414000Y-83820000D01*
%TO.N,/IO18*%
X98339780Y-104140000D02*
X96434780Y-104140000D01*
X100477060Y-102002720D02*
X98339780Y-104140000D01*
X136353600Y-79546400D02*
X136353600Y-94661980D01*
X138430000Y-78740000D02*
X137160000Y-78740000D01*
X137160000Y-78740000D02*
X136353600Y-79546400D01*
X133775360Y-97240220D02*
X121769312Y-97240220D01*
X121769312Y-97240220D02*
X117006812Y-102002720D01*
X136353600Y-94661980D02*
X133775360Y-97240220D01*
X117006812Y-102002720D02*
X100477060Y-102002720D01*
%TO.N,/IO19*%
X135950400Y-77409600D02*
X135950400Y-94494970D01*
X138430000Y-76200000D02*
X137160000Y-76200000D01*
X137160000Y-76200000D02*
X135950400Y-77409600D01*
X133608350Y-96837020D02*
X121602980Y-96837020D01*
X116840000Y-101600000D02*
X96520000Y-101600000D01*
X121602980Y-96837020D02*
X116840000Y-101600000D01*
X135950400Y-94494970D02*
X133608350Y-96837020D01*
%TO.N,/SO8-2*%
X162242500Y-117427500D02*
X162242500Y-112077500D01*
%TO.N,/SO8-3*%
X160337500Y-117427500D02*
X160337500Y-112077500D01*
%TO.N,/SO8-4*%
X157115000Y-114300000D02*
X157115000Y-112125000D01*
%TO.N,/SO8-6*%
X160020000Y-125095000D02*
X160020000Y-129540000D01*
X162242500Y-123237500D02*
X162242500Y-124460000D01*
X161925000Y-124777500D02*
X160337500Y-124777500D01*
X160337500Y-124777500D02*
X160020000Y-125095000D01*
X162242500Y-124460000D02*
X161925000Y-124777500D01*
X160337500Y-123237500D02*
X160337500Y-124777500D01*
%TO.N,/SO8-7*%
X161290000Y-126447500D02*
X161290000Y-127317500D01*
X161290000Y-127317500D02*
X162560000Y-128587500D01*
X162560000Y-128587500D02*
X162560000Y-129540000D01*
%TO.N,/SO8-8*%
X164782500Y-127635000D02*
X165100000Y-127952500D01*
X163512500Y-127635000D02*
X164782500Y-127635000D01*
X163195000Y-127317500D02*
X163512500Y-127635000D01*
X163195000Y-126447500D02*
X163195000Y-127317500D01*
X165100000Y-127952500D02*
X165100000Y-129540000D01*
%TO.N,/SWDIO*%
X166640000Y-46990000D02*
X165608000Y-46990000D01*
X165608000Y-46990000D02*
X163934800Y-48663200D01*
X163934800Y-48663200D02*
X163934800Y-73555200D01*
X163934800Y-73555200D02*
X162560000Y-74930000D01*
%TO.N,/SWCLK*%
X166640000Y-52070000D02*
X165100000Y-52070000D01*
X164338000Y-74168000D02*
X165100000Y-74930000D01*
X165100000Y-52070000D02*
X164338000Y-52832000D01*
X164338000Y-52832000D02*
X164338000Y-74168000D01*
%TO.N,Net-(R12-Pad1)*%
X162242500Y-121237500D02*
X162242500Y-119427500D01*
%TO.N,Net-(R10-Pad2)*%
X160337500Y-121237500D02*
X160337500Y-119427500D01*
%TO.N,Net-(R11-Pad2)*%
X162821901Y-122237500D02*
X163512500Y-122928099D01*
X163195000Y-124460000D02*
X163195000Y-125647500D01*
X159115000Y-114300000D02*
X159115000Y-121594401D01*
X159758099Y-122237500D02*
X162821901Y-122237500D01*
X163195000Y-125647500D02*
X161290000Y-125647500D01*
X163512500Y-122928099D02*
X163512500Y-124142500D01*
X163512500Y-124142500D02*
X163195000Y-124460000D01*
X159115000Y-121594401D02*
X159758099Y-122237500D01*
%TO.N,/SO16-7*%
X126917500Y-128954769D02*
X126332269Y-129540000D01*
X126332269Y-129540000D02*
X124460000Y-129540000D01*
X126917500Y-128587500D02*
X126917500Y-128954769D01*
%TO.N,/SO16-8*%
X126682500Y-130492500D02*
X126917500Y-130492500D01*
X125095000Y-132080000D02*
X126682500Y-130492500D01*
%TO.N,/SO16-16*%
X141922500Y-121285000D02*
X141922500Y-115570000D01*
X143192500Y-114300000D02*
X144780000Y-114300000D01*
X140652500Y-124142500D02*
X141922500Y-122872500D01*
X136170000Y-124142500D02*
X140652500Y-124142500D01*
X141922500Y-122872500D02*
X141922500Y-121285000D01*
X141922500Y-115570000D02*
X143192500Y-114300000D01*
X135620000Y-121285000D02*
X141922500Y-121285000D01*
%TO.N,Net-(R14-Pad1)*%
X133620000Y-121285000D02*
X131762500Y-121285000D01*
X131445000Y-124142500D02*
X133070000Y-124142500D01*
X127717500Y-127870000D02*
X131445000Y-124142500D01*
X131445000Y-121602500D02*
X131445000Y-124142500D01*
X127717500Y-130492500D02*
X127717500Y-128587500D01*
X127717500Y-128587500D02*
X127717500Y-127870000D01*
X131762500Y-121285000D02*
X131445000Y-121602500D01*
%TO.N,Net-(J38-Pad1)*%
X156527500Y-54610000D02*
X157480000Y-54610000D01*
X157480000Y-54610000D02*
X158750000Y-55880000D01*
X158750000Y-55880000D02*
X158750000Y-63500000D01*
%TO.N,Net-(J39-Pad1)*%
X170180000Y-63500000D02*
X170180000Y-56197500D01*
X170180000Y-56197500D02*
X171767500Y-54610000D01*
D65*
%TO.N,+3.3VP*%
X32067500Y-40640000D02*
X31115000Y-41592500D01*
X33020000Y-38417500D02*
X33020000Y-39687500D01*
X31115000Y-55880000D02*
X33337500Y-58102500D01*
X40957500Y-70294500D02*
X39100000Y-72152000D01*
X33337500Y-58102500D02*
X39370000Y-58102500D01*
X31115000Y-41592500D02*
X31115000Y-55880000D01*
X39100000Y-72152000D02*
X39100000Y-74803000D01*
X39370000Y-58102500D02*
X40957500Y-59690000D01*
X33020000Y-39687500D02*
X32067500Y-40640000D01*
X31115000Y-41592500D02*
X31115000Y-40322500D01*
X40957500Y-59690000D02*
X40957500Y-70294500D01*
X32067500Y-39370000D02*
X32067500Y-40640000D01*
D63*
%TO.N,Net-(R7-Pad1)*%
X168640000Y-52070000D02*
X171767500Y-52070000D01*
%TO.N,Net-(R8-Pad1)*%
X168640000Y-46990000D02*
X171767500Y-46990000D01*
%TO.N,Net-(C7-Pad1)*%
X150362500Y-97340000D02*
X150177500Y-97155000D01*
X150362500Y-101562500D02*
X150325000Y-101600000D01*
X150362500Y-99060000D02*
X150362500Y-101562500D01*
X150362500Y-99060000D02*
X150362500Y-97340000D01*
%TO.N,Net-(C8-Pad1)*%
X149860000Y-91122500D02*
X150346500Y-91609000D01*
X150346500Y-92710000D02*
X150346500Y-95250000D01*
X150346500Y-91609000D02*
X150346500Y-92710000D01*
X147637500Y-91122500D02*
X149860000Y-91122500D01*
D64*
%TO.N,Net-(C2-Pad1)*%
X38100000Y-99589500D02*
X38100000Y-96500000D01*
D65*
X36592000Y-103505000D02*
X35997000Y-104100000D01*
X35997000Y-104100000D02*
X33000000Y-104100000D01*
D64*
X37867500Y-99822000D02*
X38100000Y-99589500D01*
%TO.N,Net-(C4-Pad1)*%
X39772500Y-83185000D02*
X39772500Y-81682500D01*
X39772500Y-81682500D02*
X38100000Y-80010000D01*
D65*
X37100000Y-76597000D02*
X38100000Y-77597000D01*
X37100000Y-74803000D02*
X37100000Y-76597000D01*
X38100000Y-77597000D02*
X38100000Y-80010000D01*
D63*
%TO.N,Net-(R16-Pad1)*%
X160147000Y-101600000D02*
X161127500Y-101600000D01*
X157787500Y-102830000D02*
X158917000Y-102830000D01*
X152400000Y-91122500D02*
X152400000Y-92656500D01*
X158917000Y-102830000D02*
X160147000Y-101600000D01*
X152400000Y-92656500D02*
X152346500Y-92710000D01*
%TO.N,Net-(R17-Pad1)*%
X161127500Y-98425000D02*
X160020000Y-98425000D01*
X155321000Y-99060000D02*
X156551000Y-97830000D01*
X160020000Y-98425000D02*
X159425000Y-97830000D01*
X156551000Y-97830000D02*
X157787500Y-97830000D01*
X159425000Y-97830000D02*
X157787500Y-97830000D01*
X152362500Y-99060000D02*
X155321000Y-99060000D01*
%TD*%
M02*
