%TF.GenerationSoftware,KiCad,Pcbnew,(6.0.7)*%
%TF.CreationDate,2022-11-12T16:25:49+00:00*%
%TF.ProjectId,pico-euro,7069636f-2d65-4757-926f-2e6b69636164,rev?*%
%TF.SameCoordinates,Original*%
%TF.FileFunction,Paste,Bot*%
%TF.FilePolarity,Positive*%
%FSLAX46Y46*%
G04 Gerber Fmt 4.6, Leading zero omitted, Abs format (unit mm)*
G04 Created by KiCad (PCBNEW (6.0.7)) date 2022-11-12 16:25:49*
%MOMM*%
%LPD*%
G01*
G04 APERTURE LIST*
G04 Aperture macros list*
%AMRoundRect*
0 Rectangle with rounded corners*
0 $1 Rounding radius*
0 $2 $3 $4 $5 $6 $7 $8 $9 X,Y pos of 4 corners*
0 Add a 4 corners polygon primitive as box body*
4,1,4,$2,$3,$4,$5,$6,$7,$8,$9,$2,$3,0*
0 Add four circle primitives for the rounded corners*
1,1,$1+$1,$2,$3*
1,1,$1+$1,$4,$5*
1,1,$1+$1,$6,$7*
1,1,$1+$1,$8,$9*
0 Add four rect primitives between the rounded corners*
20,1,$1+$1,$2,$3,$4,$5,0*
20,1,$1+$1,$4,$5,$6,$7,0*
20,1,$1+$1,$6,$7,$8,$9,0*
20,1,$1+$1,$8,$9,$2,$3,0*%
%AMFreePoly0*
4,1,55,0.485956,0.271440,0.497433,0.272452,0.514667,0.262112,0.533779,0.255902,0.540551,0.246582,0.550430,0.240654,0.558295,0.222159,0.570106,0.205902,0.570106,0.194383,0.574615,0.183779,0.570106,0.164194,0.570106,0.144098,0.563333,0.134776,0.560749,0.123551,0.485749,-0.001450,0.476362,-0.009621,0.470711,-0.020711,0.395711,-0.095711,0.381268,-0.103070,0.369721,-0.114443,
0.219721,-0.189443,0.208700,-0.191103,0.199254,-0.197014,0.099254,-0.222014,0.086838,-0.221154,0.075000,-0.225000,-0.075000,-0.225000,-0.090416,-0.219991,-0.106623,-0.219868,-0.256623,-0.169868,-0.265589,-0.163249,-0.276449,-0.160749,-0.401450,-0.085749,-0.409621,-0.076362,-0.420711,-0.070711,-0.495711,0.004289,-0.503070,0.018732,-0.514443,0.030279,-0.564443,0.130279,-0.565588,0.137879,
-0.570106,0.144098,-0.570106,0.167877,-0.573648,0.191393,-0.570106,0.198216,-0.570106,0.205902,-0.556129,0.225140,-0.545172,0.246246,-0.538297,0.249683,-0.533779,0.255902,-0.511163,0.263250,-0.489893,0.273885,-0.482310,0.272625,-0.475000,0.275000,0.475000,0.275000,0.485956,0.271440,0.485956,0.271440,$1*%
%AMFreePoly1*
4,1,58,0.061838,0.221154,0.074254,0.222014,0.174254,0.197014,0.180172,0.193311,0.187139,0.192848,0.312139,0.142848,0.322383,0.134312,0.335000,0.130000,0.435000,0.055000,0.446143,0.039163,0.460749,0.026450,0.535749,-0.098551,0.538333,-0.109776,0.545106,-0.119098,0.545106,-0.139194,0.549615,-0.158779,0.545106,-0.169383,0.545106,-0.180902,0.533295,-0.197159,0.525430,-0.215654,
0.515551,-0.221582,0.508779,-0.230902,0.489667,-0.237112,0.472433,-0.247452,0.460956,-0.246440,0.450000,-0.250000,-0.450000,-0.250000,-0.457310,-0.247625,-0.464893,-0.248885,-0.486163,-0.238250,-0.508779,-0.230902,-0.513297,-0.224683,-0.520172,-0.221246,-0.531129,-0.200140,-0.545106,-0.180902,-0.545106,-0.173216,-0.548648,-0.166393,-0.545106,-0.142877,-0.545106,-0.119098,-0.540588,-0.112879,
-0.539443,-0.105279,-0.514443,-0.055278,-0.509940,-0.050706,-0.508205,-0.044530,-0.458205,0.030470,-0.444817,0.041047,-0.435000,0.055000,-0.335000,0.130000,-0.326284,0.132979,-0.319721,0.139443,-0.219722,0.189443,-0.208700,0.191103,-0.199254,0.197014,-0.099253,0.222014,-0.086837,0.221154,-0.075000,0.225000,0.050000,0.225000,0.061838,0.221154,0.061838,0.221154,$1*%
G04 Aperture macros list end*
%ADD10RoundRect,0.250000X-0.350000X-0.450000X0.350000X-0.450000X0.350000X0.450000X-0.350000X0.450000X0*%
%ADD11RoundRect,0.250000X0.350000X0.450000X-0.350000X0.450000X-0.350000X-0.450000X0.350000X-0.450000X0*%
%ADD12RoundRect,0.120000X-0.280000X-0.749000X0.280000X-0.749000X0.280000X0.749000X-0.280000X0.749000X0*%
%ADD13RoundRect,0.279450X-0.652050X-1.056550X0.652050X-1.056550X0.652050X1.056550X-0.652050X1.056550X0*%
%ADD14RoundRect,0.285750X-1.079750X-0.666750X1.079750X-0.666750X1.079750X0.666750X-1.079750X0.666750X0*%
%ADD15RoundRect,0.252450X-0.589050X-0.644550X0.589050X-0.644550X0.589050X0.644550X-0.589050X0.644550X0*%
%ADD16RoundRect,0.289800X-0.829700X-0.676200X0.829700X-0.676200X0.829700X0.676200X-0.829700X0.676200X0*%
%ADD17RoundRect,0.225000X-0.525000X-0.625000X0.525000X-0.625000X0.525000X0.625000X-0.525000X0.625000X0*%
%ADD18RoundRect,0.250000X-0.400000X-1.075000X0.400000X-1.075000X0.400000X1.075000X-0.400000X1.075000X0*%
%ADD19R,0.800000X1.900000*%
%ADD20RoundRect,0.250000X-0.450000X0.350000X-0.450000X-0.350000X0.450000X-0.350000X0.450000X0.350000X0*%
%ADD21FreePoly0,270.000000*%
%ADD22FreePoly1,270.000000*%
%ADD23FreePoly0,180.000000*%
%ADD24FreePoly1,180.000000*%
%ADD25RoundRect,0.250000X0.337500X0.475000X-0.337500X0.475000X-0.337500X-0.475000X0.337500X-0.475000X0*%
%ADD26RoundRect,0.250000X-0.412500X-1.100000X0.412500X-1.100000X0.412500X1.100000X-0.412500X1.100000X0*%
%ADD27RoundRect,0.250000X-0.337500X-0.475000X0.337500X-0.475000X0.337500X0.475000X-0.337500X0.475000X0*%
G04 APERTURE END LIST*
D10*
%TO.C,R2*%
X123460000Y-50800000D03*
X125460000Y-50800000D03*
%TD*%
%TO.C,R20*%
X37100000Y-74803000D03*
X39100000Y-74803000D03*
%TD*%
D11*
%TO.C,R8*%
X168640000Y-46990000D03*
X166640000Y-46990000D03*
%TD*%
D12*
%TO.C,J40*%
X105203000Y-118979000D03*
X106303000Y-118979000D03*
X107403000Y-118979000D03*
X108503000Y-118979000D03*
X109603000Y-118979000D03*
X110703000Y-118979000D03*
X111803000Y-118979000D03*
X112903000Y-118979000D03*
D13*
X115231500Y-128839000D03*
D14*
X101187500Y-119189500D03*
D15*
X115744500Y-119245000D03*
D16*
X100433500Y-128982000D03*
D17*
X114903000Y-133948000D03*
D12*
X114003000Y-118979000D03*
D17*
X101403000Y-133948000D03*
%TD*%
D10*
%TO.C,R14*%
X133620000Y-121285000D03*
X135620000Y-121285000D03*
%TD*%
D18*
%TO.C,R15*%
X133070000Y-124142500D03*
X136170000Y-124142500D03*
%TD*%
D19*
%TO.C,Q1*%
X105090000Y-61190000D03*
X103190000Y-61190000D03*
X104140000Y-58190000D03*
%TD*%
D10*
%TO.C,R16*%
X161127500Y-101600000D03*
X163127500Y-101600000D03*
%TD*%
%TO.C,R11*%
X157115000Y-114617500D03*
X159115000Y-114617500D03*
%TD*%
D11*
%TO.C,R7*%
X168640000Y-52070000D03*
X166640000Y-52070000D03*
%TD*%
D20*
%TO.C,R13*%
X160337500Y-121237500D03*
X160337500Y-123237500D03*
%TD*%
%TO.C,R10*%
X160337500Y-117427500D03*
X160337500Y-119427500D03*
%TD*%
D21*
%TO.C,S4*%
X126917500Y-130492500D03*
D22*
X127717500Y-130492500D03*
%TD*%
D20*
%TO.C,R12*%
X162242500Y-121237500D03*
X162242500Y-123237500D03*
%TD*%
D11*
%TO.C,R22*%
X105187500Y-63817500D03*
X103187500Y-63817500D03*
%TD*%
%TO.C,R19*%
X152362500Y-99060000D03*
X150362500Y-99060000D03*
%TD*%
D23*
%TO.C,S2*%
X163195000Y-125647500D03*
D24*
X163195000Y-126447500D03*
%TD*%
D11*
%TO.C,R6*%
X104140000Y-71755000D03*
X102140000Y-71755000D03*
%TD*%
D25*
%TO.C,C2*%
X37867500Y-99822000D03*
X35792500Y-99822000D03*
%TD*%
D10*
%TO.C,R3*%
X123460000Y-53340000D03*
X125460000Y-53340000D03*
%TD*%
D25*
%TO.C,C5*%
X39772500Y-83185000D03*
X37697500Y-83185000D03*
%TD*%
D11*
%TO.C,R4*%
X104505000Y-66675000D03*
X102505000Y-66675000D03*
%TD*%
D26*
%TO.C,C6*%
X108673500Y-114554000D03*
X111798500Y-114554000D03*
%TD*%
D21*
%TO.C,S3*%
X126917500Y-128587500D03*
D22*
X127717500Y-128587500D03*
%TD*%
D10*
%TO.C,R21*%
X36592000Y-103505000D03*
X38592000Y-103505000D03*
%TD*%
%TO.C,R17*%
X161127500Y-98425000D03*
X163127500Y-98425000D03*
%TD*%
D27*
%TO.C,C7*%
X150325000Y-101600000D03*
X152400000Y-101600000D03*
%TD*%
D11*
%TO.C,R18*%
X152346500Y-92710000D03*
X150346500Y-92710000D03*
%TD*%
D20*
%TO.C,R9*%
X162242500Y-117427500D03*
X162242500Y-119427500D03*
%TD*%
D27*
%TO.C,C8*%
X150346500Y-95250000D03*
X152421500Y-95250000D03*
%TD*%
D23*
%TO.C,S1*%
X161290000Y-125647500D03*
D24*
X161290000Y-126447500D03*
%TD*%
D11*
%TO.C,R5*%
X104505000Y-69215000D03*
X102505000Y-69215000D03*
%TD*%
M02*
