M48
; DRILL file {KiCad (6.0.7)} date Sat Nov 12 16:25:55 2022
; FORMAT={-:-/ absolute / metric / decimal}
; #@! TF.CreationDate,2022-11-12T16:25:55+00:00
; #@! TF.GenerationSoftware,Kicad,Pcbnew,(6.0.7)
; #@! TF.FileFunction,NonPlated,1,2,NPTH
FMAT,2
METRIC
; #@! TA.AperFunction,NonPlated,NPTH,ComponentDrill
T1C0.900
; #@! TA.AperFunction,NonPlated,NPTH,ComponentDrill
T2C1.000
; #@! TA.AperFunction,NonPlated,NPTH,ComponentDrill
T3C1.500
; #@! TA.AperFunction,NonPlated,NPTH,ComponentDrill
T4C1.800
; #@! TA.AperFunction,NonPlated,NPTH,ComponentDrill
T5C2.700
%
G90
G05
T1
X43.18Y-119.38
X45.72Y-48.26
X45.72Y-50.8
X45.72Y-53.34
X45.72Y-55.88
X45.72Y-58.42
X45.72Y-60.96
X45.72Y-63.5
X45.72Y-66.04
X45.72Y-68.58
X45.72Y-71.12
X45.72Y-73.66
X45.72Y-76.2
X45.72Y-78.74
X45.72Y-81.28
X45.72Y-83.82
X45.72Y-86.36
X45.72Y-88.9
X45.72Y-91.44
X45.72Y-93.98
X45.72Y-96.52
X45.72Y-99.06
X45.72Y-101.6
X45.72Y-104.14
X45.72Y-106.68
X45.72Y-109.22
X45.72Y-111.76
X45.72Y-114.3
X45.72Y-116.84
X45.72Y-119.38
X45.72Y-121.92
X45.72Y-124.46
X45.72Y-127.0
X45.72Y-129.54
X48.26Y-48.26
X48.26Y-50.8
X48.26Y-53.34
X48.26Y-55.88
X48.26Y-58.42
X48.26Y-60.96
X48.26Y-63.5
X48.26Y-66.04
X48.26Y-68.58
X48.26Y-71.12
X48.26Y-73.66
X48.26Y-76.2
X48.26Y-78.74
X48.26Y-81.28
X48.26Y-83.82
X48.26Y-86.36
X48.26Y-88.9
X48.26Y-91.44
X48.26Y-93.98
X48.26Y-96.52
X48.26Y-99.06
X48.26Y-101.6
X48.26Y-104.14
X48.26Y-106.68
X48.26Y-109.22
X48.26Y-111.76
X48.26Y-114.3
X48.26Y-116.84
X48.26Y-119.38
X48.26Y-121.92
X48.26Y-124.46
X48.26Y-127.0
X48.26Y-129.54
X50.8Y-48.26
X50.8Y-50.8
X50.8Y-53.34
X50.8Y-55.88
X50.8Y-58.42
X50.8Y-60.96
X50.8Y-63.5
X50.8Y-66.04
X50.8Y-68.58
X50.8Y-71.12
X50.8Y-73.66
X50.8Y-76.2
X50.8Y-78.74
X50.8Y-81.28
X50.8Y-83.82
X50.8Y-86.36
X50.8Y-88.9
X50.8Y-91.44
X50.8Y-93.98
X50.8Y-96.52
X50.8Y-99.06
X50.8Y-101.6
X50.8Y-104.14
X50.8Y-106.68
X50.8Y-109.22
X50.8Y-111.76
X50.8Y-114.3
X50.8Y-116.84
X50.8Y-119.38
X50.8Y-121.92
X50.8Y-124.46
X50.8Y-127.0
X50.8Y-129.54
X53.34Y-48.26
X53.34Y-50.8
X53.34Y-53.34
X53.34Y-55.88
X53.34Y-58.42
X53.34Y-60.96
X53.34Y-63.5
X53.34Y-66.04
X53.34Y-68.58
X53.34Y-71.12
X53.34Y-73.66
X53.34Y-76.2
X53.34Y-78.74
X53.34Y-81.28
X53.34Y-83.82
X53.34Y-86.36
X53.34Y-88.9
X53.34Y-91.44
X53.34Y-93.98
X53.34Y-96.52
X53.34Y-99.06
X53.34Y-101.6
X53.34Y-104.14
X53.34Y-106.68
X53.34Y-109.22
X53.34Y-111.76
X53.34Y-114.3
X53.34Y-116.84
X53.34Y-119.38
X53.34Y-121.92
X53.34Y-124.46
X53.34Y-127.0
X53.34Y-129.54
X55.88Y-48.26
X55.88Y-50.8
X55.88Y-53.34
X55.88Y-55.88
X55.88Y-58.42
X55.88Y-60.96
X55.88Y-63.5
X55.88Y-66.04
X55.88Y-68.58
X55.88Y-71.12
X55.88Y-73.66
X55.88Y-76.2
X55.88Y-78.74
X55.88Y-81.28
X55.88Y-83.82
X55.88Y-86.36
X55.88Y-88.9
X55.88Y-91.44
X55.88Y-93.98
X55.88Y-96.52
X55.88Y-99.06
X55.88Y-101.6
X55.88Y-104.14
X55.88Y-106.68
X55.88Y-109.22
X55.88Y-111.76
X55.88Y-114.3
X55.88Y-116.84
X55.88Y-119.38
X55.88Y-121.92
X55.88Y-124.46
X55.88Y-127.0
X55.88Y-129.54
X58.42Y-48.26
X58.42Y-50.8
X58.42Y-53.34
X58.42Y-55.88
X58.42Y-58.42
X58.42Y-60.96
X58.42Y-63.5
X58.42Y-66.04
X58.42Y-68.58
X58.42Y-71.12
X58.42Y-73.66
X58.42Y-76.2
X58.42Y-78.74
X58.42Y-81.28
X58.42Y-83.82
X58.42Y-86.36
X58.42Y-88.9
X58.42Y-91.44
X58.42Y-93.98
X58.42Y-96.52
X58.42Y-99.06
X58.42Y-101.6
X58.42Y-104.14
X58.42Y-106.68
X58.42Y-109.22
X58.42Y-111.76
X58.42Y-114.3
X58.42Y-116.84
X58.42Y-119.38
X58.42Y-121.92
X58.42Y-124.46
X58.42Y-127.0
X58.42Y-129.54
X60.96Y-48.26
X60.96Y-50.8
X60.96Y-53.34
X60.96Y-55.88
X60.96Y-58.42
X60.96Y-60.96
X60.96Y-63.5
X60.96Y-66.04
X60.96Y-68.58
X60.96Y-71.12
X60.96Y-73.66
X60.96Y-76.2
X60.96Y-78.74
X60.96Y-81.28
X60.96Y-83.82
X60.96Y-86.36
X60.96Y-88.9
X60.96Y-91.44
X60.96Y-93.98
X60.96Y-96.52
X60.96Y-99.06
X60.96Y-101.6
X60.96Y-104.14
X60.96Y-106.68
X60.96Y-109.22
X60.96Y-111.76
X60.96Y-114.3
X60.96Y-116.84
X60.96Y-119.38
X60.96Y-121.92
X60.96Y-124.46
X60.96Y-127.0
X60.96Y-129.54
X63.5Y-48.26
X63.5Y-50.8
X63.5Y-53.34
X63.5Y-55.88
X63.5Y-58.42
X63.5Y-60.96
X63.5Y-63.5
X63.5Y-66.04
X63.5Y-68.58
X63.5Y-71.12
X63.5Y-73.66
X63.5Y-76.2
X63.5Y-78.74
X63.5Y-81.28
X63.5Y-83.82
X63.5Y-86.36
X63.5Y-88.9
X63.5Y-91.44
X63.5Y-93.98
X63.5Y-96.52
X63.5Y-99.06
X63.5Y-101.6
X63.5Y-104.14
X63.5Y-106.68
X63.5Y-109.22
X63.5Y-111.76
X63.5Y-114.3
X63.5Y-116.84
X63.5Y-119.38
X63.5Y-121.92
X63.5Y-124.46
X63.5Y-127.0
X63.5Y-129.54
X66.04Y-48.26
X66.04Y-50.8
X66.04Y-53.34
X66.04Y-55.88
X66.04Y-58.42
X66.04Y-60.96
X66.04Y-63.5
X66.04Y-66.04
X66.04Y-68.58
X66.04Y-71.12
X66.04Y-73.66
X66.04Y-76.2
X66.04Y-78.74
X66.04Y-81.28
X66.04Y-83.82
X66.04Y-86.36
X66.04Y-88.9
X66.04Y-91.44
X66.04Y-93.98
X66.04Y-96.52
X66.04Y-99.06
X66.04Y-101.6
X66.04Y-104.14
X66.04Y-106.68
X66.04Y-109.22
X66.04Y-111.76
X66.04Y-114.3
X66.04Y-116.84
X66.04Y-119.38
X66.04Y-121.92
X66.04Y-124.46
X66.04Y-127.0
X66.04Y-129.54
X68.58Y-48.26
X68.58Y-50.8
X68.58Y-53.34
X68.58Y-55.88
X68.58Y-58.42
X68.58Y-60.96
X68.58Y-63.5
X68.58Y-66.04
X68.58Y-68.58
X68.58Y-71.12
X68.58Y-73.66
X68.58Y-76.2
X68.58Y-78.74
X68.58Y-81.28
X68.58Y-83.82
X68.58Y-86.36
X68.58Y-88.9
X68.58Y-91.44
X68.58Y-93.98
X68.58Y-96.52
X68.58Y-99.06
X68.58Y-101.6
X68.58Y-104.14
X68.58Y-106.68
X68.58Y-109.22
X68.58Y-111.76
X68.58Y-114.3
X68.58Y-116.84
X68.58Y-119.38
X68.58Y-121.92
X68.58Y-124.46
X68.58Y-127.0
X68.58Y-129.54
X71.12Y-48.26
X71.12Y-50.8
X71.12Y-53.34
X71.12Y-55.88
X71.12Y-58.42
X71.12Y-60.96
X71.12Y-63.5
X71.12Y-66.04
X71.12Y-68.58
X71.12Y-71.12
X71.12Y-73.66
X71.12Y-76.2
X71.12Y-78.74
X71.12Y-81.28
X71.12Y-83.82
X71.12Y-86.36
X71.12Y-88.9
X71.12Y-91.44
X71.12Y-93.98
X71.12Y-96.52
X71.12Y-99.06
X71.12Y-101.6
X71.12Y-104.14
X71.12Y-106.68
X71.12Y-109.22
X71.12Y-111.76
X71.12Y-114.3
X71.12Y-116.84
X71.12Y-119.38
X71.12Y-121.92
X71.12Y-124.46
X71.12Y-127.0
X71.12Y-129.54
X73.66Y-48.26
X73.66Y-50.8
X73.66Y-53.34
X73.66Y-55.88
X73.66Y-58.42
X73.66Y-60.96
X73.66Y-63.5
X73.66Y-66.04
X73.66Y-68.58
X73.66Y-71.12
X73.66Y-73.66
X73.66Y-76.2
X73.66Y-78.74
X73.66Y-81.28
X73.66Y-83.82
X73.66Y-86.36
X73.66Y-88.9
X73.66Y-91.44
X73.66Y-93.98
X73.66Y-96.52
X73.66Y-99.06
X73.66Y-101.6
X73.66Y-104.14
X73.66Y-106.68
X73.66Y-109.22
X73.66Y-111.76
X73.66Y-114.3
X73.66Y-116.84
X73.66Y-119.38
X73.66Y-121.92
X73.66Y-124.46
X73.66Y-127.0
X73.66Y-129.54
X76.2Y-48.26
X76.2Y-50.8
X76.2Y-53.34
X76.2Y-55.88
X76.2Y-58.42
X76.2Y-60.96
X76.2Y-63.5
X76.2Y-66.04
X76.2Y-68.58
X76.2Y-71.12
X76.2Y-73.66
X76.2Y-76.2
X76.2Y-78.74
X76.2Y-81.28
X76.2Y-83.82
X76.2Y-86.36
X76.2Y-88.9
X76.2Y-91.44
X76.2Y-93.98
X76.2Y-96.52
X76.2Y-99.06
X76.2Y-101.6
X76.2Y-104.14
X76.2Y-106.68
X76.2Y-109.22
X76.2Y-111.76
X76.2Y-114.3
X76.2Y-116.84
X76.2Y-119.38
X76.2Y-121.92
X76.2Y-124.46
X76.2Y-127.0
X76.2Y-129.54
X78.74Y-48.26
X78.74Y-50.8
X78.74Y-53.34
X78.74Y-55.88
X78.74Y-58.42
X78.74Y-60.96
X78.74Y-63.5
X78.74Y-66.04
X78.74Y-68.58
X78.74Y-71.12
X78.74Y-73.66
X78.74Y-76.2
X78.74Y-78.74
X78.74Y-81.28
X78.74Y-83.82
X78.74Y-86.36
X78.74Y-88.9
X78.74Y-91.44
X78.74Y-93.98
X78.74Y-96.52
X78.74Y-99.06
X78.74Y-101.6
X78.74Y-104.14
X78.74Y-106.68
X78.74Y-109.22
X78.74Y-111.76
X78.74Y-114.3
X78.74Y-116.84
X78.74Y-119.38
X78.74Y-121.92
X78.74Y-124.46
X78.74Y-127.0
X78.74Y-129.54
X81.28Y-48.26
X81.28Y-50.8
X81.28Y-53.34
X81.28Y-55.88
X81.28Y-58.42
X81.28Y-60.96
X81.28Y-63.5
X81.28Y-66.04
X81.28Y-68.58
X81.28Y-71.12
X81.28Y-73.66
X81.28Y-76.2
X81.28Y-78.74
X81.28Y-81.28
X81.28Y-83.82
X81.28Y-86.36
X81.28Y-88.9
X81.28Y-91.44
X81.28Y-93.98
X81.28Y-96.52
X81.28Y-99.06
X81.28Y-101.6
X81.28Y-104.14
X81.28Y-106.68
X81.28Y-109.22
X81.28Y-111.76
X81.28Y-114.3
X81.28Y-116.84
X81.28Y-119.38
X81.28Y-121.92
X81.28Y-124.46
X81.28Y-127.0
X81.28Y-129.54
X83.82Y-48.26
X83.82Y-50.8
X83.82Y-53.34
X83.82Y-55.88
X83.82Y-58.42
X83.82Y-60.96
X83.82Y-63.5
X83.82Y-66.04
X83.82Y-68.58
X83.82Y-71.12
X83.82Y-73.66
X83.82Y-76.2
X83.82Y-78.74
X83.82Y-81.28
X83.82Y-83.82
X83.82Y-86.36
X83.82Y-88.9
X83.82Y-91.44
X83.82Y-93.98
X83.82Y-96.52
X83.82Y-99.06
X83.82Y-101.6
X83.82Y-104.14
X83.82Y-106.68
X83.82Y-109.22
X83.82Y-111.76
X83.82Y-114.3
X83.82Y-116.84
X83.82Y-119.38
X83.82Y-121.92
X83.82Y-124.46
X83.82Y-127.0
X83.82Y-129.54
X86.36Y-48.26
X86.36Y-50.8
X86.36Y-53.34
X86.36Y-55.88
X86.36Y-58.42
X86.36Y-60.96
X86.36Y-63.5
X86.36Y-66.04
X86.36Y-68.58
X86.36Y-71.12
X86.36Y-73.66
X86.36Y-76.2
X86.36Y-78.74
X86.36Y-81.28
X86.36Y-83.82
X86.36Y-86.36
X86.36Y-88.9
X86.36Y-91.44
X86.36Y-93.98
X86.36Y-96.52
X86.36Y-99.06
X86.36Y-101.6
X86.36Y-104.14
X86.36Y-106.68
X86.36Y-109.22
X86.36Y-111.76
X86.36Y-114.3
X86.36Y-116.84
X86.36Y-119.38
X86.36Y-121.92
X86.36Y-124.46
X86.36Y-127.0
X86.36Y-129.54
X88.9Y-48.26
X88.9Y-50.8
X88.9Y-53.34
X88.9Y-55.88
X88.9Y-58.42
X88.9Y-60.96
X88.9Y-63.5
X88.9Y-66.04
X88.9Y-68.58
X88.9Y-71.12
X88.9Y-73.66
X88.9Y-76.2
X88.9Y-78.74
X88.9Y-81.28
X88.9Y-83.82
X88.9Y-86.36
X88.9Y-88.9
X88.9Y-91.44
X88.9Y-93.98
X88.9Y-96.52
X88.9Y-99.06
X88.9Y-101.6
X88.9Y-104.14
X88.9Y-106.68
X88.9Y-109.22
X88.9Y-111.76
X88.9Y-114.3
X88.9Y-116.84
X88.9Y-119.38
X88.9Y-121.92
X88.9Y-124.46
X88.9Y-127.0
X88.9Y-129.54
X91.44Y-48.26
X91.44Y-50.8
X91.44Y-53.34
X91.44Y-55.88
X91.44Y-58.42
X91.44Y-60.96
X91.44Y-63.5
X91.44Y-66.04
X91.44Y-68.58
X91.44Y-71.12
X91.44Y-73.66
X91.44Y-76.2
X91.44Y-78.74
X91.44Y-81.28
X91.44Y-83.82
X91.44Y-86.36
X91.44Y-88.9
X91.44Y-91.44
X91.44Y-93.98
X91.44Y-96.52
X91.44Y-99.06
X91.44Y-101.6
X91.44Y-104.14
X91.44Y-106.68
X91.44Y-109.22
X91.44Y-111.76
X91.44Y-114.3
X91.44Y-116.84
X91.44Y-119.38
X91.44Y-121.92
X91.44Y-124.46
X91.44Y-127.0
X91.44Y-129.54
X93.98Y-48.26
X93.98Y-50.8
X93.98Y-53.34
X93.98Y-55.88
X93.98Y-58.42
X93.98Y-60.96
X93.98Y-63.5
X93.98Y-66.04
X93.98Y-68.58
X93.98Y-71.12
X93.98Y-73.66
X93.98Y-76.2
X93.98Y-78.74
X93.98Y-81.28
X93.98Y-83.82
X93.98Y-86.36
X93.98Y-88.9
X93.98Y-91.44
X93.98Y-93.98
X93.98Y-96.52
X93.98Y-99.06
X93.98Y-101.6
X93.98Y-104.14
X93.98Y-106.68
X93.98Y-109.22
X93.98Y-111.76
X93.98Y-114.3
X93.98Y-116.84
X93.98Y-119.38
X93.98Y-121.92
X93.98Y-124.46
X93.98Y-127.0
X93.98Y-129.54
X96.52Y-63.5
X96.52Y-68.58
X96.52Y-71.12
X96.52Y-81.28
X96.52Y-83.82
X96.52Y-93.98
X96.52Y-99.06
X96.52Y-114.3
X119.38Y-114.3
X119.38Y-116.84
X119.38Y-119.38
X119.38Y-121.92
X119.38Y-124.46
X119.38Y-127.0
X119.38Y-129.54
X119.38Y-132.08
X121.92Y-111.76
X121.92Y-114.3
X121.92Y-116.84
X121.92Y-119.38
X121.92Y-121.92
X121.92Y-124.46
X121.92Y-127.0
X121.92Y-129.54
X121.92Y-132.08
X124.46Y-111.76
X127.0Y-111.76
X129.54Y-109.22
X129.54Y-111.76
X129.54Y-114.3
X129.54Y-116.84
X129.54Y-129.54
X129.54Y-132.08
X132.08Y-109.22
X132.08Y-111.76
X132.08Y-114.3
X132.08Y-116.84
X132.08Y-129.54
X132.08Y-132.08
X134.62Y-109.22
X134.62Y-111.76
X134.62Y-114.3
X134.62Y-116.84
X134.62Y-129.54
X134.62Y-132.08
X137.16Y-106.68
X137.16Y-109.22
X137.16Y-111.76
X137.16Y-114.3
X137.16Y-116.84
X137.16Y-129.54
X137.16Y-132.08
X139.7Y-106.68
X139.7Y-109.22
X139.7Y-111.76
X139.7Y-114.3
X139.7Y-116.84
X139.7Y-129.54
X139.7Y-132.08
X142.24Y-106.68
X142.24Y-109.22
X142.24Y-111.76
X144.78Y-106.68
X144.78Y-109.22
X144.78Y-111.76
X147.32Y-106.68
X147.32Y-109.22
X147.32Y-111.76
X147.32Y-114.3
X147.32Y-116.84
X147.32Y-119.38
X147.32Y-121.92
X147.32Y-124.46
X147.32Y-127.0
X147.32Y-129.54
X147.32Y-132.08
X149.86Y-106.68
X149.86Y-109.22
X149.86Y-111.76
X149.86Y-114.3
X149.86Y-116.84
X149.86Y-119.38
X149.86Y-121.92
X149.86Y-124.46
X149.86Y-127.0
X149.86Y-129.54
X149.86Y-132.08
X152.4Y-106.68
X152.4Y-109.22
X152.4Y-111.76
X152.4Y-114.3
X152.4Y-116.84
X152.4Y-119.38
X152.4Y-121.92
X152.4Y-124.46
X152.4Y-127.0
X152.4Y-129.54
X152.4Y-132.08
X154.94Y-109.22
X154.94Y-111.76
X154.94Y-114.3
X154.94Y-116.84
X154.94Y-119.38
X154.94Y-121.92
X154.94Y-124.46
X154.94Y-127.0
X154.94Y-129.54
X154.94Y-132.08
X157.48Y-109.22
X157.48Y-116.84
X157.48Y-119.38
X157.48Y-121.92
X157.48Y-124.46
X157.48Y-132.08
X160.02Y-109.22
X160.02Y-132.08
X162.56Y-109.22
X162.56Y-132.08
X165.1Y-109.22
X165.1Y-116.84
X165.1Y-119.38
X165.1Y-121.92
X165.1Y-124.46
X165.1Y-132.08
X167.64Y-109.22
X167.64Y-111.76
X167.64Y-114.3
X167.64Y-116.84
X167.64Y-119.38
X167.64Y-121.92
X167.64Y-124.46
X167.64Y-127.0
X167.64Y-129.54
X167.64Y-132.08
T2
X104.353Y-129.648
X112.333Y-129.648
T3
X127.115Y-41.26
X131.965Y-41.26
T4
X126.815Y-38.23
X132.265Y-38.23
T5
X185.98Y-41.91
X185.98Y-130.81
T0
M30
