%TF.GenerationSoftware,KiCad,Pcbnew,(6.0.7)*%
%TF.CreationDate,2022-11-12T16:25:49+00:00*%
%TF.ProjectId,pico-euro,7069636f-2d65-4757-926f-2e6b69636164,rev?*%
%TF.SameCoordinates,Original*%
%TF.FileFunction,Soldermask,Top*%
%TF.FilePolarity,Negative*%
%FSLAX46Y46*%
G04 Gerber Fmt 4.6, Leading zero omitted, Abs format (unit mm)*
G04 Created by KiCad (PCBNEW (6.0.7)) date 2022-11-12 16:25:49*
%MOMM*%
%LPD*%
G01*
G04 APERTURE LIST*
G04 Aperture macros list*
%AMRoundRect*
0 Rectangle with rounded corners*
0 $1 Rounding radius*
0 $2 $3 $4 $5 $6 $7 $8 $9 X,Y pos of 4 corners*
0 Add a 4 corners polygon primitive as box body*
4,1,4,$2,$3,$4,$5,$6,$7,$8,$9,$2,$3,0*
0 Add four circle primitives for the rounded corners*
1,1,$1+$1,$2,$3*
1,1,$1+$1,$4,$5*
1,1,$1+$1,$6,$7*
1,1,$1+$1,$8,$9*
0 Add four rect primitives between the rounded corners*
20,1,$1+$1,$2,$3,$4,$5,0*
20,1,$1+$1,$4,$5,$6,$7,0*
20,1,$1+$1,$6,$7,$8,$9,0*
20,1,$1+$1,$8,$9,$2,$3,0*%
%AMFreePoly0*
4,1,45,1.912603,1.631106,1.928902,1.631106,1.941342,1.622068,1.956012,1.617454,1.965717,1.604359,1.978902,1.594779,1.983654,1.580154,1.992810,1.567799,1.992964,1.551500,1.998000,1.536000,1.998000,-1.500000,1.993154,-1.514916,1.993203,-1.530602,1.983844,-1.543570,1.978902,-1.558779,1.966213,-1.567998,1.957034,-1.580716,1.941840,-1.585706,1.928902,-1.595106,1.913217,-1.595106,
1.898315,-1.600000,-1.911685,-1.612000,-1.926910,-1.607106,-1.942902,-1.607106,-1.955591,-1.597887,-1.970524,-1.593087,-1.979965,-1.580179,-1.992902,-1.570779,-1.997749,-1.555861,-2.007008,-1.543201,-2.007058,-1.527209,-2.012000,-1.512000,-2.012000,1.500000,-2.007249,1.514623,-2.007394,1.530002,-1.997938,1.543279,-1.992902,1.558779,-1.980462,1.567817,-1.971541,1.580343,-1.956088,1.585526,
-1.942902,1.595106,-1.927525,1.595106,-1.912945,1.599996,1.897055,1.635996,1.912603,1.631106,1.912603,1.631106,$1*%
%AMFreePoly1*
4,1,45,1.898315,1.600000,1.913217,1.595106,1.928902,1.595106,1.941840,1.585706,1.957034,1.580716,1.966213,1.567998,1.978902,1.558779,1.983844,1.543570,1.993203,1.530602,1.993154,1.514916,1.998000,1.500000,1.998000,-1.536000,1.992964,-1.551500,1.992810,-1.567799,1.983654,-1.580154,1.978902,-1.594779,1.965717,-1.604359,1.956012,-1.617454,1.941342,-1.622068,1.928902,-1.631106,
1.912603,-1.631106,1.897055,-1.635996,-1.912945,-1.599996,-1.927525,-1.595106,-1.942902,-1.595106,-1.956088,-1.585526,-1.971541,-1.580343,-1.980462,-1.567817,-1.992902,-1.558779,-1.997938,-1.543279,-2.007394,-1.530002,-2.007249,-1.514623,-2.012000,-1.500000,-2.012000,1.512000,-2.007058,1.527209,-2.007008,1.543201,-1.997749,1.555861,-1.992902,1.570779,-1.979965,1.580179,-1.970524,1.593087,
-1.955591,1.597887,-1.942902,1.607106,-1.926910,1.607106,-1.911685,1.612000,1.898315,1.600000,1.898315,1.600000,$1*%
G04 Aperture macros list end*
%ADD10C,0.350000*%
%ADD11O,1.700000X1.700000*%
%ADD12R,1.905000X2.000000*%
%ADD13O,1.905000X2.000000*%
%ADD14C,0.900000*%
%ADD15RoundRect,0.180000X-0.820000X0.720000X-0.820000X-0.720000X0.820000X-0.720000X0.820000X0.720000X0*%
%ADD16RoundRect,0.200000X-0.800000X-0.800000X0.800000X-0.800000X0.800000X0.800000X-0.800000X0.800000X0*%
%ADD17RoundRect,0.200000X0.800000X-0.800000X0.800000X0.800000X-0.800000X0.800000X-0.800000X-0.800000X0*%
%ADD18RoundRect,0.200000X0.800000X0.800000X-0.800000X0.800000X-0.800000X-0.800000X0.800000X-0.800000X0*%
%ADD19R,0.600000X4.500000*%
%ADD20R,1.700000X1.700000*%
%ADD21RoundRect,0.250000X-0.625000X0.350000X-0.625000X-0.350000X0.625000X-0.350000X0.625000X0.350000X0*%
%ADD22O,1.750000X1.200000*%
%ADD23O,2.500000X1.600000*%
%ADD24R,2.000000X2.000000*%
%ADD25C,2.000000*%
%ADD26FreePoly0,0.000000*%
%ADD27FreePoly1,0.000000*%
%ADD28O,2.000000X1.800000*%
%ADD29C,2.700000*%
%ADD30C,1.700000*%
%ADD31RoundRect,0.220000X0.880000X0.880000X-0.880000X0.880000X-0.880000X-0.880000X0.880000X-0.880000X0*%
%ADD32O,2.400000X5.000000*%
%ADD33O,4.500000X2.000000*%
%ADD34O,2.400000X4.600000*%
%ADD35RoundRect,0.250000X-0.350000X-0.450000X0.350000X-0.450000X0.350000X0.450000X-0.350000X0.450000X0*%
%ADD36RoundRect,0.180000X0.820000X-0.720000X0.820000X0.720000X-0.820000X0.720000X-0.820000X-0.720000X0*%
%ADD37R,2.000000X1.580000*%
%ADD38C,1.600000*%
%ADD39C,2.800000*%
%ADD40R,2.400000X2.400000*%
%ADD41C,2.400000*%
%ADD42R,1.800000X1.800000*%
%ADD43C,1.800000*%
%ADD44RoundRect,0.200000X-0.800000X0.800000X-0.800000X-0.800000X0.800000X-0.800000X0.800000X0.800000X0*%
%ADD45R,1.700000X3.500000*%
%ADD46R,3.500000X1.700000*%
%ADD47O,1.800000X1.800000*%
%ADD48O,1.500000X1.500000*%
%ADD49R,4.500000X0.600000*%
%ADD50C,1.000000*%
G04 APERTURE END LIST*
D10*
X129974285Y-135253333D02*
X129974285Y-133853333D01*
X130402857Y-133853333D01*
X130660000Y-133920000D01*
X130831428Y-134053333D01*
X130917142Y-134186666D01*
X131002857Y-134453333D01*
X131002857Y-134653333D01*
X130917142Y-134920000D01*
X130831428Y-135053333D01*
X130660000Y-135186666D01*
X130402857Y-135253333D01*
X129974285Y-135253333D01*
X131774285Y-134520000D02*
X132374285Y-134520000D01*
X132631428Y-135253333D02*
X131774285Y-135253333D01*
X131774285Y-133853333D01*
X132631428Y-133853333D01*
X133145714Y-133853333D02*
X133745714Y-135253333D01*
X134345714Y-133853333D01*
X134945714Y-134520000D02*
X135545714Y-134520000D01*
X135802857Y-135253333D02*
X134945714Y-135253333D01*
X134945714Y-133853333D01*
X135802857Y-133853333D01*
X137431428Y-135253333D02*
X136574285Y-135253333D01*
X136574285Y-133853333D01*
X138374285Y-133853333D02*
X138717142Y-133853333D01*
X138888571Y-133920000D01*
X139060000Y-134053333D01*
X139145714Y-134320000D01*
X139145714Y-134786666D01*
X139060000Y-135053333D01*
X138888571Y-135186666D01*
X138717142Y-135253333D01*
X138374285Y-135253333D01*
X138202857Y-135186666D01*
X138031428Y-135053333D01*
X137945714Y-134786666D01*
X137945714Y-134320000D01*
X138031428Y-134053333D01*
X138202857Y-133920000D01*
X138374285Y-133853333D01*
X139917142Y-135253333D02*
X139917142Y-133853333D01*
X140602857Y-133853333D01*
X140774285Y-133920000D01*
X140860000Y-133986666D01*
X140945714Y-134120000D01*
X140945714Y-134320000D01*
X140860000Y-134453333D01*
X140774285Y-134520000D01*
X140602857Y-134586666D01*
X139917142Y-134586666D01*
X141717142Y-135253333D02*
X141717142Y-133853333D01*
X142317142Y-134853333D01*
X142917142Y-133853333D01*
X142917142Y-135253333D01*
X143774285Y-134520000D02*
X144374285Y-134520000D01*
X144631428Y-135253333D02*
X143774285Y-135253333D01*
X143774285Y-133853333D01*
X144631428Y-133853333D01*
X145402857Y-135253333D02*
X145402857Y-133853333D01*
X146431428Y-135253333D01*
X146431428Y-133853333D01*
X147031428Y-133853333D02*
X148060000Y-133853333D01*
X147545714Y-135253333D02*
X147545714Y-133853333D01*
X150631428Y-134520000D02*
X150888571Y-134586666D01*
X150974285Y-134653333D01*
X151060000Y-134786666D01*
X151060000Y-134986666D01*
X150974285Y-135120000D01*
X150888571Y-135186666D01*
X150717142Y-135253333D01*
X150031428Y-135253333D01*
X150031428Y-133853333D01*
X150631428Y-133853333D01*
X150802857Y-133920000D01*
X150888571Y-133986666D01*
X150974285Y-134120000D01*
X150974285Y-134253333D01*
X150888571Y-134386666D01*
X150802857Y-134453333D01*
X150631428Y-134520000D01*
X150031428Y-134520000D01*
X152174285Y-133853333D02*
X152517142Y-133853333D01*
X152688571Y-133920000D01*
X152860000Y-134053333D01*
X152945714Y-134320000D01*
X152945714Y-134786666D01*
X152860000Y-135053333D01*
X152688571Y-135186666D01*
X152517142Y-135253333D01*
X152174285Y-135253333D01*
X152002857Y-135186666D01*
X151831428Y-135053333D01*
X151745714Y-134786666D01*
X151745714Y-134320000D01*
X151831428Y-134053333D01*
X152002857Y-133920000D01*
X152174285Y-133853333D01*
X153631428Y-134853333D02*
X154488571Y-134853333D01*
X153460000Y-135253333D02*
X154060000Y-133853333D01*
X154660000Y-135253333D01*
X156288571Y-135253333D02*
X155688571Y-134586666D01*
X155260000Y-135253333D02*
X155260000Y-133853333D01*
X155945714Y-133853333D01*
X156117142Y-133920000D01*
X156202857Y-133986666D01*
X156288571Y-134120000D01*
X156288571Y-134320000D01*
X156202857Y-134453333D01*
X156117142Y-134520000D01*
X155945714Y-134586666D01*
X155260000Y-134586666D01*
X157060000Y-135253333D02*
X157060000Y-133853333D01*
X157488571Y-133853333D01*
X157745714Y-133920000D01*
X157917142Y-134053333D01*
X158002857Y-134186666D01*
X158088571Y-134453333D01*
X158088571Y-134653333D01*
X158002857Y-134920000D01*
X157917142Y-135053333D01*
X157745714Y-135186666D01*
X157488571Y-135253333D01*
X157060000Y-135253333D01*
X161260000Y-135253333D02*
X160660000Y-134586666D01*
X160231428Y-135253333D02*
X160231428Y-133853333D01*
X160917142Y-133853333D01*
X161088571Y-133920000D01*
X161174285Y-133986666D01*
X161260000Y-134120000D01*
X161260000Y-134320000D01*
X161174285Y-134453333D01*
X161088571Y-134520000D01*
X160917142Y-134586666D01*
X160231428Y-134586666D01*
X162717142Y-135186666D02*
X162545714Y-135253333D01*
X162202857Y-135253333D01*
X162031428Y-135186666D01*
X161945714Y-135053333D01*
X161945714Y-134520000D01*
X162031428Y-134386666D01*
X162202857Y-134320000D01*
X162545714Y-134320000D01*
X162717142Y-134386666D01*
X162802857Y-134520000D01*
X162802857Y-134653333D01*
X161945714Y-134786666D01*
X163402857Y-134320000D02*
X163831428Y-135253333D01*
X164260000Y-134320000D01*
X166231428Y-133986666D02*
X166317142Y-133920000D01*
X166488571Y-133853333D01*
X166917142Y-133853333D01*
X167088571Y-133920000D01*
X167174285Y-133986666D01*
X167260000Y-134120000D01*
X167260000Y-134253333D01*
X167174285Y-134453333D01*
X166145714Y-135253333D01*
X167260000Y-135253333D01*
X168031428Y-135120000D02*
X168117142Y-135186666D01*
X168031428Y-135253333D01*
X167945714Y-135186666D01*
X168031428Y-135120000D01*
X168031428Y-135253333D01*
X168802857Y-133986666D02*
X168888571Y-133920000D01*
X169060000Y-133853333D01*
X169488571Y-133853333D01*
X169660000Y-133920000D01*
X169745714Y-133986666D01*
X169831428Y-134120000D01*
X169831428Y-134253333D01*
X169745714Y-134453333D01*
X168717142Y-135253333D01*
X169831428Y-135253333D01*
X53401428Y-135253333D02*
X53401428Y-133853333D01*
X54353809Y-133853333D01*
X54591904Y-133920000D01*
X54710952Y-133986666D01*
X54830000Y-134120000D01*
X54830000Y-134320000D01*
X54710952Y-134453333D01*
X54591904Y-134520000D01*
X54353809Y-134586666D01*
X53401428Y-134586666D01*
X55901428Y-135253333D02*
X55901428Y-133853333D01*
X58520476Y-135120000D02*
X58401428Y-135186666D01*
X58044285Y-135253333D01*
X57806190Y-135253333D01*
X57449047Y-135186666D01*
X57210952Y-135053333D01*
X57091904Y-134920000D01*
X56972857Y-134653333D01*
X56972857Y-134453333D01*
X57091904Y-134186666D01*
X57210952Y-134053333D01*
X57449047Y-133920000D01*
X57806190Y-133853333D01*
X58044285Y-133853333D01*
X58401428Y-133920000D01*
X58520476Y-133986666D01*
X60068095Y-133853333D02*
X60544285Y-133853333D01*
X60782380Y-133920000D01*
X61020476Y-134053333D01*
X61139523Y-134320000D01*
X61139523Y-134786666D01*
X61020476Y-135053333D01*
X60782380Y-135186666D01*
X60544285Y-135253333D01*
X60068095Y-135253333D01*
X59830000Y-135186666D01*
X59591904Y-135053333D01*
X59472857Y-134786666D01*
X59472857Y-134320000D01*
X59591904Y-134053333D01*
X59830000Y-133920000D01*
X60068095Y-133853333D01*
X62210952Y-134720000D02*
X64115714Y-134720000D01*
X65306190Y-134520000D02*
X66139523Y-134520000D01*
X66496666Y-135253333D02*
X65306190Y-135253333D01*
X65306190Y-133853333D01*
X66496666Y-133853333D01*
X67568095Y-133853333D02*
X67568095Y-134986666D01*
X67687142Y-135120000D01*
X67806190Y-135186666D01*
X68044285Y-135253333D01*
X68520476Y-135253333D01*
X68758571Y-135186666D01*
X68877619Y-135120000D01*
X68996666Y-134986666D01*
X68996666Y-133853333D01*
X71615714Y-135253333D02*
X70782380Y-134586666D01*
X70187142Y-135253333D02*
X70187142Y-133853333D01*
X71139523Y-133853333D01*
X71377619Y-133920000D01*
X71496666Y-133986666D01*
X71615714Y-134120000D01*
X71615714Y-134320000D01*
X71496666Y-134453333D01*
X71377619Y-134520000D01*
X71139523Y-134586666D01*
X70187142Y-134586666D01*
X73163333Y-133853333D02*
X73639523Y-133853333D01*
X73877619Y-133920000D01*
X74115714Y-134053333D01*
X74234761Y-134320000D01*
X74234761Y-134786666D01*
X74115714Y-135053333D01*
X73877619Y-135186666D01*
X73639523Y-135253333D01*
X73163333Y-135253333D01*
X72925238Y-135186666D01*
X72687142Y-135053333D01*
X72568095Y-134786666D01*
X72568095Y-134320000D01*
X72687142Y-134053333D01*
X72925238Y-133920000D01*
X73163333Y-133853333D01*
X76734761Y-135120000D02*
X76615714Y-135186666D01*
X76258571Y-135253333D01*
X76020476Y-135253333D01*
X75663333Y-135186666D01*
X75425238Y-135053333D01*
X75306190Y-134920000D01*
X75187142Y-134653333D01*
X75187142Y-134453333D01*
X75306190Y-134186666D01*
X75425238Y-134053333D01*
X75663333Y-133920000D01*
X76020476Y-133853333D01*
X76258571Y-133853333D01*
X76615714Y-133920000D01*
X76734761Y-133986666D01*
X77687142Y-134853333D02*
X78877619Y-134853333D01*
X77449047Y-135253333D02*
X78282380Y-133853333D01*
X79115714Y-135253333D01*
X81377619Y-135253333D02*
X80544285Y-134586666D01*
X79949047Y-135253333D02*
X79949047Y-133853333D01*
X80901428Y-133853333D01*
X81139523Y-133920000D01*
X81258571Y-133986666D01*
X81377619Y-134120000D01*
X81377619Y-134320000D01*
X81258571Y-134453333D01*
X81139523Y-134520000D01*
X80901428Y-134586666D01*
X79949047Y-134586666D01*
X82449047Y-135253333D02*
X82449047Y-133853333D01*
X83044285Y-133853333D01*
X83401428Y-133920000D01*
X83639523Y-134053333D01*
X83758571Y-134186666D01*
X83877619Y-134453333D01*
X83877619Y-134653333D01*
X83758571Y-134920000D01*
X83639523Y-135053333D01*
X83401428Y-135186666D01*
X83044285Y-135253333D01*
X82449047Y-135253333D01*
D11*
%TO.C,J2*%
X109160000Y-38100000D03*
X111760000Y-38100000D03*
X109160000Y-40640000D03*
X111760000Y-40640000D03*
X111760000Y-43180000D03*
X109160000Y-43180000D03*
X111760000Y-45720000D03*
X109160000Y-45720000D03*
X111760000Y-48260000D03*
X109160000Y-48260000D03*
X109160000Y-50800000D03*
X111760000Y-50800000D03*
X111760000Y-53340000D03*
X109160000Y-53340000D03*
X111760000Y-55880000D03*
X109160000Y-55880000D03*
X111760000Y-58420000D03*
X109160000Y-58420000D03*
X109160000Y-60960000D03*
X111760000Y-60960000D03*
X109160000Y-63500000D03*
X111760000Y-63500000D03*
X109160000Y-66040000D03*
X111760000Y-66040000D03*
X111760000Y-68580000D03*
X109160000Y-68580000D03*
X109160000Y-71120000D03*
X111760000Y-71120000D03*
X109160000Y-73660000D03*
X111760000Y-73660000D03*
X111760000Y-76200000D03*
X109160000Y-76200000D03*
X109160000Y-78740000D03*
X111760000Y-78740000D03*
X109160000Y-81280000D03*
X111760000Y-81280000D03*
X111760000Y-83820000D03*
X109160000Y-83820000D03*
X111760000Y-86360000D03*
X109160000Y-86360000D03*
%TD*%
D12*
%TO.C,U4*%
X33020000Y-80010000D03*
D13*
X35560000Y-80010000D03*
X38100000Y-80010000D03*
%TD*%
D14*
%TO.C,H37*%
X96520000Y-63500000D03*
%TD*%
%TO.C,H43*%
X96520000Y-81280000D03*
%TD*%
D15*
%TO.C,J16*%
X45720000Y-43180000D03*
X81280000Y-43180000D03*
X66040000Y-43180000D03*
X50800000Y-43180000D03*
X76200000Y-43180000D03*
X60960000Y-43180000D03*
X71120000Y-43180000D03*
X86360000Y-43180000D03*
X55880000Y-43180000D03*
X91440000Y-43180000D03*
%TD*%
D14*
%TO.C,H4*%
X43180000Y-119380000D03*
%TD*%
%TO.C,H40*%
X96520000Y-68580000D03*
%TD*%
D16*
%TO.C,J24*%
X124460000Y-114300000D03*
X124460000Y-116840000D03*
X124460000Y-119380000D03*
X124460000Y-121920000D03*
%TD*%
D17*
%TO.C,J31*%
X157480000Y-129540000D03*
X160020000Y-129540000D03*
X162560000Y-129540000D03*
X165100000Y-129540000D03*
%TD*%
D14*
%TO.C,H42*%
X96520000Y-93980000D03*
%TD*%
D18*
%TO.C,J23*%
X96520000Y-111760000D03*
X96520000Y-109220000D03*
X96520000Y-106680000D03*
X96520000Y-104140000D03*
X96520000Y-101600000D03*
%TD*%
D14*
%TO.C,H38*%
X96520000Y-99060000D03*
%TD*%
D18*
%TO.C,J12*%
X43180000Y-129540000D03*
X43180000Y-127000000D03*
X43180000Y-124460000D03*
X43180000Y-121920000D03*
%TD*%
D19*
%TO.C,J30*%
X163195000Y-116150000D03*
X161925000Y-116150000D03*
X160655000Y-116150000D03*
X159385000Y-116150000D03*
X159385000Y-125150000D03*
X160655000Y-125150000D03*
X161925000Y-125150000D03*
X163195000Y-125150000D03*
%TD*%
D16*
%TO.C,J35*%
X96520000Y-96520000D03*
%TD*%
D20*
%TO.C,J42*%
X146050000Y-95250000D03*
D11*
X143510000Y-95250000D03*
%TD*%
D21*
%TO.C,J10*%
X36830000Y-108998000D03*
D22*
X36830000Y-110998000D03*
X36830000Y-112998000D03*
%TD*%
D18*
%TO.C,J27*%
X144780000Y-121920000D03*
X144780000Y-119380000D03*
X144780000Y-116840000D03*
X144780000Y-114300000D03*
%TD*%
D23*
%TO.C,C4*%
X33020000Y-87272500D03*
X33020000Y-84772500D03*
%TD*%
D18*
%TO.C,J28*%
X144780000Y-132080000D03*
X144780000Y-129540000D03*
X144780000Y-127000000D03*
X144780000Y-124460000D03*
%TD*%
D24*
%TO.C,SW3*%
X157787500Y-97830000D03*
D25*
X157787500Y-102830000D03*
X157787500Y-100330000D03*
D26*
X165287500Y-105930000D03*
D27*
X165287500Y-94730000D03*
D25*
X172287500Y-97830000D03*
X172287500Y-102830000D03*
%TD*%
D18*
%TO.C,J22*%
X96520000Y-78740000D03*
X96520000Y-76200000D03*
X96520000Y-73660000D03*
%TD*%
%TO.C,J32*%
X96520000Y-91440000D03*
X96520000Y-88900000D03*
X96520000Y-86360000D03*
%TD*%
D20*
%TO.C,J5*%
X126365000Y-94615000D03*
D11*
X123825000Y-94615000D03*
%TD*%
D16*
%TO.C,J37*%
X96520000Y-116840000D03*
X96520000Y-119380000D03*
%TD*%
D28*
%TO.C,J18*%
X66040000Y-40640000D03*
X55880000Y-40640000D03*
X76200000Y-40640000D03*
X45720000Y-40640000D03*
X86360000Y-40640000D03*
%TD*%
D29*
%TO.C,J1*%
X185980000Y-41910000D03*
X185980000Y-130810000D03*
D30*
X183440000Y-46990000D03*
X183440000Y-49530000D03*
X183440000Y-52070000D03*
X183440000Y-54610000D03*
X183440000Y-57150000D03*
X183440000Y-59690000D03*
X183440000Y-62230000D03*
X183440000Y-64770000D03*
X183440000Y-67310000D03*
X183440000Y-69850000D03*
X183440000Y-72390000D03*
X183440000Y-74930000D03*
X183440000Y-77470000D03*
X183440000Y-80010000D03*
X183440000Y-82550000D03*
X183440000Y-85090000D03*
X183440000Y-87630000D03*
X183440000Y-90170000D03*
X183440000Y-92710000D03*
X183440000Y-95250000D03*
X183440000Y-97790000D03*
X183440000Y-100330000D03*
X183440000Y-102870000D03*
X183440000Y-105410000D03*
X183440000Y-107950000D03*
X183440000Y-110490000D03*
X183440000Y-113030000D03*
X183440000Y-115570000D03*
X183440000Y-118110000D03*
X183440000Y-120650000D03*
X183440000Y-123190000D03*
X183440000Y-125730000D03*
X180900000Y-46990000D03*
X180900000Y-49530000D03*
X180900000Y-52070000D03*
X180900000Y-54610000D03*
X180900000Y-57150000D03*
X180900000Y-59690000D03*
X180900000Y-62230000D03*
X180900000Y-64770000D03*
X180900000Y-67310000D03*
X180900000Y-69850000D03*
X180900000Y-72390000D03*
X180900000Y-74930000D03*
X180900000Y-77470000D03*
X180900000Y-80010000D03*
X180900000Y-82550000D03*
X180900000Y-85090000D03*
X180900000Y-87630000D03*
X180900000Y-90170000D03*
X180900000Y-92710000D03*
X180900000Y-95250000D03*
X180900000Y-97790000D03*
X180900000Y-100330000D03*
X180900000Y-102870000D03*
X180900000Y-105410000D03*
X180900000Y-107950000D03*
X180900000Y-110490000D03*
X180900000Y-113030000D03*
X180900000Y-115570000D03*
X180900000Y-118110000D03*
X180900000Y-120650000D03*
X180900000Y-123190000D03*
X180900000Y-125730000D03*
X178360000Y-46990000D03*
X178360000Y-49530000D03*
X178360000Y-52070000D03*
X178360000Y-54610000D03*
X178360000Y-57150000D03*
X178360000Y-59690000D03*
X178360000Y-62230000D03*
X178360000Y-64770000D03*
X178360000Y-67310000D03*
X178360000Y-69850000D03*
X178360000Y-72390000D03*
X178360000Y-74930000D03*
X178360000Y-77470000D03*
X178360000Y-80010000D03*
X178360000Y-82550000D03*
X178360000Y-85090000D03*
X178360000Y-87630000D03*
X178360000Y-90170000D03*
X178360000Y-92710000D03*
X178360000Y-95250000D03*
X178360000Y-97790000D03*
X178360000Y-100330000D03*
X178360000Y-102870000D03*
X178360000Y-105410000D03*
X178360000Y-107950000D03*
X178360000Y-110490000D03*
X178360000Y-113030000D03*
X178360000Y-115570000D03*
X178360000Y-118110000D03*
X178360000Y-120650000D03*
X178360000Y-123190000D03*
X178360000Y-125730000D03*
%TD*%
D20*
%TO.C,J20*%
X100330000Y-48260000D03*
D11*
X100330000Y-45720000D03*
X100330000Y-43180000D03*
%TD*%
D31*
%TO.C,J15*%
X37084000Y-129667000D03*
X37084000Y-125857000D03*
X37084000Y-122047000D03*
X37084000Y-118237000D03*
%TD*%
D11*
%TO.C,J3*%
X147320000Y-86360000D03*
X149860000Y-86360000D03*
X149860000Y-83820000D03*
X147320000Y-83820000D03*
X149860000Y-81280000D03*
X147320000Y-81280000D03*
X149860000Y-78740000D03*
X147320000Y-78740000D03*
X149860000Y-76200000D03*
X147320000Y-76200000D03*
X149860000Y-73660000D03*
X147320000Y-73660000D03*
X147320000Y-71120000D03*
X149860000Y-71120000D03*
X147320000Y-68580000D03*
X149860000Y-68580000D03*
X147320000Y-66040000D03*
X149860000Y-66040000D03*
X147320000Y-63500000D03*
X149860000Y-63500000D03*
X149860000Y-60960000D03*
X147320000Y-60960000D03*
X147320000Y-58420000D03*
X149860000Y-58420000D03*
X147320000Y-55880000D03*
X149860000Y-55880000D03*
X147320000Y-53340000D03*
X149860000Y-53340000D03*
X147320000Y-50800000D03*
X149860000Y-50800000D03*
X147320000Y-48260000D03*
X149860000Y-48260000D03*
X149860000Y-45720000D03*
X147320000Y-45720000D03*
X147320000Y-43180000D03*
X149860000Y-43180000D03*
X149860000Y-40640000D03*
X147320000Y-40640000D03*
X147320000Y-38100000D03*
X149860000Y-38100000D03*
%TD*%
D32*
%TO.C,J7*%
X39820000Y-51360000D03*
D33*
X36520000Y-56160000D03*
D34*
X33520000Y-51360000D03*
%TD*%
D20*
%TO.C,J21*%
X105410000Y-48260000D03*
D11*
X105410000Y-45720000D03*
X105410000Y-43180000D03*
%TD*%
D35*
%TO.C,R1*%
X137938000Y-90424000D03*
X139938000Y-90424000D03*
%TD*%
D25*
%TO.C,SW2*%
X122480000Y-99985000D03*
X128980000Y-99985000D03*
X122480000Y-104485000D03*
X128980000Y-104485000D03*
%TD*%
%TO.C,SW1*%
X116840000Y-98500000D03*
X116840000Y-92000000D03*
X112340000Y-98500000D03*
X112340000Y-92000000D03*
%TD*%
D20*
%TO.C,J41*%
X146050000Y-100330000D03*
D11*
X143510000Y-100330000D03*
%TD*%
D12*
%TO.C,U2*%
X33020000Y-96500000D03*
D13*
X35560000Y-96500000D03*
X38100000Y-96500000D03*
%TD*%
D20*
%TO.C,J6*%
X160020000Y-74930000D03*
D11*
X162560000Y-74930000D03*
X165100000Y-74930000D03*
X167640000Y-74930000D03*
%TD*%
D18*
%TO.C,J34*%
X96520000Y-58420000D03*
X96520000Y-55880000D03*
%TD*%
D36*
%TO.C,J19*%
X48260000Y-132080000D03*
X83820000Y-132080000D03*
X73660000Y-132080000D03*
X91440000Y-132080000D03*
X53340000Y-132080000D03*
X76200000Y-132080000D03*
X50800000Y-132080000D03*
X58420000Y-132080000D03*
X45720000Y-132080000D03*
X55880000Y-132080000D03*
X81280000Y-132080000D03*
X63500000Y-132080000D03*
X93980000Y-132080000D03*
X86360000Y-132080000D03*
X66040000Y-132080000D03*
X78740000Y-132080000D03*
X68580000Y-132080000D03*
X60960000Y-132080000D03*
X88900000Y-132080000D03*
X71120000Y-132080000D03*
%TD*%
D20*
%TO.C,J39*%
X170180000Y-63500000D03*
D11*
X167640000Y-63500000D03*
%TD*%
D14*
%TO.C,H39*%
X96520000Y-114300000D03*
%TD*%
D16*
%TO.C,J25*%
X124460000Y-124460000D03*
X124460000Y-127000000D03*
X124460000Y-129540000D03*
X124460000Y-132080000D03*
%TD*%
D14*
%TO.C,H41*%
X96520000Y-83820000D03*
%TD*%
%TO.C,H36*%
X96520000Y-71120000D03*
%TD*%
D20*
%TO.C,J38*%
X158750000Y-63500000D03*
D11*
X161290000Y-63500000D03*
%TD*%
D23*
%TO.C,C1*%
X34290000Y-71100000D03*
X34290000Y-68600000D03*
%TD*%
D37*
%TO.C,U3*%
X155727500Y-39370000D03*
D38*
X156527500Y-39370000D03*
D37*
X155727500Y-41910000D03*
D38*
X156527500Y-41910000D03*
X156527500Y-44450000D03*
D37*
X155727500Y-44450000D03*
X155727500Y-46990000D03*
D38*
X156527500Y-46990000D03*
X156577500Y-49530000D03*
D37*
X155777500Y-49530000D03*
X155727500Y-52070000D03*
D38*
X156527500Y-52070000D03*
X156527500Y-54610000D03*
D37*
X155727500Y-54610000D03*
X172567500Y-54610000D03*
D38*
X171767500Y-54610000D03*
D37*
X172567500Y-52070000D03*
D38*
X171767500Y-52070000D03*
D37*
X172567500Y-49530000D03*
D38*
X171767500Y-49530000D03*
D37*
X172567500Y-46990000D03*
D38*
X171767500Y-46990000D03*
D37*
X172517500Y-44450000D03*
D38*
X171717500Y-44450000D03*
D37*
X172567500Y-41910000D03*
D38*
X171767500Y-41910000D03*
X171767500Y-39370000D03*
D37*
X172567500Y-39370000D03*
D39*
X166052500Y-38735000D03*
X162623500Y-38227000D03*
X162369500Y-41656000D03*
%TD*%
D40*
%TO.C,J9*%
X36260000Y-60480000D03*
D41*
X36260000Y-63980000D03*
%TD*%
D42*
%TO.C,D2*%
X108272500Y-95250000D03*
D43*
X105732500Y-95250000D03*
%TD*%
D36*
%TO.C,J17*%
X53340000Y-45720000D03*
X58420000Y-45720000D03*
X48260000Y-45720000D03*
X66040000Y-45720000D03*
X73660000Y-45720000D03*
X78740000Y-45720000D03*
X93980000Y-45720000D03*
X83820000Y-45720000D03*
X68580000Y-45720000D03*
X86360000Y-45720000D03*
X50800000Y-45720000D03*
X60960000Y-45720000D03*
X71120000Y-45720000D03*
X81280000Y-45720000D03*
X88900000Y-45720000D03*
X55880000Y-45720000D03*
X76200000Y-45720000D03*
X91440000Y-45720000D03*
X45720000Y-45720000D03*
X63500000Y-45720000D03*
%TD*%
D42*
%TO.C,D1*%
X132075000Y-102870000D03*
D43*
X134615000Y-102870000D03*
%TD*%
D16*
%TO.C,J11*%
X43180000Y-111760000D03*
X43180000Y-114300000D03*
X43180000Y-116840000D03*
%TD*%
D20*
%TO.C,J4*%
X133350000Y-94615000D03*
D11*
X130810000Y-94615000D03*
%TD*%
D44*
%TO.C,J29*%
X165100000Y-111760000D03*
X162560000Y-111760000D03*
X160020000Y-111760000D03*
X157480000Y-111760000D03*
%TD*%
D45*
%TO.C,U1*%
X132080000Y-87030000D03*
D11*
X132080000Y-86130000D03*
D20*
X129540000Y-86130000D03*
D45*
X129540000Y-87030000D03*
X127000000Y-87030000D03*
D11*
X127000000Y-86130000D03*
X138430000Y-38100000D03*
D46*
X139330000Y-38100000D03*
D11*
X138430000Y-40640000D03*
D46*
X139330000Y-40640000D03*
D20*
X138430000Y-43180000D03*
D46*
X139330000Y-43180000D03*
D11*
X138430000Y-45720000D03*
D46*
X139330000Y-45720000D03*
D11*
X138430000Y-48260000D03*
D46*
X139330000Y-48260000D03*
X139330000Y-50800000D03*
D11*
X138430000Y-50800000D03*
D46*
X139330000Y-53340000D03*
D11*
X138430000Y-53340000D03*
D20*
X138430000Y-55880000D03*
D46*
X139330000Y-55880000D03*
D11*
X138430000Y-58420000D03*
D46*
X139330000Y-58420000D03*
D11*
X138430000Y-60960000D03*
D46*
X139330000Y-60960000D03*
X139330000Y-63500000D03*
D11*
X138430000Y-63500000D03*
D46*
X139330000Y-66040000D03*
D11*
X138430000Y-66040000D03*
D20*
X138430000Y-68580000D03*
D46*
X139330000Y-68580000D03*
D11*
X138430000Y-71120000D03*
D46*
X139330000Y-71120000D03*
X139330000Y-73660000D03*
D11*
X138430000Y-73660000D03*
X138430000Y-76200000D03*
D46*
X139330000Y-76200000D03*
X139330000Y-78740000D03*
D11*
X138430000Y-78740000D03*
D46*
X139330000Y-81280000D03*
D20*
X138430000Y-81280000D03*
D11*
X138430000Y-83820000D03*
D46*
X139330000Y-83820000D03*
X139330000Y-86360000D03*
D11*
X138430000Y-86360000D03*
X120650000Y-86360000D03*
D46*
X119750000Y-86360000D03*
D11*
X120650000Y-83820000D03*
D46*
X119750000Y-83820000D03*
D20*
X120650000Y-81280000D03*
D46*
X119750000Y-81280000D03*
D11*
X120650000Y-78740000D03*
D46*
X119750000Y-78740000D03*
D11*
X120650000Y-76200000D03*
D46*
X119750000Y-76200000D03*
D11*
X120650000Y-73660000D03*
D46*
X119750000Y-73660000D03*
X119750000Y-71120000D03*
D11*
X120650000Y-71120000D03*
D46*
X119750000Y-68580000D03*
D20*
X120650000Y-68580000D03*
D11*
X120650000Y-66040000D03*
D46*
X119750000Y-66040000D03*
D11*
X120650000Y-63500000D03*
D46*
X119750000Y-63500000D03*
D11*
X120650000Y-60960000D03*
D46*
X119750000Y-60960000D03*
D11*
X120650000Y-58420000D03*
D46*
X119750000Y-58420000D03*
D20*
X120650000Y-55880000D03*
D46*
X119750000Y-55880000D03*
D11*
X120650000Y-53340000D03*
D46*
X119750000Y-53340000D03*
X119750000Y-50800000D03*
D11*
X120650000Y-50800000D03*
X120650000Y-48260000D03*
D46*
X119750000Y-48260000D03*
D11*
X120650000Y-45720000D03*
D46*
X119750000Y-45720000D03*
D20*
X120650000Y-43180000D03*
D46*
X119750000Y-43180000D03*
X119750000Y-40640000D03*
D11*
X120650000Y-40640000D03*
X120650000Y-38100000D03*
D46*
X119750000Y-38100000D03*
D47*
X132265000Y-38230000D03*
D48*
X127115000Y-41260000D03*
D47*
X126815000Y-38230000D03*
D48*
X131965000Y-41260000D03*
%TD*%
D16*
%TO.C,J36*%
X96520000Y-66040000D03*
%TD*%
%TO.C,J33*%
X96520000Y-60960000D03*
%TD*%
D23*
%TO.C,C3*%
X33000000Y-104100000D03*
X33000000Y-101600000D03*
%TD*%
D49*
%TO.C,J26*%
X130120000Y-118745000D03*
X130120000Y-120015000D03*
X130120000Y-121285000D03*
X130120000Y-122555000D03*
X130120000Y-123825000D03*
X130120000Y-125095000D03*
X130120000Y-126365000D03*
X130120000Y-127635000D03*
X139120000Y-127635000D03*
X139120000Y-126365000D03*
X139120000Y-125095000D03*
X139120000Y-123825000D03*
X139120000Y-122555000D03*
X139120000Y-121285000D03*
X139120000Y-120015000D03*
X139120000Y-118745000D03*
%TD*%
D20*
%TO.C,J43*%
X146050000Y-97790000D03*
D11*
X143510000Y-97790000D03*
%TD*%
D50*
%TO.C,J40*%
X112333000Y-129648000D03*
X104353000Y-129648000D03*
%TD*%
M02*
