M48
; DRILL file {KiCad (6.0.7)} date Sat Nov 12 16:25:55 2022
; FORMAT={-:-/ absolute / metric / decimal}
; #@! TF.CreationDate,2022-11-12T16:25:55+00:00
; #@! TF.GenerationSoftware,Kicad,Pcbnew,(6.0.7)
; #@! TF.FileFunction,Plated,1,2,PTH
FMAT,2
METRIC
; #@! TA.AperFunction,Plated,PTH,ViaDrill
T1C0.400
; #@! TA.AperFunction,Plated,PTH,ViaDrill
T2C0.500
; #@! TA.AperFunction,Plated,PTH,ViaDrill
T3C0.600
; #@! TA.AperFunction,Plated,PTH,ComponentDrill
T4C0.750
; #@! TA.AperFunction,Plated,PTH,ComponentDrill
T5C0.800
; #@! TA.AperFunction,Plated,PTH,ComponentDrill
T6C0.900
; #@! TA.AperFunction,Plated,PTH,ComponentDrill
T7C1.000
; #@! TA.AperFunction,Plated,PTH,ComponentDrill
T8C1.020
; #@! TA.AperFunction,Plated,PTH,ComponentDrill
T9C1.100
; #@! TA.AperFunction,Plated,PTH,ComponentDrill
T10C1.200
; #@! TA.AperFunction,Plated,PTH,ComponentDrill
T11C2.000
; #@! TA.AperFunction,Plated,PTH,ComponentDrill
T12C2.200
%
G90
G05
T1
X133.032Y-59.69
X136.207Y-45.72
T2
X102.87Y-52.387
X156.718Y-59.944
X161.925Y-56.515
X164.592Y-100.076
X166.116Y-56.388
X167.894Y-56.134
X172.466Y-59.944
T3
X31.115Y-40.322
X32.067Y-39.37
X33.02Y-38.417
X98.742Y-69.85
X104.394Y-117.094
X105.727Y-55.245
X105.727Y-58.102
X106.299Y-117.094
X106.362Y-65.405
X106.362Y-67.945
X106.362Y-70.485
X107.569Y-117.094
X109.601Y-117.094
X111.125Y-111.379
X147.637Y-91.123
X150.177Y-97.155
X152.4Y-91.123
X155.257Y-96.52
T4
X36.83Y-108.998
X36.83Y-110.998
X36.83Y-112.998
T5
X33.0Y-101.6
X33.0Y-104.1
X33.02Y-84.772
X33.02Y-87.272
X34.29Y-68.6
X34.29Y-71.1
T6
X43.18Y-111.76
X43.18Y-114.3
X43.18Y-116.84
X43.18Y-121.92
X43.18Y-124.46
X43.18Y-127.0
X43.18Y-129.54
X45.72Y-40.64
X45.72Y-43.18
X45.72Y-45.72
X45.72Y-132.08
X48.26Y-45.72
X48.26Y-132.08
X50.8Y-43.18
X50.8Y-45.72
X50.8Y-132.08
X53.34Y-45.72
X53.34Y-132.08
X55.88Y-40.64
X55.88Y-43.18
X55.88Y-45.72
X55.88Y-132.08
X58.42Y-45.72
X58.42Y-132.08
X60.96Y-43.18
X60.96Y-45.72
X60.96Y-132.08
X63.5Y-45.72
X63.5Y-132.08
X66.04Y-40.64
X66.04Y-43.18
X66.04Y-45.72
X66.04Y-132.08
X68.58Y-45.72
X68.58Y-132.08
X71.12Y-43.18
X71.12Y-45.72
X71.12Y-132.08
X73.66Y-45.72
X73.66Y-132.08
X76.2Y-40.64
X76.2Y-43.18
X76.2Y-45.72
X76.2Y-132.08
X78.74Y-45.72
X78.74Y-132.08
X81.28Y-43.18
X81.28Y-45.72
X81.28Y-132.08
X83.82Y-45.72
X83.82Y-132.08
X86.36Y-40.64
X86.36Y-43.18
X86.36Y-45.72
X86.36Y-132.08
X88.9Y-45.72
X88.9Y-132.08
X91.44Y-43.18
X91.44Y-45.72
X91.44Y-132.08
X93.98Y-45.72
X93.98Y-132.08
X96.52Y-55.88
X96.52Y-58.42
X96.52Y-60.96
X96.52Y-66.04
X96.52Y-73.66
X96.52Y-76.2
X96.52Y-78.74
X96.52Y-86.36
X96.52Y-88.9
X96.52Y-91.44
X96.52Y-96.52
X96.52Y-101.6
X96.52Y-104.14
X96.52Y-106.68
X96.52Y-109.22
X96.52Y-111.76
X96.52Y-116.84
X96.52Y-119.38
X105.733Y-95.25
X108.272Y-95.25
X124.46Y-114.3
X124.46Y-116.84
X124.46Y-119.38
X124.46Y-121.92
X124.46Y-124.46
X124.46Y-127.0
X124.46Y-129.54
X124.46Y-132.08
X132.075Y-102.87
X134.615Y-102.87
X144.78Y-114.3
X144.78Y-116.84
X144.78Y-119.38
X144.78Y-121.92
X144.78Y-124.46
X144.78Y-127.0
X144.78Y-129.54
X144.78Y-132.08
X157.48Y-111.76
X157.48Y-129.54
X160.02Y-111.76
X160.02Y-129.54
X162.56Y-111.76
X162.56Y-129.54
X165.1Y-111.76
X165.1Y-129.54
T7
X100.33Y-43.18
X100.33Y-45.72
X100.33Y-48.26
X105.41Y-43.18
X105.41Y-45.72
X105.41Y-48.26
X109.16Y-38.1
X109.16Y-40.64
X109.16Y-43.18
X109.16Y-45.72
X109.16Y-48.26
X109.16Y-50.8
X109.16Y-53.34
X109.16Y-55.88
X109.16Y-58.42
X109.16Y-60.96
X109.16Y-63.5
X109.16Y-66.04
X109.16Y-68.58
X109.16Y-71.12
X109.16Y-73.66
X109.16Y-76.2
X109.16Y-78.74
X109.16Y-81.28
X109.16Y-83.82
X109.16Y-86.36
X111.76Y-38.1
X111.76Y-40.64
X111.76Y-43.18
X111.76Y-45.72
X111.76Y-48.26
X111.76Y-50.8
X111.76Y-53.34
X111.76Y-55.88
X111.76Y-58.42
X111.76Y-60.96
X111.76Y-63.5
X111.76Y-66.04
X111.76Y-68.58
X111.76Y-71.12
X111.76Y-73.66
X111.76Y-76.2
X111.76Y-78.74
X111.76Y-81.28
X111.76Y-83.82
X111.76Y-86.36
X123.825Y-94.615
X126.365Y-94.615
X130.81Y-94.615
X133.35Y-94.615
X143.51Y-95.25
X143.51Y-97.79
X143.51Y-100.33
X146.05Y-95.25
X146.05Y-97.79
X146.05Y-100.33
X147.32Y-38.1
X147.32Y-40.64
X147.32Y-43.18
X147.32Y-45.72
X147.32Y-48.26
X147.32Y-50.8
X147.32Y-53.34
X147.32Y-55.88
X147.32Y-58.42
X147.32Y-60.96
X147.32Y-63.5
X147.32Y-66.04
X147.32Y-68.58
X147.32Y-71.12
X147.32Y-73.66
X147.32Y-76.2
X147.32Y-78.74
X147.32Y-81.28
X147.32Y-83.82
X147.32Y-86.36
X149.86Y-38.1
X149.86Y-40.64
X149.86Y-43.18
X149.86Y-45.72
X149.86Y-48.26
X149.86Y-50.8
X149.86Y-53.34
X149.86Y-55.88
X149.86Y-58.42
X149.86Y-60.96
X149.86Y-63.5
X149.86Y-66.04
X149.86Y-68.58
X149.86Y-71.12
X149.86Y-73.66
X149.86Y-76.2
X149.86Y-78.74
X149.86Y-81.28
X149.86Y-83.82
X149.86Y-86.36
X156.528Y-39.37
X156.528Y-41.91
X156.528Y-44.45
X156.528Y-46.99
X156.528Y-52.07
X156.528Y-54.61
X156.577Y-49.53
X157.787Y-97.83
X157.787Y-100.33
X157.787Y-102.83
X158.75Y-63.5
X160.02Y-74.93
X161.29Y-63.5
X162.56Y-74.93
X165.1Y-74.93
X167.64Y-63.5
X167.64Y-74.93
X170.18Y-63.5
X171.718Y-44.45
X171.767Y-39.37
X171.767Y-41.91
X171.767Y-46.99
X171.767Y-49.53
X171.767Y-52.07
X171.767Y-54.61
X178.36Y-46.99
X178.36Y-49.53
X178.36Y-52.07
X178.36Y-54.61
X178.36Y-57.15
X178.36Y-59.69
X178.36Y-62.23
X178.36Y-64.77
X178.36Y-67.31
X178.36Y-69.85
X178.36Y-72.39
X178.36Y-74.93
X178.36Y-77.47
X178.36Y-80.01
X178.36Y-82.55
X178.36Y-85.09
X178.36Y-87.63
X178.36Y-90.17
X178.36Y-92.71
X178.36Y-95.25
X178.36Y-97.79
X178.36Y-100.33
X178.36Y-102.87
X178.36Y-105.41
X178.36Y-107.95
X178.36Y-110.49
X178.36Y-113.03
X178.36Y-115.57
X178.36Y-118.11
X178.36Y-120.65
X178.36Y-123.19
X178.36Y-125.73
X180.9Y-46.99
X180.9Y-49.53
X180.9Y-52.07
X180.9Y-54.61
X180.9Y-57.15
X180.9Y-59.69
X180.9Y-62.23
X180.9Y-64.77
X180.9Y-67.31
X180.9Y-69.85
X180.9Y-72.39
X180.9Y-74.93
X180.9Y-77.47
X180.9Y-80.01
X180.9Y-82.55
X180.9Y-85.09
X180.9Y-87.63
X180.9Y-90.17
X180.9Y-92.71
X180.9Y-95.25
X180.9Y-97.79
X180.9Y-100.33
X180.9Y-102.87
X180.9Y-105.41
X180.9Y-107.95
X180.9Y-110.49
X180.9Y-113.03
X180.9Y-115.57
X180.9Y-118.11
X180.9Y-120.65
X180.9Y-123.19
X180.9Y-125.73
X183.44Y-46.99
X183.44Y-49.53
X183.44Y-52.07
X183.44Y-54.61
X183.44Y-57.15
X183.44Y-59.69
X183.44Y-62.23
X183.44Y-64.77
X183.44Y-67.31
X183.44Y-69.85
X183.44Y-72.39
X183.44Y-74.93
X183.44Y-77.47
X183.44Y-80.01
X183.44Y-82.55
X183.44Y-85.09
X183.44Y-87.63
X183.44Y-90.17
X183.44Y-92.71
X183.44Y-95.25
X183.44Y-97.79
X183.44Y-100.33
X183.44Y-102.87
X183.44Y-105.41
X183.44Y-107.95
X183.44Y-110.49
X183.44Y-113.03
X183.44Y-115.57
X183.44Y-118.11
X183.44Y-120.65
X183.44Y-123.19
X183.44Y-125.73
T8
X120.65Y-38.1
X120.65Y-40.64
X120.65Y-43.18
X120.65Y-45.72
X120.65Y-48.26
X120.65Y-50.8
X120.65Y-53.34
X120.65Y-55.88
X120.65Y-58.42
X120.65Y-60.96
X120.65Y-63.5
X120.65Y-66.04
X120.65Y-68.58
X120.65Y-71.12
X120.65Y-73.66
X120.65Y-76.2
X120.65Y-78.74
X120.65Y-81.28
X120.65Y-83.82
X120.65Y-86.36
X127.0Y-86.13
X129.54Y-86.13
X132.08Y-86.13
X138.43Y-38.1
X138.43Y-40.64
X138.43Y-43.18
X138.43Y-45.72
X138.43Y-48.26
X138.43Y-50.8
X138.43Y-53.34
X138.43Y-55.88
X138.43Y-58.42
X138.43Y-60.96
X138.43Y-63.5
X138.43Y-66.04
X138.43Y-68.58
X138.43Y-71.12
X138.43Y-73.66
X138.43Y-76.2
X138.43Y-78.74
X138.43Y-81.28
X138.43Y-83.82
X138.43Y-86.36
T9
X33.02Y-80.01
X33.02Y-96.5
X35.56Y-80.01
X35.56Y-96.5
X38.1Y-80.01
X38.1Y-96.5
X112.34Y-92.0
X112.34Y-98.5
X116.84Y-92.0
X116.84Y-98.5
X122.48Y-99.985
X122.48Y-104.485
X128.98Y-99.985
X128.98Y-104.485
X172.287Y-97.83
X172.287Y-102.83
T10
X36.26Y-60.48
X36.26Y-63.98
X37.084Y-118.237
X37.084Y-122.047
X37.084Y-125.857
X37.084Y-129.667
T12
X162.369Y-41.656
X162.623Y-38.227
X166.052Y-38.735
T7
X33.52Y-50.26G85X33.52Y-52.46
G05
X37.77Y-56.16G85X35.27Y-56.16
G05
X39.82Y-50.06G85X39.82Y-52.66
G05
T11
X165.037Y-94.73G85X165.537Y-94.73
G05
X165.037Y-105.93G85X165.537Y-105.93
G05
T0
M30
