%TF.GenerationSoftware,KiCad,Pcbnew,(6.0.7)*%
%TF.CreationDate,2022-11-12T16:25:57+00:00*%
%TF.ProjectId,pico-euro,7069636f-2d65-4757-926f-2e6b69636164,rev?*%
%TF.SameCoordinates,Original*%
%TF.FileFunction,Drillmap*%
%TF.FilePolarity,Positive*%
%FSLAX45Y45*%
G04 Gerber Fmt 4.5, Leading zero omitted, Abs format (unit mm)*
G04 Created by KiCad (PCBNEW (6.0.7)) date 2022-11-12 16:25:57*
%MOMM*%
%LPD*%
G01*
G04 APERTURE LIST*
%ADD10C,0.100000*%
%ADD11C,0.200000*%
%ADD12C,0.090000*%
%ADD13C,0.150000*%
%ADD14C,0.180000*%
%ADD15C,0.270000*%
G04 APERTURE END LIST*
D10*
X2874000Y-13586000D02*
G75*
G03*
X2924000Y-13636000I50000J0D01*
G01*
X18874000Y-3686000D02*
G75*
G03*
X18824000Y-3636000I-50000J0D01*
G01*
X2924000Y-13636000D02*
X10441000Y-13636000D01*
X11203000Y-13636000D02*
X11139500Y-13589000D01*
X18874000Y-3686000D02*
X18874000Y-13586000D01*
X10441000Y-13636000D02*
X10504500Y-13589000D01*
X2924000Y-3636000D02*
X18824000Y-3636000D01*
X11139500Y-13589000D02*
G75*
G03*
X10504500Y-13589000I-317500J-635000D01*
G01*
X2924000Y-3636000D02*
G75*
G03*
X2874000Y-3686000I0J-50000D01*
G01*
X2874000Y-13586000D02*
X2874000Y-3686000D01*
X18824000Y-13636000D02*
X11203000Y-13636000D01*
X18824000Y-13636000D02*
G75*
G03*
X18874000Y-13586000I0J50000D01*
G01*
D11*
D12*
X4273000Y-11893000D02*
X4363000Y-11983000D01*
X4363000Y-11893000D02*
X4273000Y-11983000D01*
X4527000Y-4781000D02*
X4617000Y-4871000D01*
X4617000Y-4781000D02*
X4527000Y-4871000D01*
X4527000Y-5035000D02*
X4617000Y-5125000D01*
X4617000Y-5035000D02*
X4527000Y-5125000D01*
X4527000Y-5289000D02*
X4617000Y-5379000D01*
X4617000Y-5289000D02*
X4527000Y-5379000D01*
X4527000Y-5543000D02*
X4617000Y-5633000D01*
X4617000Y-5543000D02*
X4527000Y-5633000D01*
X4527000Y-5797000D02*
X4617000Y-5887000D01*
X4617000Y-5797000D02*
X4527000Y-5887000D01*
X4527000Y-6051000D02*
X4617000Y-6141000D01*
X4617000Y-6051000D02*
X4527000Y-6141000D01*
X4527000Y-6305000D02*
X4617000Y-6395000D01*
X4617000Y-6305000D02*
X4527000Y-6395000D01*
X4527000Y-6559000D02*
X4617000Y-6649000D01*
X4617000Y-6559000D02*
X4527000Y-6649000D01*
X4527000Y-6813000D02*
X4617000Y-6903000D01*
X4617000Y-6813000D02*
X4527000Y-6903000D01*
X4527000Y-7067000D02*
X4617000Y-7157000D01*
X4617000Y-7067000D02*
X4527000Y-7157000D01*
X4527000Y-7321000D02*
X4617000Y-7411000D01*
X4617000Y-7321000D02*
X4527000Y-7411000D01*
X4527000Y-7575000D02*
X4617000Y-7665000D01*
X4617000Y-7575000D02*
X4527000Y-7665000D01*
X4527000Y-7829000D02*
X4617000Y-7919000D01*
X4617000Y-7829000D02*
X4527000Y-7919000D01*
X4527000Y-8083000D02*
X4617000Y-8173000D01*
X4617000Y-8083000D02*
X4527000Y-8173000D01*
X4527000Y-8337000D02*
X4617000Y-8427000D01*
X4617000Y-8337000D02*
X4527000Y-8427000D01*
X4527000Y-8591000D02*
X4617000Y-8681000D01*
X4617000Y-8591000D02*
X4527000Y-8681000D01*
X4527000Y-8845000D02*
X4617000Y-8935000D01*
X4617000Y-8845000D02*
X4527000Y-8935000D01*
X4527000Y-9099000D02*
X4617000Y-9189000D01*
X4617000Y-9099000D02*
X4527000Y-9189000D01*
X4527000Y-9353000D02*
X4617000Y-9443000D01*
X4617000Y-9353000D02*
X4527000Y-9443000D01*
X4527000Y-9607000D02*
X4617000Y-9697000D01*
X4617000Y-9607000D02*
X4527000Y-9697000D01*
X4527000Y-9861000D02*
X4617000Y-9951000D01*
X4617000Y-9861000D02*
X4527000Y-9951000D01*
X4527000Y-10115000D02*
X4617000Y-10205000D01*
X4617000Y-10115000D02*
X4527000Y-10205000D01*
X4527000Y-10369000D02*
X4617000Y-10459000D01*
X4617000Y-10369000D02*
X4527000Y-10459000D01*
X4527000Y-10623000D02*
X4617000Y-10713000D01*
X4617000Y-10623000D02*
X4527000Y-10713000D01*
X4527000Y-10877000D02*
X4617000Y-10967000D01*
X4617000Y-10877000D02*
X4527000Y-10967000D01*
X4527000Y-11131000D02*
X4617000Y-11221000D01*
X4617000Y-11131000D02*
X4527000Y-11221000D01*
X4527000Y-11385000D02*
X4617000Y-11475000D01*
X4617000Y-11385000D02*
X4527000Y-11475000D01*
X4527000Y-11639000D02*
X4617000Y-11729000D01*
X4617000Y-11639000D02*
X4527000Y-11729000D01*
X4527000Y-11893000D02*
X4617000Y-11983000D01*
X4617000Y-11893000D02*
X4527000Y-11983000D01*
X4527000Y-12147000D02*
X4617000Y-12237000D01*
X4617000Y-12147000D02*
X4527000Y-12237000D01*
X4527000Y-12401000D02*
X4617000Y-12491000D01*
X4617000Y-12401000D02*
X4527000Y-12491000D01*
X4527000Y-12655000D02*
X4617000Y-12745000D01*
X4617000Y-12655000D02*
X4527000Y-12745000D01*
X4527000Y-12909000D02*
X4617000Y-12999000D01*
X4617000Y-12909000D02*
X4527000Y-12999000D01*
X4781000Y-4781000D02*
X4871000Y-4871000D01*
X4871000Y-4781000D02*
X4781000Y-4871000D01*
X4781000Y-5035000D02*
X4871000Y-5125000D01*
X4871000Y-5035000D02*
X4781000Y-5125000D01*
X4781000Y-5289000D02*
X4871000Y-5379000D01*
X4871000Y-5289000D02*
X4781000Y-5379000D01*
X4781000Y-5543000D02*
X4871000Y-5633000D01*
X4871000Y-5543000D02*
X4781000Y-5633000D01*
X4781000Y-5797000D02*
X4871000Y-5887000D01*
X4871000Y-5797000D02*
X4781000Y-5887000D01*
X4781000Y-6051000D02*
X4871000Y-6141000D01*
X4871000Y-6051000D02*
X4781000Y-6141000D01*
X4781000Y-6305000D02*
X4871000Y-6395000D01*
X4871000Y-6305000D02*
X4781000Y-6395000D01*
X4781000Y-6559000D02*
X4871000Y-6649000D01*
X4871000Y-6559000D02*
X4781000Y-6649000D01*
X4781000Y-6813000D02*
X4871000Y-6903000D01*
X4871000Y-6813000D02*
X4781000Y-6903000D01*
X4781000Y-7067000D02*
X4871000Y-7157000D01*
X4871000Y-7067000D02*
X4781000Y-7157000D01*
X4781000Y-7321000D02*
X4871000Y-7411000D01*
X4871000Y-7321000D02*
X4781000Y-7411000D01*
X4781000Y-7575000D02*
X4871000Y-7665000D01*
X4871000Y-7575000D02*
X4781000Y-7665000D01*
X4781000Y-7829000D02*
X4871000Y-7919000D01*
X4871000Y-7829000D02*
X4781000Y-7919000D01*
X4781000Y-8083000D02*
X4871000Y-8173000D01*
X4871000Y-8083000D02*
X4781000Y-8173000D01*
X4781000Y-8337000D02*
X4871000Y-8427000D01*
X4871000Y-8337000D02*
X4781000Y-8427000D01*
X4781000Y-8591000D02*
X4871000Y-8681000D01*
X4871000Y-8591000D02*
X4781000Y-8681000D01*
X4781000Y-8845000D02*
X4871000Y-8935000D01*
X4871000Y-8845000D02*
X4781000Y-8935000D01*
X4781000Y-9099000D02*
X4871000Y-9189000D01*
X4871000Y-9099000D02*
X4781000Y-9189000D01*
X4781000Y-9353000D02*
X4871000Y-9443000D01*
X4871000Y-9353000D02*
X4781000Y-9443000D01*
X4781000Y-9607000D02*
X4871000Y-9697000D01*
X4871000Y-9607000D02*
X4781000Y-9697000D01*
X4781000Y-9861000D02*
X4871000Y-9951000D01*
X4871000Y-9861000D02*
X4781000Y-9951000D01*
X4781000Y-10115000D02*
X4871000Y-10205000D01*
X4871000Y-10115000D02*
X4781000Y-10205000D01*
X4781000Y-10369000D02*
X4871000Y-10459000D01*
X4871000Y-10369000D02*
X4781000Y-10459000D01*
X4781000Y-10623000D02*
X4871000Y-10713000D01*
X4871000Y-10623000D02*
X4781000Y-10713000D01*
X4781000Y-10877000D02*
X4871000Y-10967000D01*
X4871000Y-10877000D02*
X4781000Y-10967000D01*
X4781000Y-11131000D02*
X4871000Y-11221000D01*
X4871000Y-11131000D02*
X4781000Y-11221000D01*
X4781000Y-11385000D02*
X4871000Y-11475000D01*
X4871000Y-11385000D02*
X4781000Y-11475000D01*
X4781000Y-11639000D02*
X4871000Y-11729000D01*
X4871000Y-11639000D02*
X4781000Y-11729000D01*
X4781000Y-11893000D02*
X4871000Y-11983000D01*
X4871000Y-11893000D02*
X4781000Y-11983000D01*
X4781000Y-12147000D02*
X4871000Y-12237000D01*
X4871000Y-12147000D02*
X4781000Y-12237000D01*
X4781000Y-12401000D02*
X4871000Y-12491000D01*
X4871000Y-12401000D02*
X4781000Y-12491000D01*
X4781000Y-12655000D02*
X4871000Y-12745000D01*
X4871000Y-12655000D02*
X4781000Y-12745000D01*
X4781000Y-12909000D02*
X4871000Y-12999000D01*
X4871000Y-12909000D02*
X4781000Y-12999000D01*
X5035000Y-4781000D02*
X5125000Y-4871000D01*
X5125000Y-4781000D02*
X5035000Y-4871000D01*
X5035000Y-5035000D02*
X5125000Y-5125000D01*
X5125000Y-5035000D02*
X5035000Y-5125000D01*
X5035000Y-5289000D02*
X5125000Y-5379000D01*
X5125000Y-5289000D02*
X5035000Y-5379000D01*
X5035000Y-5543000D02*
X5125000Y-5633000D01*
X5125000Y-5543000D02*
X5035000Y-5633000D01*
X5035000Y-5797000D02*
X5125000Y-5887000D01*
X5125000Y-5797000D02*
X5035000Y-5887000D01*
X5035000Y-6051000D02*
X5125000Y-6141000D01*
X5125000Y-6051000D02*
X5035000Y-6141000D01*
X5035000Y-6305000D02*
X5125000Y-6395000D01*
X5125000Y-6305000D02*
X5035000Y-6395000D01*
X5035000Y-6559000D02*
X5125000Y-6649000D01*
X5125000Y-6559000D02*
X5035000Y-6649000D01*
X5035000Y-6813000D02*
X5125000Y-6903000D01*
X5125000Y-6813000D02*
X5035000Y-6903000D01*
X5035000Y-7067000D02*
X5125000Y-7157000D01*
X5125000Y-7067000D02*
X5035000Y-7157000D01*
X5035000Y-7321000D02*
X5125000Y-7411000D01*
X5125000Y-7321000D02*
X5035000Y-7411000D01*
X5035000Y-7575000D02*
X5125000Y-7665000D01*
X5125000Y-7575000D02*
X5035000Y-7665000D01*
X5035000Y-7829000D02*
X5125000Y-7919000D01*
X5125000Y-7829000D02*
X5035000Y-7919000D01*
X5035000Y-8083000D02*
X5125000Y-8173000D01*
X5125000Y-8083000D02*
X5035000Y-8173000D01*
X5035000Y-8337000D02*
X5125000Y-8427000D01*
X5125000Y-8337000D02*
X5035000Y-8427000D01*
X5035000Y-8591000D02*
X5125000Y-8681000D01*
X5125000Y-8591000D02*
X5035000Y-8681000D01*
X5035000Y-8845000D02*
X5125000Y-8935000D01*
X5125000Y-8845000D02*
X5035000Y-8935000D01*
X5035000Y-9099000D02*
X5125000Y-9189000D01*
X5125000Y-9099000D02*
X5035000Y-9189000D01*
X5035000Y-9353000D02*
X5125000Y-9443000D01*
X5125000Y-9353000D02*
X5035000Y-9443000D01*
X5035000Y-9607000D02*
X5125000Y-9697000D01*
X5125000Y-9607000D02*
X5035000Y-9697000D01*
X5035000Y-9861000D02*
X5125000Y-9951000D01*
X5125000Y-9861000D02*
X5035000Y-9951000D01*
X5035000Y-10115000D02*
X5125000Y-10205000D01*
X5125000Y-10115000D02*
X5035000Y-10205000D01*
X5035000Y-10369000D02*
X5125000Y-10459000D01*
X5125000Y-10369000D02*
X5035000Y-10459000D01*
X5035000Y-10623000D02*
X5125000Y-10713000D01*
X5125000Y-10623000D02*
X5035000Y-10713000D01*
X5035000Y-10877000D02*
X5125000Y-10967000D01*
X5125000Y-10877000D02*
X5035000Y-10967000D01*
X5035000Y-11131000D02*
X5125000Y-11221000D01*
X5125000Y-11131000D02*
X5035000Y-11221000D01*
X5035000Y-11385000D02*
X5125000Y-11475000D01*
X5125000Y-11385000D02*
X5035000Y-11475000D01*
X5035000Y-11639000D02*
X5125000Y-11729000D01*
X5125000Y-11639000D02*
X5035000Y-11729000D01*
X5035000Y-11893000D02*
X5125000Y-11983000D01*
X5125000Y-11893000D02*
X5035000Y-11983000D01*
X5035000Y-12147000D02*
X5125000Y-12237000D01*
X5125000Y-12147000D02*
X5035000Y-12237000D01*
X5035000Y-12401000D02*
X5125000Y-12491000D01*
X5125000Y-12401000D02*
X5035000Y-12491000D01*
X5035000Y-12655000D02*
X5125000Y-12745000D01*
X5125000Y-12655000D02*
X5035000Y-12745000D01*
X5035000Y-12909000D02*
X5125000Y-12999000D01*
X5125000Y-12909000D02*
X5035000Y-12999000D01*
X5289000Y-4781000D02*
X5379000Y-4871000D01*
X5379000Y-4781000D02*
X5289000Y-4871000D01*
X5289000Y-5035000D02*
X5379000Y-5125000D01*
X5379000Y-5035000D02*
X5289000Y-5125000D01*
X5289000Y-5289000D02*
X5379000Y-5379000D01*
X5379000Y-5289000D02*
X5289000Y-5379000D01*
X5289000Y-5543000D02*
X5379000Y-5633000D01*
X5379000Y-5543000D02*
X5289000Y-5633000D01*
X5289000Y-5797000D02*
X5379000Y-5887000D01*
X5379000Y-5797000D02*
X5289000Y-5887000D01*
X5289000Y-6051000D02*
X5379000Y-6141000D01*
X5379000Y-6051000D02*
X5289000Y-6141000D01*
X5289000Y-6305000D02*
X5379000Y-6395000D01*
X5379000Y-6305000D02*
X5289000Y-6395000D01*
X5289000Y-6559000D02*
X5379000Y-6649000D01*
X5379000Y-6559000D02*
X5289000Y-6649000D01*
X5289000Y-6813000D02*
X5379000Y-6903000D01*
X5379000Y-6813000D02*
X5289000Y-6903000D01*
X5289000Y-7067000D02*
X5379000Y-7157000D01*
X5379000Y-7067000D02*
X5289000Y-7157000D01*
X5289000Y-7321000D02*
X5379000Y-7411000D01*
X5379000Y-7321000D02*
X5289000Y-7411000D01*
X5289000Y-7575000D02*
X5379000Y-7665000D01*
X5379000Y-7575000D02*
X5289000Y-7665000D01*
X5289000Y-7829000D02*
X5379000Y-7919000D01*
X5379000Y-7829000D02*
X5289000Y-7919000D01*
X5289000Y-8083000D02*
X5379000Y-8173000D01*
X5379000Y-8083000D02*
X5289000Y-8173000D01*
X5289000Y-8337000D02*
X5379000Y-8427000D01*
X5379000Y-8337000D02*
X5289000Y-8427000D01*
X5289000Y-8591000D02*
X5379000Y-8681000D01*
X5379000Y-8591000D02*
X5289000Y-8681000D01*
X5289000Y-8845000D02*
X5379000Y-8935000D01*
X5379000Y-8845000D02*
X5289000Y-8935000D01*
X5289000Y-9099000D02*
X5379000Y-9189000D01*
X5379000Y-9099000D02*
X5289000Y-9189000D01*
X5289000Y-9353000D02*
X5379000Y-9443000D01*
X5379000Y-9353000D02*
X5289000Y-9443000D01*
X5289000Y-9607000D02*
X5379000Y-9697000D01*
X5379000Y-9607000D02*
X5289000Y-9697000D01*
X5289000Y-9861000D02*
X5379000Y-9951000D01*
X5379000Y-9861000D02*
X5289000Y-9951000D01*
X5289000Y-10115000D02*
X5379000Y-10205000D01*
X5379000Y-10115000D02*
X5289000Y-10205000D01*
X5289000Y-10369000D02*
X5379000Y-10459000D01*
X5379000Y-10369000D02*
X5289000Y-10459000D01*
X5289000Y-10623000D02*
X5379000Y-10713000D01*
X5379000Y-10623000D02*
X5289000Y-10713000D01*
X5289000Y-10877000D02*
X5379000Y-10967000D01*
X5379000Y-10877000D02*
X5289000Y-10967000D01*
X5289000Y-11131000D02*
X5379000Y-11221000D01*
X5379000Y-11131000D02*
X5289000Y-11221000D01*
X5289000Y-11385000D02*
X5379000Y-11475000D01*
X5379000Y-11385000D02*
X5289000Y-11475000D01*
X5289000Y-11639000D02*
X5379000Y-11729000D01*
X5379000Y-11639000D02*
X5289000Y-11729000D01*
X5289000Y-11893000D02*
X5379000Y-11983000D01*
X5379000Y-11893000D02*
X5289000Y-11983000D01*
X5289000Y-12147000D02*
X5379000Y-12237000D01*
X5379000Y-12147000D02*
X5289000Y-12237000D01*
X5289000Y-12401000D02*
X5379000Y-12491000D01*
X5379000Y-12401000D02*
X5289000Y-12491000D01*
X5289000Y-12655000D02*
X5379000Y-12745000D01*
X5379000Y-12655000D02*
X5289000Y-12745000D01*
X5289000Y-12909000D02*
X5379000Y-12999000D01*
X5379000Y-12909000D02*
X5289000Y-12999000D01*
X5543000Y-4781000D02*
X5633000Y-4871000D01*
X5633000Y-4781000D02*
X5543000Y-4871000D01*
X5543000Y-5035000D02*
X5633000Y-5125000D01*
X5633000Y-5035000D02*
X5543000Y-5125000D01*
X5543000Y-5289000D02*
X5633000Y-5379000D01*
X5633000Y-5289000D02*
X5543000Y-5379000D01*
X5543000Y-5543000D02*
X5633000Y-5633000D01*
X5633000Y-5543000D02*
X5543000Y-5633000D01*
X5543000Y-5797000D02*
X5633000Y-5887000D01*
X5633000Y-5797000D02*
X5543000Y-5887000D01*
X5543000Y-6051000D02*
X5633000Y-6141000D01*
X5633000Y-6051000D02*
X5543000Y-6141000D01*
X5543000Y-6305000D02*
X5633000Y-6395000D01*
X5633000Y-6305000D02*
X5543000Y-6395000D01*
X5543000Y-6559000D02*
X5633000Y-6649000D01*
X5633000Y-6559000D02*
X5543000Y-6649000D01*
X5543000Y-6813000D02*
X5633000Y-6903000D01*
X5633000Y-6813000D02*
X5543000Y-6903000D01*
X5543000Y-7067000D02*
X5633000Y-7157000D01*
X5633000Y-7067000D02*
X5543000Y-7157000D01*
X5543000Y-7321000D02*
X5633000Y-7411000D01*
X5633000Y-7321000D02*
X5543000Y-7411000D01*
X5543000Y-7575000D02*
X5633000Y-7665000D01*
X5633000Y-7575000D02*
X5543000Y-7665000D01*
X5543000Y-7829000D02*
X5633000Y-7919000D01*
X5633000Y-7829000D02*
X5543000Y-7919000D01*
X5543000Y-8083000D02*
X5633000Y-8173000D01*
X5633000Y-8083000D02*
X5543000Y-8173000D01*
X5543000Y-8337000D02*
X5633000Y-8427000D01*
X5633000Y-8337000D02*
X5543000Y-8427000D01*
X5543000Y-8591000D02*
X5633000Y-8681000D01*
X5633000Y-8591000D02*
X5543000Y-8681000D01*
X5543000Y-8845000D02*
X5633000Y-8935000D01*
X5633000Y-8845000D02*
X5543000Y-8935000D01*
X5543000Y-9099000D02*
X5633000Y-9189000D01*
X5633000Y-9099000D02*
X5543000Y-9189000D01*
X5543000Y-9353000D02*
X5633000Y-9443000D01*
X5633000Y-9353000D02*
X5543000Y-9443000D01*
X5543000Y-9607000D02*
X5633000Y-9697000D01*
X5633000Y-9607000D02*
X5543000Y-9697000D01*
X5543000Y-9861000D02*
X5633000Y-9951000D01*
X5633000Y-9861000D02*
X5543000Y-9951000D01*
X5543000Y-10115000D02*
X5633000Y-10205000D01*
X5633000Y-10115000D02*
X5543000Y-10205000D01*
X5543000Y-10369000D02*
X5633000Y-10459000D01*
X5633000Y-10369000D02*
X5543000Y-10459000D01*
X5543000Y-10623000D02*
X5633000Y-10713000D01*
X5633000Y-10623000D02*
X5543000Y-10713000D01*
X5543000Y-10877000D02*
X5633000Y-10967000D01*
X5633000Y-10877000D02*
X5543000Y-10967000D01*
X5543000Y-11131000D02*
X5633000Y-11221000D01*
X5633000Y-11131000D02*
X5543000Y-11221000D01*
X5543000Y-11385000D02*
X5633000Y-11475000D01*
X5633000Y-11385000D02*
X5543000Y-11475000D01*
X5543000Y-11639000D02*
X5633000Y-11729000D01*
X5633000Y-11639000D02*
X5543000Y-11729000D01*
X5543000Y-11893000D02*
X5633000Y-11983000D01*
X5633000Y-11893000D02*
X5543000Y-11983000D01*
X5543000Y-12147000D02*
X5633000Y-12237000D01*
X5633000Y-12147000D02*
X5543000Y-12237000D01*
X5543000Y-12401000D02*
X5633000Y-12491000D01*
X5633000Y-12401000D02*
X5543000Y-12491000D01*
X5543000Y-12655000D02*
X5633000Y-12745000D01*
X5633000Y-12655000D02*
X5543000Y-12745000D01*
X5543000Y-12909000D02*
X5633000Y-12999000D01*
X5633000Y-12909000D02*
X5543000Y-12999000D01*
X5797000Y-4781000D02*
X5887000Y-4871000D01*
X5887000Y-4781000D02*
X5797000Y-4871000D01*
X5797000Y-5035000D02*
X5887000Y-5125000D01*
X5887000Y-5035000D02*
X5797000Y-5125000D01*
X5797000Y-5289000D02*
X5887000Y-5379000D01*
X5887000Y-5289000D02*
X5797000Y-5379000D01*
X5797000Y-5543000D02*
X5887000Y-5633000D01*
X5887000Y-5543000D02*
X5797000Y-5633000D01*
X5797000Y-5797000D02*
X5887000Y-5887000D01*
X5887000Y-5797000D02*
X5797000Y-5887000D01*
X5797000Y-6051000D02*
X5887000Y-6141000D01*
X5887000Y-6051000D02*
X5797000Y-6141000D01*
X5797000Y-6305000D02*
X5887000Y-6395000D01*
X5887000Y-6305000D02*
X5797000Y-6395000D01*
X5797000Y-6559000D02*
X5887000Y-6649000D01*
X5887000Y-6559000D02*
X5797000Y-6649000D01*
X5797000Y-6813000D02*
X5887000Y-6903000D01*
X5887000Y-6813000D02*
X5797000Y-6903000D01*
X5797000Y-7067000D02*
X5887000Y-7157000D01*
X5887000Y-7067000D02*
X5797000Y-7157000D01*
X5797000Y-7321000D02*
X5887000Y-7411000D01*
X5887000Y-7321000D02*
X5797000Y-7411000D01*
X5797000Y-7575000D02*
X5887000Y-7665000D01*
X5887000Y-7575000D02*
X5797000Y-7665000D01*
X5797000Y-7829000D02*
X5887000Y-7919000D01*
X5887000Y-7829000D02*
X5797000Y-7919000D01*
X5797000Y-8083000D02*
X5887000Y-8173000D01*
X5887000Y-8083000D02*
X5797000Y-8173000D01*
X5797000Y-8337000D02*
X5887000Y-8427000D01*
X5887000Y-8337000D02*
X5797000Y-8427000D01*
X5797000Y-8591000D02*
X5887000Y-8681000D01*
X5887000Y-8591000D02*
X5797000Y-8681000D01*
X5797000Y-8845000D02*
X5887000Y-8935000D01*
X5887000Y-8845000D02*
X5797000Y-8935000D01*
X5797000Y-9099000D02*
X5887000Y-9189000D01*
X5887000Y-9099000D02*
X5797000Y-9189000D01*
X5797000Y-9353000D02*
X5887000Y-9443000D01*
X5887000Y-9353000D02*
X5797000Y-9443000D01*
X5797000Y-9607000D02*
X5887000Y-9697000D01*
X5887000Y-9607000D02*
X5797000Y-9697000D01*
X5797000Y-9861000D02*
X5887000Y-9951000D01*
X5887000Y-9861000D02*
X5797000Y-9951000D01*
X5797000Y-10115000D02*
X5887000Y-10205000D01*
X5887000Y-10115000D02*
X5797000Y-10205000D01*
X5797000Y-10369000D02*
X5887000Y-10459000D01*
X5887000Y-10369000D02*
X5797000Y-10459000D01*
X5797000Y-10623000D02*
X5887000Y-10713000D01*
X5887000Y-10623000D02*
X5797000Y-10713000D01*
X5797000Y-10877000D02*
X5887000Y-10967000D01*
X5887000Y-10877000D02*
X5797000Y-10967000D01*
X5797000Y-11131000D02*
X5887000Y-11221000D01*
X5887000Y-11131000D02*
X5797000Y-11221000D01*
X5797000Y-11385000D02*
X5887000Y-11475000D01*
X5887000Y-11385000D02*
X5797000Y-11475000D01*
X5797000Y-11639000D02*
X5887000Y-11729000D01*
X5887000Y-11639000D02*
X5797000Y-11729000D01*
X5797000Y-11893000D02*
X5887000Y-11983000D01*
X5887000Y-11893000D02*
X5797000Y-11983000D01*
X5797000Y-12147000D02*
X5887000Y-12237000D01*
X5887000Y-12147000D02*
X5797000Y-12237000D01*
X5797000Y-12401000D02*
X5887000Y-12491000D01*
X5887000Y-12401000D02*
X5797000Y-12491000D01*
X5797000Y-12655000D02*
X5887000Y-12745000D01*
X5887000Y-12655000D02*
X5797000Y-12745000D01*
X5797000Y-12909000D02*
X5887000Y-12999000D01*
X5887000Y-12909000D02*
X5797000Y-12999000D01*
X6051000Y-4781000D02*
X6141000Y-4871000D01*
X6141000Y-4781000D02*
X6051000Y-4871000D01*
X6051000Y-5035000D02*
X6141000Y-5125000D01*
X6141000Y-5035000D02*
X6051000Y-5125000D01*
X6051000Y-5289000D02*
X6141000Y-5379000D01*
X6141000Y-5289000D02*
X6051000Y-5379000D01*
X6051000Y-5543000D02*
X6141000Y-5633000D01*
X6141000Y-5543000D02*
X6051000Y-5633000D01*
X6051000Y-5797000D02*
X6141000Y-5887000D01*
X6141000Y-5797000D02*
X6051000Y-5887000D01*
X6051000Y-6051000D02*
X6141000Y-6141000D01*
X6141000Y-6051000D02*
X6051000Y-6141000D01*
X6051000Y-6305000D02*
X6141000Y-6395000D01*
X6141000Y-6305000D02*
X6051000Y-6395000D01*
X6051000Y-6559000D02*
X6141000Y-6649000D01*
X6141000Y-6559000D02*
X6051000Y-6649000D01*
X6051000Y-6813000D02*
X6141000Y-6903000D01*
X6141000Y-6813000D02*
X6051000Y-6903000D01*
X6051000Y-7067000D02*
X6141000Y-7157000D01*
X6141000Y-7067000D02*
X6051000Y-7157000D01*
X6051000Y-7321000D02*
X6141000Y-7411000D01*
X6141000Y-7321000D02*
X6051000Y-7411000D01*
X6051000Y-7575000D02*
X6141000Y-7665000D01*
X6141000Y-7575000D02*
X6051000Y-7665000D01*
X6051000Y-7829000D02*
X6141000Y-7919000D01*
X6141000Y-7829000D02*
X6051000Y-7919000D01*
X6051000Y-8083000D02*
X6141000Y-8173000D01*
X6141000Y-8083000D02*
X6051000Y-8173000D01*
X6051000Y-8337000D02*
X6141000Y-8427000D01*
X6141000Y-8337000D02*
X6051000Y-8427000D01*
X6051000Y-8591000D02*
X6141000Y-8681000D01*
X6141000Y-8591000D02*
X6051000Y-8681000D01*
X6051000Y-8845000D02*
X6141000Y-8935000D01*
X6141000Y-8845000D02*
X6051000Y-8935000D01*
X6051000Y-9099000D02*
X6141000Y-9189000D01*
X6141000Y-9099000D02*
X6051000Y-9189000D01*
X6051000Y-9353000D02*
X6141000Y-9443000D01*
X6141000Y-9353000D02*
X6051000Y-9443000D01*
X6051000Y-9607000D02*
X6141000Y-9697000D01*
X6141000Y-9607000D02*
X6051000Y-9697000D01*
X6051000Y-9861000D02*
X6141000Y-9951000D01*
X6141000Y-9861000D02*
X6051000Y-9951000D01*
X6051000Y-10115000D02*
X6141000Y-10205000D01*
X6141000Y-10115000D02*
X6051000Y-10205000D01*
X6051000Y-10369000D02*
X6141000Y-10459000D01*
X6141000Y-10369000D02*
X6051000Y-10459000D01*
X6051000Y-10623000D02*
X6141000Y-10713000D01*
X6141000Y-10623000D02*
X6051000Y-10713000D01*
X6051000Y-10877000D02*
X6141000Y-10967000D01*
X6141000Y-10877000D02*
X6051000Y-10967000D01*
X6051000Y-11131000D02*
X6141000Y-11221000D01*
X6141000Y-11131000D02*
X6051000Y-11221000D01*
X6051000Y-11385000D02*
X6141000Y-11475000D01*
X6141000Y-11385000D02*
X6051000Y-11475000D01*
X6051000Y-11639000D02*
X6141000Y-11729000D01*
X6141000Y-11639000D02*
X6051000Y-11729000D01*
X6051000Y-11893000D02*
X6141000Y-11983000D01*
X6141000Y-11893000D02*
X6051000Y-11983000D01*
X6051000Y-12147000D02*
X6141000Y-12237000D01*
X6141000Y-12147000D02*
X6051000Y-12237000D01*
X6051000Y-12401000D02*
X6141000Y-12491000D01*
X6141000Y-12401000D02*
X6051000Y-12491000D01*
X6051000Y-12655000D02*
X6141000Y-12745000D01*
X6141000Y-12655000D02*
X6051000Y-12745000D01*
X6051000Y-12909000D02*
X6141000Y-12999000D01*
X6141000Y-12909000D02*
X6051000Y-12999000D01*
X6305000Y-4781000D02*
X6395000Y-4871000D01*
X6395000Y-4781000D02*
X6305000Y-4871000D01*
X6305000Y-5035000D02*
X6395000Y-5125000D01*
X6395000Y-5035000D02*
X6305000Y-5125000D01*
X6305000Y-5289000D02*
X6395000Y-5379000D01*
X6395000Y-5289000D02*
X6305000Y-5379000D01*
X6305000Y-5543000D02*
X6395000Y-5633000D01*
X6395000Y-5543000D02*
X6305000Y-5633000D01*
X6305000Y-5797000D02*
X6395000Y-5887000D01*
X6395000Y-5797000D02*
X6305000Y-5887000D01*
X6305000Y-6051000D02*
X6395000Y-6141000D01*
X6395000Y-6051000D02*
X6305000Y-6141000D01*
X6305000Y-6305000D02*
X6395000Y-6395000D01*
X6395000Y-6305000D02*
X6305000Y-6395000D01*
X6305000Y-6559000D02*
X6395000Y-6649000D01*
X6395000Y-6559000D02*
X6305000Y-6649000D01*
X6305000Y-6813000D02*
X6395000Y-6903000D01*
X6395000Y-6813000D02*
X6305000Y-6903000D01*
X6305000Y-7067000D02*
X6395000Y-7157000D01*
X6395000Y-7067000D02*
X6305000Y-7157000D01*
X6305000Y-7321000D02*
X6395000Y-7411000D01*
X6395000Y-7321000D02*
X6305000Y-7411000D01*
X6305000Y-7575000D02*
X6395000Y-7665000D01*
X6395000Y-7575000D02*
X6305000Y-7665000D01*
X6305000Y-7829000D02*
X6395000Y-7919000D01*
X6395000Y-7829000D02*
X6305000Y-7919000D01*
X6305000Y-8083000D02*
X6395000Y-8173000D01*
X6395000Y-8083000D02*
X6305000Y-8173000D01*
X6305000Y-8337000D02*
X6395000Y-8427000D01*
X6395000Y-8337000D02*
X6305000Y-8427000D01*
X6305000Y-8591000D02*
X6395000Y-8681000D01*
X6395000Y-8591000D02*
X6305000Y-8681000D01*
X6305000Y-8845000D02*
X6395000Y-8935000D01*
X6395000Y-8845000D02*
X6305000Y-8935000D01*
X6305000Y-9099000D02*
X6395000Y-9189000D01*
X6395000Y-9099000D02*
X6305000Y-9189000D01*
X6305000Y-9353000D02*
X6395000Y-9443000D01*
X6395000Y-9353000D02*
X6305000Y-9443000D01*
X6305000Y-9607000D02*
X6395000Y-9697000D01*
X6395000Y-9607000D02*
X6305000Y-9697000D01*
X6305000Y-9861000D02*
X6395000Y-9951000D01*
X6395000Y-9861000D02*
X6305000Y-9951000D01*
X6305000Y-10115000D02*
X6395000Y-10205000D01*
X6395000Y-10115000D02*
X6305000Y-10205000D01*
X6305000Y-10369000D02*
X6395000Y-10459000D01*
X6395000Y-10369000D02*
X6305000Y-10459000D01*
X6305000Y-10623000D02*
X6395000Y-10713000D01*
X6395000Y-10623000D02*
X6305000Y-10713000D01*
X6305000Y-10877000D02*
X6395000Y-10967000D01*
X6395000Y-10877000D02*
X6305000Y-10967000D01*
X6305000Y-11131000D02*
X6395000Y-11221000D01*
X6395000Y-11131000D02*
X6305000Y-11221000D01*
X6305000Y-11385000D02*
X6395000Y-11475000D01*
X6395000Y-11385000D02*
X6305000Y-11475000D01*
X6305000Y-11639000D02*
X6395000Y-11729000D01*
X6395000Y-11639000D02*
X6305000Y-11729000D01*
X6305000Y-11893000D02*
X6395000Y-11983000D01*
X6395000Y-11893000D02*
X6305000Y-11983000D01*
X6305000Y-12147000D02*
X6395000Y-12237000D01*
X6395000Y-12147000D02*
X6305000Y-12237000D01*
X6305000Y-12401000D02*
X6395000Y-12491000D01*
X6395000Y-12401000D02*
X6305000Y-12491000D01*
X6305000Y-12655000D02*
X6395000Y-12745000D01*
X6395000Y-12655000D02*
X6305000Y-12745000D01*
X6305000Y-12909000D02*
X6395000Y-12999000D01*
X6395000Y-12909000D02*
X6305000Y-12999000D01*
X6559000Y-4781000D02*
X6649000Y-4871000D01*
X6649000Y-4781000D02*
X6559000Y-4871000D01*
X6559000Y-5035000D02*
X6649000Y-5125000D01*
X6649000Y-5035000D02*
X6559000Y-5125000D01*
X6559000Y-5289000D02*
X6649000Y-5379000D01*
X6649000Y-5289000D02*
X6559000Y-5379000D01*
X6559000Y-5543000D02*
X6649000Y-5633000D01*
X6649000Y-5543000D02*
X6559000Y-5633000D01*
X6559000Y-5797000D02*
X6649000Y-5887000D01*
X6649000Y-5797000D02*
X6559000Y-5887000D01*
X6559000Y-6051000D02*
X6649000Y-6141000D01*
X6649000Y-6051000D02*
X6559000Y-6141000D01*
X6559000Y-6305000D02*
X6649000Y-6395000D01*
X6649000Y-6305000D02*
X6559000Y-6395000D01*
X6559000Y-6559000D02*
X6649000Y-6649000D01*
X6649000Y-6559000D02*
X6559000Y-6649000D01*
X6559000Y-6813000D02*
X6649000Y-6903000D01*
X6649000Y-6813000D02*
X6559000Y-6903000D01*
X6559000Y-7067000D02*
X6649000Y-7157000D01*
X6649000Y-7067000D02*
X6559000Y-7157000D01*
X6559000Y-7321000D02*
X6649000Y-7411000D01*
X6649000Y-7321000D02*
X6559000Y-7411000D01*
X6559000Y-7575000D02*
X6649000Y-7665000D01*
X6649000Y-7575000D02*
X6559000Y-7665000D01*
X6559000Y-7829000D02*
X6649000Y-7919000D01*
X6649000Y-7829000D02*
X6559000Y-7919000D01*
X6559000Y-8083000D02*
X6649000Y-8173000D01*
X6649000Y-8083000D02*
X6559000Y-8173000D01*
X6559000Y-8337000D02*
X6649000Y-8427000D01*
X6649000Y-8337000D02*
X6559000Y-8427000D01*
X6559000Y-8591000D02*
X6649000Y-8681000D01*
X6649000Y-8591000D02*
X6559000Y-8681000D01*
X6559000Y-8845000D02*
X6649000Y-8935000D01*
X6649000Y-8845000D02*
X6559000Y-8935000D01*
X6559000Y-9099000D02*
X6649000Y-9189000D01*
X6649000Y-9099000D02*
X6559000Y-9189000D01*
X6559000Y-9353000D02*
X6649000Y-9443000D01*
X6649000Y-9353000D02*
X6559000Y-9443000D01*
X6559000Y-9607000D02*
X6649000Y-9697000D01*
X6649000Y-9607000D02*
X6559000Y-9697000D01*
X6559000Y-9861000D02*
X6649000Y-9951000D01*
X6649000Y-9861000D02*
X6559000Y-9951000D01*
X6559000Y-10115000D02*
X6649000Y-10205000D01*
X6649000Y-10115000D02*
X6559000Y-10205000D01*
X6559000Y-10369000D02*
X6649000Y-10459000D01*
X6649000Y-10369000D02*
X6559000Y-10459000D01*
X6559000Y-10623000D02*
X6649000Y-10713000D01*
X6649000Y-10623000D02*
X6559000Y-10713000D01*
X6559000Y-10877000D02*
X6649000Y-10967000D01*
X6649000Y-10877000D02*
X6559000Y-10967000D01*
X6559000Y-11131000D02*
X6649000Y-11221000D01*
X6649000Y-11131000D02*
X6559000Y-11221000D01*
X6559000Y-11385000D02*
X6649000Y-11475000D01*
X6649000Y-11385000D02*
X6559000Y-11475000D01*
X6559000Y-11639000D02*
X6649000Y-11729000D01*
X6649000Y-11639000D02*
X6559000Y-11729000D01*
X6559000Y-11893000D02*
X6649000Y-11983000D01*
X6649000Y-11893000D02*
X6559000Y-11983000D01*
X6559000Y-12147000D02*
X6649000Y-12237000D01*
X6649000Y-12147000D02*
X6559000Y-12237000D01*
X6559000Y-12401000D02*
X6649000Y-12491000D01*
X6649000Y-12401000D02*
X6559000Y-12491000D01*
X6559000Y-12655000D02*
X6649000Y-12745000D01*
X6649000Y-12655000D02*
X6559000Y-12745000D01*
X6559000Y-12909000D02*
X6649000Y-12999000D01*
X6649000Y-12909000D02*
X6559000Y-12999000D01*
X6813000Y-4781000D02*
X6903000Y-4871000D01*
X6903000Y-4781000D02*
X6813000Y-4871000D01*
X6813000Y-5035000D02*
X6903000Y-5125000D01*
X6903000Y-5035000D02*
X6813000Y-5125000D01*
X6813000Y-5289000D02*
X6903000Y-5379000D01*
X6903000Y-5289000D02*
X6813000Y-5379000D01*
X6813000Y-5543000D02*
X6903000Y-5633000D01*
X6903000Y-5543000D02*
X6813000Y-5633000D01*
X6813000Y-5797000D02*
X6903000Y-5887000D01*
X6903000Y-5797000D02*
X6813000Y-5887000D01*
X6813000Y-6051000D02*
X6903000Y-6141000D01*
X6903000Y-6051000D02*
X6813000Y-6141000D01*
X6813000Y-6305000D02*
X6903000Y-6395000D01*
X6903000Y-6305000D02*
X6813000Y-6395000D01*
X6813000Y-6559000D02*
X6903000Y-6649000D01*
X6903000Y-6559000D02*
X6813000Y-6649000D01*
X6813000Y-6813000D02*
X6903000Y-6903000D01*
X6903000Y-6813000D02*
X6813000Y-6903000D01*
X6813000Y-7067000D02*
X6903000Y-7157000D01*
X6903000Y-7067000D02*
X6813000Y-7157000D01*
X6813000Y-7321000D02*
X6903000Y-7411000D01*
X6903000Y-7321000D02*
X6813000Y-7411000D01*
X6813000Y-7575000D02*
X6903000Y-7665000D01*
X6903000Y-7575000D02*
X6813000Y-7665000D01*
X6813000Y-7829000D02*
X6903000Y-7919000D01*
X6903000Y-7829000D02*
X6813000Y-7919000D01*
X6813000Y-8083000D02*
X6903000Y-8173000D01*
X6903000Y-8083000D02*
X6813000Y-8173000D01*
X6813000Y-8337000D02*
X6903000Y-8427000D01*
X6903000Y-8337000D02*
X6813000Y-8427000D01*
X6813000Y-8591000D02*
X6903000Y-8681000D01*
X6903000Y-8591000D02*
X6813000Y-8681000D01*
X6813000Y-8845000D02*
X6903000Y-8935000D01*
X6903000Y-8845000D02*
X6813000Y-8935000D01*
X6813000Y-9099000D02*
X6903000Y-9189000D01*
X6903000Y-9099000D02*
X6813000Y-9189000D01*
X6813000Y-9353000D02*
X6903000Y-9443000D01*
X6903000Y-9353000D02*
X6813000Y-9443000D01*
X6813000Y-9607000D02*
X6903000Y-9697000D01*
X6903000Y-9607000D02*
X6813000Y-9697000D01*
X6813000Y-9861000D02*
X6903000Y-9951000D01*
X6903000Y-9861000D02*
X6813000Y-9951000D01*
X6813000Y-10115000D02*
X6903000Y-10205000D01*
X6903000Y-10115000D02*
X6813000Y-10205000D01*
X6813000Y-10369000D02*
X6903000Y-10459000D01*
X6903000Y-10369000D02*
X6813000Y-10459000D01*
X6813000Y-10623000D02*
X6903000Y-10713000D01*
X6903000Y-10623000D02*
X6813000Y-10713000D01*
X6813000Y-10877000D02*
X6903000Y-10967000D01*
X6903000Y-10877000D02*
X6813000Y-10967000D01*
X6813000Y-11131000D02*
X6903000Y-11221000D01*
X6903000Y-11131000D02*
X6813000Y-11221000D01*
X6813000Y-11385000D02*
X6903000Y-11475000D01*
X6903000Y-11385000D02*
X6813000Y-11475000D01*
X6813000Y-11639000D02*
X6903000Y-11729000D01*
X6903000Y-11639000D02*
X6813000Y-11729000D01*
X6813000Y-11893000D02*
X6903000Y-11983000D01*
X6903000Y-11893000D02*
X6813000Y-11983000D01*
X6813000Y-12147000D02*
X6903000Y-12237000D01*
X6903000Y-12147000D02*
X6813000Y-12237000D01*
X6813000Y-12401000D02*
X6903000Y-12491000D01*
X6903000Y-12401000D02*
X6813000Y-12491000D01*
X6813000Y-12655000D02*
X6903000Y-12745000D01*
X6903000Y-12655000D02*
X6813000Y-12745000D01*
X6813000Y-12909000D02*
X6903000Y-12999000D01*
X6903000Y-12909000D02*
X6813000Y-12999000D01*
X7067000Y-4781000D02*
X7157000Y-4871000D01*
X7157000Y-4781000D02*
X7067000Y-4871000D01*
X7067000Y-5035000D02*
X7157000Y-5125000D01*
X7157000Y-5035000D02*
X7067000Y-5125000D01*
X7067000Y-5289000D02*
X7157000Y-5379000D01*
X7157000Y-5289000D02*
X7067000Y-5379000D01*
X7067000Y-5543000D02*
X7157000Y-5633000D01*
X7157000Y-5543000D02*
X7067000Y-5633000D01*
X7067000Y-5797000D02*
X7157000Y-5887000D01*
X7157000Y-5797000D02*
X7067000Y-5887000D01*
X7067000Y-6051000D02*
X7157000Y-6141000D01*
X7157000Y-6051000D02*
X7067000Y-6141000D01*
X7067000Y-6305000D02*
X7157000Y-6395000D01*
X7157000Y-6305000D02*
X7067000Y-6395000D01*
X7067000Y-6559000D02*
X7157000Y-6649000D01*
X7157000Y-6559000D02*
X7067000Y-6649000D01*
X7067000Y-6813000D02*
X7157000Y-6903000D01*
X7157000Y-6813000D02*
X7067000Y-6903000D01*
X7067000Y-7067000D02*
X7157000Y-7157000D01*
X7157000Y-7067000D02*
X7067000Y-7157000D01*
X7067000Y-7321000D02*
X7157000Y-7411000D01*
X7157000Y-7321000D02*
X7067000Y-7411000D01*
X7067000Y-7575000D02*
X7157000Y-7665000D01*
X7157000Y-7575000D02*
X7067000Y-7665000D01*
X7067000Y-7829000D02*
X7157000Y-7919000D01*
X7157000Y-7829000D02*
X7067000Y-7919000D01*
X7067000Y-8083000D02*
X7157000Y-8173000D01*
X7157000Y-8083000D02*
X7067000Y-8173000D01*
X7067000Y-8337000D02*
X7157000Y-8427000D01*
X7157000Y-8337000D02*
X7067000Y-8427000D01*
X7067000Y-8591000D02*
X7157000Y-8681000D01*
X7157000Y-8591000D02*
X7067000Y-8681000D01*
X7067000Y-8845000D02*
X7157000Y-8935000D01*
X7157000Y-8845000D02*
X7067000Y-8935000D01*
X7067000Y-9099000D02*
X7157000Y-9189000D01*
X7157000Y-9099000D02*
X7067000Y-9189000D01*
X7067000Y-9353000D02*
X7157000Y-9443000D01*
X7157000Y-9353000D02*
X7067000Y-9443000D01*
X7067000Y-9607000D02*
X7157000Y-9697000D01*
X7157000Y-9607000D02*
X7067000Y-9697000D01*
X7067000Y-9861000D02*
X7157000Y-9951000D01*
X7157000Y-9861000D02*
X7067000Y-9951000D01*
X7067000Y-10115000D02*
X7157000Y-10205000D01*
X7157000Y-10115000D02*
X7067000Y-10205000D01*
X7067000Y-10369000D02*
X7157000Y-10459000D01*
X7157000Y-10369000D02*
X7067000Y-10459000D01*
X7067000Y-10623000D02*
X7157000Y-10713000D01*
X7157000Y-10623000D02*
X7067000Y-10713000D01*
X7067000Y-10877000D02*
X7157000Y-10967000D01*
X7157000Y-10877000D02*
X7067000Y-10967000D01*
X7067000Y-11131000D02*
X7157000Y-11221000D01*
X7157000Y-11131000D02*
X7067000Y-11221000D01*
X7067000Y-11385000D02*
X7157000Y-11475000D01*
X7157000Y-11385000D02*
X7067000Y-11475000D01*
X7067000Y-11639000D02*
X7157000Y-11729000D01*
X7157000Y-11639000D02*
X7067000Y-11729000D01*
X7067000Y-11893000D02*
X7157000Y-11983000D01*
X7157000Y-11893000D02*
X7067000Y-11983000D01*
X7067000Y-12147000D02*
X7157000Y-12237000D01*
X7157000Y-12147000D02*
X7067000Y-12237000D01*
X7067000Y-12401000D02*
X7157000Y-12491000D01*
X7157000Y-12401000D02*
X7067000Y-12491000D01*
X7067000Y-12655000D02*
X7157000Y-12745000D01*
X7157000Y-12655000D02*
X7067000Y-12745000D01*
X7067000Y-12909000D02*
X7157000Y-12999000D01*
X7157000Y-12909000D02*
X7067000Y-12999000D01*
X7321000Y-4781000D02*
X7411000Y-4871000D01*
X7411000Y-4781000D02*
X7321000Y-4871000D01*
X7321000Y-5035000D02*
X7411000Y-5125000D01*
X7411000Y-5035000D02*
X7321000Y-5125000D01*
X7321000Y-5289000D02*
X7411000Y-5379000D01*
X7411000Y-5289000D02*
X7321000Y-5379000D01*
X7321000Y-5543000D02*
X7411000Y-5633000D01*
X7411000Y-5543000D02*
X7321000Y-5633000D01*
X7321000Y-5797000D02*
X7411000Y-5887000D01*
X7411000Y-5797000D02*
X7321000Y-5887000D01*
X7321000Y-6051000D02*
X7411000Y-6141000D01*
X7411000Y-6051000D02*
X7321000Y-6141000D01*
X7321000Y-6305000D02*
X7411000Y-6395000D01*
X7411000Y-6305000D02*
X7321000Y-6395000D01*
X7321000Y-6559000D02*
X7411000Y-6649000D01*
X7411000Y-6559000D02*
X7321000Y-6649000D01*
X7321000Y-6813000D02*
X7411000Y-6903000D01*
X7411000Y-6813000D02*
X7321000Y-6903000D01*
X7321000Y-7067000D02*
X7411000Y-7157000D01*
X7411000Y-7067000D02*
X7321000Y-7157000D01*
X7321000Y-7321000D02*
X7411000Y-7411000D01*
X7411000Y-7321000D02*
X7321000Y-7411000D01*
X7321000Y-7575000D02*
X7411000Y-7665000D01*
X7411000Y-7575000D02*
X7321000Y-7665000D01*
X7321000Y-7829000D02*
X7411000Y-7919000D01*
X7411000Y-7829000D02*
X7321000Y-7919000D01*
X7321000Y-8083000D02*
X7411000Y-8173000D01*
X7411000Y-8083000D02*
X7321000Y-8173000D01*
X7321000Y-8337000D02*
X7411000Y-8427000D01*
X7411000Y-8337000D02*
X7321000Y-8427000D01*
X7321000Y-8591000D02*
X7411000Y-8681000D01*
X7411000Y-8591000D02*
X7321000Y-8681000D01*
X7321000Y-8845000D02*
X7411000Y-8935000D01*
X7411000Y-8845000D02*
X7321000Y-8935000D01*
X7321000Y-9099000D02*
X7411000Y-9189000D01*
X7411000Y-9099000D02*
X7321000Y-9189000D01*
X7321000Y-9353000D02*
X7411000Y-9443000D01*
X7411000Y-9353000D02*
X7321000Y-9443000D01*
X7321000Y-9607000D02*
X7411000Y-9697000D01*
X7411000Y-9607000D02*
X7321000Y-9697000D01*
X7321000Y-9861000D02*
X7411000Y-9951000D01*
X7411000Y-9861000D02*
X7321000Y-9951000D01*
X7321000Y-10115000D02*
X7411000Y-10205000D01*
X7411000Y-10115000D02*
X7321000Y-10205000D01*
X7321000Y-10369000D02*
X7411000Y-10459000D01*
X7411000Y-10369000D02*
X7321000Y-10459000D01*
X7321000Y-10623000D02*
X7411000Y-10713000D01*
X7411000Y-10623000D02*
X7321000Y-10713000D01*
X7321000Y-10877000D02*
X7411000Y-10967000D01*
X7411000Y-10877000D02*
X7321000Y-10967000D01*
X7321000Y-11131000D02*
X7411000Y-11221000D01*
X7411000Y-11131000D02*
X7321000Y-11221000D01*
X7321000Y-11385000D02*
X7411000Y-11475000D01*
X7411000Y-11385000D02*
X7321000Y-11475000D01*
X7321000Y-11639000D02*
X7411000Y-11729000D01*
X7411000Y-11639000D02*
X7321000Y-11729000D01*
X7321000Y-11893000D02*
X7411000Y-11983000D01*
X7411000Y-11893000D02*
X7321000Y-11983000D01*
X7321000Y-12147000D02*
X7411000Y-12237000D01*
X7411000Y-12147000D02*
X7321000Y-12237000D01*
X7321000Y-12401000D02*
X7411000Y-12491000D01*
X7411000Y-12401000D02*
X7321000Y-12491000D01*
X7321000Y-12655000D02*
X7411000Y-12745000D01*
X7411000Y-12655000D02*
X7321000Y-12745000D01*
X7321000Y-12909000D02*
X7411000Y-12999000D01*
X7411000Y-12909000D02*
X7321000Y-12999000D01*
X7575000Y-4781000D02*
X7665000Y-4871000D01*
X7665000Y-4781000D02*
X7575000Y-4871000D01*
X7575000Y-5035000D02*
X7665000Y-5125000D01*
X7665000Y-5035000D02*
X7575000Y-5125000D01*
X7575000Y-5289000D02*
X7665000Y-5379000D01*
X7665000Y-5289000D02*
X7575000Y-5379000D01*
X7575000Y-5543000D02*
X7665000Y-5633000D01*
X7665000Y-5543000D02*
X7575000Y-5633000D01*
X7575000Y-5797000D02*
X7665000Y-5887000D01*
X7665000Y-5797000D02*
X7575000Y-5887000D01*
X7575000Y-6051000D02*
X7665000Y-6141000D01*
X7665000Y-6051000D02*
X7575000Y-6141000D01*
X7575000Y-6305000D02*
X7665000Y-6395000D01*
X7665000Y-6305000D02*
X7575000Y-6395000D01*
X7575000Y-6559000D02*
X7665000Y-6649000D01*
X7665000Y-6559000D02*
X7575000Y-6649000D01*
X7575000Y-6813000D02*
X7665000Y-6903000D01*
X7665000Y-6813000D02*
X7575000Y-6903000D01*
X7575000Y-7067000D02*
X7665000Y-7157000D01*
X7665000Y-7067000D02*
X7575000Y-7157000D01*
X7575000Y-7321000D02*
X7665000Y-7411000D01*
X7665000Y-7321000D02*
X7575000Y-7411000D01*
X7575000Y-7575000D02*
X7665000Y-7665000D01*
X7665000Y-7575000D02*
X7575000Y-7665000D01*
X7575000Y-7829000D02*
X7665000Y-7919000D01*
X7665000Y-7829000D02*
X7575000Y-7919000D01*
X7575000Y-8083000D02*
X7665000Y-8173000D01*
X7665000Y-8083000D02*
X7575000Y-8173000D01*
X7575000Y-8337000D02*
X7665000Y-8427000D01*
X7665000Y-8337000D02*
X7575000Y-8427000D01*
X7575000Y-8591000D02*
X7665000Y-8681000D01*
X7665000Y-8591000D02*
X7575000Y-8681000D01*
X7575000Y-8845000D02*
X7665000Y-8935000D01*
X7665000Y-8845000D02*
X7575000Y-8935000D01*
X7575000Y-9099000D02*
X7665000Y-9189000D01*
X7665000Y-9099000D02*
X7575000Y-9189000D01*
X7575000Y-9353000D02*
X7665000Y-9443000D01*
X7665000Y-9353000D02*
X7575000Y-9443000D01*
X7575000Y-9607000D02*
X7665000Y-9697000D01*
X7665000Y-9607000D02*
X7575000Y-9697000D01*
X7575000Y-9861000D02*
X7665000Y-9951000D01*
X7665000Y-9861000D02*
X7575000Y-9951000D01*
X7575000Y-10115000D02*
X7665000Y-10205000D01*
X7665000Y-10115000D02*
X7575000Y-10205000D01*
X7575000Y-10369000D02*
X7665000Y-10459000D01*
X7665000Y-10369000D02*
X7575000Y-10459000D01*
X7575000Y-10623000D02*
X7665000Y-10713000D01*
X7665000Y-10623000D02*
X7575000Y-10713000D01*
X7575000Y-10877000D02*
X7665000Y-10967000D01*
X7665000Y-10877000D02*
X7575000Y-10967000D01*
X7575000Y-11131000D02*
X7665000Y-11221000D01*
X7665000Y-11131000D02*
X7575000Y-11221000D01*
X7575000Y-11385000D02*
X7665000Y-11475000D01*
X7665000Y-11385000D02*
X7575000Y-11475000D01*
X7575000Y-11639000D02*
X7665000Y-11729000D01*
X7665000Y-11639000D02*
X7575000Y-11729000D01*
X7575000Y-11893000D02*
X7665000Y-11983000D01*
X7665000Y-11893000D02*
X7575000Y-11983000D01*
X7575000Y-12147000D02*
X7665000Y-12237000D01*
X7665000Y-12147000D02*
X7575000Y-12237000D01*
X7575000Y-12401000D02*
X7665000Y-12491000D01*
X7665000Y-12401000D02*
X7575000Y-12491000D01*
X7575000Y-12655000D02*
X7665000Y-12745000D01*
X7665000Y-12655000D02*
X7575000Y-12745000D01*
X7575000Y-12909000D02*
X7665000Y-12999000D01*
X7665000Y-12909000D02*
X7575000Y-12999000D01*
X7829000Y-4781000D02*
X7919000Y-4871000D01*
X7919000Y-4781000D02*
X7829000Y-4871000D01*
X7829000Y-5035000D02*
X7919000Y-5125000D01*
X7919000Y-5035000D02*
X7829000Y-5125000D01*
X7829000Y-5289000D02*
X7919000Y-5379000D01*
X7919000Y-5289000D02*
X7829000Y-5379000D01*
X7829000Y-5543000D02*
X7919000Y-5633000D01*
X7919000Y-5543000D02*
X7829000Y-5633000D01*
X7829000Y-5797000D02*
X7919000Y-5887000D01*
X7919000Y-5797000D02*
X7829000Y-5887000D01*
X7829000Y-6051000D02*
X7919000Y-6141000D01*
X7919000Y-6051000D02*
X7829000Y-6141000D01*
X7829000Y-6305000D02*
X7919000Y-6395000D01*
X7919000Y-6305000D02*
X7829000Y-6395000D01*
X7829000Y-6559000D02*
X7919000Y-6649000D01*
X7919000Y-6559000D02*
X7829000Y-6649000D01*
X7829000Y-6813000D02*
X7919000Y-6903000D01*
X7919000Y-6813000D02*
X7829000Y-6903000D01*
X7829000Y-7067000D02*
X7919000Y-7157000D01*
X7919000Y-7067000D02*
X7829000Y-7157000D01*
X7829000Y-7321000D02*
X7919000Y-7411000D01*
X7919000Y-7321000D02*
X7829000Y-7411000D01*
X7829000Y-7575000D02*
X7919000Y-7665000D01*
X7919000Y-7575000D02*
X7829000Y-7665000D01*
X7829000Y-7829000D02*
X7919000Y-7919000D01*
X7919000Y-7829000D02*
X7829000Y-7919000D01*
X7829000Y-8083000D02*
X7919000Y-8173000D01*
X7919000Y-8083000D02*
X7829000Y-8173000D01*
X7829000Y-8337000D02*
X7919000Y-8427000D01*
X7919000Y-8337000D02*
X7829000Y-8427000D01*
X7829000Y-8591000D02*
X7919000Y-8681000D01*
X7919000Y-8591000D02*
X7829000Y-8681000D01*
X7829000Y-8845000D02*
X7919000Y-8935000D01*
X7919000Y-8845000D02*
X7829000Y-8935000D01*
X7829000Y-9099000D02*
X7919000Y-9189000D01*
X7919000Y-9099000D02*
X7829000Y-9189000D01*
X7829000Y-9353000D02*
X7919000Y-9443000D01*
X7919000Y-9353000D02*
X7829000Y-9443000D01*
X7829000Y-9607000D02*
X7919000Y-9697000D01*
X7919000Y-9607000D02*
X7829000Y-9697000D01*
X7829000Y-9861000D02*
X7919000Y-9951000D01*
X7919000Y-9861000D02*
X7829000Y-9951000D01*
X7829000Y-10115000D02*
X7919000Y-10205000D01*
X7919000Y-10115000D02*
X7829000Y-10205000D01*
X7829000Y-10369000D02*
X7919000Y-10459000D01*
X7919000Y-10369000D02*
X7829000Y-10459000D01*
X7829000Y-10623000D02*
X7919000Y-10713000D01*
X7919000Y-10623000D02*
X7829000Y-10713000D01*
X7829000Y-10877000D02*
X7919000Y-10967000D01*
X7919000Y-10877000D02*
X7829000Y-10967000D01*
X7829000Y-11131000D02*
X7919000Y-11221000D01*
X7919000Y-11131000D02*
X7829000Y-11221000D01*
X7829000Y-11385000D02*
X7919000Y-11475000D01*
X7919000Y-11385000D02*
X7829000Y-11475000D01*
X7829000Y-11639000D02*
X7919000Y-11729000D01*
X7919000Y-11639000D02*
X7829000Y-11729000D01*
X7829000Y-11893000D02*
X7919000Y-11983000D01*
X7919000Y-11893000D02*
X7829000Y-11983000D01*
X7829000Y-12147000D02*
X7919000Y-12237000D01*
X7919000Y-12147000D02*
X7829000Y-12237000D01*
X7829000Y-12401000D02*
X7919000Y-12491000D01*
X7919000Y-12401000D02*
X7829000Y-12491000D01*
X7829000Y-12655000D02*
X7919000Y-12745000D01*
X7919000Y-12655000D02*
X7829000Y-12745000D01*
X7829000Y-12909000D02*
X7919000Y-12999000D01*
X7919000Y-12909000D02*
X7829000Y-12999000D01*
X8083000Y-4781000D02*
X8173000Y-4871000D01*
X8173000Y-4781000D02*
X8083000Y-4871000D01*
X8083000Y-5035000D02*
X8173000Y-5125000D01*
X8173000Y-5035000D02*
X8083000Y-5125000D01*
X8083000Y-5289000D02*
X8173000Y-5379000D01*
X8173000Y-5289000D02*
X8083000Y-5379000D01*
X8083000Y-5543000D02*
X8173000Y-5633000D01*
X8173000Y-5543000D02*
X8083000Y-5633000D01*
X8083000Y-5797000D02*
X8173000Y-5887000D01*
X8173000Y-5797000D02*
X8083000Y-5887000D01*
X8083000Y-6051000D02*
X8173000Y-6141000D01*
X8173000Y-6051000D02*
X8083000Y-6141000D01*
X8083000Y-6305000D02*
X8173000Y-6395000D01*
X8173000Y-6305000D02*
X8083000Y-6395000D01*
X8083000Y-6559000D02*
X8173000Y-6649000D01*
X8173000Y-6559000D02*
X8083000Y-6649000D01*
X8083000Y-6813000D02*
X8173000Y-6903000D01*
X8173000Y-6813000D02*
X8083000Y-6903000D01*
X8083000Y-7067000D02*
X8173000Y-7157000D01*
X8173000Y-7067000D02*
X8083000Y-7157000D01*
X8083000Y-7321000D02*
X8173000Y-7411000D01*
X8173000Y-7321000D02*
X8083000Y-7411000D01*
X8083000Y-7575000D02*
X8173000Y-7665000D01*
X8173000Y-7575000D02*
X8083000Y-7665000D01*
X8083000Y-7829000D02*
X8173000Y-7919000D01*
X8173000Y-7829000D02*
X8083000Y-7919000D01*
X8083000Y-8083000D02*
X8173000Y-8173000D01*
X8173000Y-8083000D02*
X8083000Y-8173000D01*
X8083000Y-8337000D02*
X8173000Y-8427000D01*
X8173000Y-8337000D02*
X8083000Y-8427000D01*
X8083000Y-8591000D02*
X8173000Y-8681000D01*
X8173000Y-8591000D02*
X8083000Y-8681000D01*
X8083000Y-8845000D02*
X8173000Y-8935000D01*
X8173000Y-8845000D02*
X8083000Y-8935000D01*
X8083000Y-9099000D02*
X8173000Y-9189000D01*
X8173000Y-9099000D02*
X8083000Y-9189000D01*
X8083000Y-9353000D02*
X8173000Y-9443000D01*
X8173000Y-9353000D02*
X8083000Y-9443000D01*
X8083000Y-9607000D02*
X8173000Y-9697000D01*
X8173000Y-9607000D02*
X8083000Y-9697000D01*
X8083000Y-9861000D02*
X8173000Y-9951000D01*
X8173000Y-9861000D02*
X8083000Y-9951000D01*
X8083000Y-10115000D02*
X8173000Y-10205000D01*
X8173000Y-10115000D02*
X8083000Y-10205000D01*
X8083000Y-10369000D02*
X8173000Y-10459000D01*
X8173000Y-10369000D02*
X8083000Y-10459000D01*
X8083000Y-10623000D02*
X8173000Y-10713000D01*
X8173000Y-10623000D02*
X8083000Y-10713000D01*
X8083000Y-10877000D02*
X8173000Y-10967000D01*
X8173000Y-10877000D02*
X8083000Y-10967000D01*
X8083000Y-11131000D02*
X8173000Y-11221000D01*
X8173000Y-11131000D02*
X8083000Y-11221000D01*
X8083000Y-11385000D02*
X8173000Y-11475000D01*
X8173000Y-11385000D02*
X8083000Y-11475000D01*
X8083000Y-11639000D02*
X8173000Y-11729000D01*
X8173000Y-11639000D02*
X8083000Y-11729000D01*
X8083000Y-11893000D02*
X8173000Y-11983000D01*
X8173000Y-11893000D02*
X8083000Y-11983000D01*
X8083000Y-12147000D02*
X8173000Y-12237000D01*
X8173000Y-12147000D02*
X8083000Y-12237000D01*
X8083000Y-12401000D02*
X8173000Y-12491000D01*
X8173000Y-12401000D02*
X8083000Y-12491000D01*
X8083000Y-12655000D02*
X8173000Y-12745000D01*
X8173000Y-12655000D02*
X8083000Y-12745000D01*
X8083000Y-12909000D02*
X8173000Y-12999000D01*
X8173000Y-12909000D02*
X8083000Y-12999000D01*
X8337000Y-4781000D02*
X8427000Y-4871000D01*
X8427000Y-4781000D02*
X8337000Y-4871000D01*
X8337000Y-5035000D02*
X8427000Y-5125000D01*
X8427000Y-5035000D02*
X8337000Y-5125000D01*
X8337000Y-5289000D02*
X8427000Y-5379000D01*
X8427000Y-5289000D02*
X8337000Y-5379000D01*
X8337000Y-5543000D02*
X8427000Y-5633000D01*
X8427000Y-5543000D02*
X8337000Y-5633000D01*
X8337000Y-5797000D02*
X8427000Y-5887000D01*
X8427000Y-5797000D02*
X8337000Y-5887000D01*
X8337000Y-6051000D02*
X8427000Y-6141000D01*
X8427000Y-6051000D02*
X8337000Y-6141000D01*
X8337000Y-6305000D02*
X8427000Y-6395000D01*
X8427000Y-6305000D02*
X8337000Y-6395000D01*
X8337000Y-6559000D02*
X8427000Y-6649000D01*
X8427000Y-6559000D02*
X8337000Y-6649000D01*
X8337000Y-6813000D02*
X8427000Y-6903000D01*
X8427000Y-6813000D02*
X8337000Y-6903000D01*
X8337000Y-7067000D02*
X8427000Y-7157000D01*
X8427000Y-7067000D02*
X8337000Y-7157000D01*
X8337000Y-7321000D02*
X8427000Y-7411000D01*
X8427000Y-7321000D02*
X8337000Y-7411000D01*
X8337000Y-7575000D02*
X8427000Y-7665000D01*
X8427000Y-7575000D02*
X8337000Y-7665000D01*
X8337000Y-7829000D02*
X8427000Y-7919000D01*
X8427000Y-7829000D02*
X8337000Y-7919000D01*
X8337000Y-8083000D02*
X8427000Y-8173000D01*
X8427000Y-8083000D02*
X8337000Y-8173000D01*
X8337000Y-8337000D02*
X8427000Y-8427000D01*
X8427000Y-8337000D02*
X8337000Y-8427000D01*
X8337000Y-8591000D02*
X8427000Y-8681000D01*
X8427000Y-8591000D02*
X8337000Y-8681000D01*
X8337000Y-8845000D02*
X8427000Y-8935000D01*
X8427000Y-8845000D02*
X8337000Y-8935000D01*
X8337000Y-9099000D02*
X8427000Y-9189000D01*
X8427000Y-9099000D02*
X8337000Y-9189000D01*
X8337000Y-9353000D02*
X8427000Y-9443000D01*
X8427000Y-9353000D02*
X8337000Y-9443000D01*
X8337000Y-9607000D02*
X8427000Y-9697000D01*
X8427000Y-9607000D02*
X8337000Y-9697000D01*
X8337000Y-9861000D02*
X8427000Y-9951000D01*
X8427000Y-9861000D02*
X8337000Y-9951000D01*
X8337000Y-10115000D02*
X8427000Y-10205000D01*
X8427000Y-10115000D02*
X8337000Y-10205000D01*
X8337000Y-10369000D02*
X8427000Y-10459000D01*
X8427000Y-10369000D02*
X8337000Y-10459000D01*
X8337000Y-10623000D02*
X8427000Y-10713000D01*
X8427000Y-10623000D02*
X8337000Y-10713000D01*
X8337000Y-10877000D02*
X8427000Y-10967000D01*
X8427000Y-10877000D02*
X8337000Y-10967000D01*
X8337000Y-11131000D02*
X8427000Y-11221000D01*
X8427000Y-11131000D02*
X8337000Y-11221000D01*
X8337000Y-11385000D02*
X8427000Y-11475000D01*
X8427000Y-11385000D02*
X8337000Y-11475000D01*
X8337000Y-11639000D02*
X8427000Y-11729000D01*
X8427000Y-11639000D02*
X8337000Y-11729000D01*
X8337000Y-11893000D02*
X8427000Y-11983000D01*
X8427000Y-11893000D02*
X8337000Y-11983000D01*
X8337000Y-12147000D02*
X8427000Y-12237000D01*
X8427000Y-12147000D02*
X8337000Y-12237000D01*
X8337000Y-12401000D02*
X8427000Y-12491000D01*
X8427000Y-12401000D02*
X8337000Y-12491000D01*
X8337000Y-12655000D02*
X8427000Y-12745000D01*
X8427000Y-12655000D02*
X8337000Y-12745000D01*
X8337000Y-12909000D02*
X8427000Y-12999000D01*
X8427000Y-12909000D02*
X8337000Y-12999000D01*
X8591000Y-4781000D02*
X8681000Y-4871000D01*
X8681000Y-4781000D02*
X8591000Y-4871000D01*
X8591000Y-5035000D02*
X8681000Y-5125000D01*
X8681000Y-5035000D02*
X8591000Y-5125000D01*
X8591000Y-5289000D02*
X8681000Y-5379000D01*
X8681000Y-5289000D02*
X8591000Y-5379000D01*
X8591000Y-5543000D02*
X8681000Y-5633000D01*
X8681000Y-5543000D02*
X8591000Y-5633000D01*
X8591000Y-5797000D02*
X8681000Y-5887000D01*
X8681000Y-5797000D02*
X8591000Y-5887000D01*
X8591000Y-6051000D02*
X8681000Y-6141000D01*
X8681000Y-6051000D02*
X8591000Y-6141000D01*
X8591000Y-6305000D02*
X8681000Y-6395000D01*
X8681000Y-6305000D02*
X8591000Y-6395000D01*
X8591000Y-6559000D02*
X8681000Y-6649000D01*
X8681000Y-6559000D02*
X8591000Y-6649000D01*
X8591000Y-6813000D02*
X8681000Y-6903000D01*
X8681000Y-6813000D02*
X8591000Y-6903000D01*
X8591000Y-7067000D02*
X8681000Y-7157000D01*
X8681000Y-7067000D02*
X8591000Y-7157000D01*
X8591000Y-7321000D02*
X8681000Y-7411000D01*
X8681000Y-7321000D02*
X8591000Y-7411000D01*
X8591000Y-7575000D02*
X8681000Y-7665000D01*
X8681000Y-7575000D02*
X8591000Y-7665000D01*
X8591000Y-7829000D02*
X8681000Y-7919000D01*
X8681000Y-7829000D02*
X8591000Y-7919000D01*
X8591000Y-8083000D02*
X8681000Y-8173000D01*
X8681000Y-8083000D02*
X8591000Y-8173000D01*
X8591000Y-8337000D02*
X8681000Y-8427000D01*
X8681000Y-8337000D02*
X8591000Y-8427000D01*
X8591000Y-8591000D02*
X8681000Y-8681000D01*
X8681000Y-8591000D02*
X8591000Y-8681000D01*
X8591000Y-8845000D02*
X8681000Y-8935000D01*
X8681000Y-8845000D02*
X8591000Y-8935000D01*
X8591000Y-9099000D02*
X8681000Y-9189000D01*
X8681000Y-9099000D02*
X8591000Y-9189000D01*
X8591000Y-9353000D02*
X8681000Y-9443000D01*
X8681000Y-9353000D02*
X8591000Y-9443000D01*
X8591000Y-9607000D02*
X8681000Y-9697000D01*
X8681000Y-9607000D02*
X8591000Y-9697000D01*
X8591000Y-9861000D02*
X8681000Y-9951000D01*
X8681000Y-9861000D02*
X8591000Y-9951000D01*
X8591000Y-10115000D02*
X8681000Y-10205000D01*
X8681000Y-10115000D02*
X8591000Y-10205000D01*
X8591000Y-10369000D02*
X8681000Y-10459000D01*
X8681000Y-10369000D02*
X8591000Y-10459000D01*
X8591000Y-10623000D02*
X8681000Y-10713000D01*
X8681000Y-10623000D02*
X8591000Y-10713000D01*
X8591000Y-10877000D02*
X8681000Y-10967000D01*
X8681000Y-10877000D02*
X8591000Y-10967000D01*
X8591000Y-11131000D02*
X8681000Y-11221000D01*
X8681000Y-11131000D02*
X8591000Y-11221000D01*
X8591000Y-11385000D02*
X8681000Y-11475000D01*
X8681000Y-11385000D02*
X8591000Y-11475000D01*
X8591000Y-11639000D02*
X8681000Y-11729000D01*
X8681000Y-11639000D02*
X8591000Y-11729000D01*
X8591000Y-11893000D02*
X8681000Y-11983000D01*
X8681000Y-11893000D02*
X8591000Y-11983000D01*
X8591000Y-12147000D02*
X8681000Y-12237000D01*
X8681000Y-12147000D02*
X8591000Y-12237000D01*
X8591000Y-12401000D02*
X8681000Y-12491000D01*
X8681000Y-12401000D02*
X8591000Y-12491000D01*
X8591000Y-12655000D02*
X8681000Y-12745000D01*
X8681000Y-12655000D02*
X8591000Y-12745000D01*
X8591000Y-12909000D02*
X8681000Y-12999000D01*
X8681000Y-12909000D02*
X8591000Y-12999000D01*
X8845000Y-4781000D02*
X8935000Y-4871000D01*
X8935000Y-4781000D02*
X8845000Y-4871000D01*
X8845000Y-5035000D02*
X8935000Y-5125000D01*
X8935000Y-5035000D02*
X8845000Y-5125000D01*
X8845000Y-5289000D02*
X8935000Y-5379000D01*
X8935000Y-5289000D02*
X8845000Y-5379000D01*
X8845000Y-5543000D02*
X8935000Y-5633000D01*
X8935000Y-5543000D02*
X8845000Y-5633000D01*
X8845000Y-5797000D02*
X8935000Y-5887000D01*
X8935000Y-5797000D02*
X8845000Y-5887000D01*
X8845000Y-6051000D02*
X8935000Y-6141000D01*
X8935000Y-6051000D02*
X8845000Y-6141000D01*
X8845000Y-6305000D02*
X8935000Y-6395000D01*
X8935000Y-6305000D02*
X8845000Y-6395000D01*
X8845000Y-6559000D02*
X8935000Y-6649000D01*
X8935000Y-6559000D02*
X8845000Y-6649000D01*
X8845000Y-6813000D02*
X8935000Y-6903000D01*
X8935000Y-6813000D02*
X8845000Y-6903000D01*
X8845000Y-7067000D02*
X8935000Y-7157000D01*
X8935000Y-7067000D02*
X8845000Y-7157000D01*
X8845000Y-7321000D02*
X8935000Y-7411000D01*
X8935000Y-7321000D02*
X8845000Y-7411000D01*
X8845000Y-7575000D02*
X8935000Y-7665000D01*
X8935000Y-7575000D02*
X8845000Y-7665000D01*
X8845000Y-7829000D02*
X8935000Y-7919000D01*
X8935000Y-7829000D02*
X8845000Y-7919000D01*
X8845000Y-8083000D02*
X8935000Y-8173000D01*
X8935000Y-8083000D02*
X8845000Y-8173000D01*
X8845000Y-8337000D02*
X8935000Y-8427000D01*
X8935000Y-8337000D02*
X8845000Y-8427000D01*
X8845000Y-8591000D02*
X8935000Y-8681000D01*
X8935000Y-8591000D02*
X8845000Y-8681000D01*
X8845000Y-8845000D02*
X8935000Y-8935000D01*
X8935000Y-8845000D02*
X8845000Y-8935000D01*
X8845000Y-9099000D02*
X8935000Y-9189000D01*
X8935000Y-9099000D02*
X8845000Y-9189000D01*
X8845000Y-9353000D02*
X8935000Y-9443000D01*
X8935000Y-9353000D02*
X8845000Y-9443000D01*
X8845000Y-9607000D02*
X8935000Y-9697000D01*
X8935000Y-9607000D02*
X8845000Y-9697000D01*
X8845000Y-9861000D02*
X8935000Y-9951000D01*
X8935000Y-9861000D02*
X8845000Y-9951000D01*
X8845000Y-10115000D02*
X8935000Y-10205000D01*
X8935000Y-10115000D02*
X8845000Y-10205000D01*
X8845000Y-10369000D02*
X8935000Y-10459000D01*
X8935000Y-10369000D02*
X8845000Y-10459000D01*
X8845000Y-10623000D02*
X8935000Y-10713000D01*
X8935000Y-10623000D02*
X8845000Y-10713000D01*
X8845000Y-10877000D02*
X8935000Y-10967000D01*
X8935000Y-10877000D02*
X8845000Y-10967000D01*
X8845000Y-11131000D02*
X8935000Y-11221000D01*
X8935000Y-11131000D02*
X8845000Y-11221000D01*
X8845000Y-11385000D02*
X8935000Y-11475000D01*
X8935000Y-11385000D02*
X8845000Y-11475000D01*
X8845000Y-11639000D02*
X8935000Y-11729000D01*
X8935000Y-11639000D02*
X8845000Y-11729000D01*
X8845000Y-11893000D02*
X8935000Y-11983000D01*
X8935000Y-11893000D02*
X8845000Y-11983000D01*
X8845000Y-12147000D02*
X8935000Y-12237000D01*
X8935000Y-12147000D02*
X8845000Y-12237000D01*
X8845000Y-12401000D02*
X8935000Y-12491000D01*
X8935000Y-12401000D02*
X8845000Y-12491000D01*
X8845000Y-12655000D02*
X8935000Y-12745000D01*
X8935000Y-12655000D02*
X8845000Y-12745000D01*
X8845000Y-12909000D02*
X8935000Y-12999000D01*
X8935000Y-12909000D02*
X8845000Y-12999000D01*
X9099000Y-4781000D02*
X9189000Y-4871000D01*
X9189000Y-4781000D02*
X9099000Y-4871000D01*
X9099000Y-5035000D02*
X9189000Y-5125000D01*
X9189000Y-5035000D02*
X9099000Y-5125000D01*
X9099000Y-5289000D02*
X9189000Y-5379000D01*
X9189000Y-5289000D02*
X9099000Y-5379000D01*
X9099000Y-5543000D02*
X9189000Y-5633000D01*
X9189000Y-5543000D02*
X9099000Y-5633000D01*
X9099000Y-5797000D02*
X9189000Y-5887000D01*
X9189000Y-5797000D02*
X9099000Y-5887000D01*
X9099000Y-6051000D02*
X9189000Y-6141000D01*
X9189000Y-6051000D02*
X9099000Y-6141000D01*
X9099000Y-6305000D02*
X9189000Y-6395000D01*
X9189000Y-6305000D02*
X9099000Y-6395000D01*
X9099000Y-6559000D02*
X9189000Y-6649000D01*
X9189000Y-6559000D02*
X9099000Y-6649000D01*
X9099000Y-6813000D02*
X9189000Y-6903000D01*
X9189000Y-6813000D02*
X9099000Y-6903000D01*
X9099000Y-7067000D02*
X9189000Y-7157000D01*
X9189000Y-7067000D02*
X9099000Y-7157000D01*
X9099000Y-7321000D02*
X9189000Y-7411000D01*
X9189000Y-7321000D02*
X9099000Y-7411000D01*
X9099000Y-7575000D02*
X9189000Y-7665000D01*
X9189000Y-7575000D02*
X9099000Y-7665000D01*
X9099000Y-7829000D02*
X9189000Y-7919000D01*
X9189000Y-7829000D02*
X9099000Y-7919000D01*
X9099000Y-8083000D02*
X9189000Y-8173000D01*
X9189000Y-8083000D02*
X9099000Y-8173000D01*
X9099000Y-8337000D02*
X9189000Y-8427000D01*
X9189000Y-8337000D02*
X9099000Y-8427000D01*
X9099000Y-8591000D02*
X9189000Y-8681000D01*
X9189000Y-8591000D02*
X9099000Y-8681000D01*
X9099000Y-8845000D02*
X9189000Y-8935000D01*
X9189000Y-8845000D02*
X9099000Y-8935000D01*
X9099000Y-9099000D02*
X9189000Y-9189000D01*
X9189000Y-9099000D02*
X9099000Y-9189000D01*
X9099000Y-9353000D02*
X9189000Y-9443000D01*
X9189000Y-9353000D02*
X9099000Y-9443000D01*
X9099000Y-9607000D02*
X9189000Y-9697000D01*
X9189000Y-9607000D02*
X9099000Y-9697000D01*
X9099000Y-9861000D02*
X9189000Y-9951000D01*
X9189000Y-9861000D02*
X9099000Y-9951000D01*
X9099000Y-10115000D02*
X9189000Y-10205000D01*
X9189000Y-10115000D02*
X9099000Y-10205000D01*
X9099000Y-10369000D02*
X9189000Y-10459000D01*
X9189000Y-10369000D02*
X9099000Y-10459000D01*
X9099000Y-10623000D02*
X9189000Y-10713000D01*
X9189000Y-10623000D02*
X9099000Y-10713000D01*
X9099000Y-10877000D02*
X9189000Y-10967000D01*
X9189000Y-10877000D02*
X9099000Y-10967000D01*
X9099000Y-11131000D02*
X9189000Y-11221000D01*
X9189000Y-11131000D02*
X9099000Y-11221000D01*
X9099000Y-11385000D02*
X9189000Y-11475000D01*
X9189000Y-11385000D02*
X9099000Y-11475000D01*
X9099000Y-11639000D02*
X9189000Y-11729000D01*
X9189000Y-11639000D02*
X9099000Y-11729000D01*
X9099000Y-11893000D02*
X9189000Y-11983000D01*
X9189000Y-11893000D02*
X9099000Y-11983000D01*
X9099000Y-12147000D02*
X9189000Y-12237000D01*
X9189000Y-12147000D02*
X9099000Y-12237000D01*
X9099000Y-12401000D02*
X9189000Y-12491000D01*
X9189000Y-12401000D02*
X9099000Y-12491000D01*
X9099000Y-12655000D02*
X9189000Y-12745000D01*
X9189000Y-12655000D02*
X9099000Y-12745000D01*
X9099000Y-12909000D02*
X9189000Y-12999000D01*
X9189000Y-12909000D02*
X9099000Y-12999000D01*
X9353000Y-4781000D02*
X9443000Y-4871000D01*
X9443000Y-4781000D02*
X9353000Y-4871000D01*
X9353000Y-5035000D02*
X9443000Y-5125000D01*
X9443000Y-5035000D02*
X9353000Y-5125000D01*
X9353000Y-5289000D02*
X9443000Y-5379000D01*
X9443000Y-5289000D02*
X9353000Y-5379000D01*
X9353000Y-5543000D02*
X9443000Y-5633000D01*
X9443000Y-5543000D02*
X9353000Y-5633000D01*
X9353000Y-5797000D02*
X9443000Y-5887000D01*
X9443000Y-5797000D02*
X9353000Y-5887000D01*
X9353000Y-6051000D02*
X9443000Y-6141000D01*
X9443000Y-6051000D02*
X9353000Y-6141000D01*
X9353000Y-6305000D02*
X9443000Y-6395000D01*
X9443000Y-6305000D02*
X9353000Y-6395000D01*
X9353000Y-6559000D02*
X9443000Y-6649000D01*
X9443000Y-6559000D02*
X9353000Y-6649000D01*
X9353000Y-6813000D02*
X9443000Y-6903000D01*
X9443000Y-6813000D02*
X9353000Y-6903000D01*
X9353000Y-7067000D02*
X9443000Y-7157000D01*
X9443000Y-7067000D02*
X9353000Y-7157000D01*
X9353000Y-7321000D02*
X9443000Y-7411000D01*
X9443000Y-7321000D02*
X9353000Y-7411000D01*
X9353000Y-7575000D02*
X9443000Y-7665000D01*
X9443000Y-7575000D02*
X9353000Y-7665000D01*
X9353000Y-7829000D02*
X9443000Y-7919000D01*
X9443000Y-7829000D02*
X9353000Y-7919000D01*
X9353000Y-8083000D02*
X9443000Y-8173000D01*
X9443000Y-8083000D02*
X9353000Y-8173000D01*
X9353000Y-8337000D02*
X9443000Y-8427000D01*
X9443000Y-8337000D02*
X9353000Y-8427000D01*
X9353000Y-8591000D02*
X9443000Y-8681000D01*
X9443000Y-8591000D02*
X9353000Y-8681000D01*
X9353000Y-8845000D02*
X9443000Y-8935000D01*
X9443000Y-8845000D02*
X9353000Y-8935000D01*
X9353000Y-9099000D02*
X9443000Y-9189000D01*
X9443000Y-9099000D02*
X9353000Y-9189000D01*
X9353000Y-9353000D02*
X9443000Y-9443000D01*
X9443000Y-9353000D02*
X9353000Y-9443000D01*
X9353000Y-9607000D02*
X9443000Y-9697000D01*
X9443000Y-9607000D02*
X9353000Y-9697000D01*
X9353000Y-9861000D02*
X9443000Y-9951000D01*
X9443000Y-9861000D02*
X9353000Y-9951000D01*
X9353000Y-10115000D02*
X9443000Y-10205000D01*
X9443000Y-10115000D02*
X9353000Y-10205000D01*
X9353000Y-10369000D02*
X9443000Y-10459000D01*
X9443000Y-10369000D02*
X9353000Y-10459000D01*
X9353000Y-10623000D02*
X9443000Y-10713000D01*
X9443000Y-10623000D02*
X9353000Y-10713000D01*
X9353000Y-10877000D02*
X9443000Y-10967000D01*
X9443000Y-10877000D02*
X9353000Y-10967000D01*
X9353000Y-11131000D02*
X9443000Y-11221000D01*
X9443000Y-11131000D02*
X9353000Y-11221000D01*
X9353000Y-11385000D02*
X9443000Y-11475000D01*
X9443000Y-11385000D02*
X9353000Y-11475000D01*
X9353000Y-11639000D02*
X9443000Y-11729000D01*
X9443000Y-11639000D02*
X9353000Y-11729000D01*
X9353000Y-11893000D02*
X9443000Y-11983000D01*
X9443000Y-11893000D02*
X9353000Y-11983000D01*
X9353000Y-12147000D02*
X9443000Y-12237000D01*
X9443000Y-12147000D02*
X9353000Y-12237000D01*
X9353000Y-12401000D02*
X9443000Y-12491000D01*
X9443000Y-12401000D02*
X9353000Y-12491000D01*
X9353000Y-12655000D02*
X9443000Y-12745000D01*
X9443000Y-12655000D02*
X9353000Y-12745000D01*
X9353000Y-12909000D02*
X9443000Y-12999000D01*
X9443000Y-12909000D02*
X9353000Y-12999000D01*
X9607000Y-6305000D02*
X9697000Y-6395000D01*
X9697000Y-6305000D02*
X9607000Y-6395000D01*
X9607000Y-6813000D02*
X9697000Y-6903000D01*
X9697000Y-6813000D02*
X9607000Y-6903000D01*
X9607000Y-7067000D02*
X9697000Y-7157000D01*
X9697000Y-7067000D02*
X9607000Y-7157000D01*
X9607000Y-8083000D02*
X9697000Y-8173000D01*
X9697000Y-8083000D02*
X9607000Y-8173000D01*
X9607000Y-8337000D02*
X9697000Y-8427000D01*
X9697000Y-8337000D02*
X9607000Y-8427000D01*
X9607000Y-9353000D02*
X9697000Y-9443000D01*
X9697000Y-9353000D02*
X9607000Y-9443000D01*
X9607000Y-9861000D02*
X9697000Y-9951000D01*
X9697000Y-9861000D02*
X9607000Y-9951000D01*
X9607000Y-11385000D02*
X9697000Y-11475000D01*
X9697000Y-11385000D02*
X9607000Y-11475000D01*
X11893000Y-11385000D02*
X11983000Y-11475000D01*
X11983000Y-11385000D02*
X11893000Y-11475000D01*
X11893000Y-11639000D02*
X11983000Y-11729000D01*
X11983000Y-11639000D02*
X11893000Y-11729000D01*
X11893000Y-11893000D02*
X11983000Y-11983000D01*
X11983000Y-11893000D02*
X11893000Y-11983000D01*
X11893000Y-12147000D02*
X11983000Y-12237000D01*
X11983000Y-12147000D02*
X11893000Y-12237000D01*
X11893000Y-12401000D02*
X11983000Y-12491000D01*
X11983000Y-12401000D02*
X11893000Y-12491000D01*
X11893000Y-12655000D02*
X11983000Y-12745000D01*
X11983000Y-12655000D02*
X11893000Y-12745000D01*
X11893000Y-12909000D02*
X11983000Y-12999000D01*
X11983000Y-12909000D02*
X11893000Y-12999000D01*
X11893000Y-13163000D02*
X11983000Y-13253000D01*
X11983000Y-13163000D02*
X11893000Y-13253000D01*
X12147000Y-11131000D02*
X12237000Y-11221000D01*
X12237000Y-11131000D02*
X12147000Y-11221000D01*
X12147000Y-11385000D02*
X12237000Y-11475000D01*
X12237000Y-11385000D02*
X12147000Y-11475000D01*
X12147000Y-11639000D02*
X12237000Y-11729000D01*
X12237000Y-11639000D02*
X12147000Y-11729000D01*
X12147000Y-11893000D02*
X12237000Y-11983000D01*
X12237000Y-11893000D02*
X12147000Y-11983000D01*
X12147000Y-12147000D02*
X12237000Y-12237000D01*
X12237000Y-12147000D02*
X12147000Y-12237000D01*
X12147000Y-12401000D02*
X12237000Y-12491000D01*
X12237000Y-12401000D02*
X12147000Y-12491000D01*
X12147000Y-12655000D02*
X12237000Y-12745000D01*
X12237000Y-12655000D02*
X12147000Y-12745000D01*
X12147000Y-12909000D02*
X12237000Y-12999000D01*
X12237000Y-12909000D02*
X12147000Y-12999000D01*
X12147000Y-13163000D02*
X12237000Y-13253000D01*
X12237000Y-13163000D02*
X12147000Y-13253000D01*
X12401000Y-11131000D02*
X12491000Y-11221000D01*
X12491000Y-11131000D02*
X12401000Y-11221000D01*
X12655000Y-11131000D02*
X12745000Y-11221000D01*
X12745000Y-11131000D02*
X12655000Y-11221000D01*
X12909000Y-10877000D02*
X12999000Y-10967000D01*
X12999000Y-10877000D02*
X12909000Y-10967000D01*
X12909000Y-11131000D02*
X12999000Y-11221000D01*
X12999000Y-11131000D02*
X12909000Y-11221000D01*
X12909000Y-11385000D02*
X12999000Y-11475000D01*
X12999000Y-11385000D02*
X12909000Y-11475000D01*
X12909000Y-11639000D02*
X12999000Y-11729000D01*
X12999000Y-11639000D02*
X12909000Y-11729000D01*
X12909000Y-12909000D02*
X12999000Y-12999000D01*
X12999000Y-12909000D02*
X12909000Y-12999000D01*
X12909000Y-13163000D02*
X12999000Y-13253000D01*
X12999000Y-13163000D02*
X12909000Y-13253000D01*
X13163000Y-10877000D02*
X13253000Y-10967000D01*
X13253000Y-10877000D02*
X13163000Y-10967000D01*
X13163000Y-11131000D02*
X13253000Y-11221000D01*
X13253000Y-11131000D02*
X13163000Y-11221000D01*
X13163000Y-11385000D02*
X13253000Y-11475000D01*
X13253000Y-11385000D02*
X13163000Y-11475000D01*
X13163000Y-11639000D02*
X13253000Y-11729000D01*
X13253000Y-11639000D02*
X13163000Y-11729000D01*
X13163000Y-12909000D02*
X13253000Y-12999000D01*
X13253000Y-12909000D02*
X13163000Y-12999000D01*
X13163000Y-13163000D02*
X13253000Y-13253000D01*
X13253000Y-13163000D02*
X13163000Y-13253000D01*
X13417000Y-10877000D02*
X13507000Y-10967000D01*
X13507000Y-10877000D02*
X13417000Y-10967000D01*
X13417000Y-11131000D02*
X13507000Y-11221000D01*
X13507000Y-11131000D02*
X13417000Y-11221000D01*
X13417000Y-11385000D02*
X13507000Y-11475000D01*
X13507000Y-11385000D02*
X13417000Y-11475000D01*
X13417000Y-11639000D02*
X13507000Y-11729000D01*
X13507000Y-11639000D02*
X13417000Y-11729000D01*
X13417000Y-12909000D02*
X13507000Y-12999000D01*
X13507000Y-12909000D02*
X13417000Y-12999000D01*
X13417000Y-13163000D02*
X13507000Y-13253000D01*
X13507000Y-13163000D02*
X13417000Y-13253000D01*
X13671000Y-10623000D02*
X13761000Y-10713000D01*
X13761000Y-10623000D02*
X13671000Y-10713000D01*
X13671000Y-10877000D02*
X13761000Y-10967000D01*
X13761000Y-10877000D02*
X13671000Y-10967000D01*
X13671000Y-11131000D02*
X13761000Y-11221000D01*
X13761000Y-11131000D02*
X13671000Y-11221000D01*
X13671000Y-11385000D02*
X13761000Y-11475000D01*
X13761000Y-11385000D02*
X13671000Y-11475000D01*
X13671000Y-11639000D02*
X13761000Y-11729000D01*
X13761000Y-11639000D02*
X13671000Y-11729000D01*
X13671000Y-12909000D02*
X13761000Y-12999000D01*
X13761000Y-12909000D02*
X13671000Y-12999000D01*
X13671000Y-13163000D02*
X13761000Y-13253000D01*
X13761000Y-13163000D02*
X13671000Y-13253000D01*
X13925000Y-10623000D02*
X14015000Y-10713000D01*
X14015000Y-10623000D02*
X13925000Y-10713000D01*
X13925000Y-10877000D02*
X14015000Y-10967000D01*
X14015000Y-10877000D02*
X13925000Y-10967000D01*
X13925000Y-11131000D02*
X14015000Y-11221000D01*
X14015000Y-11131000D02*
X13925000Y-11221000D01*
X13925000Y-11385000D02*
X14015000Y-11475000D01*
X14015000Y-11385000D02*
X13925000Y-11475000D01*
X13925000Y-11639000D02*
X14015000Y-11729000D01*
X14015000Y-11639000D02*
X13925000Y-11729000D01*
X13925000Y-12909000D02*
X14015000Y-12999000D01*
X14015000Y-12909000D02*
X13925000Y-12999000D01*
X13925000Y-13163000D02*
X14015000Y-13253000D01*
X14015000Y-13163000D02*
X13925000Y-13253000D01*
X14179000Y-10623000D02*
X14269000Y-10713000D01*
X14269000Y-10623000D02*
X14179000Y-10713000D01*
X14179000Y-10877000D02*
X14269000Y-10967000D01*
X14269000Y-10877000D02*
X14179000Y-10967000D01*
X14179000Y-11131000D02*
X14269000Y-11221000D01*
X14269000Y-11131000D02*
X14179000Y-11221000D01*
X14433000Y-10623000D02*
X14523000Y-10713000D01*
X14523000Y-10623000D02*
X14433000Y-10713000D01*
X14433000Y-10877000D02*
X14523000Y-10967000D01*
X14523000Y-10877000D02*
X14433000Y-10967000D01*
X14433000Y-11131000D02*
X14523000Y-11221000D01*
X14523000Y-11131000D02*
X14433000Y-11221000D01*
X14687000Y-10623000D02*
X14777000Y-10713000D01*
X14777000Y-10623000D02*
X14687000Y-10713000D01*
X14687000Y-10877000D02*
X14777000Y-10967000D01*
X14777000Y-10877000D02*
X14687000Y-10967000D01*
X14687000Y-11131000D02*
X14777000Y-11221000D01*
X14777000Y-11131000D02*
X14687000Y-11221000D01*
X14687000Y-11385000D02*
X14777000Y-11475000D01*
X14777000Y-11385000D02*
X14687000Y-11475000D01*
X14687000Y-11639000D02*
X14777000Y-11729000D01*
X14777000Y-11639000D02*
X14687000Y-11729000D01*
X14687000Y-11893000D02*
X14777000Y-11983000D01*
X14777000Y-11893000D02*
X14687000Y-11983000D01*
X14687000Y-12147000D02*
X14777000Y-12237000D01*
X14777000Y-12147000D02*
X14687000Y-12237000D01*
X14687000Y-12401000D02*
X14777000Y-12491000D01*
X14777000Y-12401000D02*
X14687000Y-12491000D01*
X14687000Y-12655000D02*
X14777000Y-12745000D01*
X14777000Y-12655000D02*
X14687000Y-12745000D01*
X14687000Y-12909000D02*
X14777000Y-12999000D01*
X14777000Y-12909000D02*
X14687000Y-12999000D01*
X14687000Y-13163000D02*
X14777000Y-13253000D01*
X14777000Y-13163000D02*
X14687000Y-13253000D01*
X14941000Y-10623000D02*
X15031000Y-10713000D01*
X15031000Y-10623000D02*
X14941000Y-10713000D01*
X14941000Y-10877000D02*
X15031000Y-10967000D01*
X15031000Y-10877000D02*
X14941000Y-10967000D01*
X14941000Y-11131000D02*
X15031000Y-11221000D01*
X15031000Y-11131000D02*
X14941000Y-11221000D01*
X14941000Y-11385000D02*
X15031000Y-11475000D01*
X15031000Y-11385000D02*
X14941000Y-11475000D01*
X14941000Y-11639000D02*
X15031000Y-11729000D01*
X15031000Y-11639000D02*
X14941000Y-11729000D01*
X14941000Y-11893000D02*
X15031000Y-11983000D01*
X15031000Y-11893000D02*
X14941000Y-11983000D01*
X14941000Y-12147000D02*
X15031000Y-12237000D01*
X15031000Y-12147000D02*
X14941000Y-12237000D01*
X14941000Y-12401000D02*
X15031000Y-12491000D01*
X15031000Y-12401000D02*
X14941000Y-12491000D01*
X14941000Y-12655000D02*
X15031000Y-12745000D01*
X15031000Y-12655000D02*
X14941000Y-12745000D01*
X14941000Y-12909000D02*
X15031000Y-12999000D01*
X15031000Y-12909000D02*
X14941000Y-12999000D01*
X14941000Y-13163000D02*
X15031000Y-13253000D01*
X15031000Y-13163000D02*
X14941000Y-13253000D01*
X15195000Y-10623000D02*
X15285000Y-10713000D01*
X15285000Y-10623000D02*
X15195000Y-10713000D01*
X15195000Y-10877000D02*
X15285000Y-10967000D01*
X15285000Y-10877000D02*
X15195000Y-10967000D01*
X15195000Y-11131000D02*
X15285000Y-11221000D01*
X15285000Y-11131000D02*
X15195000Y-11221000D01*
X15195000Y-11385000D02*
X15285000Y-11475000D01*
X15285000Y-11385000D02*
X15195000Y-11475000D01*
X15195000Y-11639000D02*
X15285000Y-11729000D01*
X15285000Y-11639000D02*
X15195000Y-11729000D01*
X15195000Y-11893000D02*
X15285000Y-11983000D01*
X15285000Y-11893000D02*
X15195000Y-11983000D01*
X15195000Y-12147000D02*
X15285000Y-12237000D01*
X15285000Y-12147000D02*
X15195000Y-12237000D01*
X15195000Y-12401000D02*
X15285000Y-12491000D01*
X15285000Y-12401000D02*
X15195000Y-12491000D01*
X15195000Y-12655000D02*
X15285000Y-12745000D01*
X15285000Y-12655000D02*
X15195000Y-12745000D01*
X15195000Y-12909000D02*
X15285000Y-12999000D01*
X15285000Y-12909000D02*
X15195000Y-12999000D01*
X15195000Y-13163000D02*
X15285000Y-13253000D01*
X15285000Y-13163000D02*
X15195000Y-13253000D01*
X15449000Y-10877000D02*
X15539000Y-10967000D01*
X15539000Y-10877000D02*
X15449000Y-10967000D01*
X15449000Y-11131000D02*
X15539000Y-11221000D01*
X15539000Y-11131000D02*
X15449000Y-11221000D01*
X15449000Y-11385000D02*
X15539000Y-11475000D01*
X15539000Y-11385000D02*
X15449000Y-11475000D01*
X15449000Y-11639000D02*
X15539000Y-11729000D01*
X15539000Y-11639000D02*
X15449000Y-11729000D01*
X15449000Y-11893000D02*
X15539000Y-11983000D01*
X15539000Y-11893000D02*
X15449000Y-11983000D01*
X15449000Y-12147000D02*
X15539000Y-12237000D01*
X15539000Y-12147000D02*
X15449000Y-12237000D01*
X15449000Y-12401000D02*
X15539000Y-12491000D01*
X15539000Y-12401000D02*
X15449000Y-12491000D01*
X15449000Y-12655000D02*
X15539000Y-12745000D01*
X15539000Y-12655000D02*
X15449000Y-12745000D01*
X15449000Y-12909000D02*
X15539000Y-12999000D01*
X15539000Y-12909000D02*
X15449000Y-12999000D01*
X15449000Y-13163000D02*
X15539000Y-13253000D01*
X15539000Y-13163000D02*
X15449000Y-13253000D01*
X15703000Y-10877000D02*
X15793000Y-10967000D01*
X15793000Y-10877000D02*
X15703000Y-10967000D01*
X15703000Y-11639000D02*
X15793000Y-11729000D01*
X15793000Y-11639000D02*
X15703000Y-11729000D01*
X15703000Y-11893000D02*
X15793000Y-11983000D01*
X15793000Y-11893000D02*
X15703000Y-11983000D01*
X15703000Y-12147000D02*
X15793000Y-12237000D01*
X15793000Y-12147000D02*
X15703000Y-12237000D01*
X15703000Y-12401000D02*
X15793000Y-12491000D01*
X15793000Y-12401000D02*
X15703000Y-12491000D01*
X15703000Y-13163000D02*
X15793000Y-13253000D01*
X15793000Y-13163000D02*
X15703000Y-13253000D01*
X15957000Y-10877000D02*
X16047000Y-10967000D01*
X16047000Y-10877000D02*
X15957000Y-10967000D01*
X15957000Y-13163000D02*
X16047000Y-13253000D01*
X16047000Y-13163000D02*
X15957000Y-13253000D01*
X16211000Y-10877000D02*
X16301000Y-10967000D01*
X16301000Y-10877000D02*
X16211000Y-10967000D01*
X16211000Y-13163000D02*
X16301000Y-13253000D01*
X16301000Y-13163000D02*
X16211000Y-13253000D01*
X16465000Y-10877000D02*
X16555000Y-10967000D01*
X16555000Y-10877000D02*
X16465000Y-10967000D01*
X16465000Y-11639000D02*
X16555000Y-11729000D01*
X16555000Y-11639000D02*
X16465000Y-11729000D01*
X16465000Y-11893000D02*
X16555000Y-11983000D01*
X16555000Y-11893000D02*
X16465000Y-11983000D01*
X16465000Y-12147000D02*
X16555000Y-12237000D01*
X16555000Y-12147000D02*
X16465000Y-12237000D01*
X16465000Y-12401000D02*
X16555000Y-12491000D01*
X16555000Y-12401000D02*
X16465000Y-12491000D01*
X16465000Y-13163000D02*
X16555000Y-13253000D01*
X16555000Y-13163000D02*
X16465000Y-13253000D01*
X16719000Y-10877000D02*
X16809000Y-10967000D01*
X16809000Y-10877000D02*
X16719000Y-10967000D01*
X16719000Y-11131000D02*
X16809000Y-11221000D01*
X16809000Y-11131000D02*
X16719000Y-11221000D01*
X16719000Y-11385000D02*
X16809000Y-11475000D01*
X16809000Y-11385000D02*
X16719000Y-11475000D01*
X16719000Y-11639000D02*
X16809000Y-11729000D01*
X16809000Y-11639000D02*
X16719000Y-11729000D01*
X16719000Y-11893000D02*
X16809000Y-11983000D01*
X16809000Y-11893000D02*
X16719000Y-11983000D01*
X16719000Y-12147000D02*
X16809000Y-12237000D01*
X16809000Y-12147000D02*
X16719000Y-12237000D01*
X16719000Y-12401000D02*
X16809000Y-12491000D01*
X16809000Y-12401000D02*
X16719000Y-12491000D01*
X16719000Y-12655000D02*
X16809000Y-12745000D01*
X16809000Y-12655000D02*
X16719000Y-12745000D01*
X16719000Y-12909000D02*
X16809000Y-12999000D01*
X16809000Y-12909000D02*
X16719000Y-12999000D01*
X16719000Y-13163000D02*
X16809000Y-13253000D01*
X16809000Y-13163000D02*
X16719000Y-13253000D01*
D10*
X10485300Y-12964800D02*
G75*
G03*
X10485300Y-12964800I-50000J0D01*
G01*
X11283300Y-12964800D02*
G75*
G03*
X11283300Y-12964800I-50000J0D01*
G01*
D13*
X12711500Y-4051000D02*
X12711500Y-4201000D01*
X12636500Y-4126000D02*
X12786500Y-4126000D01*
X13196500Y-4051000D02*
X13196500Y-4201000D01*
X13121500Y-4126000D02*
X13271500Y-4126000D01*
D14*
X12745140Y-3886640D02*
X12745140Y-3759360D01*
X12617860Y-3759360D01*
X12617860Y-3886640D01*
X12745140Y-3886640D01*
X13290140Y-3886640D02*
X13290140Y-3759360D01*
X13162860Y-3759360D01*
X13162860Y-3886640D01*
X13290140Y-3886640D01*
D15*
X18598000Y-4326000D02*
X18733000Y-4191000D01*
X18598000Y-4056000D01*
X18463000Y-4191000D01*
X18598000Y-4326000D01*
X18598000Y-13216000D02*
X18733000Y-13081000D01*
X18598000Y-12946000D01*
X18463000Y-13081000D01*
X18598000Y-13216000D01*
D11*
X3126619Y-13951476D02*
X3126619Y-13751476D01*
X3174238Y-13751476D01*
X3202809Y-13761000D01*
X3221857Y-13780048D01*
X3231381Y-13799095D01*
X3240905Y-13837190D01*
X3240905Y-13865762D01*
X3231381Y-13903857D01*
X3221857Y-13922905D01*
X3202809Y-13941952D01*
X3174238Y-13951476D01*
X3126619Y-13951476D01*
X3326619Y-13951476D02*
X3326619Y-13818143D01*
X3326619Y-13856238D02*
X3336143Y-13837190D01*
X3345667Y-13827667D01*
X3364714Y-13818143D01*
X3383762Y-13818143D01*
X3450428Y-13951476D02*
X3450428Y-13818143D01*
X3450428Y-13751476D02*
X3440905Y-13761000D01*
X3450428Y-13770524D01*
X3459952Y-13761000D01*
X3450428Y-13751476D01*
X3450428Y-13770524D01*
X3574238Y-13951476D02*
X3555190Y-13941952D01*
X3545667Y-13922905D01*
X3545667Y-13751476D01*
X3679000Y-13951476D02*
X3659952Y-13941952D01*
X3650428Y-13922905D01*
X3650428Y-13751476D01*
X3907571Y-13951476D02*
X3907571Y-13751476D01*
X3974238Y-13894333D01*
X4040905Y-13751476D01*
X4040905Y-13951476D01*
X4221857Y-13951476D02*
X4221857Y-13846714D01*
X4212333Y-13827667D01*
X4193286Y-13818143D01*
X4155190Y-13818143D01*
X4136143Y-13827667D01*
X4221857Y-13941952D02*
X4202810Y-13951476D01*
X4155190Y-13951476D01*
X4136143Y-13941952D01*
X4126619Y-13922905D01*
X4126619Y-13903857D01*
X4136143Y-13884809D01*
X4155190Y-13875286D01*
X4202810Y-13875286D01*
X4221857Y-13865762D01*
X4317095Y-13818143D02*
X4317095Y-14018143D01*
X4317095Y-13827667D02*
X4336143Y-13818143D01*
X4374238Y-13818143D01*
X4393286Y-13827667D01*
X4402810Y-13837190D01*
X4412333Y-13856238D01*
X4412333Y-13913381D01*
X4402810Y-13932428D01*
X4393286Y-13941952D01*
X4374238Y-13951476D01*
X4336143Y-13951476D01*
X4317095Y-13941952D01*
X4498048Y-13932428D02*
X4507571Y-13941952D01*
X4498048Y-13951476D01*
X4488524Y-13941952D01*
X4498048Y-13932428D01*
X4498048Y-13951476D01*
X4498048Y-13827667D02*
X4507571Y-13837190D01*
X4498048Y-13846714D01*
X4488524Y-13837190D01*
X4498048Y-13827667D01*
X4498048Y-13846714D01*
D12*
X2779000Y-14236000D02*
X2869000Y-14326000D01*
X2869000Y-14236000D02*
X2779000Y-14326000D01*
D11*
X3164714Y-14171476D02*
X3183762Y-14171476D01*
X3202809Y-14181000D01*
X3212333Y-14190524D01*
X3221857Y-14209571D01*
X3231381Y-14247667D01*
X3231381Y-14295286D01*
X3221857Y-14333381D01*
X3212333Y-14352428D01*
X3202809Y-14361952D01*
X3183762Y-14371476D01*
X3164714Y-14371476D01*
X3145667Y-14361952D01*
X3136143Y-14352428D01*
X3126619Y-14333381D01*
X3117095Y-14295286D01*
X3117095Y-14247667D01*
X3126619Y-14209571D01*
X3136143Y-14190524D01*
X3145667Y-14181000D01*
X3164714Y-14171476D01*
X3317095Y-14352428D02*
X3326619Y-14361952D01*
X3317095Y-14371476D01*
X3307571Y-14361952D01*
X3317095Y-14352428D01*
X3317095Y-14371476D01*
X3421857Y-14371476D02*
X3459952Y-14371476D01*
X3479000Y-14361952D01*
X3488524Y-14352428D01*
X3507571Y-14323857D01*
X3517095Y-14285762D01*
X3517095Y-14209571D01*
X3507571Y-14190524D01*
X3498048Y-14181000D01*
X3479000Y-14171476D01*
X3440905Y-14171476D01*
X3421857Y-14181000D01*
X3412333Y-14190524D01*
X3402809Y-14209571D01*
X3402809Y-14257190D01*
X3412333Y-14276238D01*
X3421857Y-14285762D01*
X3440905Y-14295286D01*
X3479000Y-14295286D01*
X3498048Y-14285762D01*
X3507571Y-14276238D01*
X3517095Y-14257190D01*
X3640905Y-14171476D02*
X3659952Y-14171476D01*
X3679000Y-14181000D01*
X3688524Y-14190524D01*
X3698048Y-14209571D01*
X3707571Y-14247667D01*
X3707571Y-14295286D01*
X3698048Y-14333381D01*
X3688524Y-14352428D01*
X3679000Y-14361952D01*
X3659952Y-14371476D01*
X3640905Y-14371476D01*
X3621857Y-14361952D01*
X3612333Y-14352428D01*
X3602809Y-14333381D01*
X3593286Y-14295286D01*
X3593286Y-14247667D01*
X3602809Y-14209571D01*
X3612333Y-14190524D01*
X3621857Y-14181000D01*
X3640905Y-14171476D01*
X3831381Y-14171476D02*
X3850428Y-14171476D01*
X3869476Y-14181000D01*
X3879000Y-14190524D01*
X3888524Y-14209571D01*
X3898048Y-14247667D01*
X3898048Y-14295286D01*
X3888524Y-14333381D01*
X3879000Y-14352428D01*
X3869476Y-14361952D01*
X3850428Y-14371476D01*
X3831381Y-14371476D01*
X3812333Y-14361952D01*
X3802809Y-14352428D01*
X3793286Y-14333381D01*
X3783762Y-14295286D01*
X3783762Y-14247667D01*
X3793286Y-14209571D01*
X3802809Y-14190524D01*
X3812333Y-14181000D01*
X3831381Y-14171476D01*
X3983762Y-14371476D02*
X3983762Y-14238143D01*
X3983762Y-14257190D02*
X3993286Y-14247667D01*
X4012333Y-14238143D01*
X4040905Y-14238143D01*
X4059952Y-14247667D01*
X4069476Y-14266714D01*
X4069476Y-14371476D01*
X4069476Y-14266714D02*
X4079000Y-14247667D01*
X4098048Y-14238143D01*
X4126619Y-14238143D01*
X4145667Y-14247667D01*
X4155190Y-14266714D01*
X4155190Y-14371476D01*
X4250429Y-14371476D02*
X4250429Y-14238143D01*
X4250429Y-14257190D02*
X4259952Y-14247667D01*
X4279000Y-14238143D01*
X4307571Y-14238143D01*
X4326619Y-14247667D01*
X4336143Y-14266714D01*
X4336143Y-14371476D01*
X4336143Y-14266714D02*
X4345667Y-14247667D01*
X4364714Y-14238143D01*
X4393286Y-14238143D01*
X4412333Y-14247667D01*
X4421857Y-14266714D01*
X4421857Y-14371476D01*
X4812333Y-14161952D02*
X4640905Y-14419095D01*
X5069476Y-14171476D02*
X5088524Y-14171476D01*
X5107571Y-14181000D01*
X5117095Y-14190524D01*
X5126619Y-14209571D01*
X5136143Y-14247667D01*
X5136143Y-14295286D01*
X5126619Y-14333381D01*
X5117095Y-14352428D01*
X5107571Y-14361952D01*
X5088524Y-14371476D01*
X5069476Y-14371476D01*
X5050429Y-14361952D01*
X5040905Y-14352428D01*
X5031381Y-14333381D01*
X5021857Y-14295286D01*
X5021857Y-14247667D01*
X5031381Y-14209571D01*
X5040905Y-14190524D01*
X5050429Y-14181000D01*
X5069476Y-14171476D01*
X5221857Y-14352428D02*
X5231381Y-14361952D01*
X5221857Y-14371476D01*
X5212333Y-14361952D01*
X5221857Y-14352428D01*
X5221857Y-14371476D01*
X5355190Y-14171476D02*
X5374238Y-14171476D01*
X5393286Y-14181000D01*
X5402810Y-14190524D01*
X5412333Y-14209571D01*
X5421857Y-14247667D01*
X5421857Y-14295286D01*
X5412333Y-14333381D01*
X5402810Y-14352428D01*
X5393286Y-14361952D01*
X5374238Y-14371476D01*
X5355190Y-14371476D01*
X5336143Y-14361952D01*
X5326619Y-14352428D01*
X5317095Y-14333381D01*
X5307571Y-14295286D01*
X5307571Y-14247667D01*
X5317095Y-14209571D01*
X5326619Y-14190524D01*
X5336143Y-14181000D01*
X5355190Y-14171476D01*
X5488524Y-14171476D02*
X5612333Y-14171476D01*
X5545667Y-14247667D01*
X5574238Y-14247667D01*
X5593286Y-14257190D01*
X5602809Y-14266714D01*
X5612333Y-14285762D01*
X5612333Y-14333381D01*
X5602809Y-14352428D01*
X5593286Y-14361952D01*
X5574238Y-14371476D01*
X5517095Y-14371476D01*
X5498048Y-14361952D01*
X5488524Y-14352428D01*
X5793286Y-14171476D02*
X5698048Y-14171476D01*
X5688524Y-14266714D01*
X5698048Y-14257190D01*
X5717095Y-14247667D01*
X5764714Y-14247667D01*
X5783762Y-14257190D01*
X5793286Y-14266714D01*
X5802809Y-14285762D01*
X5802809Y-14333381D01*
X5793286Y-14352428D01*
X5783762Y-14361952D01*
X5764714Y-14371476D01*
X5717095Y-14371476D01*
X5698048Y-14361952D01*
X5688524Y-14352428D01*
X5974238Y-14238143D02*
X5974238Y-14371476D01*
X5926619Y-14161952D02*
X5879000Y-14304809D01*
X6002809Y-14304809D01*
X6069476Y-14171476D02*
X6069476Y-14209571D01*
X6145667Y-14171476D02*
X6145667Y-14209571D01*
X6440905Y-14447667D02*
X6431381Y-14438143D01*
X6412333Y-14409571D01*
X6402809Y-14390524D01*
X6393286Y-14361952D01*
X6383762Y-14314333D01*
X6383762Y-14276238D01*
X6393286Y-14228619D01*
X6402809Y-14200048D01*
X6412333Y-14181000D01*
X6431381Y-14152428D01*
X6440905Y-14142905D01*
X6498048Y-14171476D02*
X6631381Y-14171476D01*
X6545667Y-14371476D01*
X6717095Y-14371476D02*
X6755190Y-14371476D01*
X6774238Y-14361952D01*
X6783762Y-14352428D01*
X6802809Y-14323857D01*
X6812333Y-14285762D01*
X6812333Y-14209571D01*
X6802809Y-14190524D01*
X6793286Y-14181000D01*
X6774238Y-14171476D01*
X6736143Y-14171476D01*
X6717095Y-14181000D01*
X6707571Y-14190524D01*
X6698048Y-14209571D01*
X6698048Y-14257190D01*
X6707571Y-14276238D01*
X6717095Y-14285762D01*
X6736143Y-14295286D01*
X6774238Y-14295286D01*
X6793286Y-14285762D01*
X6802809Y-14276238D01*
X6812333Y-14257190D01*
X6993286Y-14171476D02*
X6898048Y-14171476D01*
X6888524Y-14266714D01*
X6898048Y-14257190D01*
X6917095Y-14247667D01*
X6964714Y-14247667D01*
X6983762Y-14257190D01*
X6993286Y-14266714D01*
X7002809Y-14285762D01*
X7002809Y-14333381D01*
X6993286Y-14352428D01*
X6983762Y-14361952D01*
X6964714Y-14371476D01*
X6917095Y-14371476D01*
X6898048Y-14361952D01*
X6888524Y-14352428D01*
X7240905Y-14371476D02*
X7240905Y-14171476D01*
X7326619Y-14371476D02*
X7326619Y-14266714D01*
X7317095Y-14247667D01*
X7298048Y-14238143D01*
X7269476Y-14238143D01*
X7250428Y-14247667D01*
X7240905Y-14257190D01*
X7450428Y-14371476D02*
X7431381Y-14361952D01*
X7421857Y-14352428D01*
X7412333Y-14333381D01*
X7412333Y-14276238D01*
X7421857Y-14257190D01*
X7431381Y-14247667D01*
X7450428Y-14238143D01*
X7479000Y-14238143D01*
X7498048Y-14247667D01*
X7507571Y-14257190D01*
X7517095Y-14276238D01*
X7517095Y-14333381D01*
X7507571Y-14352428D01*
X7498048Y-14361952D01*
X7479000Y-14371476D01*
X7450428Y-14371476D01*
X7631381Y-14371476D02*
X7612333Y-14361952D01*
X7602809Y-14342905D01*
X7602809Y-14171476D01*
X7783762Y-14361952D02*
X7764714Y-14371476D01*
X7726619Y-14371476D01*
X7707571Y-14361952D01*
X7698048Y-14342905D01*
X7698048Y-14266714D01*
X7707571Y-14247667D01*
X7726619Y-14238143D01*
X7764714Y-14238143D01*
X7783762Y-14247667D01*
X7793286Y-14266714D01*
X7793286Y-14285762D01*
X7698048Y-14304809D01*
X7869476Y-14361952D02*
X7888524Y-14371476D01*
X7926619Y-14371476D01*
X7945667Y-14361952D01*
X7955190Y-14342905D01*
X7955190Y-14333381D01*
X7945667Y-14314333D01*
X7926619Y-14304809D01*
X7898048Y-14304809D01*
X7879000Y-14295286D01*
X7869476Y-14276238D01*
X7869476Y-14266714D01*
X7879000Y-14247667D01*
X7898048Y-14238143D01*
X7926619Y-14238143D01*
X7945667Y-14247667D01*
X8021857Y-14447667D02*
X8031381Y-14438143D01*
X8050428Y-14409571D01*
X8059952Y-14390524D01*
X8069476Y-14361952D01*
X8079000Y-14314333D01*
X8079000Y-14276238D01*
X8069476Y-14228619D01*
X8059952Y-14200048D01*
X8050428Y-14181000D01*
X8031381Y-14152428D01*
X8021857Y-14142905D01*
X8383762Y-14447667D02*
X8374238Y-14438143D01*
X8355190Y-14409571D01*
X8345667Y-14390524D01*
X8336143Y-14361952D01*
X8326619Y-14314333D01*
X8326619Y-14276238D01*
X8336143Y-14228619D01*
X8345667Y-14200048D01*
X8355190Y-14181000D01*
X8374238Y-14152428D01*
X8383762Y-14142905D01*
X8459952Y-14238143D02*
X8459952Y-14371476D01*
X8459952Y-14257190D02*
X8469476Y-14247667D01*
X8488524Y-14238143D01*
X8517095Y-14238143D01*
X8536143Y-14247667D01*
X8545667Y-14266714D01*
X8545667Y-14371476D01*
X8669476Y-14371476D02*
X8650429Y-14361952D01*
X8640905Y-14352428D01*
X8631381Y-14333381D01*
X8631381Y-14276238D01*
X8640905Y-14257190D01*
X8650429Y-14247667D01*
X8669476Y-14238143D01*
X8698048Y-14238143D01*
X8717095Y-14247667D01*
X8726619Y-14257190D01*
X8736143Y-14276238D01*
X8736143Y-14333381D01*
X8726619Y-14352428D01*
X8717095Y-14361952D01*
X8698048Y-14371476D01*
X8669476Y-14371476D01*
X8793286Y-14238143D02*
X8869476Y-14238143D01*
X8821857Y-14171476D02*
X8821857Y-14342905D01*
X8831381Y-14361952D01*
X8850429Y-14371476D01*
X8869476Y-14371476D01*
X9088524Y-14238143D02*
X9088524Y-14438143D01*
X9088524Y-14247667D02*
X9107571Y-14238143D01*
X9145667Y-14238143D01*
X9164714Y-14247667D01*
X9174238Y-14257190D01*
X9183762Y-14276238D01*
X9183762Y-14333381D01*
X9174238Y-14352428D01*
X9164714Y-14361952D01*
X9145667Y-14371476D01*
X9107571Y-14371476D01*
X9088524Y-14361952D01*
X9298048Y-14371476D02*
X9279000Y-14361952D01*
X9269476Y-14342905D01*
X9269476Y-14171476D01*
X9459952Y-14371476D02*
X9459952Y-14266714D01*
X9450429Y-14247667D01*
X9431381Y-14238143D01*
X9393286Y-14238143D01*
X9374238Y-14247667D01*
X9459952Y-14361952D02*
X9440905Y-14371476D01*
X9393286Y-14371476D01*
X9374238Y-14361952D01*
X9364714Y-14342905D01*
X9364714Y-14323857D01*
X9374238Y-14304809D01*
X9393286Y-14295286D01*
X9440905Y-14295286D01*
X9459952Y-14285762D01*
X9526619Y-14238143D02*
X9602810Y-14238143D01*
X9555190Y-14171476D02*
X9555190Y-14342905D01*
X9564714Y-14361952D01*
X9583762Y-14371476D01*
X9602810Y-14371476D01*
X9745667Y-14361952D02*
X9726619Y-14371476D01*
X9688524Y-14371476D01*
X9669476Y-14361952D01*
X9659952Y-14342905D01*
X9659952Y-14266714D01*
X9669476Y-14247667D01*
X9688524Y-14238143D01*
X9726619Y-14238143D01*
X9745667Y-14247667D01*
X9755190Y-14266714D01*
X9755190Y-14285762D01*
X9659952Y-14304809D01*
X9926619Y-14371476D02*
X9926619Y-14171476D01*
X9926619Y-14361952D02*
X9907571Y-14371476D01*
X9869476Y-14371476D01*
X9850429Y-14361952D01*
X9840905Y-14352428D01*
X9831381Y-14333381D01*
X9831381Y-14276238D01*
X9840905Y-14257190D01*
X9850429Y-14247667D01*
X9869476Y-14238143D01*
X9907571Y-14238143D01*
X9926619Y-14247667D01*
X10002810Y-14447667D02*
X10012333Y-14438143D01*
X10031381Y-14409571D01*
X10040905Y-14390524D01*
X10050429Y-14361952D01*
X10059952Y-14314333D01*
X10059952Y-14276238D01*
X10050429Y-14228619D01*
X10040905Y-14200048D01*
X10031381Y-14181000D01*
X10012333Y-14152428D01*
X10002810Y-14142905D01*
D10*
X2869000Y-14545000D02*
G75*
G03*
X2869000Y-14545000I-50000J0D01*
G01*
D11*
X3231381Y-14635476D02*
X3117095Y-14635476D01*
X3174238Y-14635476D02*
X3174238Y-14435476D01*
X3155190Y-14464048D01*
X3136143Y-14483095D01*
X3117095Y-14492619D01*
X3317095Y-14616428D02*
X3326619Y-14625952D01*
X3317095Y-14635476D01*
X3307571Y-14625952D01*
X3317095Y-14616428D01*
X3317095Y-14635476D01*
X3450428Y-14435476D02*
X3469476Y-14435476D01*
X3488524Y-14445000D01*
X3498048Y-14454524D01*
X3507571Y-14473571D01*
X3517095Y-14511667D01*
X3517095Y-14559286D01*
X3507571Y-14597381D01*
X3498048Y-14616428D01*
X3488524Y-14625952D01*
X3469476Y-14635476D01*
X3450428Y-14635476D01*
X3431381Y-14625952D01*
X3421857Y-14616428D01*
X3412333Y-14597381D01*
X3402809Y-14559286D01*
X3402809Y-14511667D01*
X3412333Y-14473571D01*
X3421857Y-14454524D01*
X3431381Y-14445000D01*
X3450428Y-14435476D01*
X3640905Y-14435476D02*
X3659952Y-14435476D01*
X3679000Y-14445000D01*
X3688524Y-14454524D01*
X3698048Y-14473571D01*
X3707571Y-14511667D01*
X3707571Y-14559286D01*
X3698048Y-14597381D01*
X3688524Y-14616428D01*
X3679000Y-14625952D01*
X3659952Y-14635476D01*
X3640905Y-14635476D01*
X3621857Y-14625952D01*
X3612333Y-14616428D01*
X3602809Y-14597381D01*
X3593286Y-14559286D01*
X3593286Y-14511667D01*
X3602809Y-14473571D01*
X3612333Y-14454524D01*
X3621857Y-14445000D01*
X3640905Y-14435476D01*
X3831381Y-14435476D02*
X3850428Y-14435476D01*
X3869476Y-14445000D01*
X3879000Y-14454524D01*
X3888524Y-14473571D01*
X3898048Y-14511667D01*
X3898048Y-14559286D01*
X3888524Y-14597381D01*
X3879000Y-14616428D01*
X3869476Y-14625952D01*
X3850428Y-14635476D01*
X3831381Y-14635476D01*
X3812333Y-14625952D01*
X3802809Y-14616428D01*
X3793286Y-14597381D01*
X3783762Y-14559286D01*
X3783762Y-14511667D01*
X3793286Y-14473571D01*
X3802809Y-14454524D01*
X3812333Y-14445000D01*
X3831381Y-14435476D01*
X3983762Y-14635476D02*
X3983762Y-14502143D01*
X3983762Y-14521190D02*
X3993286Y-14511667D01*
X4012333Y-14502143D01*
X4040905Y-14502143D01*
X4059952Y-14511667D01*
X4069476Y-14530714D01*
X4069476Y-14635476D01*
X4069476Y-14530714D02*
X4079000Y-14511667D01*
X4098048Y-14502143D01*
X4126619Y-14502143D01*
X4145667Y-14511667D01*
X4155190Y-14530714D01*
X4155190Y-14635476D01*
X4250429Y-14635476D02*
X4250429Y-14502143D01*
X4250429Y-14521190D02*
X4259952Y-14511667D01*
X4279000Y-14502143D01*
X4307571Y-14502143D01*
X4326619Y-14511667D01*
X4336143Y-14530714D01*
X4336143Y-14635476D01*
X4336143Y-14530714D02*
X4345667Y-14511667D01*
X4364714Y-14502143D01*
X4393286Y-14502143D01*
X4412333Y-14511667D01*
X4421857Y-14530714D01*
X4421857Y-14635476D01*
X4812333Y-14425952D02*
X4640905Y-14683095D01*
X5069476Y-14435476D02*
X5088524Y-14435476D01*
X5107571Y-14445000D01*
X5117095Y-14454524D01*
X5126619Y-14473571D01*
X5136143Y-14511667D01*
X5136143Y-14559286D01*
X5126619Y-14597381D01*
X5117095Y-14616428D01*
X5107571Y-14625952D01*
X5088524Y-14635476D01*
X5069476Y-14635476D01*
X5050429Y-14625952D01*
X5040905Y-14616428D01*
X5031381Y-14597381D01*
X5021857Y-14559286D01*
X5021857Y-14511667D01*
X5031381Y-14473571D01*
X5040905Y-14454524D01*
X5050429Y-14445000D01*
X5069476Y-14435476D01*
X5221857Y-14616428D02*
X5231381Y-14625952D01*
X5221857Y-14635476D01*
X5212333Y-14625952D01*
X5221857Y-14616428D01*
X5221857Y-14635476D01*
X5355190Y-14435476D02*
X5374238Y-14435476D01*
X5393286Y-14445000D01*
X5402810Y-14454524D01*
X5412333Y-14473571D01*
X5421857Y-14511667D01*
X5421857Y-14559286D01*
X5412333Y-14597381D01*
X5402810Y-14616428D01*
X5393286Y-14625952D01*
X5374238Y-14635476D01*
X5355190Y-14635476D01*
X5336143Y-14625952D01*
X5326619Y-14616428D01*
X5317095Y-14597381D01*
X5307571Y-14559286D01*
X5307571Y-14511667D01*
X5317095Y-14473571D01*
X5326619Y-14454524D01*
X5336143Y-14445000D01*
X5355190Y-14435476D01*
X5488524Y-14435476D02*
X5612333Y-14435476D01*
X5545667Y-14511667D01*
X5574238Y-14511667D01*
X5593286Y-14521190D01*
X5602809Y-14530714D01*
X5612333Y-14549762D01*
X5612333Y-14597381D01*
X5602809Y-14616428D01*
X5593286Y-14625952D01*
X5574238Y-14635476D01*
X5517095Y-14635476D01*
X5498048Y-14625952D01*
X5488524Y-14616428D01*
X5707571Y-14635476D02*
X5745667Y-14635476D01*
X5764714Y-14625952D01*
X5774238Y-14616428D01*
X5793286Y-14587857D01*
X5802809Y-14549762D01*
X5802809Y-14473571D01*
X5793286Y-14454524D01*
X5783762Y-14445000D01*
X5764714Y-14435476D01*
X5726619Y-14435476D01*
X5707571Y-14445000D01*
X5698048Y-14454524D01*
X5688524Y-14473571D01*
X5688524Y-14521190D01*
X5698048Y-14540238D01*
X5707571Y-14549762D01*
X5726619Y-14559286D01*
X5764714Y-14559286D01*
X5783762Y-14549762D01*
X5793286Y-14540238D01*
X5802809Y-14521190D01*
X5974238Y-14502143D02*
X5974238Y-14635476D01*
X5926619Y-14425952D02*
X5879000Y-14568809D01*
X6002809Y-14568809D01*
X6069476Y-14435476D02*
X6069476Y-14473571D01*
X6145667Y-14435476D02*
X6145667Y-14473571D01*
X6440905Y-14711667D02*
X6431381Y-14702143D01*
X6412333Y-14673571D01*
X6402809Y-14654524D01*
X6393286Y-14625952D01*
X6383762Y-14578333D01*
X6383762Y-14540238D01*
X6393286Y-14492619D01*
X6402809Y-14464048D01*
X6412333Y-14445000D01*
X6431381Y-14416428D01*
X6440905Y-14406905D01*
X6507571Y-14454524D02*
X6517095Y-14445000D01*
X6536143Y-14435476D01*
X6583762Y-14435476D01*
X6602809Y-14445000D01*
X6612333Y-14454524D01*
X6621857Y-14473571D01*
X6621857Y-14492619D01*
X6612333Y-14521190D01*
X6498048Y-14635476D01*
X6621857Y-14635476D01*
X6859952Y-14635476D02*
X6859952Y-14435476D01*
X6945667Y-14635476D02*
X6945667Y-14530714D01*
X6936143Y-14511667D01*
X6917095Y-14502143D01*
X6888524Y-14502143D01*
X6869476Y-14511667D01*
X6859952Y-14521190D01*
X7069476Y-14635476D02*
X7050428Y-14625952D01*
X7040905Y-14616428D01*
X7031381Y-14597381D01*
X7031381Y-14540238D01*
X7040905Y-14521190D01*
X7050428Y-14511667D01*
X7069476Y-14502143D01*
X7098048Y-14502143D01*
X7117095Y-14511667D01*
X7126619Y-14521190D01*
X7136143Y-14540238D01*
X7136143Y-14597381D01*
X7126619Y-14616428D01*
X7117095Y-14625952D01*
X7098048Y-14635476D01*
X7069476Y-14635476D01*
X7250428Y-14635476D02*
X7231381Y-14625952D01*
X7221857Y-14606905D01*
X7221857Y-14435476D01*
X7402809Y-14625952D02*
X7383762Y-14635476D01*
X7345667Y-14635476D01*
X7326619Y-14625952D01*
X7317095Y-14606905D01*
X7317095Y-14530714D01*
X7326619Y-14511667D01*
X7345667Y-14502143D01*
X7383762Y-14502143D01*
X7402809Y-14511667D01*
X7412333Y-14530714D01*
X7412333Y-14549762D01*
X7317095Y-14568809D01*
X7488524Y-14625952D02*
X7507571Y-14635476D01*
X7545667Y-14635476D01*
X7564714Y-14625952D01*
X7574238Y-14606905D01*
X7574238Y-14597381D01*
X7564714Y-14578333D01*
X7545667Y-14568809D01*
X7517095Y-14568809D01*
X7498048Y-14559286D01*
X7488524Y-14540238D01*
X7488524Y-14530714D01*
X7498048Y-14511667D01*
X7517095Y-14502143D01*
X7545667Y-14502143D01*
X7564714Y-14511667D01*
X7640905Y-14711667D02*
X7650428Y-14702143D01*
X7669476Y-14673571D01*
X7679000Y-14654524D01*
X7688524Y-14625952D01*
X7698048Y-14578333D01*
X7698048Y-14540238D01*
X7688524Y-14492619D01*
X7679000Y-14464048D01*
X7669476Y-14445000D01*
X7650428Y-14416428D01*
X7640905Y-14406905D01*
X8002809Y-14711667D02*
X7993286Y-14702143D01*
X7974238Y-14673571D01*
X7964714Y-14654524D01*
X7955190Y-14625952D01*
X7945667Y-14578333D01*
X7945667Y-14540238D01*
X7955190Y-14492619D01*
X7964714Y-14464048D01*
X7974238Y-14445000D01*
X7993286Y-14416428D01*
X8002809Y-14406905D01*
X8079000Y-14502143D02*
X8079000Y-14635476D01*
X8079000Y-14521190D02*
X8088524Y-14511667D01*
X8107571Y-14502143D01*
X8136143Y-14502143D01*
X8155190Y-14511667D01*
X8164714Y-14530714D01*
X8164714Y-14635476D01*
X8288524Y-14635476D02*
X8269476Y-14625952D01*
X8259952Y-14616428D01*
X8250428Y-14597381D01*
X8250428Y-14540238D01*
X8259952Y-14521190D01*
X8269476Y-14511667D01*
X8288524Y-14502143D01*
X8317095Y-14502143D01*
X8336143Y-14511667D01*
X8345667Y-14521190D01*
X8355190Y-14540238D01*
X8355190Y-14597381D01*
X8345667Y-14616428D01*
X8336143Y-14625952D01*
X8317095Y-14635476D01*
X8288524Y-14635476D01*
X8412333Y-14502143D02*
X8488524Y-14502143D01*
X8440905Y-14435476D02*
X8440905Y-14606905D01*
X8450429Y-14625952D01*
X8469476Y-14635476D01*
X8488524Y-14635476D01*
X8707571Y-14502143D02*
X8707571Y-14702143D01*
X8707571Y-14511667D02*
X8726619Y-14502143D01*
X8764714Y-14502143D01*
X8783762Y-14511667D01*
X8793286Y-14521190D01*
X8802810Y-14540238D01*
X8802810Y-14597381D01*
X8793286Y-14616428D01*
X8783762Y-14625952D01*
X8764714Y-14635476D01*
X8726619Y-14635476D01*
X8707571Y-14625952D01*
X8917095Y-14635476D02*
X8898048Y-14625952D01*
X8888524Y-14606905D01*
X8888524Y-14435476D01*
X9079000Y-14635476D02*
X9079000Y-14530714D01*
X9069476Y-14511667D01*
X9050429Y-14502143D01*
X9012333Y-14502143D01*
X8993286Y-14511667D01*
X9079000Y-14625952D02*
X9059952Y-14635476D01*
X9012333Y-14635476D01*
X8993286Y-14625952D01*
X8983762Y-14606905D01*
X8983762Y-14587857D01*
X8993286Y-14568809D01*
X9012333Y-14559286D01*
X9059952Y-14559286D01*
X9079000Y-14549762D01*
X9145667Y-14502143D02*
X9221857Y-14502143D01*
X9174238Y-14435476D02*
X9174238Y-14606905D01*
X9183762Y-14625952D01*
X9202810Y-14635476D01*
X9221857Y-14635476D01*
X9364714Y-14625952D02*
X9345667Y-14635476D01*
X9307571Y-14635476D01*
X9288524Y-14625952D01*
X9279000Y-14606905D01*
X9279000Y-14530714D01*
X9288524Y-14511667D01*
X9307571Y-14502143D01*
X9345667Y-14502143D01*
X9364714Y-14511667D01*
X9374238Y-14530714D01*
X9374238Y-14549762D01*
X9279000Y-14568809D01*
X9545667Y-14635476D02*
X9545667Y-14435476D01*
X9545667Y-14625952D02*
X9526619Y-14635476D01*
X9488524Y-14635476D01*
X9469476Y-14625952D01*
X9459952Y-14616428D01*
X9450429Y-14597381D01*
X9450429Y-14540238D01*
X9459952Y-14521190D01*
X9469476Y-14511667D01*
X9488524Y-14502143D01*
X9526619Y-14502143D01*
X9545667Y-14511667D01*
X9621857Y-14711667D02*
X9631381Y-14702143D01*
X9650429Y-14673571D01*
X9659952Y-14654524D01*
X9669476Y-14625952D01*
X9679000Y-14578333D01*
X9679000Y-14540238D01*
X9669476Y-14492619D01*
X9659952Y-14464048D01*
X9650429Y-14445000D01*
X9631381Y-14416428D01*
X9621857Y-14406905D01*
D13*
X2794000Y-14734000D02*
X2794000Y-14884000D01*
X2719000Y-14809000D02*
X2869000Y-14809000D01*
D11*
X3231381Y-14899476D02*
X3117095Y-14899476D01*
X3174238Y-14899476D02*
X3174238Y-14699476D01*
X3155190Y-14728048D01*
X3136143Y-14747095D01*
X3117095Y-14756619D01*
X3317095Y-14880428D02*
X3326619Y-14889952D01*
X3317095Y-14899476D01*
X3307571Y-14889952D01*
X3317095Y-14880428D01*
X3317095Y-14899476D01*
X3507571Y-14699476D02*
X3412333Y-14699476D01*
X3402809Y-14794714D01*
X3412333Y-14785190D01*
X3431381Y-14775667D01*
X3479000Y-14775667D01*
X3498048Y-14785190D01*
X3507571Y-14794714D01*
X3517095Y-14813762D01*
X3517095Y-14861381D01*
X3507571Y-14880428D01*
X3498048Y-14889952D01*
X3479000Y-14899476D01*
X3431381Y-14899476D01*
X3412333Y-14889952D01*
X3402809Y-14880428D01*
X3640905Y-14699476D02*
X3659952Y-14699476D01*
X3679000Y-14709000D01*
X3688524Y-14718524D01*
X3698048Y-14737571D01*
X3707571Y-14775667D01*
X3707571Y-14823286D01*
X3698048Y-14861381D01*
X3688524Y-14880428D01*
X3679000Y-14889952D01*
X3659952Y-14899476D01*
X3640905Y-14899476D01*
X3621857Y-14889952D01*
X3612333Y-14880428D01*
X3602809Y-14861381D01*
X3593286Y-14823286D01*
X3593286Y-14775667D01*
X3602809Y-14737571D01*
X3612333Y-14718524D01*
X3621857Y-14709000D01*
X3640905Y-14699476D01*
X3831381Y-14699476D02*
X3850428Y-14699476D01*
X3869476Y-14709000D01*
X3879000Y-14718524D01*
X3888524Y-14737571D01*
X3898048Y-14775667D01*
X3898048Y-14823286D01*
X3888524Y-14861381D01*
X3879000Y-14880428D01*
X3869476Y-14889952D01*
X3850428Y-14899476D01*
X3831381Y-14899476D01*
X3812333Y-14889952D01*
X3802809Y-14880428D01*
X3793286Y-14861381D01*
X3783762Y-14823286D01*
X3783762Y-14775667D01*
X3793286Y-14737571D01*
X3802809Y-14718524D01*
X3812333Y-14709000D01*
X3831381Y-14699476D01*
X3983762Y-14899476D02*
X3983762Y-14766143D01*
X3983762Y-14785190D02*
X3993286Y-14775667D01*
X4012333Y-14766143D01*
X4040905Y-14766143D01*
X4059952Y-14775667D01*
X4069476Y-14794714D01*
X4069476Y-14899476D01*
X4069476Y-14794714D02*
X4079000Y-14775667D01*
X4098048Y-14766143D01*
X4126619Y-14766143D01*
X4145667Y-14775667D01*
X4155190Y-14794714D01*
X4155190Y-14899476D01*
X4250429Y-14899476D02*
X4250429Y-14766143D01*
X4250429Y-14785190D02*
X4259952Y-14775667D01*
X4279000Y-14766143D01*
X4307571Y-14766143D01*
X4326619Y-14775667D01*
X4336143Y-14794714D01*
X4336143Y-14899476D01*
X4336143Y-14794714D02*
X4345667Y-14775667D01*
X4364714Y-14766143D01*
X4393286Y-14766143D01*
X4412333Y-14775667D01*
X4421857Y-14794714D01*
X4421857Y-14899476D01*
X4812333Y-14689952D02*
X4640905Y-14947095D01*
X5069476Y-14699476D02*
X5088524Y-14699476D01*
X5107571Y-14709000D01*
X5117095Y-14718524D01*
X5126619Y-14737571D01*
X5136143Y-14775667D01*
X5136143Y-14823286D01*
X5126619Y-14861381D01*
X5117095Y-14880428D01*
X5107571Y-14889952D01*
X5088524Y-14899476D01*
X5069476Y-14899476D01*
X5050429Y-14889952D01*
X5040905Y-14880428D01*
X5031381Y-14861381D01*
X5021857Y-14823286D01*
X5021857Y-14775667D01*
X5031381Y-14737571D01*
X5040905Y-14718524D01*
X5050429Y-14709000D01*
X5069476Y-14699476D01*
X5221857Y-14880428D02*
X5231381Y-14889952D01*
X5221857Y-14899476D01*
X5212333Y-14889952D01*
X5221857Y-14880428D01*
X5221857Y-14899476D01*
X5355190Y-14699476D02*
X5374238Y-14699476D01*
X5393286Y-14709000D01*
X5402810Y-14718524D01*
X5412333Y-14737571D01*
X5421857Y-14775667D01*
X5421857Y-14823286D01*
X5412333Y-14861381D01*
X5402810Y-14880428D01*
X5393286Y-14889952D01*
X5374238Y-14899476D01*
X5355190Y-14899476D01*
X5336143Y-14889952D01*
X5326619Y-14880428D01*
X5317095Y-14861381D01*
X5307571Y-14823286D01*
X5307571Y-14775667D01*
X5317095Y-14737571D01*
X5326619Y-14718524D01*
X5336143Y-14709000D01*
X5355190Y-14699476D01*
X5602809Y-14699476D02*
X5507571Y-14699476D01*
X5498048Y-14794714D01*
X5507571Y-14785190D01*
X5526619Y-14775667D01*
X5574238Y-14775667D01*
X5593286Y-14785190D01*
X5602809Y-14794714D01*
X5612333Y-14813762D01*
X5612333Y-14861381D01*
X5602809Y-14880428D01*
X5593286Y-14889952D01*
X5574238Y-14899476D01*
X5526619Y-14899476D01*
X5507571Y-14889952D01*
X5498048Y-14880428D01*
X5707571Y-14899476D02*
X5745667Y-14899476D01*
X5764714Y-14889952D01*
X5774238Y-14880428D01*
X5793286Y-14851857D01*
X5802809Y-14813762D01*
X5802809Y-14737571D01*
X5793286Y-14718524D01*
X5783762Y-14709000D01*
X5764714Y-14699476D01*
X5726619Y-14699476D01*
X5707571Y-14709000D01*
X5698048Y-14718524D01*
X5688524Y-14737571D01*
X5688524Y-14785190D01*
X5698048Y-14804238D01*
X5707571Y-14813762D01*
X5726619Y-14823286D01*
X5764714Y-14823286D01*
X5783762Y-14813762D01*
X5793286Y-14804238D01*
X5802809Y-14785190D01*
X5993286Y-14899476D02*
X5879000Y-14899476D01*
X5936143Y-14899476D02*
X5936143Y-14699476D01*
X5917095Y-14728048D01*
X5898048Y-14747095D01*
X5879000Y-14756619D01*
X6069476Y-14699476D02*
X6069476Y-14737571D01*
X6145667Y-14699476D02*
X6145667Y-14737571D01*
X6440905Y-14975667D02*
X6431381Y-14966143D01*
X6412333Y-14937571D01*
X6402809Y-14918524D01*
X6393286Y-14889952D01*
X6383762Y-14842333D01*
X6383762Y-14804238D01*
X6393286Y-14756619D01*
X6402809Y-14728048D01*
X6412333Y-14709000D01*
X6431381Y-14680428D01*
X6440905Y-14670905D01*
X6507571Y-14718524D02*
X6517095Y-14709000D01*
X6536143Y-14699476D01*
X6583762Y-14699476D01*
X6602809Y-14709000D01*
X6612333Y-14718524D01*
X6621857Y-14737571D01*
X6621857Y-14756619D01*
X6612333Y-14785190D01*
X6498048Y-14899476D01*
X6621857Y-14899476D01*
X6859952Y-14899476D02*
X6859952Y-14699476D01*
X6945667Y-14899476D02*
X6945667Y-14794714D01*
X6936143Y-14775667D01*
X6917095Y-14766143D01*
X6888524Y-14766143D01*
X6869476Y-14775667D01*
X6859952Y-14785190D01*
X7069476Y-14899476D02*
X7050428Y-14889952D01*
X7040905Y-14880428D01*
X7031381Y-14861381D01*
X7031381Y-14804238D01*
X7040905Y-14785190D01*
X7050428Y-14775667D01*
X7069476Y-14766143D01*
X7098048Y-14766143D01*
X7117095Y-14775667D01*
X7126619Y-14785190D01*
X7136143Y-14804238D01*
X7136143Y-14861381D01*
X7126619Y-14880428D01*
X7117095Y-14889952D01*
X7098048Y-14899476D01*
X7069476Y-14899476D01*
X7250428Y-14899476D02*
X7231381Y-14889952D01*
X7221857Y-14870905D01*
X7221857Y-14699476D01*
X7402809Y-14889952D02*
X7383762Y-14899476D01*
X7345667Y-14899476D01*
X7326619Y-14889952D01*
X7317095Y-14870905D01*
X7317095Y-14794714D01*
X7326619Y-14775667D01*
X7345667Y-14766143D01*
X7383762Y-14766143D01*
X7402809Y-14775667D01*
X7412333Y-14794714D01*
X7412333Y-14813762D01*
X7317095Y-14832809D01*
X7488524Y-14889952D02*
X7507571Y-14899476D01*
X7545667Y-14899476D01*
X7564714Y-14889952D01*
X7574238Y-14870905D01*
X7574238Y-14861381D01*
X7564714Y-14842333D01*
X7545667Y-14832809D01*
X7517095Y-14832809D01*
X7498048Y-14823286D01*
X7488524Y-14804238D01*
X7488524Y-14794714D01*
X7498048Y-14775667D01*
X7517095Y-14766143D01*
X7545667Y-14766143D01*
X7564714Y-14775667D01*
X7640905Y-14975667D02*
X7650428Y-14966143D01*
X7669476Y-14937571D01*
X7679000Y-14918524D01*
X7688524Y-14889952D01*
X7698048Y-14842333D01*
X7698048Y-14804238D01*
X7688524Y-14756619D01*
X7679000Y-14728048D01*
X7669476Y-14709000D01*
X7650428Y-14680428D01*
X7640905Y-14670905D01*
X8002809Y-14975667D02*
X7993286Y-14966143D01*
X7974238Y-14937571D01*
X7964714Y-14918524D01*
X7955190Y-14889952D01*
X7945667Y-14842333D01*
X7945667Y-14804238D01*
X7955190Y-14756619D01*
X7964714Y-14728048D01*
X7974238Y-14709000D01*
X7993286Y-14680428D01*
X8002809Y-14670905D01*
X8079000Y-14766143D02*
X8079000Y-14899476D01*
X8079000Y-14785190D02*
X8088524Y-14775667D01*
X8107571Y-14766143D01*
X8136143Y-14766143D01*
X8155190Y-14775667D01*
X8164714Y-14794714D01*
X8164714Y-14899476D01*
X8288524Y-14899476D02*
X8269476Y-14889952D01*
X8259952Y-14880428D01*
X8250428Y-14861381D01*
X8250428Y-14804238D01*
X8259952Y-14785190D01*
X8269476Y-14775667D01*
X8288524Y-14766143D01*
X8317095Y-14766143D01*
X8336143Y-14775667D01*
X8345667Y-14785190D01*
X8355190Y-14804238D01*
X8355190Y-14861381D01*
X8345667Y-14880428D01*
X8336143Y-14889952D01*
X8317095Y-14899476D01*
X8288524Y-14899476D01*
X8412333Y-14766143D02*
X8488524Y-14766143D01*
X8440905Y-14699476D02*
X8440905Y-14870905D01*
X8450429Y-14889952D01*
X8469476Y-14899476D01*
X8488524Y-14899476D01*
X8707571Y-14766143D02*
X8707571Y-14966143D01*
X8707571Y-14775667D02*
X8726619Y-14766143D01*
X8764714Y-14766143D01*
X8783762Y-14775667D01*
X8793286Y-14785190D01*
X8802810Y-14804238D01*
X8802810Y-14861381D01*
X8793286Y-14880428D01*
X8783762Y-14889952D01*
X8764714Y-14899476D01*
X8726619Y-14899476D01*
X8707571Y-14889952D01*
X8917095Y-14899476D02*
X8898048Y-14889952D01*
X8888524Y-14870905D01*
X8888524Y-14699476D01*
X9079000Y-14899476D02*
X9079000Y-14794714D01*
X9069476Y-14775667D01*
X9050429Y-14766143D01*
X9012333Y-14766143D01*
X8993286Y-14775667D01*
X9079000Y-14889952D02*
X9059952Y-14899476D01*
X9012333Y-14899476D01*
X8993286Y-14889952D01*
X8983762Y-14870905D01*
X8983762Y-14851857D01*
X8993286Y-14832809D01*
X9012333Y-14823286D01*
X9059952Y-14823286D01*
X9079000Y-14813762D01*
X9145667Y-14766143D02*
X9221857Y-14766143D01*
X9174238Y-14699476D02*
X9174238Y-14870905D01*
X9183762Y-14889952D01*
X9202810Y-14899476D01*
X9221857Y-14899476D01*
X9364714Y-14889952D02*
X9345667Y-14899476D01*
X9307571Y-14899476D01*
X9288524Y-14889952D01*
X9279000Y-14870905D01*
X9279000Y-14794714D01*
X9288524Y-14775667D01*
X9307571Y-14766143D01*
X9345667Y-14766143D01*
X9364714Y-14775667D01*
X9374238Y-14794714D01*
X9374238Y-14813762D01*
X9279000Y-14832809D01*
X9545667Y-14899476D02*
X9545667Y-14699476D01*
X9545667Y-14889952D02*
X9526619Y-14899476D01*
X9488524Y-14899476D01*
X9469476Y-14889952D01*
X9459952Y-14880428D01*
X9450429Y-14861381D01*
X9450429Y-14804238D01*
X9459952Y-14785190D01*
X9469476Y-14775667D01*
X9488524Y-14766143D01*
X9526619Y-14766143D01*
X9545667Y-14775667D01*
X9621857Y-14975667D02*
X9631381Y-14966143D01*
X9650429Y-14937571D01*
X9659952Y-14918524D01*
X9669476Y-14889952D01*
X9679000Y-14842333D01*
X9679000Y-14804238D01*
X9669476Y-14756619D01*
X9659952Y-14728048D01*
X9650429Y-14709000D01*
X9631381Y-14680428D01*
X9621857Y-14670905D01*
D14*
X2842640Y-15142640D02*
X2842640Y-15015360D01*
X2715360Y-15015360D01*
X2715360Y-15142640D01*
X2842640Y-15142640D01*
D11*
X3231381Y-15169476D02*
X3117095Y-15169476D01*
X3174238Y-15169476D02*
X3174238Y-14969476D01*
X3155190Y-14998048D01*
X3136143Y-15017095D01*
X3117095Y-15026619D01*
X3317095Y-15150428D02*
X3326619Y-15159952D01*
X3317095Y-15169476D01*
X3307571Y-15159952D01*
X3317095Y-15150428D01*
X3317095Y-15169476D01*
X3440905Y-15055190D02*
X3421857Y-15045667D01*
X3412333Y-15036143D01*
X3402809Y-15017095D01*
X3402809Y-15007571D01*
X3412333Y-14988524D01*
X3421857Y-14979000D01*
X3440905Y-14969476D01*
X3479000Y-14969476D01*
X3498048Y-14979000D01*
X3507571Y-14988524D01*
X3517095Y-15007571D01*
X3517095Y-15017095D01*
X3507571Y-15036143D01*
X3498048Y-15045667D01*
X3479000Y-15055190D01*
X3440905Y-15055190D01*
X3421857Y-15064714D01*
X3412333Y-15074238D01*
X3402809Y-15093286D01*
X3402809Y-15131381D01*
X3412333Y-15150428D01*
X3421857Y-15159952D01*
X3440905Y-15169476D01*
X3479000Y-15169476D01*
X3498048Y-15159952D01*
X3507571Y-15150428D01*
X3517095Y-15131381D01*
X3517095Y-15093286D01*
X3507571Y-15074238D01*
X3498048Y-15064714D01*
X3479000Y-15055190D01*
X3640905Y-14969476D02*
X3659952Y-14969476D01*
X3679000Y-14979000D01*
X3688524Y-14988524D01*
X3698048Y-15007571D01*
X3707571Y-15045667D01*
X3707571Y-15093286D01*
X3698048Y-15131381D01*
X3688524Y-15150428D01*
X3679000Y-15159952D01*
X3659952Y-15169476D01*
X3640905Y-15169476D01*
X3621857Y-15159952D01*
X3612333Y-15150428D01*
X3602809Y-15131381D01*
X3593286Y-15093286D01*
X3593286Y-15045667D01*
X3602809Y-15007571D01*
X3612333Y-14988524D01*
X3621857Y-14979000D01*
X3640905Y-14969476D01*
X3831381Y-14969476D02*
X3850428Y-14969476D01*
X3869476Y-14979000D01*
X3879000Y-14988524D01*
X3888524Y-15007571D01*
X3898048Y-15045667D01*
X3898048Y-15093286D01*
X3888524Y-15131381D01*
X3879000Y-15150428D01*
X3869476Y-15159952D01*
X3850428Y-15169476D01*
X3831381Y-15169476D01*
X3812333Y-15159952D01*
X3802809Y-15150428D01*
X3793286Y-15131381D01*
X3783762Y-15093286D01*
X3783762Y-15045667D01*
X3793286Y-15007571D01*
X3802809Y-14988524D01*
X3812333Y-14979000D01*
X3831381Y-14969476D01*
X3983762Y-15169476D02*
X3983762Y-15036143D01*
X3983762Y-15055190D02*
X3993286Y-15045667D01*
X4012333Y-15036143D01*
X4040905Y-15036143D01*
X4059952Y-15045667D01*
X4069476Y-15064714D01*
X4069476Y-15169476D01*
X4069476Y-15064714D02*
X4079000Y-15045667D01*
X4098048Y-15036143D01*
X4126619Y-15036143D01*
X4145667Y-15045667D01*
X4155190Y-15064714D01*
X4155190Y-15169476D01*
X4250429Y-15169476D02*
X4250429Y-15036143D01*
X4250429Y-15055190D02*
X4259952Y-15045667D01*
X4279000Y-15036143D01*
X4307571Y-15036143D01*
X4326619Y-15045667D01*
X4336143Y-15064714D01*
X4336143Y-15169476D01*
X4336143Y-15064714D02*
X4345667Y-15045667D01*
X4364714Y-15036143D01*
X4393286Y-15036143D01*
X4412333Y-15045667D01*
X4421857Y-15064714D01*
X4421857Y-15169476D01*
X4812333Y-14959952D02*
X4640905Y-15217095D01*
X5069476Y-14969476D02*
X5088524Y-14969476D01*
X5107571Y-14979000D01*
X5117095Y-14988524D01*
X5126619Y-15007571D01*
X5136143Y-15045667D01*
X5136143Y-15093286D01*
X5126619Y-15131381D01*
X5117095Y-15150428D01*
X5107571Y-15159952D01*
X5088524Y-15169476D01*
X5069476Y-15169476D01*
X5050429Y-15159952D01*
X5040905Y-15150428D01*
X5031381Y-15131381D01*
X5021857Y-15093286D01*
X5021857Y-15045667D01*
X5031381Y-15007571D01*
X5040905Y-14988524D01*
X5050429Y-14979000D01*
X5069476Y-14969476D01*
X5221857Y-15150428D02*
X5231381Y-15159952D01*
X5221857Y-15169476D01*
X5212333Y-15159952D01*
X5221857Y-15150428D01*
X5221857Y-15169476D01*
X5355190Y-14969476D02*
X5374238Y-14969476D01*
X5393286Y-14979000D01*
X5402810Y-14988524D01*
X5412333Y-15007571D01*
X5421857Y-15045667D01*
X5421857Y-15093286D01*
X5412333Y-15131381D01*
X5402810Y-15150428D01*
X5393286Y-15159952D01*
X5374238Y-15169476D01*
X5355190Y-15169476D01*
X5336143Y-15159952D01*
X5326619Y-15150428D01*
X5317095Y-15131381D01*
X5307571Y-15093286D01*
X5307571Y-15045667D01*
X5317095Y-15007571D01*
X5326619Y-14988524D01*
X5336143Y-14979000D01*
X5355190Y-14969476D01*
X5488524Y-14969476D02*
X5621857Y-14969476D01*
X5536143Y-15169476D01*
X5736143Y-14969476D02*
X5755190Y-14969476D01*
X5774238Y-14979000D01*
X5783762Y-14988524D01*
X5793286Y-15007571D01*
X5802809Y-15045667D01*
X5802809Y-15093286D01*
X5793286Y-15131381D01*
X5783762Y-15150428D01*
X5774238Y-15159952D01*
X5755190Y-15169476D01*
X5736143Y-15169476D01*
X5717095Y-15159952D01*
X5707571Y-15150428D01*
X5698048Y-15131381D01*
X5688524Y-15093286D01*
X5688524Y-15045667D01*
X5698048Y-15007571D01*
X5707571Y-14988524D01*
X5717095Y-14979000D01*
X5736143Y-14969476D01*
X5898048Y-15169476D02*
X5936143Y-15169476D01*
X5955190Y-15159952D01*
X5964714Y-15150428D01*
X5983762Y-15121857D01*
X5993286Y-15083762D01*
X5993286Y-15007571D01*
X5983762Y-14988524D01*
X5974238Y-14979000D01*
X5955190Y-14969476D01*
X5917095Y-14969476D01*
X5898048Y-14979000D01*
X5888524Y-14988524D01*
X5879000Y-15007571D01*
X5879000Y-15055190D01*
X5888524Y-15074238D01*
X5898048Y-15083762D01*
X5917095Y-15093286D01*
X5955190Y-15093286D01*
X5974238Y-15083762D01*
X5983762Y-15074238D01*
X5993286Y-15055190D01*
X6069476Y-14969476D02*
X6069476Y-15007571D01*
X6145667Y-14969476D02*
X6145667Y-15007571D01*
X6440905Y-15245667D02*
X6431381Y-15236143D01*
X6412333Y-15207571D01*
X6402809Y-15188524D01*
X6393286Y-15159952D01*
X6383762Y-15112333D01*
X6383762Y-15074238D01*
X6393286Y-15026619D01*
X6402809Y-14998048D01*
X6412333Y-14979000D01*
X6431381Y-14950428D01*
X6440905Y-14940905D01*
X6507571Y-14988524D02*
X6517095Y-14979000D01*
X6536143Y-14969476D01*
X6583762Y-14969476D01*
X6602809Y-14979000D01*
X6612333Y-14988524D01*
X6621857Y-15007571D01*
X6621857Y-15026619D01*
X6612333Y-15055190D01*
X6498048Y-15169476D01*
X6621857Y-15169476D01*
X6859952Y-15169476D02*
X6859952Y-14969476D01*
X6945667Y-15169476D02*
X6945667Y-15064714D01*
X6936143Y-15045667D01*
X6917095Y-15036143D01*
X6888524Y-15036143D01*
X6869476Y-15045667D01*
X6859952Y-15055190D01*
X7069476Y-15169476D02*
X7050428Y-15159952D01*
X7040905Y-15150428D01*
X7031381Y-15131381D01*
X7031381Y-15074238D01*
X7040905Y-15055190D01*
X7050428Y-15045667D01*
X7069476Y-15036143D01*
X7098048Y-15036143D01*
X7117095Y-15045667D01*
X7126619Y-15055190D01*
X7136143Y-15074238D01*
X7136143Y-15131381D01*
X7126619Y-15150428D01*
X7117095Y-15159952D01*
X7098048Y-15169476D01*
X7069476Y-15169476D01*
X7250428Y-15169476D02*
X7231381Y-15159952D01*
X7221857Y-15140905D01*
X7221857Y-14969476D01*
X7402809Y-15159952D02*
X7383762Y-15169476D01*
X7345667Y-15169476D01*
X7326619Y-15159952D01*
X7317095Y-15140905D01*
X7317095Y-15064714D01*
X7326619Y-15045667D01*
X7345667Y-15036143D01*
X7383762Y-15036143D01*
X7402809Y-15045667D01*
X7412333Y-15064714D01*
X7412333Y-15083762D01*
X7317095Y-15102809D01*
X7488524Y-15159952D02*
X7507571Y-15169476D01*
X7545667Y-15169476D01*
X7564714Y-15159952D01*
X7574238Y-15140905D01*
X7574238Y-15131381D01*
X7564714Y-15112333D01*
X7545667Y-15102809D01*
X7517095Y-15102809D01*
X7498048Y-15093286D01*
X7488524Y-15074238D01*
X7488524Y-15064714D01*
X7498048Y-15045667D01*
X7517095Y-15036143D01*
X7545667Y-15036143D01*
X7564714Y-15045667D01*
X7640905Y-15245667D02*
X7650428Y-15236143D01*
X7669476Y-15207571D01*
X7679000Y-15188524D01*
X7688524Y-15159952D01*
X7698048Y-15112333D01*
X7698048Y-15074238D01*
X7688524Y-15026619D01*
X7679000Y-14998048D01*
X7669476Y-14979000D01*
X7650428Y-14950428D01*
X7640905Y-14940905D01*
X8002809Y-15245667D02*
X7993286Y-15236143D01*
X7974238Y-15207571D01*
X7964714Y-15188524D01*
X7955190Y-15159952D01*
X7945667Y-15112333D01*
X7945667Y-15074238D01*
X7955190Y-15026619D01*
X7964714Y-14998048D01*
X7974238Y-14979000D01*
X7993286Y-14950428D01*
X8002809Y-14940905D01*
X8079000Y-15036143D02*
X8079000Y-15169476D01*
X8079000Y-15055190D02*
X8088524Y-15045667D01*
X8107571Y-15036143D01*
X8136143Y-15036143D01*
X8155190Y-15045667D01*
X8164714Y-15064714D01*
X8164714Y-15169476D01*
X8288524Y-15169476D02*
X8269476Y-15159952D01*
X8259952Y-15150428D01*
X8250428Y-15131381D01*
X8250428Y-15074238D01*
X8259952Y-15055190D01*
X8269476Y-15045667D01*
X8288524Y-15036143D01*
X8317095Y-15036143D01*
X8336143Y-15045667D01*
X8345667Y-15055190D01*
X8355190Y-15074238D01*
X8355190Y-15131381D01*
X8345667Y-15150428D01*
X8336143Y-15159952D01*
X8317095Y-15169476D01*
X8288524Y-15169476D01*
X8412333Y-15036143D02*
X8488524Y-15036143D01*
X8440905Y-14969476D02*
X8440905Y-15140905D01*
X8450429Y-15159952D01*
X8469476Y-15169476D01*
X8488524Y-15169476D01*
X8707571Y-15036143D02*
X8707571Y-15236143D01*
X8707571Y-15045667D02*
X8726619Y-15036143D01*
X8764714Y-15036143D01*
X8783762Y-15045667D01*
X8793286Y-15055190D01*
X8802810Y-15074238D01*
X8802810Y-15131381D01*
X8793286Y-15150428D01*
X8783762Y-15159952D01*
X8764714Y-15169476D01*
X8726619Y-15169476D01*
X8707571Y-15159952D01*
X8917095Y-15169476D02*
X8898048Y-15159952D01*
X8888524Y-15140905D01*
X8888524Y-14969476D01*
X9079000Y-15169476D02*
X9079000Y-15064714D01*
X9069476Y-15045667D01*
X9050429Y-15036143D01*
X9012333Y-15036143D01*
X8993286Y-15045667D01*
X9079000Y-15159952D02*
X9059952Y-15169476D01*
X9012333Y-15169476D01*
X8993286Y-15159952D01*
X8983762Y-15140905D01*
X8983762Y-15121857D01*
X8993286Y-15102809D01*
X9012333Y-15093286D01*
X9059952Y-15093286D01*
X9079000Y-15083762D01*
X9145667Y-15036143D02*
X9221857Y-15036143D01*
X9174238Y-14969476D02*
X9174238Y-15140905D01*
X9183762Y-15159952D01*
X9202810Y-15169476D01*
X9221857Y-15169476D01*
X9364714Y-15159952D02*
X9345667Y-15169476D01*
X9307571Y-15169476D01*
X9288524Y-15159952D01*
X9279000Y-15140905D01*
X9279000Y-15064714D01*
X9288524Y-15045667D01*
X9307571Y-15036143D01*
X9345667Y-15036143D01*
X9364714Y-15045667D01*
X9374238Y-15064714D01*
X9374238Y-15083762D01*
X9279000Y-15102809D01*
X9545667Y-15169476D02*
X9545667Y-14969476D01*
X9545667Y-15159952D02*
X9526619Y-15169476D01*
X9488524Y-15169476D01*
X9469476Y-15159952D01*
X9459952Y-15150428D01*
X9450429Y-15131381D01*
X9450429Y-15074238D01*
X9459952Y-15055190D01*
X9469476Y-15045667D01*
X9488524Y-15036143D01*
X9526619Y-15036143D01*
X9545667Y-15045667D01*
X9621857Y-15245667D02*
X9631381Y-15236143D01*
X9650429Y-15207571D01*
X9659952Y-15188524D01*
X9669476Y-15159952D01*
X9679000Y-15112333D01*
X9679000Y-15074238D01*
X9669476Y-15026619D01*
X9659952Y-14998048D01*
X9650429Y-14979000D01*
X9631381Y-14950428D01*
X9621857Y-14940905D01*
X2769000Y-15479000D02*
X2869000Y-15379000D01*
X2769000Y-15279000D01*
X2669000Y-15379000D01*
X2769000Y-15479000D01*
X3117095Y-15288524D02*
X3126619Y-15279000D01*
X3145667Y-15269476D01*
X3193286Y-15269476D01*
X3212333Y-15279000D01*
X3221857Y-15288524D01*
X3231381Y-15307571D01*
X3231381Y-15326619D01*
X3221857Y-15355190D01*
X3107571Y-15469476D01*
X3231381Y-15469476D01*
X3317095Y-15450428D02*
X3326619Y-15459952D01*
X3317095Y-15469476D01*
X3307571Y-15459952D01*
X3317095Y-15450428D01*
X3317095Y-15469476D01*
X3393286Y-15269476D02*
X3526619Y-15269476D01*
X3440905Y-15469476D01*
X3640905Y-15269476D02*
X3659952Y-15269476D01*
X3679000Y-15279000D01*
X3688524Y-15288524D01*
X3698048Y-15307571D01*
X3707571Y-15345667D01*
X3707571Y-15393286D01*
X3698048Y-15431381D01*
X3688524Y-15450428D01*
X3679000Y-15459952D01*
X3659952Y-15469476D01*
X3640905Y-15469476D01*
X3621857Y-15459952D01*
X3612333Y-15450428D01*
X3602809Y-15431381D01*
X3593286Y-15393286D01*
X3593286Y-15345667D01*
X3602809Y-15307571D01*
X3612333Y-15288524D01*
X3621857Y-15279000D01*
X3640905Y-15269476D01*
X3831381Y-15269476D02*
X3850428Y-15269476D01*
X3869476Y-15279000D01*
X3879000Y-15288524D01*
X3888524Y-15307571D01*
X3898048Y-15345667D01*
X3898048Y-15393286D01*
X3888524Y-15431381D01*
X3879000Y-15450428D01*
X3869476Y-15459952D01*
X3850428Y-15469476D01*
X3831381Y-15469476D01*
X3812333Y-15459952D01*
X3802809Y-15450428D01*
X3793286Y-15431381D01*
X3783762Y-15393286D01*
X3783762Y-15345667D01*
X3793286Y-15307571D01*
X3802809Y-15288524D01*
X3812333Y-15279000D01*
X3831381Y-15269476D01*
X3983762Y-15469476D02*
X3983762Y-15336143D01*
X3983762Y-15355190D02*
X3993286Y-15345667D01*
X4012333Y-15336143D01*
X4040905Y-15336143D01*
X4059952Y-15345667D01*
X4069476Y-15364714D01*
X4069476Y-15469476D01*
X4069476Y-15364714D02*
X4079000Y-15345667D01*
X4098048Y-15336143D01*
X4126619Y-15336143D01*
X4145667Y-15345667D01*
X4155190Y-15364714D01*
X4155190Y-15469476D01*
X4250429Y-15469476D02*
X4250429Y-15336143D01*
X4250429Y-15355190D02*
X4259952Y-15345667D01*
X4279000Y-15336143D01*
X4307571Y-15336143D01*
X4326619Y-15345667D01*
X4336143Y-15364714D01*
X4336143Y-15469476D01*
X4336143Y-15364714D02*
X4345667Y-15345667D01*
X4364714Y-15336143D01*
X4393286Y-15336143D01*
X4412333Y-15345667D01*
X4421857Y-15364714D01*
X4421857Y-15469476D01*
X4812333Y-15259952D02*
X4640905Y-15517095D01*
X5069476Y-15269476D02*
X5088524Y-15269476D01*
X5107571Y-15279000D01*
X5117095Y-15288524D01*
X5126619Y-15307571D01*
X5136143Y-15345667D01*
X5136143Y-15393286D01*
X5126619Y-15431381D01*
X5117095Y-15450428D01*
X5107571Y-15459952D01*
X5088524Y-15469476D01*
X5069476Y-15469476D01*
X5050429Y-15459952D01*
X5040905Y-15450428D01*
X5031381Y-15431381D01*
X5021857Y-15393286D01*
X5021857Y-15345667D01*
X5031381Y-15307571D01*
X5040905Y-15288524D01*
X5050429Y-15279000D01*
X5069476Y-15269476D01*
X5221857Y-15450428D02*
X5231381Y-15459952D01*
X5221857Y-15469476D01*
X5212333Y-15459952D01*
X5221857Y-15450428D01*
X5221857Y-15469476D01*
X5421857Y-15469476D02*
X5307571Y-15469476D01*
X5364714Y-15469476D02*
X5364714Y-15269476D01*
X5345667Y-15298048D01*
X5326619Y-15317095D01*
X5307571Y-15326619D01*
X5545667Y-15269476D02*
X5564714Y-15269476D01*
X5583762Y-15279000D01*
X5593286Y-15288524D01*
X5602809Y-15307571D01*
X5612333Y-15345667D01*
X5612333Y-15393286D01*
X5602809Y-15431381D01*
X5593286Y-15450428D01*
X5583762Y-15459952D01*
X5564714Y-15469476D01*
X5545667Y-15469476D01*
X5526619Y-15459952D01*
X5517095Y-15450428D01*
X5507571Y-15431381D01*
X5498048Y-15393286D01*
X5498048Y-15345667D01*
X5507571Y-15307571D01*
X5517095Y-15288524D01*
X5526619Y-15279000D01*
X5545667Y-15269476D01*
X5783762Y-15269476D02*
X5745667Y-15269476D01*
X5726619Y-15279000D01*
X5717095Y-15288524D01*
X5698048Y-15317095D01*
X5688524Y-15355190D01*
X5688524Y-15431381D01*
X5698048Y-15450428D01*
X5707571Y-15459952D01*
X5726619Y-15469476D01*
X5764714Y-15469476D01*
X5783762Y-15459952D01*
X5793286Y-15450428D01*
X5802809Y-15431381D01*
X5802809Y-15383762D01*
X5793286Y-15364714D01*
X5783762Y-15355190D01*
X5764714Y-15345667D01*
X5726619Y-15345667D01*
X5707571Y-15355190D01*
X5698048Y-15364714D01*
X5688524Y-15383762D01*
X5869476Y-15269476D02*
X5993286Y-15269476D01*
X5926619Y-15345667D01*
X5955190Y-15345667D01*
X5974238Y-15355190D01*
X5983762Y-15364714D01*
X5993286Y-15383762D01*
X5993286Y-15431381D01*
X5983762Y-15450428D01*
X5974238Y-15459952D01*
X5955190Y-15469476D01*
X5898048Y-15469476D01*
X5879000Y-15459952D01*
X5869476Y-15450428D01*
X6069476Y-15269476D02*
X6069476Y-15307571D01*
X6145667Y-15269476D02*
X6145667Y-15307571D01*
X6440905Y-15545667D02*
X6431381Y-15536143D01*
X6412333Y-15507571D01*
X6402809Y-15488524D01*
X6393286Y-15459952D01*
X6383762Y-15412333D01*
X6383762Y-15374238D01*
X6393286Y-15326619D01*
X6402809Y-15298048D01*
X6412333Y-15279000D01*
X6431381Y-15250428D01*
X6440905Y-15240905D01*
X6507571Y-15288524D02*
X6517095Y-15279000D01*
X6536143Y-15269476D01*
X6583762Y-15269476D01*
X6602809Y-15279000D01*
X6612333Y-15288524D01*
X6621857Y-15307571D01*
X6621857Y-15326619D01*
X6612333Y-15355190D01*
X6498048Y-15469476D01*
X6621857Y-15469476D01*
X6859952Y-15469476D02*
X6859952Y-15269476D01*
X6945667Y-15469476D02*
X6945667Y-15364714D01*
X6936143Y-15345667D01*
X6917095Y-15336143D01*
X6888524Y-15336143D01*
X6869476Y-15345667D01*
X6859952Y-15355190D01*
X7069476Y-15469476D02*
X7050428Y-15459952D01*
X7040905Y-15450428D01*
X7031381Y-15431381D01*
X7031381Y-15374238D01*
X7040905Y-15355190D01*
X7050428Y-15345667D01*
X7069476Y-15336143D01*
X7098048Y-15336143D01*
X7117095Y-15345667D01*
X7126619Y-15355190D01*
X7136143Y-15374238D01*
X7136143Y-15431381D01*
X7126619Y-15450428D01*
X7117095Y-15459952D01*
X7098048Y-15469476D01*
X7069476Y-15469476D01*
X7250428Y-15469476D02*
X7231381Y-15459952D01*
X7221857Y-15440905D01*
X7221857Y-15269476D01*
X7402809Y-15459952D02*
X7383762Y-15469476D01*
X7345667Y-15469476D01*
X7326619Y-15459952D01*
X7317095Y-15440905D01*
X7317095Y-15364714D01*
X7326619Y-15345667D01*
X7345667Y-15336143D01*
X7383762Y-15336143D01*
X7402809Y-15345667D01*
X7412333Y-15364714D01*
X7412333Y-15383762D01*
X7317095Y-15402809D01*
X7488524Y-15459952D02*
X7507571Y-15469476D01*
X7545667Y-15469476D01*
X7564714Y-15459952D01*
X7574238Y-15440905D01*
X7574238Y-15431381D01*
X7564714Y-15412333D01*
X7545667Y-15402809D01*
X7517095Y-15402809D01*
X7498048Y-15393286D01*
X7488524Y-15374238D01*
X7488524Y-15364714D01*
X7498048Y-15345667D01*
X7517095Y-15336143D01*
X7545667Y-15336143D01*
X7564714Y-15345667D01*
X7640905Y-15545667D02*
X7650428Y-15536143D01*
X7669476Y-15507571D01*
X7679000Y-15488524D01*
X7688524Y-15459952D01*
X7698048Y-15412333D01*
X7698048Y-15374238D01*
X7688524Y-15326619D01*
X7679000Y-15298048D01*
X7669476Y-15279000D01*
X7650428Y-15250428D01*
X7640905Y-15240905D01*
X8002809Y-15545667D02*
X7993286Y-15536143D01*
X7974238Y-15507571D01*
X7964714Y-15488524D01*
X7955190Y-15459952D01*
X7945667Y-15412333D01*
X7945667Y-15374238D01*
X7955190Y-15326619D01*
X7964714Y-15298048D01*
X7974238Y-15279000D01*
X7993286Y-15250428D01*
X8002809Y-15240905D01*
X8079000Y-15336143D02*
X8079000Y-15469476D01*
X8079000Y-15355190D02*
X8088524Y-15345667D01*
X8107571Y-15336143D01*
X8136143Y-15336143D01*
X8155190Y-15345667D01*
X8164714Y-15364714D01*
X8164714Y-15469476D01*
X8288524Y-15469476D02*
X8269476Y-15459952D01*
X8259952Y-15450428D01*
X8250428Y-15431381D01*
X8250428Y-15374238D01*
X8259952Y-15355190D01*
X8269476Y-15345667D01*
X8288524Y-15336143D01*
X8317095Y-15336143D01*
X8336143Y-15345667D01*
X8345667Y-15355190D01*
X8355190Y-15374238D01*
X8355190Y-15431381D01*
X8345667Y-15450428D01*
X8336143Y-15459952D01*
X8317095Y-15469476D01*
X8288524Y-15469476D01*
X8412333Y-15336143D02*
X8488524Y-15336143D01*
X8440905Y-15269476D02*
X8440905Y-15440905D01*
X8450429Y-15459952D01*
X8469476Y-15469476D01*
X8488524Y-15469476D01*
X8707571Y-15336143D02*
X8707571Y-15536143D01*
X8707571Y-15345667D02*
X8726619Y-15336143D01*
X8764714Y-15336143D01*
X8783762Y-15345667D01*
X8793286Y-15355190D01*
X8802810Y-15374238D01*
X8802810Y-15431381D01*
X8793286Y-15450428D01*
X8783762Y-15459952D01*
X8764714Y-15469476D01*
X8726619Y-15469476D01*
X8707571Y-15459952D01*
X8917095Y-15469476D02*
X8898048Y-15459952D01*
X8888524Y-15440905D01*
X8888524Y-15269476D01*
X9079000Y-15469476D02*
X9079000Y-15364714D01*
X9069476Y-15345667D01*
X9050429Y-15336143D01*
X9012333Y-15336143D01*
X8993286Y-15345667D01*
X9079000Y-15459952D02*
X9059952Y-15469476D01*
X9012333Y-15469476D01*
X8993286Y-15459952D01*
X8983762Y-15440905D01*
X8983762Y-15421857D01*
X8993286Y-15402809D01*
X9012333Y-15393286D01*
X9059952Y-15393286D01*
X9079000Y-15383762D01*
X9145667Y-15336143D02*
X9221857Y-15336143D01*
X9174238Y-15269476D02*
X9174238Y-15440905D01*
X9183762Y-15459952D01*
X9202810Y-15469476D01*
X9221857Y-15469476D01*
X9364714Y-15459952D02*
X9345667Y-15469476D01*
X9307571Y-15469476D01*
X9288524Y-15459952D01*
X9279000Y-15440905D01*
X9279000Y-15364714D01*
X9288524Y-15345667D01*
X9307571Y-15336143D01*
X9345667Y-15336143D01*
X9364714Y-15345667D01*
X9374238Y-15364714D01*
X9374238Y-15383762D01*
X9279000Y-15402809D01*
X9545667Y-15469476D02*
X9545667Y-15269476D01*
X9545667Y-15459952D02*
X9526619Y-15469476D01*
X9488524Y-15469476D01*
X9469476Y-15459952D01*
X9459952Y-15450428D01*
X9450429Y-15431381D01*
X9450429Y-15374238D01*
X9459952Y-15355190D01*
X9469476Y-15345667D01*
X9488524Y-15336143D01*
X9526619Y-15336143D01*
X9545667Y-15345667D01*
X9621857Y-15545667D02*
X9631381Y-15536143D01*
X9650429Y-15507571D01*
X9659952Y-15488524D01*
X9669476Y-15459952D01*
X9679000Y-15412333D01*
X9679000Y-15374238D01*
X9669476Y-15326619D01*
X9659952Y-15298048D01*
X9650429Y-15279000D01*
X9631381Y-15250428D01*
X9621857Y-15240905D01*
M02*
